<svg width="2374" height="680" viewBox="0 0 2374 680" fill="none" xmlns="http://www.w3.org/2000/svg">
<rect width="2374" height="680" fill="#112656"/>
<path d="M415.176 339.941H429.882V354.647H415.176V339.941ZM415.176 325.235H429.882V339.941H415.176V325.235ZM415.176 310.529H429.882V325.235H415.176V310.529ZM415.176 295.824H429.882V310.529H415.176V295.824ZM415.176 281.118H429.882V295.824H415.176V281.118ZM415.176 266.412H429.882V281.118H415.176V266.412ZM415.176 251.706H429.882V266.412H415.176V251.706ZM415.176 237H429.882V251.706H415.176V237ZM400.471 237H415.176V251.706H400.471V237ZM400.471 222.294H415.176V237H400.471V222.294ZM400.471 207.588H415.176V222.294H400.471V207.588ZM385.765 207.588H400.471V222.294H385.765V207.588ZM385.765 222.294H400.471V237H385.765V222.294ZM385.765 237H400.471V251.706H385.765V237ZM385.765 251.706H400.471V266.412H385.765V251.706ZM385.765 266.412H400.471V281.118H385.765V266.412ZM385.765 281.118H400.471V295.824H385.765V281.118ZM385.765 295.824H400.471V310.529H385.765V295.824ZM385.765 310.529H400.471V325.235H385.765V310.529ZM385.765 325.235H400.471V339.941H385.765V325.235ZM385.765 339.941H400.471V354.647H385.765V339.941ZM385.765 354.647H400.471V369.353H385.765V354.647ZM385.765 369.353H400.471V384.059H385.765V369.353ZM400.471 369.353H415.176V384.059H400.471V369.353ZM400.471 354.647H415.176V369.353H400.471V354.647ZM400.471 339.941H415.176V354.647H400.471V339.941ZM400.471 325.235H415.176V339.941H400.471V325.235ZM400.471 310.529H415.176V325.235H400.471V310.529ZM400.471 295.824H415.176V310.529H400.471V295.824ZM400.471 281.118H415.176V295.824H400.471V281.118ZM400.471 266.412H415.176V281.118H400.471V266.412ZM400.471 251.706H415.176V266.412H400.471V251.706ZM371.059 251.706H385.765V266.412H371.059V251.706ZM356.353 251.706H371.059V266.412H356.353V251.706ZM371.059 237H385.765V251.706H371.059V237ZM356.353 237H371.059V251.706H356.353V237ZM341.647 237H356.353V251.706H341.647V237ZM326.941 237H341.647V251.706H326.941V237ZM312.235 237H326.941V251.706H312.235V237ZM297.529 237H312.235V251.706H297.529V237ZM282.824 237H297.529V251.706H282.824V237ZM282.824 251.706H297.529V266.412H282.824V251.706ZM282.824 266.412H297.529V281.118H282.824V266.412ZM282.824 281.118H297.529V295.824H282.824V281.118ZM282.824 295.824H297.529V310.529H282.824V295.824ZM282.824 310.529H297.529V325.235H282.824V310.529ZM282.824 325.235H297.529V339.941H282.824V325.235ZM282.824 339.941H297.529V354.647H282.824V339.941ZM297.529 339.941H312.235V354.647H297.529V339.941ZM297.529 354.647H312.235V369.353H297.529V354.647ZM312.235 354.647H326.941V369.353H312.235V354.647ZM326.941 354.647H341.647V369.353H326.941V354.647ZM341.647 354.647H356.353V369.353H341.647V354.647ZM356.353 354.647H371.059V369.353H356.353V354.647ZM356.353 339.941H371.059V354.647H356.353V339.941ZM341.647 339.941H356.353V354.647H341.647V339.941ZM326.941 339.941H341.647V354.647H326.941V339.941ZM312.235 339.941H326.941V354.647H312.235V339.941ZM371.059 339.941H385.765V354.647H371.059V339.941ZM371.059 325.235H385.765V339.941H371.059V325.235ZM356.353 325.235H371.059V339.941H356.353V325.235ZM371.059 310.529H385.765V325.235H371.059V310.529ZM371.059 266.412H385.765V281.118H371.059V266.412ZM371.059 281.118H385.765V295.824H371.059V281.118ZM371.059 295.824H385.765V310.529H371.059V295.824ZM371.059 354.647H385.765V369.353H371.059V354.647ZM371.059 369.353H385.765V384.059H371.059V369.353ZM371.059 384.059H385.765V398.765H371.059V384.059ZM356.353 384.059H371.059V398.765H356.353V384.059ZM341.647 384.059H356.353V398.765H341.647V384.059ZM326.941 384.059H341.647V398.765H326.941V384.059ZM312.235 384.059H326.941V398.765H312.235V384.059ZM312.235 369.353H326.941V384.059H312.235V369.353ZM297.529 369.353H312.235V384.059H297.529V369.353ZM297.529 384.059H312.235V398.765H297.529V384.059ZM326.941 369.353H341.647V384.059H326.941V369.353ZM341.647 369.353H356.353V384.059H341.647V369.353ZM356.353 369.353H371.059V384.059H356.353V369.353ZM371.059 192.882H385.765V207.588H371.059V192.882ZM371.059 207.588H385.765V222.294H371.059V207.588ZM371.059 222.294H385.765V237H371.059V222.294ZM356.353 222.294H371.059V237H356.353V222.294ZM356.353 207.588H371.059V222.294H356.353V207.588ZM356.353 192.882H371.059V207.588H356.353V192.882ZM341.647 192.882H356.353V207.588H341.647V192.882ZM326.941 192.882H341.647V207.588H326.941V192.882ZM312.235 192.882H326.941V207.588H312.235V192.882ZM297.529 192.882H312.235V207.588H297.529V192.882ZM282.824 192.882H297.529V207.588H282.824V192.882ZM268.118 192.882H282.824V207.588H268.118V192.882ZM253.412 192.882H268.118V207.588H253.412V192.882ZM238.706 192.882H253.412V207.588H238.706V192.882ZM238.706 207.588H253.412V222.294H238.706V207.588ZM238.706 222.294H253.412V237H238.706V222.294ZM238.706 237H253.412V251.706H238.706V237ZM253.412 237H268.118V251.706H253.412V237ZM253.412 222.294H268.118V237H253.412V222.294ZM268.118 222.294H282.824V237H268.118V222.294ZM282.824 222.294H297.529V237H282.824V222.294ZM297.529 222.294H312.235V237H297.529V222.294ZM312.235 222.294H326.941V237H312.235V222.294ZM326.941 222.294H341.647V237H326.941V222.294ZM341.647 222.294H356.353V237H341.647V222.294ZM341.647 207.588H356.353V222.294H341.647V207.588ZM326.941 207.588H341.647V222.294H326.941V207.588ZM312.235 207.588H326.941V222.294H312.235V207.588ZM297.529 207.588H312.235V222.294H297.529V207.588ZM282.824 207.588H297.529V222.294H282.824V207.588ZM268.118 207.588H282.824V222.294H268.118V207.588ZM253.412 251.706H268.118V266.412H253.412V251.706ZM253.412 266.412H268.118V281.118H253.412V266.412ZM253.412 207.588H268.118V222.294H253.412V207.588ZM268.118 237H282.824V251.706H268.118V237ZM268.118 251.706H282.824V266.412H268.118V251.706ZM268.118 266.412H282.824V281.118H268.118V266.412ZM268.118 281.118H282.824V295.824H268.118V281.118ZM268.118 295.824H282.824V310.529H268.118V295.824ZM268.118 310.529H282.824V325.235H268.118V310.529ZM268.118 325.235H282.824V339.941H268.118V325.235ZM268.118 339.941H282.824V354.647H268.118V339.941ZM253.412 339.941H268.118V354.647H253.412V339.941ZM253.412 325.235H268.118V339.941H253.412V325.235ZM253.412 310.529H268.118V325.235H253.412V310.529ZM253.412 295.824H268.118V310.529H253.412V295.824ZM238.706 281.118H253.412V295.824H238.706V281.118ZM238.706 266.412H253.412V281.118H238.706V266.412ZM238.706 251.706H253.412V266.412H238.706V251.706ZM238.706 295.824H253.412V310.529H238.706V295.824ZM238.706 310.529H253.412V325.235H238.706V310.529ZM253.412 281.118H268.118V295.824H253.412V281.118ZM238.706 325.235H253.412V339.941H238.706V325.235ZM238.706 339.941H253.412V354.647H238.706V339.941ZM238.706 354.647H253.412V369.353H238.706V354.647ZM238.706 369.353H253.412V384.059H238.706V369.353ZM253.412 369.353H268.118V384.059H253.412V369.353ZM268.118 369.353H282.824V384.059H268.118V369.353ZM282.824 369.353H297.529V384.059H282.824V369.353ZM282.824 384.059H297.529V398.765H282.824V384.059ZM268.118 384.059H282.824V398.765H268.118V384.059ZM253.412 384.059H268.118V398.765H253.412V384.059ZM238.706 384.059H253.412V398.765H238.706V384.059ZM253.412 354.647H268.118V369.353H253.412V354.647ZM268.118 354.647H282.824V369.353H268.118V354.647ZM282.824 354.647H297.529V369.353H282.824V354.647ZM238.706 398.765H253.412V413.471H238.706V398.765ZM238.706 413.471H253.412V428.176H238.706V413.471ZM238.706 428.176H253.412V442.882H238.706V428.176ZM238.706 442.882H253.412V457.588H238.706V442.882ZM238.706 457.588H253.412V472.294H238.706V457.588ZM238.706 472.294H253.412V487H238.706V472.294ZM253.412 472.294H268.118V487H253.412V472.294ZM268.118 472.294H282.824V487H268.118V472.294ZM282.824 472.294H297.529V487H282.824V472.294ZM282.824 457.588H297.529V472.294H282.824V457.588ZM282.824 442.882H297.529V457.588H282.824V442.882ZM282.824 428.176H297.529V442.882H282.824V428.176ZM282.824 413.471H297.529V428.176H282.824V413.471ZM282.824 398.765H297.529V413.471H282.824V398.765ZM268.118 398.765H282.824V413.471H268.118V398.765ZM253.412 398.765H268.118V413.471H253.412V398.765ZM253.412 413.471H268.118V428.176H253.412V413.471ZM253.412 428.176H268.118V442.882H253.412V428.176ZM253.412 442.882H268.118V457.588H253.412V442.882ZM253.412 457.588H268.118V472.294H253.412V457.588ZM268.118 457.588H282.824V472.294H268.118V457.588ZM268.118 442.882H282.824V457.588H268.118V442.882ZM268.118 428.176H282.824V442.882H268.118V428.176ZM268.118 413.471H282.824V428.176H268.118V413.471ZM650.528 428.176H665.234V442.882H650.528V428.176ZM635.822 428.176H650.528V442.882H635.822V428.176ZM621.116 428.176H635.822V442.882H621.116V428.176ZM621.116 442.882H635.822V457.588H621.116V442.882ZM635.822 442.882H650.528V457.588H635.822V442.882ZM621.116 457.588H635.822V472.294H621.116V457.588ZM606.41 457.588H621.116V472.294H606.41V457.588ZM635.822 457.588H650.528V472.294H635.822V457.588ZM606.41 472.294H621.116V487H606.41V472.294ZM591.704 472.294H606.41V487H591.704V472.294ZM576.999 472.294H591.704V487H576.999V472.294ZM562.293 472.294H576.999V487H562.293V472.294ZM547.587 472.294H562.293V487H547.587V472.294ZM532.881 472.294H547.587V487H532.881V472.294ZM518.175 472.294H532.881V487H518.175V472.294ZM518.175 457.588H532.881V472.294H518.175V457.588ZM503.469 457.588H518.175V472.294H503.469V457.588ZM488.763 457.588H503.469V472.294H488.763V457.588ZM488.763 442.882H503.469V457.588H488.763V442.882ZM503.469 442.882H518.175V457.588H503.469V442.882ZM518.175 442.882H532.881V457.588H518.175V442.882ZM532.881 442.882H547.587V457.588H532.881V442.882ZM547.587 442.882H562.293V457.588H547.587V442.882ZM562.293 442.882H576.999V457.588H562.293V442.882ZM576.999 442.882H591.704V457.588H576.999V442.882ZM591.704 442.882H606.41V457.588H591.704V442.882ZM606.41 442.882H621.116V457.588H606.41V442.882ZM591.704 457.588H606.41V472.294H591.704V457.588ZM576.999 457.588H591.704V472.294H576.999V457.588ZM562.293 457.588H576.999V472.294H562.293V457.588ZM547.587 457.588H562.293V472.294H547.587V457.588ZM532.881 457.588H547.587V472.294H532.881V457.588ZM503.469 428.176H518.175V442.882H503.469V428.176ZM488.763 428.176H503.469V442.882H488.763V428.176ZM474.057 428.176H488.763V442.882H474.057V428.176ZM503.469 413.471H518.175V428.176H503.469V413.471ZM518.175 413.471H532.881V428.176H518.175V413.471ZM532.881 428.176H547.587V442.882H532.881V428.176ZM518.175 428.176H532.881V442.882H518.175V428.176ZM488.763 413.471H503.469V428.176H488.763V413.471ZM488.763 398.765H503.469V413.471H488.763V398.765ZM474.057 398.765H488.763V413.471H474.057V398.765ZM474.057 384.059H488.763V398.765H474.057V384.059ZM474.057 413.471H488.763V428.176H474.057V413.471ZM474.057 369.353H488.763V384.059H474.057V369.353ZM488.763 369.353H503.469V384.059H488.763V369.353ZM503.469 369.353H518.175V384.059H503.469V369.353ZM518.175 369.353H532.881V384.059H518.175V369.353ZM518.175 384.059H532.881V398.765H518.175V384.059ZM518.175 398.765H532.881V413.471H518.175V398.765ZM503.469 384.059H518.175V398.765H503.469V384.059ZM488.763 384.059H503.469V398.765H488.763V384.059ZM503.469 398.765H518.175V413.471H503.469V398.765ZM547.587 428.176H562.293V442.882H547.587V428.176ZM562.293 428.176H576.999V442.882H562.293V428.176ZM576.999 428.176H591.704V442.882H576.999V428.176ZM591.704 428.176H606.41V442.882H591.704V428.176ZM606.41 428.176H621.116V442.882H606.41V428.176ZM606.41 413.471H621.116V428.176H606.41V413.471ZM591.704 413.471H606.41V428.176H591.704V413.471ZM621.116 413.471H635.822V428.176H621.116V413.471ZM635.822 413.471H650.528V428.176H635.822V413.471ZM635.822 398.765H650.528V413.471H635.822V398.765ZM650.528 398.765H665.234V413.471H650.528V398.765ZM650.528 384.059H665.234V398.765H650.528V384.059ZM650.528 413.471H665.234V428.176H650.528V413.471ZM650.528 369.353H665.234V384.059H650.528V369.353ZM650.528 354.647H665.234V369.353H650.528V354.647ZM650.528 339.941H665.234V354.647H650.528V339.941ZM650.528 325.235H665.234V339.941H650.528V325.235ZM650.528 310.529H665.234V325.235H650.528V310.529ZM635.822 310.529H650.528V325.235H635.822V310.529ZM635.822 295.824H650.528V310.529H635.822V295.824ZM621.116 310.529H635.822V325.235H621.116V310.529ZM606.41 310.529H621.116V325.235H606.41V310.529ZM606.41 325.235H621.116V339.941H606.41V325.235ZM606.41 339.941H621.116V354.647H606.41V339.941ZM606.41 354.647H621.116V369.353H606.41V354.647ZM606.41 369.353H621.116V384.059H606.41V369.353ZM606.41 384.059H621.116V398.765H606.41V384.059ZM606.41 398.765H621.116V413.471H606.41V398.765ZM621.116 398.765H635.822V413.471H621.116V398.765ZM621.116 384.059H635.822V398.765H621.116V384.059ZM635.822 384.059H650.528V398.765H635.822V384.059ZM635.822 369.353H650.528V384.059H635.822V369.353ZM635.822 354.647H650.528V369.353H635.822V354.647ZM635.822 339.941H650.528V354.647H635.822V339.941ZM621.116 325.235H635.822V339.941H621.116V325.235ZM621.116 339.941H635.822V354.647H621.116V339.941ZM621.116 354.647H635.822V369.353H621.116V354.647ZM621.116 369.353H635.822V384.059H621.116V369.353ZM635.822 325.235H650.528V339.941H635.822V325.235ZM650.528 295.824H665.234V310.529H650.528V295.824ZM650.528 281.118H665.234V295.824H650.528V281.118ZM650.528 266.412H665.234V281.118H650.528V266.412ZM650.528 251.706H665.234V266.412H650.528V251.706ZM650.528 237H665.234V251.706H650.528V237ZM635.822 237H650.528V251.706H635.822V237ZM635.822 222.294H650.528V237H635.822V222.294ZM635.822 207.588H650.528V222.294H635.822V207.588ZM621.116 207.588H635.822V222.294H621.116V207.588ZM606.41 207.588H621.116V222.294H606.41V207.588ZM621.116 295.824H635.822V310.529H621.116V295.824ZM621.116 281.118H635.822V295.824H621.116V281.118ZM621.116 266.412H635.822V281.118H621.116V266.412ZM635.822 266.412H650.528V281.118H635.822V266.412ZM635.822 251.706H650.528V266.412H635.822V251.706ZM635.822 281.118H650.528V295.824H635.822V281.118ZM606.41 295.824H621.116V310.529H606.41V295.824ZM606.41 281.118H621.116V295.824H606.41V281.118ZM621.116 251.706H635.822V266.412H621.116V251.706ZM606.41 251.706H621.116V266.412H606.41V251.706ZM606.41 266.412H621.116V281.118H606.41V266.412ZM591.704 251.706H606.41V266.412H591.704V251.706ZM591.704 237H606.41V251.706H591.704V237ZM606.41 222.294H621.116V237H606.41V222.294ZM621.116 222.294H635.822V237H621.116V222.294ZM621.116 237H635.822V251.706H621.116V237ZM606.41 237H621.116V251.706H606.41V237ZM591.704 222.294H606.41V237H591.704V222.294ZM591.704 207.588H606.41V222.294H591.704V207.588ZM591.704 192.882H606.41V207.588H591.704V192.882ZM606.41 192.882H621.116V207.588H606.41V192.882ZM576.999 192.882H591.704V207.588H576.999V192.882ZM562.293 192.882H576.999V207.588H562.293V192.882ZM547.587 192.882H562.293V207.588H547.587V192.882ZM532.881 192.882H547.587V207.588H532.881V192.882ZM532.881 207.588H547.587V222.294H532.881V207.588ZM518.175 207.588H532.881V222.294H518.175V207.588ZM518.175 192.882H532.881V207.588H518.175V192.882ZM503.469 207.588H518.175V222.294H503.469V207.588ZM488.763 207.588H503.469V222.294H488.763V207.588ZM488.763 222.294H503.469V237H488.763V222.294ZM488.763 237H503.469V251.706H488.763V237ZM474.057 237H488.763V251.706H474.057V237ZM474.057 251.706H488.763V266.412H474.057V251.706ZM488.763 251.706H503.469V266.412H488.763V251.706ZM503.469 251.706H518.175V266.412H503.469V251.706ZM518.175 251.706H532.881V266.412H518.175V251.706ZM532.881 237H547.587V251.706H532.881V237ZM547.587 237H562.293V251.706H547.587V237ZM562.293 237H576.999V251.706H562.293V237ZM576.999 237H591.704V251.706H576.999V237ZM576.999 207.588H591.704V222.294H576.999V207.588ZM576.999 222.294H591.704V237H576.999V222.294ZM562.293 222.294H576.999V237H562.293V222.294ZM547.587 222.294H562.293V237H547.587V222.294ZM562.293 207.588H576.999V222.294H562.293V207.588ZM547.587 207.588H562.293V222.294H547.587V207.588ZM532.881 222.294H547.587V237H532.881V222.294ZM518.175 222.294H532.881V237H518.175V222.294ZM518.175 237H532.881V251.706H518.175V237ZM503.469 237H518.175V251.706H503.469V237ZM503.469 222.294H518.175V237H503.469V222.294ZM503.469 266.412H518.175V281.118H503.469V266.412ZM503.469 281.118H518.175V295.824H503.469V281.118ZM503.469 295.824H518.175V310.529H503.469V295.824ZM503.469 310.529H518.175V325.235H503.469V310.529ZM518.175 310.529H532.881V325.235H518.175V310.529ZM518.175 325.235H532.881V339.941H518.175V325.235ZM518.175 295.824H532.881V310.529H518.175V295.824ZM518.175 281.118H532.881V295.824H518.175V281.118ZM518.175 266.412H532.881V281.118H518.175V266.412ZM518.175 339.941H532.881V354.647H518.175V339.941ZM518.175 354.647H532.881V369.353H518.175V354.647ZM503.469 354.647H518.175V369.353H503.469V354.647ZM488.763 354.647H503.469V369.353H488.763V354.647ZM474.057 339.941H488.763V354.647H474.057V339.941ZM474.057 354.647H488.763V369.353H474.057V354.647ZM474.057 325.235H488.763V339.941H474.057V325.235ZM474.057 310.529H488.763V325.235H474.057V310.529ZM474.057 295.824H488.763V310.529H474.057V295.824ZM474.057 281.118H488.763V295.824H474.057V281.118ZM474.057 266.412H488.763V281.118H474.057V266.412ZM488.763 281.118H503.469V295.824H488.763V281.118ZM488.763 295.824H503.469V310.529H488.763V295.824ZM488.763 310.529H503.469V325.235H488.763V310.529ZM488.763 325.235H503.469V339.941H488.763V325.235ZM488.763 339.941H503.469V354.647H488.763V339.941ZM503.469 339.941H518.175V354.647H503.469V339.941ZM503.469 325.235H518.175V339.941H503.469V325.235ZM488.763 266.412H503.469V281.118H488.763V266.412ZM503.469 192.882H518.175V207.588H503.469V192.882ZM488.763 192.882H503.469V207.588H488.763V192.882ZM474.057 192.882H488.763V207.588H474.057V192.882ZM474.057 207.588H488.763V222.294H474.057V207.588ZM474.057 222.294H488.763V237H474.057V222.294ZM474.057 442.882H488.763V457.588H474.057V442.882ZM474.057 457.588H488.763V472.294H474.057V457.588ZM474.057 472.294H488.763V487H474.057V472.294ZM488.763 472.294H503.469V487H488.763V472.294ZM503.469 472.294H518.175V487H503.469V472.294ZM724.115 281.118H738.821V295.824H724.115V281.118ZM724.115 295.824H738.821V310.529H724.115V295.824ZM724.115 310.529H738.821V325.235H724.115V310.529ZM724.115 325.235H738.821V339.941H724.115V325.235ZM724.115 339.941H738.821V354.647H724.115V339.941ZM709.409 339.941H724.115V354.647H709.409V339.941ZM709.409 325.235H724.115V339.941H709.409V325.235ZM709.409 310.529H724.115V325.235H709.409V310.529ZM709.409 295.824H724.115V310.529H709.409V295.824ZM709.409 281.118H724.115V295.824H709.409V281.118ZM709.409 428.176H724.115V442.882H709.409V428.176ZM709.409 413.471H724.115V428.176H709.409V413.471ZM709.409 398.765H724.115V413.471H709.409V398.765ZM709.409 384.059H724.115V398.765H709.409V384.059ZM724.115 369.353H738.821V384.059H724.115V369.353ZM724.115 354.647H738.821V369.353H724.115V354.647ZM709.409 354.647H724.115V369.353H709.409V354.647ZM709.409 369.353H724.115V384.059H709.409V369.353ZM709.409 442.882H724.115V457.588H709.409V442.882ZM709.409 457.588H724.115V472.294H709.409V457.588ZM709.409 472.294H724.115V487H709.409V472.294ZM753.527 281.118H768.233V295.824H753.527V281.118ZM753.527 295.824H768.233V310.529H753.527V295.824ZM753.527 310.529H768.233V325.235H753.527V310.529ZM753.527 325.235H768.233V339.941H753.527V325.235ZM753.527 339.941H768.233V354.647H753.527V339.941ZM753.527 354.647H768.233V369.353H753.527V354.647ZM753.527 369.353H768.233V384.059H753.527V369.353ZM753.527 384.059H768.233V398.765H753.527V384.059ZM753.527 398.765H768.233V413.471H753.527V398.765ZM753.527 413.471H768.233V428.176H753.527V413.471ZM753.527 428.176H768.233V442.882H753.527V428.176ZM753.527 442.882H768.233V457.588H753.527V442.882ZM753.527 457.588H768.233V472.294H753.527V457.588ZM753.527 472.294H768.233V487H753.527V472.294ZM738.821 472.294H753.527V487H738.821V472.294ZM724.115 472.294H738.821V487H724.115V472.294ZM724.115 457.588H738.821V472.294H724.115V457.588ZM738.821 457.588H753.527V472.294H738.821V457.588ZM738.821 442.882H753.527V457.588H738.821V442.882ZM724.115 428.176H738.821V442.882H724.115V428.176ZM724.115 413.471H738.821V428.176H724.115V413.471ZM724.115 398.765H738.821V413.471H724.115V398.765ZM738.821 398.765H753.527V413.471H738.821V398.765ZM738.821 413.471H753.527V428.176H738.821V413.471ZM738.821 428.176H753.527V442.882H738.821V428.176ZM724.115 442.882H738.821V457.588H724.115V442.882ZM738.821 384.059H753.527V398.765H738.821V384.059ZM738.821 369.353H753.527V384.059H738.821V369.353ZM738.821 354.647H753.527V369.353H738.821V354.647ZM724.115 384.059H738.821V398.765H724.115V384.059ZM738.821 339.941H753.527V354.647H738.821V339.941ZM738.821 325.235H753.527V339.941H738.821V325.235ZM738.821 310.529H753.527V325.235H738.821V310.529ZM738.821 295.824H753.527V310.529H738.821V295.824ZM738.821 281.118H753.527V295.824H738.821V281.118ZM753.527 192.882H768.233V207.588H753.527V192.882ZM738.821 207.588H753.527V222.294H738.821V207.588ZM738.821 178.176H753.527V192.882H738.821V178.176ZM724.115 192.882H738.821V207.588H724.115V192.882ZM738.821 192.882H753.527V207.588H738.821V192.882ZM724.115 178.176H738.821V192.882H724.115V178.176ZM724.115 207.588H738.821V222.294H724.115V207.588ZM753.527 207.588H768.233V222.294H753.527V207.588ZM709.409 192.882H724.115V207.588H709.409V192.882ZM709.409 207.588H724.115V222.294H709.409V207.588ZM724.115 222.294H738.821V237H724.115V222.294ZM738.821 222.294H753.527V237H738.821V222.294ZM709.409 178.176H724.115V192.882H709.409V178.176ZM753.527 178.176H768.233V192.882H753.527V178.176ZM753.527 222.294H768.233V237H753.527V222.294ZM709.409 222.294H724.115V237H709.409V222.294ZM930.083 487H915.378V472.294H930.083V487ZM959.495 487H944.789V472.294H959.495V487ZM915.378 487H900.672V472.294H915.378V487ZM900.672 487H885.966V472.294H900.672V487ZM885.966 487H871.26V472.294H885.966V487ZM871.26 487H856.554V472.294H871.26V487ZM856.554 472.294H841.848V457.588H856.554V472.294ZM871.26 472.294H856.554V457.588H871.26V472.294ZM871.26 457.588H856.554V442.882H871.26V457.588ZM841.848 472.294H827.142V457.588H841.848V472.294ZM841.848 457.588H827.142V442.882H841.848V457.588ZM856.554 457.588H841.848V442.882H856.554V457.588ZM871.26 442.882H856.554V428.176H871.26V442.882ZM885.966 442.882H871.26V428.176H885.966V442.882ZM856.554 442.882H841.848V428.176H856.554V442.882ZM841.848 442.882H827.142V428.176H841.848V442.882ZM827.142 442.882H812.436V428.176H827.142V442.882ZM827.142 428.176H812.436V413.471H827.142V428.176ZM827.142 339.941H812.436V325.235H827.142V339.941ZM827.142 325.235H812.436V310.529H827.142V325.235ZM841.848 325.235H827.142V310.529H841.848V325.235ZM841.848 310.529H827.142V295.824H841.848V310.529ZM841.848 295.824H827.142V281.118H841.848V295.824ZM856.554 295.824H841.848V281.118H856.554V295.824ZM871.26 295.824H856.554V281.118H871.26V295.824ZM885.966 310.529H871.26V295.824H885.966V310.529ZM885.966 325.235H871.26V310.529H885.966V325.235ZM871.26 325.235H856.554V310.529H871.26V325.235ZM871.26 310.529H856.554V295.824H871.26V310.529ZM856.554 310.529H841.848V295.824H856.554V310.529ZM856.554 325.235H841.848V310.529H856.554V325.235ZM856.554 339.941H841.848V325.235H856.554V339.941ZM871.26 339.941H856.554V325.235H871.26V339.941ZM871.26 428.176H856.554V413.471H871.26V428.176ZM856.554 428.176H841.848V413.471H856.554V428.176ZM841.848 339.941H827.142V325.235H841.848V339.941ZM841.848 428.176H827.142V413.471H841.848V428.176ZM885.966 295.824H871.26V281.118H885.966V295.824ZM885.966 281.118H871.26V266.412H885.966V281.118ZM871.26 281.118H856.554V266.412H871.26V281.118ZM900.672 281.118H885.966V266.412H900.672V281.118ZM915.378 281.118H900.672V266.412H915.378V281.118ZM930.083 281.118H915.378V266.412H930.083V281.118ZM944.789 281.118H930.083V266.412H944.789V281.118ZM959.495 281.118H944.789V266.412H959.495V281.118ZM959.495 295.824H944.789V281.118H959.495V295.824ZM974.201 295.824H959.495V281.118H974.201V295.824ZM988.907 295.824H974.201V281.118H988.907V295.824ZM988.907 310.529H974.201V295.824H988.907V310.529ZM1003.61 325.235H988.907V310.529H1003.61V325.235ZM988.907 325.235H974.201V310.529H988.907V325.235ZM1003.61 339.941H988.907V325.235H1003.61V339.941ZM1003.61 354.647H988.907V339.941H1003.61V354.647ZM1003.61 369.353H988.907V354.647H1003.61V369.353ZM1003.61 384.059H988.907V369.353H1003.61V384.059ZM1003.61 398.765H988.907V384.059H1003.61V398.765ZM1003.61 413.471H988.907V398.765H1003.61V413.471ZM988.907 413.471H974.201V398.765H988.907V413.471ZM988.907 428.176H974.201V413.471H988.907V428.176ZM1003.61 428.176H988.907V413.471H1003.61V428.176ZM1003.61 442.882H988.907V428.176H1003.61V442.882ZM988.907 442.882H974.201V428.176H988.907V442.882ZM988.907 457.588H974.201V442.882H988.907V457.588ZM988.907 472.294H974.201V457.588H988.907V472.294ZM974.201 472.294H959.495V457.588H974.201V472.294ZM959.495 472.294H944.789V457.588H959.495V472.294ZM944.789 472.294H930.083V457.588H944.789V472.294ZM944.789 457.588H930.083V442.882H944.789V457.588ZM959.495 442.882H944.789V428.176H959.495V442.882ZM974.201 442.882H959.495V428.176H974.201V442.882ZM959.495 428.176H944.789V413.471H959.495V428.176ZM959.495 413.471H944.789V398.765H959.495V413.471ZM959.495 398.765H944.789V384.059H959.495V398.765ZM959.495 384.059H944.789V369.353H959.495V384.059ZM959.495 369.353H944.789V354.647H959.495V369.353ZM959.495 354.647H944.789V339.941H959.495V354.647ZM959.495 339.941H944.789V325.235H959.495V339.941ZM959.495 325.235H944.789V310.529H959.495V325.235ZM944.789 325.235H930.083V310.529H944.789V325.235ZM944.789 310.529H930.083V295.824H944.789V310.529ZM930.083 310.529H915.378V295.824H930.083V310.529ZM915.378 310.529H900.672V295.824H915.378V310.529ZM900.672 310.529H885.966V295.824H900.672V310.529ZM900.672 295.824H885.966V281.118H900.672V295.824ZM915.378 295.824H900.672V281.118H915.378V295.824ZM930.083 295.824H915.378V281.118H930.083V295.824ZM944.789 295.824H930.083V281.118H944.789V295.824ZM959.495 310.529H944.789V295.824H959.495V310.529ZM974.201 310.529H959.495V295.824H974.201V310.529ZM974.201 325.235H959.495V310.529H974.201V325.235ZM974.201 339.941H959.495V325.235H974.201V339.941ZM974.201 354.647H959.495V339.941H974.201V354.647ZM988.907 354.647H974.201V339.941H988.907V354.647ZM988.907 339.941H974.201V325.235H988.907V339.941ZM988.907 369.353H974.201V354.647H988.907V369.353ZM988.907 384.059H974.201V369.353H988.907V384.059ZM988.907 398.765H974.201V384.059H988.907V398.765ZM974.201 398.765H959.495V384.059H974.201V398.765ZM974.201 384.059H959.495V369.353H974.201V384.059ZM974.201 369.353H959.495V354.647H974.201V369.353ZM974.201 413.471H959.495V398.765H974.201V413.471ZM974.201 428.176H959.495V413.471H974.201V428.176ZM974.201 457.588H959.495V442.882H974.201V457.588ZM959.495 457.588H944.789V442.882H959.495V457.588ZM930.083 472.294H915.378V457.588H930.083V472.294ZM915.378 472.294H900.672V457.588H915.378V472.294ZM900.672 472.294H885.966V457.588H900.672V472.294ZM885.966 472.294H871.26V457.588H885.966V472.294ZM885.966 457.588H871.26V442.882H885.966V457.588ZM900.672 457.588H885.966V442.882H900.672V457.588ZM915.378 457.588H900.672V442.882H915.378V457.588ZM930.083 457.588H915.378V442.882H930.083V457.588ZM841.848 413.471H827.142V398.765H841.848V413.471ZM856.554 413.471H841.848V398.765H856.554V413.471ZM871.26 413.471H856.554V398.765H871.26V413.471ZM841.848 398.765H827.142V384.059H841.848V398.765ZM856.554 398.765H841.848V384.059H856.554V398.765ZM871.26 398.765H856.554V384.059H871.26V398.765ZM885.966 398.765H871.26V384.059H885.966V398.765ZM900.672 398.765H885.966V384.059H900.672V398.765ZM915.378 398.765H900.672V384.059H915.378V398.765ZM930.083 398.765H915.378V384.059H930.083V398.765ZM944.789 398.765H930.083V384.059H944.789V398.765ZM944.789 384.059H930.083V369.353H944.789V384.059ZM930.083 384.059H915.378V369.353H930.083V384.059ZM915.378 384.059H900.672V369.353H915.378V384.059ZM900.672 384.059H885.966V369.353H900.672V384.059ZM885.966 384.059H871.26V369.353H885.966V384.059ZM871.26 384.059H856.554V369.353H871.26V384.059ZM988.907 442.882H1003.61V457.588H988.907V442.882ZM988.907 457.588H1003.61V472.294H988.907V457.588ZM988.907 472.294H1003.61V487H988.907V472.294ZM974.201 472.294H988.907V487H974.201V472.294ZM959.495 472.294H974.201V487H959.495V472.294ZM871.26 398.765H885.966V413.471H871.26V398.765ZM1047.79 266.412H1062.49V281.118H1047.79V266.412ZM1062.49 266.412H1077.2V281.118H1062.49V266.412ZM1077.2 266.412H1091.91V281.118H1077.2V266.412ZM1047.79 295.824H1062.49V310.529H1047.79V295.824ZM1047.79 281.118H1062.49V295.824H1047.79V281.118ZM1077.2 472.294H1091.91V487H1077.2V472.294ZM1062.49 472.294H1077.2V487H1062.49V472.294ZM1047.79 457.588H1062.49V472.294H1047.79V457.588ZM1047.79 442.882H1062.49V457.588H1047.79V442.882ZM1047.79 472.294H1062.49V487H1047.79V472.294ZM1121.32 266.412H1136.02V281.118H1121.32V266.412ZM1091.91 266.412H1106.61V281.118H1091.91V266.412ZM1150.73 266.412H1165.43V281.118H1150.73V266.412ZM1165.43 281.118H1180.14V295.824H1165.43V281.118ZM1150.73 281.118H1165.43V295.824H1150.73V281.118ZM1150.73 295.824H1165.43V310.529H1150.73V295.824ZM1180.14 295.824H1194.85V310.529H1180.14V295.824ZM1165.43 295.824H1180.14V310.529H1165.43V295.824ZM1150.73 310.529H1165.43V325.235H1150.73V310.529ZM1136.02 310.529H1150.73V325.235H1136.02V310.529ZM1165.43 310.529H1180.14V325.235H1165.43V310.529ZM1180.14 310.529H1194.85V325.235H1180.14V310.529ZM1194.85 325.235H1209.55V339.941H1194.85V325.235ZM1194.85 339.941H1209.55V354.647H1194.85V339.941ZM1194.85 354.647H1209.55V369.353H1194.85V354.647ZM1194.85 369.353H1209.55V384.059H1194.85V369.353ZM1194.85 384.059H1209.55V398.765H1194.85V384.059ZM1194.85 398.765H1209.55V413.471H1194.85V398.765ZM1194.85 413.471H1209.55V428.176H1194.85V413.471ZM1194.85 428.176H1209.55V442.882H1194.85V428.176ZM1180.14 428.176H1194.85V442.882H1180.14V428.176ZM1180.14 442.882H1194.85V457.588H1180.14V442.882ZM1180.14 457.588H1194.85V472.294H1180.14V457.588ZM1165.43 457.588H1180.14V472.294H1165.43V457.588ZM1150.73 457.588H1165.43V472.294H1150.73V457.588ZM1150.73 428.176H1165.43V442.882H1150.73V428.176ZM1150.73 442.882H1165.43V457.588H1150.73V442.882ZM1165.43 442.882H1180.14V457.588H1165.43V442.882ZM1165.43 428.176H1180.14V442.882H1165.43V428.176ZM1165.43 413.471H1180.14V428.176H1165.43V413.471ZM1150.73 413.471H1165.43V428.176H1150.73V413.471ZM1150.73 398.765H1165.43V413.471H1150.73V398.765ZM1150.73 384.059H1165.43V398.765H1150.73V384.059ZM1150.73 369.353H1165.43V384.059H1150.73V369.353ZM1150.73 354.647H1165.43V369.353H1150.73V354.647ZM1150.73 339.941H1165.43V354.647H1150.73V339.941ZM1150.73 325.235H1165.43V339.941H1150.73V325.235ZM1165.43 325.235H1180.14V339.941H1165.43V325.235ZM1165.43 339.941H1180.14V354.647H1165.43V339.941ZM1165.43 354.647H1180.14V369.353H1165.43V354.647ZM1165.43 369.353H1180.14V384.059H1165.43V369.353ZM1165.43 384.059H1180.14V398.765H1165.43V384.059ZM1165.43 398.765H1180.14V413.471H1165.43V398.765ZM1180.14 413.471H1194.85V428.176H1180.14V413.471ZM1180.14 398.765H1194.85V413.471H1180.14V398.765ZM1180.14 384.059H1194.85V398.765H1180.14V384.059ZM1180.14 369.353H1194.85V384.059H1180.14V369.353ZM1180.14 354.647H1194.85V369.353H1180.14V354.647ZM1180.14 339.941H1194.85V354.647H1180.14V339.941ZM1180.14 325.235H1194.85V339.941H1180.14V325.235ZM1150.73 472.294H1165.43V487H1150.73V472.294ZM1091.91 472.294H1106.61V487H1091.91V472.294ZM1091.91 457.588H1106.61V472.294H1091.91V457.588ZM1077.2 457.588H1091.91V472.294H1077.2V457.588ZM1062.49 457.588H1077.2V472.294H1062.49V457.588ZM1062.49 339.941H1077.2V354.647H1062.49V339.941ZM1062.49 325.235H1077.2V339.941H1062.49V325.235ZM1047.79 310.529H1062.49V325.235H1047.79V310.529ZM1062.49 295.824H1077.2V310.529H1062.49V295.824ZM1077.2 281.118H1091.91V295.824H1077.2V281.118ZM1091.91 281.118H1106.61V295.824H1091.91V281.118ZM1106.61 281.118H1121.32V295.824H1106.61V281.118ZM1106.61 295.824H1121.32V310.529H1106.61V295.824ZM1106.61 310.529H1121.32V325.235H1106.61V310.529ZM1091.91 310.529H1106.61V325.235H1091.91V310.529ZM1077.2 310.529H1091.91V325.235H1077.2V310.529ZM1091.91 325.235H1106.61V339.941H1091.91V325.235ZM1091.91 339.941H1106.61V354.647H1091.91V339.941ZM1091.91 354.647H1106.61V369.353H1091.91V354.647ZM1091.91 442.882H1106.61V457.588H1091.91V442.882ZM1077.2 442.882H1091.91V457.588H1077.2V442.882ZM1077.2 339.941H1091.91V354.647H1077.2V339.941ZM1077.2 325.235H1091.91V339.941H1077.2V325.235ZM1077.2 295.824H1091.91V310.529H1077.2V295.824ZM1091.91 295.824H1106.61V310.529H1091.91V295.824ZM1121.32 281.118H1136.02V295.824H1121.32V281.118ZM1136.02 281.118H1150.73V295.824H1136.02V281.118ZM1136.02 295.824H1150.73V310.529H1136.02V295.824ZM1121.32 295.824H1136.02V310.529H1121.32V295.824ZM1062.49 281.118H1077.2V295.824H1062.49V281.118ZM1062.49 442.882H1077.2V457.588H1062.49V442.882ZM1062.49 310.529H1077.2V325.235H1062.49V310.529ZM1047.79 325.235H1062.49V339.941H1047.79V325.235ZM1047.79 339.941H1062.49V354.647H1047.79V339.941ZM1047.79 428.176H1062.49V442.882H1047.79V428.176ZM1062.49 428.176H1077.2V442.882H1062.49V428.176ZM1077.2 428.176H1091.91V442.882H1077.2V428.176ZM1091.91 428.176H1106.61V442.882H1091.91V428.176ZM1077.2 354.647H1091.91V369.353H1077.2V354.647ZM1062.49 354.647H1077.2V369.353H1062.49V354.647ZM1047.79 354.647H1062.49V369.353H1047.79V354.647ZM1047.79 369.353H1062.49V384.059H1047.79V369.353ZM1047.79 384.059H1062.49V398.765H1047.79V384.059ZM1047.79 398.765H1062.49V413.471H1047.79V398.765ZM1062.49 398.765H1077.2V413.471H1062.49V398.765ZM1062.49 413.471H1077.2V428.176H1062.49V413.471ZM1077.2 413.471H1091.91V428.176H1077.2V413.471ZM1047.79 413.471H1062.49V428.176H1047.79V413.471ZM1091.91 413.471H1106.61V428.176H1091.91V413.471ZM1091.91 398.765H1106.61V413.471H1091.91V398.765ZM1091.91 384.059H1106.61V398.765H1091.91V384.059ZM1091.91 369.353H1106.61V384.059H1091.91V369.353ZM1077.2 369.353H1091.91V384.059H1077.2V369.353ZM1062.49 369.353H1077.2V384.059H1062.49V369.353ZM1062.49 384.059H1077.2V398.765H1062.49V384.059ZM1077.2 398.765H1091.91V413.471H1077.2V398.765ZM1077.2 384.059H1091.91V398.765H1077.2V384.059ZM1165.43 472.294H1180.14V487H1165.43V472.294ZM1180.14 472.294H1194.85V487H1180.14V472.294ZM1194.85 472.294H1209.55V487H1194.85V472.294ZM1194.85 457.588H1209.55V472.294H1194.85V457.588ZM1194.85 442.882H1209.55V457.588H1194.85V442.882ZM1209.55 266.412H1224.26V281.118H1209.55V266.412ZM1224.26 266.412H1238.96V281.118H1224.26V266.412ZM1238.96 266.412H1253.67V281.118H1238.96V266.412ZM1253.67 266.412H1268.38V281.118H1253.67V266.412ZM1268.38 281.118H1283.08V295.824H1268.38V281.118ZM1253.67 281.118H1268.38V295.824H1253.67V281.118ZM1253.67 295.824H1268.38V310.529H1253.67V295.824ZM1283.08 281.118H1297.79V295.824H1283.08V281.118ZM1283.08 295.824H1297.79V310.529H1283.08V295.824ZM1268.38 295.824H1283.08V310.529H1268.38V295.824ZM1253.67 310.529H1268.38V325.235H1253.67V310.529ZM1238.96 310.529H1253.67V325.235H1238.96V310.529ZM1268.38 310.529H1283.08V325.235H1268.38V310.529ZM1283.08 310.529H1297.79V325.235H1283.08V310.529ZM1297.79 310.529H1312.49V325.235H1297.79V310.529ZM1297.79 325.235H1312.49V339.941H1297.79V325.235ZM1297.79 339.941H1312.49V354.647H1297.79V339.941ZM1297.79 354.647H1312.49V369.353H1297.79V354.647ZM1297.79 369.353H1312.49V384.059H1297.79V369.353ZM1297.79 384.059H1312.49V398.765H1297.79V384.059ZM1297.79 398.765H1312.49V413.471H1297.79V398.765ZM1297.79 413.471H1312.49V428.176H1297.79V413.471ZM1297.79 428.176H1312.49V442.882H1297.79V428.176ZM1283.08 428.176H1297.79V442.882H1283.08V428.176ZM1283.08 442.882H1297.79V457.588H1283.08V442.882ZM1283.08 457.588H1297.79V472.294H1283.08V457.588ZM1268.38 457.588H1283.08V472.294H1268.38V457.588ZM1253.67 457.588H1268.38V472.294H1253.67V457.588ZM1253.67 428.176H1268.38V442.882H1253.67V428.176ZM1253.67 442.882H1268.38V457.588H1253.67V442.882ZM1268.38 442.882H1283.08V457.588H1268.38V442.882ZM1268.38 428.176H1283.08V442.882H1268.38V428.176ZM1268.38 413.471H1283.08V428.176H1268.38V413.471ZM1253.67 413.471H1268.38V428.176H1253.67V413.471ZM1253.67 398.765H1268.38V413.471H1253.67V398.765ZM1253.67 384.059H1268.38V398.765H1253.67V384.059ZM1253.67 369.353H1268.38V384.059H1253.67V369.353ZM1253.67 354.647H1268.38V369.353H1253.67V354.647ZM1253.67 339.941H1268.38V354.647H1253.67V339.941ZM1253.67 325.235H1268.38V339.941H1253.67V325.235ZM1268.38 325.235H1283.08V339.941H1268.38V325.235ZM1268.38 339.941H1283.08V354.647H1268.38V339.941ZM1268.38 354.647H1283.08V369.353H1268.38V354.647ZM1268.38 369.353H1283.08V384.059H1268.38V369.353ZM1268.38 384.059H1283.08V398.765H1268.38V384.059ZM1268.38 398.765H1283.08V413.471H1268.38V398.765ZM1283.08 413.471H1297.79V428.176H1283.08V413.471ZM1283.08 398.765H1297.79V413.471H1283.08V398.765ZM1283.08 384.059H1297.79V398.765H1283.08V384.059ZM1283.08 369.353H1297.79V384.059H1283.08V369.353ZM1283.08 354.647H1297.79V369.353H1283.08V354.647ZM1283.08 339.941H1297.79V354.647H1283.08V339.941ZM1283.08 325.235H1297.79V339.941H1283.08V325.235ZM1253.67 472.294H1268.38V487H1253.67V472.294ZM1194.85 281.118H1209.55V295.824H1194.85V281.118ZM1194.85 295.824H1209.55V310.529H1194.85V295.824ZM1194.85 310.529H1209.55V325.235H1194.85V310.529ZM1209.55 281.118H1224.26V295.824H1209.55V281.118ZM1224.26 281.118H1238.96V295.824H1224.26V281.118ZM1238.96 281.118H1253.67V295.824H1238.96V281.118ZM1238.96 295.824H1253.67V310.529H1238.96V295.824ZM1224.26 295.824H1238.96V310.529H1224.26V295.824ZM1209.55 295.824H1224.26V310.529H1209.55V295.824ZM1268.38 472.294H1283.08V487H1268.38V472.294ZM1283.08 472.294H1297.79V487H1283.08V472.294ZM1297.79 472.294H1312.49V487H1297.79V472.294ZM1297.79 457.588H1312.49V472.294H1297.79V457.588ZM1297.79 442.882H1312.49V457.588H1297.79V442.882ZM1136.02 266.412H1150.73V281.118H1136.02V266.412ZM1209.55 310.529H1224.26V325.235H1209.55V310.529ZM1415.21 266.412H1429.91V281.118H1415.21V266.412ZM1429.91 266.412H1444.62V281.118H1429.91V266.412ZM1400.5 266.412H1415.21V281.118H1400.5V266.412ZM1444.62 266.412H1459.32V281.118H1444.62V266.412ZM1459.32 266.412H1474.03V281.118H1459.32V266.412ZM1474.03 266.412H1488.73V281.118H1474.03V266.412ZM1488.73 266.412H1503.44V281.118H1488.73V266.412ZM1503.44 281.118H1518.15V295.824H1503.44V281.118ZM1488.73 281.118H1503.44V295.824H1488.73V281.118ZM1488.73 295.824H1503.44V310.529H1488.73V295.824ZM1518.15 281.118H1532.85V295.824H1518.15V281.118ZM1518.15 295.824H1532.85V310.529H1518.15V295.824ZM1503.44 295.824H1518.15V310.529H1503.44V295.824ZM1488.73 310.529H1503.44V325.235H1488.73V310.529ZM1474.03 310.529H1488.73V325.235H1474.03V310.529ZM1503.44 310.529H1518.15V325.235H1503.44V310.529ZM1518.15 310.529H1532.85V325.235H1518.15V310.529ZM1532.85 310.529H1547.56V325.235H1532.85V310.529ZM1532.85 325.235H1547.56V339.941H1532.85V325.235ZM1532.85 339.941H1547.56V354.647H1532.85V339.941ZM1532.85 354.647H1547.56V369.353H1532.85V354.647ZM1532.85 369.353H1547.56V384.059H1532.85V369.353ZM1532.85 384.059H1547.56V398.765H1532.85V384.059ZM1532.85 398.765H1547.56V413.471H1532.85V398.765ZM1532.85 413.471H1547.56V428.176H1532.85V413.471ZM1532.85 428.176H1547.56V442.882H1532.85V428.176ZM1518.15 428.176H1532.85V442.882H1518.15V428.176ZM1518.15 442.882H1532.85V457.588H1518.15V442.882ZM1518.15 457.588H1532.85V472.294H1518.15V457.588ZM1503.44 457.588H1518.15V472.294H1503.44V457.588ZM1488.73 457.588H1503.44V472.294H1488.73V457.588ZM1474.03 442.882H1488.73V457.588H1474.03V442.882ZM1474.03 428.176H1488.73V442.882H1474.03V428.176ZM1488.73 428.176H1503.44V442.882H1488.73V428.176ZM1488.73 442.882H1503.44V457.588H1488.73V442.882ZM1503.44 442.882H1518.15V457.588H1503.44V442.882ZM1503.44 428.176H1518.15V442.882H1503.44V428.176ZM1503.44 413.471H1518.15V428.176H1503.44V413.471ZM1488.73 413.471H1503.44V428.176H1488.73V413.471ZM1488.73 398.765H1503.44V413.471H1488.73V398.765ZM1488.73 384.059H1503.44V398.765H1488.73V384.059ZM1488.73 369.353H1503.44V384.059H1488.73V369.353ZM1488.73 354.647H1503.44V369.353H1488.73V354.647ZM1488.73 339.941H1503.44V354.647H1488.73V339.941ZM1488.73 325.235H1503.44V339.941H1488.73V325.235ZM1503.44 325.235H1518.15V339.941H1503.44V325.235ZM1503.44 339.941H1518.15V354.647H1503.44V339.941ZM1503.44 354.647H1518.15V369.353H1503.44V354.647ZM1503.44 369.353H1518.15V384.059H1503.44V369.353ZM1503.44 384.059H1518.15V398.765H1503.44V384.059ZM1503.44 398.765H1518.15V413.471H1503.44V398.765ZM1518.15 413.471H1532.85V428.176H1518.15V413.471ZM1518.15 398.765H1532.85V413.471H1518.15V398.765ZM1518.15 384.059H1532.85V398.765H1518.15V384.059ZM1518.15 369.353H1532.85V384.059H1518.15V369.353ZM1518.15 354.647H1532.85V369.353H1518.15V354.647ZM1518.15 339.941H1532.85V354.647H1518.15V339.941ZM1518.15 325.235H1532.85V339.941H1518.15V325.235ZM1474.03 457.588H1488.73V472.294H1474.03V457.588ZM1474.03 472.294H1488.73V487H1474.03V472.294ZM1488.73 472.294H1503.44V487H1488.73V472.294ZM1459.32 472.294H1474.03V487H1459.32V472.294ZM1444.62 472.294H1459.32V487H1444.62V472.294ZM1429.91 472.294H1444.62V487H1429.91V472.294ZM1415.21 472.294H1429.91V487H1415.21V472.294ZM1400.5 472.294H1415.21V487H1400.5V472.294ZM1400.5 457.588H1415.21V472.294H1400.5V457.588ZM1385.79 457.588H1400.5V472.294H1385.79V457.588ZM1371.09 457.588H1385.79V472.294H1371.09V457.588ZM1371.09 442.882H1385.79V457.588H1371.09V442.882ZM1356.38 428.176H1371.09V442.882H1356.38V428.176ZM1371.09 428.176H1385.79V442.882H1371.09V428.176ZM1356.38 413.471H1371.09V428.176H1356.38V413.471ZM1356.38 398.765H1371.09V413.471H1356.38V398.765ZM1356.38 384.059H1371.09V398.765H1356.38V384.059ZM1356.38 369.353H1371.09V384.059H1356.38V369.353ZM1356.38 354.647H1371.09V369.353H1356.38V354.647ZM1356.38 339.941H1371.09V354.647H1356.38V339.941ZM1371.09 339.941H1385.79V354.647H1371.09V339.941ZM1371.09 325.235H1385.79V339.941H1371.09V325.235ZM1356.38 325.235H1371.09V339.941H1356.38V325.235ZM1356.38 310.529H1371.09V325.235H1356.38V310.529ZM1371.09 310.529H1385.79V325.235H1371.09V310.529ZM1371.09 295.824H1385.79V310.529H1371.09V295.824ZM1371.09 281.118H1385.79V295.824H1371.09V281.118ZM1385.79 281.118H1400.5V295.824H1385.79V281.118ZM1400.5 281.118H1415.21V295.824H1400.5V281.118ZM1415.21 281.118H1429.91V295.824H1415.21V281.118ZM1415.21 295.824H1429.91V310.529H1415.21V295.824ZM1415.21 310.529H1429.91V325.235H1415.21V310.529ZM1400.5 310.529H1415.21V325.235H1400.5V310.529ZM1385.79 310.529H1400.5V325.235H1385.79V310.529ZM1400.5 325.235H1415.21V339.941H1400.5V325.235ZM1400.5 339.941H1415.21V354.647H1400.5V339.941ZM1400.5 354.647H1415.21V369.353H1400.5V354.647ZM1400.5 369.353H1415.21V384.059H1400.5V369.353ZM1400.5 384.059H1415.21V398.765H1400.5V384.059ZM1400.5 398.765H1415.21V413.471H1400.5V398.765ZM1400.5 413.471H1415.21V428.176H1400.5V413.471ZM1400.5 428.176H1415.21V442.882H1400.5V428.176ZM1415.21 428.176H1429.91V442.882H1415.21V428.176ZM1415.21 442.882H1429.91V457.588H1415.21V442.882ZM1429.91 442.882H1444.62V457.588H1429.91V442.882ZM1444.62 442.882H1459.32V457.588H1444.62V442.882ZM1459.32 442.882H1474.03V457.588H1459.32V442.882ZM1459.32 457.588H1474.03V472.294H1459.32V457.588ZM1444.62 457.588H1459.32V472.294H1444.62V457.588ZM1429.91 457.588H1444.62V472.294H1429.91V457.588ZM1415.21 457.588H1429.91V472.294H1415.21V457.588ZM1400.5 442.882H1415.21V457.588H1400.5V442.882ZM1385.79 442.882H1400.5V457.588H1385.79V442.882ZM1385.79 428.176H1400.5V442.882H1385.79V428.176ZM1385.79 413.471H1400.5V428.176H1385.79V413.471ZM1385.79 398.765H1400.5V413.471H1385.79V398.765ZM1371.09 398.765H1385.79V413.471H1371.09V398.765ZM1371.09 413.471H1385.79V428.176H1371.09V413.471ZM1371.09 384.059H1385.79V398.765H1371.09V384.059ZM1371.09 369.353H1385.79V384.059H1371.09V369.353ZM1371.09 354.647H1385.79V369.353H1371.09V354.647ZM1385.79 354.647H1400.5V369.353H1385.79V354.647ZM1385.79 369.353H1400.5V384.059H1385.79V369.353ZM1385.79 384.059H1400.5V398.765H1385.79V384.059ZM1385.79 339.941H1400.5V354.647H1385.79V339.941ZM1385.79 325.235H1400.5V339.941H1385.79V325.235ZM1385.79 295.824H1400.5V310.529H1385.79V295.824ZM1400.5 295.824H1415.21V310.529H1400.5V295.824ZM1429.91 281.118H1444.62V295.824H1429.91V281.118ZM1444.62 281.118H1459.32V295.824H1444.62V281.118ZM1459.32 281.118H1474.03V295.824H1459.32V281.118ZM1474.03 281.118H1488.73V295.824H1474.03V281.118ZM1474.03 295.824H1488.73V310.529H1474.03V295.824ZM1459.32 295.824H1474.03V310.529H1459.32V295.824ZM1444.62 295.824H1459.32V310.529H1444.62V295.824ZM1429.91 295.824H1444.62V310.529H1429.91V295.824ZM1591.73 266.412H1606.44V281.118H1591.73V266.412ZM1606.44 266.412H1621.14V281.118H1606.44V266.412ZM1621.14 266.412H1635.85V281.118H1621.14V266.412ZM1591.73 295.824H1606.44V310.529H1591.73V295.824ZM1591.73 281.118H1606.44V295.824H1591.73V281.118ZM1621.14 472.294H1635.85V487H1621.14V472.294ZM1606.44 472.294H1621.14V487H1606.44V472.294ZM1591.73 457.588H1606.44V472.294H1591.73V457.588ZM1591.73 442.882H1606.44V457.588H1591.73V442.882ZM1591.73 472.294H1606.44V487H1591.73V472.294ZM1665.26 266.412H1679.97V281.118H1665.26V266.412ZM1635.85 266.412H1650.56V281.118H1635.85V266.412ZM1679.97 266.412H1694.67V281.118H1679.97V266.412ZM1694.67 266.412H1709.38V281.118H1694.67V266.412ZM1709.38 266.412H1724.09V281.118H1709.38V266.412ZM1724.09 266.412H1738.79V281.118H1724.09V266.412ZM1738.79 281.118H1753.5V295.824H1738.79V281.118ZM1724.09 281.118H1738.79V295.824H1724.09V281.118ZM1724.09 295.824H1738.79V310.529H1724.09V295.824ZM1753.5 281.118H1768.2V295.824H1753.5V281.118ZM1753.5 295.824H1768.2V310.529H1753.5V295.824ZM1738.79 295.824H1753.5V310.529H1738.79V295.824ZM1724.09 310.529H1738.79V325.235H1724.09V310.529ZM1709.38 310.529H1724.09V325.235H1709.38V310.529ZM1738.79 310.529H1753.5V325.235H1738.79V310.529ZM1753.5 310.529H1768.2V325.235H1753.5V310.529ZM1768.2 310.529H1782.91V325.235H1768.2V310.529ZM1768.2 325.235H1782.91V339.941H1768.2V325.235ZM1768.2 339.941H1782.91V354.647H1768.2V339.941ZM1768.2 354.647H1782.91V369.353H1768.2V354.647ZM1768.2 369.353H1782.91V384.059H1768.2V369.353ZM1768.2 384.059H1782.91V398.765H1768.2V384.059ZM1768.2 398.765H1782.91V413.471H1768.2V398.765ZM1768.2 413.471H1782.91V428.176H1768.2V413.471ZM1768.2 428.176H1782.91V442.882H1768.2V428.176ZM1753.5 428.176H1768.2V442.882H1753.5V428.176ZM1753.5 442.882H1768.2V457.588H1753.5V442.882ZM1753.5 457.588H1768.2V472.294H1753.5V457.588ZM1738.79 457.588H1753.5V472.294H1738.79V457.588ZM1724.09 457.588H1738.79V472.294H1724.09V457.588ZM1724.09 428.176H1738.79V442.882H1724.09V428.176ZM1724.09 442.882H1738.79V457.588H1724.09V442.882ZM1738.79 442.882H1753.5V457.588H1738.79V442.882ZM1738.79 428.176H1753.5V442.882H1738.79V428.176ZM1738.79 413.471H1753.5V428.176H1738.79V413.471ZM1724.09 413.471H1738.79V428.176H1724.09V413.471ZM1724.09 398.765H1738.79V413.471H1724.09V398.765ZM1724.09 384.059H1738.79V398.765H1724.09V384.059ZM1724.09 369.353H1738.79V384.059H1724.09V369.353ZM1724.09 354.647H1738.79V369.353H1724.09V354.647ZM1724.09 339.941H1738.79V354.647H1724.09V339.941ZM1724.09 325.235H1738.79V339.941H1724.09V325.235ZM1738.79 325.235H1753.5V339.941H1738.79V325.235ZM1738.79 339.941H1753.5V354.647H1738.79V339.941ZM1738.79 354.647H1753.5V369.353H1738.79V354.647ZM1738.79 369.353H1753.5V384.059H1738.79V369.353ZM1738.79 384.059H1753.5V398.765H1738.79V384.059ZM1738.79 398.765H1753.5V413.471H1738.79V398.765ZM1753.5 413.471H1768.2V428.176H1753.5V413.471ZM1753.5 398.765H1768.2V413.471H1753.5V398.765ZM1753.5 384.059H1768.2V398.765H1753.5V384.059ZM1753.5 369.353H1768.2V384.059H1753.5V369.353ZM1753.5 354.647H1768.2V369.353H1753.5V354.647ZM1753.5 339.941H1768.2V354.647H1753.5V339.941ZM1753.5 325.235H1768.2V339.941H1753.5V325.235ZM1724.09 472.294H1738.79V487H1724.09V472.294ZM1635.85 472.294H1650.56V487H1635.85V472.294ZM1635.85 457.588H1650.56V472.294H1635.85V457.588ZM1621.14 457.588H1635.85V472.294H1621.14V457.588ZM1606.44 457.588H1621.14V472.294H1606.44V457.588ZM1606.44 339.941H1621.14V354.647H1606.44V339.941ZM1606.44 325.235H1621.14V339.941H1606.44V325.235ZM1591.73 310.529H1606.44V325.235H1591.73V310.529ZM1606.44 295.824H1621.14V310.529H1606.44V295.824ZM1621.14 281.118H1635.85V295.824H1621.14V281.118ZM1635.85 281.118H1650.56V295.824H1635.85V281.118ZM1650.56 281.118H1665.26V295.824H1650.56V281.118ZM1650.56 295.824H1665.26V310.529H1650.56V295.824ZM1650.56 310.529H1665.26V325.235H1650.56V310.529ZM1635.85 310.529H1650.56V325.235H1635.85V310.529ZM1621.14 310.529H1635.85V325.235H1621.14V310.529ZM1635.85 325.235H1650.56V339.941H1635.85V325.235ZM1635.85 339.941H1650.56V354.647H1635.85V339.941ZM1635.85 354.647H1650.56V369.353H1635.85V354.647ZM1635.85 442.882H1650.56V457.588H1635.85V442.882ZM1621.14 442.882H1635.85V457.588H1621.14V442.882ZM1621.14 339.941H1635.85V354.647H1621.14V339.941ZM1621.14 325.235H1635.85V339.941H1621.14V325.235ZM1621.14 295.824H1635.85V310.529H1621.14V295.824ZM1635.85 295.824H1650.56V310.529H1635.85V295.824ZM1665.26 281.118H1679.97V295.824H1665.26V281.118ZM1679.97 281.118H1694.67V295.824H1679.97V281.118ZM1694.67 281.118H1709.38V295.824H1694.67V281.118ZM1709.38 281.118H1724.09V295.824H1709.38V281.118ZM1709.38 295.824H1724.09V310.529H1709.38V295.824ZM1694.67 295.824H1709.38V310.529H1694.67V295.824ZM1679.97 295.824H1694.67V310.529H1679.97V295.824ZM1665.26 295.824H1679.97V310.529H1665.26V295.824ZM1606.44 281.118H1621.14V295.824H1606.44V281.118ZM1606.44 442.882H1621.14V457.588H1606.44V442.882ZM1606.44 310.529H1621.14V325.235H1606.44V310.529ZM1591.73 325.235H1606.44V339.941H1591.73V325.235ZM1591.73 339.941H1606.44V354.647H1591.73V339.941ZM1591.73 428.176H1606.44V442.882H1591.73V428.176ZM1606.44 428.176H1621.14V442.882H1606.44V428.176ZM1621.14 428.176H1635.85V442.882H1621.14V428.176ZM1635.85 428.176H1650.56V442.882H1635.85V428.176ZM1621.14 354.647H1635.85V369.353H1621.14V354.647ZM1606.44 354.647H1621.14V369.353H1606.44V354.647ZM1591.73 354.647H1606.44V369.353H1591.73V354.647ZM1591.73 369.353H1606.44V384.059H1591.73V369.353ZM1591.73 384.059H1606.44V398.765H1591.73V384.059ZM1591.73 398.765H1606.44V413.471H1591.73V398.765ZM1606.44 398.765H1621.14V413.471H1606.44V398.765ZM1606.44 413.471H1621.14V428.176H1606.44V413.471ZM1621.14 413.471H1635.85V428.176H1621.14V413.471ZM1591.73 413.471H1606.44V428.176H1591.73V413.471ZM1635.85 413.471H1650.56V428.176H1635.85V413.471ZM1635.85 398.765H1650.56V413.471H1635.85V398.765ZM1635.85 384.059H1650.56V398.765H1635.85V384.059ZM1635.85 369.353H1650.56V384.059H1635.85V369.353ZM1621.14 369.353H1635.85V384.059H1621.14V369.353ZM1606.44 369.353H1621.14V384.059H1606.44V369.353ZM1606.44 384.059H1621.14V398.765H1606.44V384.059ZM1621.14 398.765H1635.85V413.471H1621.14V398.765ZM1621.14 384.059H1635.85V398.765H1621.14V384.059ZM1738.79 472.294H1753.5V487H1738.79V472.294ZM1753.5 472.294H1768.2V487H1753.5V472.294ZM1768.2 472.294H1782.91V487H1768.2V472.294ZM1768.2 457.588H1782.91V472.294H1768.2V457.588ZM1768.2 442.882H1782.91V457.588H1768.2V442.882ZM2018.26 192.882V207.588H2003.56V192.882H2018.26ZM2003.56 192.882V207.588H1988.85V192.882H2003.56ZM1988.85 192.882V207.588H1974.14V192.882H1988.85ZM1974.14 192.882V207.588H1959.44V192.882H1974.14ZM1974.14 207.588V222.294H1959.44V207.588H1974.14ZM1974.14 222.294V237H1959.44V222.294H1974.14ZM1988.85 222.294V237H1974.14V222.294H1988.85ZM2003.56 222.294V237H1988.85V222.294H2003.56ZM2003.56 207.588V222.294H1988.85V207.588H2003.56ZM2018.26 207.588V222.294H2003.56V207.588H2018.26ZM1988.85 207.588V222.294H1974.14V207.588H1988.85ZM2018.26 222.294V237H2003.56V222.294H2018.26ZM2018.26 237V251.706H2003.56V237H2018.26ZM2018.26 251.706V266.412H2003.56V251.706H2018.26ZM2003.56 251.706V266.412H1988.85V251.706H2003.56ZM1988.85 251.706V266.412H1974.14V251.706H1988.85ZM1974.14 251.706V266.412H1959.44V251.706H1974.14ZM1974.14 237V251.706H1959.44V237H1974.14ZM1988.85 237V251.706H1974.14V237H1988.85ZM2003.56 237V251.706H1988.85V237H2003.56ZM2018.26 266.412V281.118H2003.56V266.412H2018.26ZM2003.56 266.412V281.118H1988.85V266.412H2003.56ZM1988.85 266.412V281.118H1974.14V266.412H1988.85ZM2018.26 295.824V310.529H2003.56V295.824H2018.26ZM2018.26 281.118V295.824H2003.56V281.118H2018.26ZM1988.85 472.294V487H1974.14V472.294H1988.85ZM2003.56 472.294V487H1988.85V472.294H2003.56ZM2018.26 457.588V472.294H2003.56V457.588H2018.26ZM2018.26 442.882V457.588H2003.56V442.882H2018.26ZM2018.26 472.294V487H2003.56V472.294H2018.26ZM1944.73 266.412V281.118H1930.03V266.412H1944.73ZM1974.14 266.412V281.118H1959.44V266.412H1974.14ZM1930.03 266.412V281.118H1915.32V266.412H1930.03ZM1915.32 266.412V281.118H1900.61V266.412H1915.32ZM1900.61 266.412V281.118H1885.91V266.412H1900.61ZM1885.91 266.412V281.118H1871.2V266.412H1885.91ZM1871.2 281.118V295.824H1856.5V281.118H1871.2ZM1885.91 281.118V295.824H1871.2V281.118H1885.91ZM1885.91 295.824V310.529H1871.2V295.824H1885.91ZM1856.5 281.118V295.824H1841.79V281.118H1856.5ZM1856.5 295.824V310.529H1841.79V295.824H1856.5ZM1871.2 295.824V310.529H1856.5V295.824H1871.2ZM1885.91 310.529V325.235H1871.2V310.529H1885.91ZM1900.61 310.529V325.235H1885.91V310.529H1900.61ZM1871.2 310.529V325.235H1856.5V310.529H1871.2ZM1856.5 310.529V325.235H1841.79V310.529H1856.5ZM1841.79 310.529V325.235H1827.08V310.529H1841.79ZM1841.79 325.235V339.941H1827.08V325.235H1841.79ZM1841.79 339.941V354.647H1827.08V339.941H1841.79ZM1841.79 354.647V369.353H1827.08V354.647H1841.79ZM1841.79 369.353V384.059H1827.08V369.353H1841.79ZM1841.79 384.059V398.765H1827.08V384.059H1841.79ZM1841.79 398.765V413.471H1827.08V398.765H1841.79ZM1841.79 413.471V428.176H1827.08V413.471H1841.79ZM1841.79 428.176V442.882H1827.08V428.176H1841.79ZM1856.5 428.176V442.882H1841.79V428.176H1856.5ZM1856.5 442.882V457.588H1841.79V442.882H1856.5ZM1856.5 457.588V472.294H1841.79V457.588H1856.5ZM1871.2 457.588V472.294H1856.5V457.588H1871.2ZM1885.91 457.588V472.294H1871.2V457.588H1885.91ZM1900.61 442.882V457.588H1885.91V442.882H1900.61ZM1900.61 428.176V442.882H1885.91V428.176H1900.61ZM1885.91 428.176V442.882H1871.2V428.176H1885.91ZM1885.91 442.882V457.588H1871.2V442.882H1885.91ZM1871.2 442.882V457.588H1856.5V442.882H1871.2ZM1871.2 428.176V442.882H1856.5V428.176H1871.2ZM1871.2 413.471V428.176H1856.5V413.471H1871.2ZM1885.91 413.471V428.176H1871.2V413.471H1885.91ZM1885.91 398.765V413.471H1871.2V398.765H1885.91ZM1885.91 384.059V398.765H1871.2V384.059H1885.91ZM1885.91 369.353V384.059H1871.2V369.353H1885.91ZM1885.91 354.647V369.353H1871.2V354.647H1885.91ZM1885.91 339.941V354.647H1871.2V339.941H1885.91ZM1885.91 325.235V339.941H1871.2V325.235H1885.91ZM1871.2 325.235V339.941H1856.5V325.235H1871.2ZM1871.2 339.941V354.647H1856.5V339.941H1871.2ZM1871.2 354.647V369.353H1856.5V354.647H1871.2ZM1871.2 369.353V384.059H1856.5V369.353H1871.2ZM1871.2 384.059V398.765H1856.5V384.059H1871.2ZM1871.2 398.765V413.471H1856.5V398.765H1871.2ZM1856.5 413.471V428.176H1841.79V413.471H1856.5ZM1856.5 398.765V413.471H1841.79V398.765H1856.5ZM1856.5 384.059V398.765H1841.79V384.059H1856.5ZM1856.5 369.353V384.059H1841.79V369.353H1856.5ZM1856.5 354.647V369.353H1841.79V354.647H1856.5ZM1856.5 339.941V354.647H1841.79V339.941H1856.5ZM1856.5 325.235V339.941H1841.79V325.235H1856.5ZM1900.61 457.588V472.294H1885.91V457.588H1900.61ZM1900.61 472.294V487H1885.91V472.294H1900.61ZM1885.91 472.294V487H1871.2V472.294H1885.91ZM1915.32 472.294V487H1900.61V472.294H1915.32ZM1930.03 472.294V487H1915.32V472.294H1930.03ZM1944.73 472.294V487H1930.03V472.294H1944.73ZM1974.14 472.294V487H1959.44V472.294H1974.14ZM1974.14 457.588V472.294H1959.44V457.588H1974.14ZM1988.85 457.588V472.294H1974.14V457.588H1988.85ZM2003.56 457.588V472.294H1988.85V457.588H2003.56ZM2003.56 339.941V354.647H1988.85V339.941H2003.56ZM2003.56 325.235V339.941H1988.85V325.235H2003.56ZM2018.26 310.529V325.235H2003.56V310.529H2018.26ZM2003.56 295.824V310.529H1988.85V295.824H2003.56ZM1988.85 281.118V295.824H1974.14V281.118H1988.85ZM1974.14 281.118V295.824H1959.44V281.118H1974.14ZM1959.44 281.118V295.824H1944.73V281.118H1959.44ZM1959.44 295.824V310.529H1944.73V295.824H1959.44ZM1974.14 310.529V325.235H1959.44V310.529H1974.14ZM1988.85 310.529V325.235H1974.14V310.529H1988.85ZM1974.14 325.235V339.941H1959.44V325.235H1974.14ZM1974.14 339.941V354.647H1959.44V339.941H1974.14ZM1974.14 354.647V369.353H1959.44V354.647H1974.14ZM1944.73 442.882V457.588H1930.03V442.882H1944.73ZM1930.03 442.882V457.588H1915.32V442.882H1930.03ZM1915.32 442.882V457.588H1900.61V442.882H1915.32ZM1915.32 457.588V472.294H1900.61V457.588H1915.32ZM1930.03 457.588V472.294H1915.32V457.588H1930.03ZM1944.73 457.588V472.294H1930.03V457.588H1944.73ZM1959.44 457.588V472.294H1944.73V457.588H1959.44ZM1974.14 442.882V457.588H1959.44V442.882H1974.14ZM1988.85 442.882V457.588H1974.14V442.882H1988.85ZM1988.85 339.941V354.647H1974.14V339.941H1988.85ZM1988.85 325.235V339.941H1974.14V325.235H1988.85ZM1988.85 295.824V310.529H1974.14V295.824H1988.85ZM1974.14 295.824V310.529H1959.44V295.824H1974.14ZM1944.73 281.118V295.824H1930.03V281.118H1944.73ZM1930.03 281.118V295.824H1915.32V281.118H1930.03ZM1915.32 281.118V295.824H1900.61V281.118H1915.32ZM1900.61 281.118V295.824H1885.91V281.118H1900.61ZM1900.61 295.824V310.529H1885.91V295.824H1900.61ZM1915.32 295.824V310.529H1900.61V295.824H1915.32ZM1930.03 295.824V310.529H1915.32V295.824H1930.03ZM1944.73 295.824V310.529H1930.03V295.824H1944.73ZM2003.56 281.118V295.824H1988.85V281.118H2003.56ZM2003.56 442.882V457.588H1988.85V442.882H2003.56ZM2003.56 310.529V325.235H1988.85V310.529H2003.56ZM2018.26 325.235V339.941H2003.56V325.235H2018.26ZM2018.26 339.941V354.647H2003.56V339.941H2018.26ZM2018.26 428.176V442.882H2003.56V428.176H2018.26ZM2003.56 428.176V442.882H1988.85V428.176H2003.56ZM1988.85 428.176V442.882H1974.14V428.176H1988.85ZM1974.14 428.176V442.882H1959.44V428.176H1974.14ZM1988.85 354.647V369.353H1974.14V354.647H1988.85ZM2003.56 354.647V369.353H1988.85V354.647H2003.56ZM2018.26 354.647V369.353H2003.56V354.647H2018.26ZM2018.26 369.353V384.059H2003.56V369.353H2018.26ZM2018.26 384.059V398.765H2003.56V384.059H2018.26ZM2018.26 398.765V413.471H2003.56V398.765H2018.26ZM2003.56 398.765V413.471H1988.85V398.765H2003.56ZM2003.56 413.471V428.176H1988.85V413.471H2003.56ZM1988.85 413.471V428.176H1974.14V413.471H1988.85ZM2018.26 413.471V428.176H2003.56V413.471H2018.26ZM1974.14 413.471V428.176H1959.44V413.471H1974.14ZM1974.14 398.765V413.471H1959.44V398.765H1974.14ZM1974.14 384.059V398.765H1959.44V384.059H1974.14ZM1974.14 369.353V384.059H1959.44V369.353H1974.14ZM1988.85 369.353V384.059H1974.14V369.353H1988.85ZM2003.56 369.353V384.059H1988.85V369.353H2003.56ZM2003.56 384.059V398.765H1988.85V384.059H2003.56ZM1988.85 398.765V413.471H1974.14V398.765H1988.85ZM1988.85 384.059V398.765H1974.14V384.059H1988.85ZM1944.73 266.412H1959.44V281.118H1944.73V266.412ZM1944.73 442.882H1959.44V457.588H1944.73V442.882ZM1944.73 428.176H1959.44V442.882H1944.73V428.176ZM2077.14 428.176H2091.85V442.882H2077.14V428.176ZM2091.85 428.176H2106.55V442.882H2091.85V428.176ZM2106.55 428.176H2121.26V442.882H2106.55V428.176ZM2106.55 442.882H2121.26V457.588H2106.55V442.882ZM2106.55 457.588H2121.26V472.294H2106.55V457.588ZM2106.55 472.294H2121.26V487H2106.55V472.294ZM2091.85 472.294H2106.55V487H2091.85V472.294ZM2077.14 472.294H2091.85V487H2077.14V472.294ZM2062.44 472.294H2077.14V487H2062.44V472.294ZM2062.44 457.588H2077.14V472.294H2062.44V457.588ZM2062.44 442.882H2077.14V457.588H2062.44V442.882ZM2062.44 428.176H2077.14V442.882H2062.44V428.176ZM2077.14 442.882H2091.85V457.588H2077.14V442.882ZM2091.85 442.882H2106.55V457.588H2091.85V442.882ZM2077.14 457.588H2091.85V472.294H2077.14V457.588ZM2091.85 457.588H2106.55V472.294H2091.85V457.588Z" fill="#354770"/>
</svg>
