<svg width="1015" height="1015" viewBox="0 0 1015 1015" fill="none" xmlns="http://www.w3.org/2000/svg">
<rect width="1015" height="1015" fill="#0B1A3A"/>
<path d="M198.471 507.176H204.353V513.059H198.471V507.176ZM198.471 501.294H204.353V507.176H198.471V501.294ZM198.471 495.412H204.353V501.294H198.471V495.412ZM198.471 489.529H204.353V495.412H198.471V489.529ZM198.471 483.647H204.353V489.529H198.471V483.647ZM198.471 477.765H204.353V483.647H198.471V477.765ZM198.471 471.882H204.353V477.765H198.471V471.882ZM198.471 466H204.353V471.882H198.471V466ZM192.588 466H198.471V471.882H192.588V466ZM192.588 460.118H198.471V466H192.588V460.118ZM192.588 454.235H198.471V460.118H192.588V454.235ZM186.706 454.235H192.588V460.118H186.706V454.235ZM186.706 460.118H192.588V466H186.706V460.118ZM186.706 466H192.588V471.882H186.706V466ZM186.706 471.882H192.588V477.765H186.706V471.882ZM186.706 477.765H192.588V483.647H186.706V477.765ZM186.706 483.647H192.588V489.529H186.706V483.647ZM186.706 489.529H192.588V495.412H186.706V489.529ZM186.706 495.412H192.588V501.294H186.706V495.412ZM186.706 501.294H192.588V507.176H186.706V501.294ZM186.706 507.176H192.588V513.059H186.706V507.176ZM186.706 513.059H192.588V518.941H186.706V513.059ZM186.706 518.941H192.588V524.824H186.706V518.941ZM192.588 518.941H198.471V524.824H192.588V518.941ZM192.588 513.059H198.471V518.941H192.588V513.059ZM192.588 507.176H198.471V513.059H192.588V507.176ZM192.588 501.294H198.471V507.176H192.588V501.294ZM192.588 495.412H198.471V501.294H192.588V495.412ZM192.588 489.529H198.471V495.412H192.588V489.529ZM192.588 483.647H198.471V489.529H192.588V483.647ZM192.588 477.765H198.471V483.647H192.588V477.765ZM192.588 471.882H198.471V477.765H192.588V471.882ZM180.824 471.882H186.706V477.765H180.824V471.882ZM174.941 471.882H180.824V477.765H174.941V471.882ZM180.824 466H186.706V471.882H180.824V466ZM174.941 466H180.824V471.882H174.941V466ZM169.059 466H174.941V471.882H169.059V466ZM163.176 466H169.059V471.882H163.176V466ZM157.294 466H163.176V471.882H157.294V466ZM151.412 466H157.294V471.882H151.412V466ZM145.529 466H151.412V471.882H145.529V466ZM145.529 471.882H151.412V477.765H145.529V471.882ZM145.529 477.765H151.412V483.647H145.529V477.765ZM145.529 483.647H151.412V489.529H145.529V483.647ZM145.529 489.529H151.412V495.412H145.529V489.529ZM145.529 495.412H151.412V501.294H145.529V495.412ZM145.529 501.294H151.412V507.176H145.529V501.294ZM145.529 507.176H151.412V513.059H145.529V507.176ZM151.412 507.176H157.294V513.059H151.412V507.176ZM151.412 513.059H157.294V518.941H151.412V513.059ZM157.294 513.059H163.176V518.941H157.294V513.059ZM163.176 513.059H169.059V518.941H163.176V513.059ZM169.059 513.059H174.941V518.941H169.059V513.059ZM174.941 513.059H180.824V518.941H174.941V513.059ZM174.941 507.176H180.824V513.059H174.941V507.176ZM169.059 507.176H174.941V513.059H169.059V507.176ZM163.176 507.176H169.059V513.059H163.176V507.176ZM157.294 507.176H163.176V513.059H157.294V507.176ZM180.824 507.176H186.706V513.059H180.824V507.176ZM180.824 501.294H186.706V507.176H180.824V501.294ZM174.941 501.294H180.824V507.176H174.941V501.294ZM180.824 495.412H186.706V501.294H180.824V495.412ZM180.824 477.765H186.706V483.647H180.824V477.765ZM180.824 483.647H186.706V489.529H180.824V483.647ZM180.824 489.529H186.706V495.412H180.824V489.529ZM180.824 513.059H186.706V518.941H180.824V513.059ZM180.824 518.941H186.706V524.824H180.824V518.941ZM180.824 524.824H186.706V530.706H180.824V524.824ZM174.941 524.824H180.824V530.706H174.941V524.824ZM169.059 524.824H174.941V530.706H169.059V524.824ZM163.176 524.824H169.059V530.706H163.176V524.824ZM157.294 524.824H163.176V530.706H157.294V524.824ZM157.294 518.941H163.176V524.824H157.294V518.941ZM151.412 518.941H157.294V524.824H151.412V518.941ZM151.412 524.824H157.294V530.706H151.412V524.824ZM163.176 518.941H169.059V524.824H163.176V518.941ZM169.059 518.941H174.941V524.824H169.059V518.941ZM174.941 518.941H180.824V524.824H174.941V518.941ZM180.824 448.353H186.706V454.235H180.824V448.353ZM180.824 454.235H186.706V460.118H180.824V454.235ZM180.824 460.118H186.706V466H180.824V460.118ZM174.941 460.118H180.824V466H174.941V460.118ZM174.941 454.235H180.824V460.118H174.941V454.235ZM174.941 448.353H180.824V454.235H174.941V448.353ZM169.059 448.353H174.941V454.235H169.059V448.353ZM163.176 448.353H169.059V454.235H163.176V448.353ZM157.294 448.353H163.176V454.235H157.294V448.353ZM151.412 448.353H157.294V454.235H151.412V448.353ZM145.529 448.353H151.412V454.235H145.529V448.353ZM139.647 448.353H145.529V454.235H139.647V448.353ZM133.765 448.353H139.647V454.235H133.765V448.353ZM127.882 448.353H133.765V454.235H127.882V448.353ZM127.882 454.235H133.765V460.118H127.882V454.235ZM127.882 460.118H133.765V466H127.882V460.118ZM127.882 466H133.765V471.882H127.882V466ZM133.765 466H139.647V471.882H133.765V466ZM133.765 460.118H139.647V466H133.765V460.118ZM139.647 460.118H145.529V466H139.647V460.118ZM145.529 460.118H151.412V466H145.529V460.118ZM151.412 460.118H157.294V466H151.412V460.118ZM157.294 460.118H163.176V466H157.294V460.118ZM163.176 460.118H169.059V466H163.176V460.118ZM169.059 460.118H174.941V466H169.059V460.118ZM169.059 454.235H174.941V460.118H169.059V454.235ZM163.176 454.235H169.059V460.118H163.176V454.235ZM157.294 454.235H163.176V460.118H157.294V454.235ZM151.412 454.235H157.294V460.118H151.412V454.235ZM145.529 454.235H151.412V460.118H145.529V454.235ZM139.647 454.235H145.529V460.118H139.647V454.235ZM133.765 471.882H139.647V477.765H133.765V471.882ZM133.765 477.765H139.647V483.647H133.765V477.765ZM133.765 454.235H139.647V460.118H133.765V454.235ZM139.647 466H145.529V471.882H139.647V466ZM139.647 471.882H145.529V477.765H139.647V471.882ZM139.647 477.765H145.529V483.647H139.647V477.765ZM139.647 483.647H145.529V489.529H139.647V483.647ZM139.647 489.529H145.529V495.412H139.647V489.529ZM139.647 495.412H145.529V501.294H139.647V495.412ZM139.647 501.294H145.529V507.176H139.647V501.294ZM139.647 507.176H145.529V513.059H139.647V507.176ZM133.765 507.176H139.647V513.059H133.765V507.176ZM133.765 501.294H139.647V507.176H133.765V501.294ZM133.765 495.412H139.647V501.294H133.765V495.412ZM133.765 489.529H139.647V495.412H133.765V489.529ZM127.882 483.647H133.765V489.529H127.882V483.647ZM127.882 477.765H133.765V483.647H127.882V477.765ZM127.882 471.882H133.765V477.765H127.882V471.882ZM127.882 489.529H133.765V495.412H127.882V489.529ZM127.882 495.412H133.765V501.294H127.882V495.412ZM133.765 483.647H139.647V489.529H133.765V483.647ZM127.882 501.294H133.765V507.176H127.882V501.294ZM127.882 507.176H133.765V513.059H127.882V507.176ZM127.882 513.059H133.765V518.941H127.882V513.059ZM127.882 518.941H133.765V524.824H127.882V518.941ZM133.765 518.941H139.647V524.824H133.765V518.941ZM139.647 518.941H145.529V524.824H139.647V518.941ZM145.529 518.941H151.412V524.824H145.529V518.941ZM145.529 524.824H151.412V530.706H145.529V524.824ZM139.647 524.824H145.529V530.706H139.647V524.824ZM133.765 524.824H139.647V530.706H133.765V524.824ZM127.882 524.824H133.765V530.706H127.882V524.824ZM133.765 513.059H139.647V518.941H133.765V513.059ZM139.647 513.059H145.529V518.941H139.647V513.059ZM145.529 513.059H151.412V518.941H145.529V513.059ZM127.882 530.706H133.765V536.588H127.882V530.706ZM127.882 536.588H133.765V542.471H127.882V536.588ZM127.882 542.471H133.765V548.353H127.882V542.471ZM127.882 548.353H133.765V554.235H127.882V548.353ZM127.882 554.235H133.765V560.118H127.882V554.235ZM127.882 560.118H133.765V566H127.882V560.118ZM133.765 560.118H139.647V566H133.765V560.118ZM139.647 560.118H145.529V566H139.647V560.118ZM145.529 560.118H151.412V566H145.529V560.118ZM145.529 554.235H151.412V560.118H145.529V554.235ZM145.529 548.353H151.412V554.235H145.529V548.353ZM145.529 542.471H151.412V548.353H145.529V542.471ZM145.529 536.588H151.412V542.471H145.529V536.588ZM145.529 530.706H151.412V536.588H145.529V530.706ZM139.647 530.706H145.529V536.588H139.647V530.706ZM133.765 530.706H139.647V536.588H133.765V530.706ZM133.765 536.588H139.647V542.471H133.765V536.588ZM133.765 542.471H139.647V548.353H133.765V542.471ZM133.765 548.353H139.647V554.235H133.765V548.353ZM133.765 554.235H139.647V560.118H133.765V554.235ZM139.647 554.235H145.529V560.118H139.647V554.235ZM139.647 548.353H145.529V554.235H139.647V548.353ZM139.647 542.471H145.529V548.353H139.647V542.471ZM139.647 536.588H145.529V542.471H139.647V536.588ZM292.611 542.471H298.494V548.353H292.611V542.471ZM286.729 542.471H292.611V548.353H286.729V542.471ZM280.847 542.471H286.729V548.353H280.847V542.471ZM280.847 548.353H286.729V554.235H280.847V548.353ZM286.729 548.353H292.611V554.235H286.729V548.353ZM280.847 554.235H286.729V560.118H280.847V554.235ZM274.964 554.235H280.847V560.118H274.964V554.235ZM286.729 554.235H292.611V560.118H286.729V554.235ZM274.964 560.118H280.847V566H274.964V560.118ZM269.082 560.118H274.964V566H269.082V560.118ZM263.199 560.118H269.082V566H263.199V560.118ZM257.317 560.118H263.199V566H257.317V560.118ZM251.435 560.118H257.317V566H251.435V560.118ZM245.552 560.118H251.435V566H245.552V560.118ZM239.67 560.118H245.552V566H239.67V560.118ZM239.67 554.235H245.552V560.118H239.67V554.235ZM233.788 554.235H239.67V560.118H233.788V554.235ZM227.905 554.235H233.788V560.118H227.905V554.235ZM227.905 548.353H233.788V554.235H227.905V548.353ZM233.788 548.353H239.67V554.235H233.788V548.353ZM239.67 548.353H245.552V554.235H239.67V548.353ZM245.552 548.353H251.435V554.235H245.552V548.353ZM251.435 548.353H257.317V554.235H251.435V548.353ZM257.317 548.353H263.199V554.235H257.317V548.353ZM263.199 548.353H269.082V554.235H263.199V548.353ZM269.082 548.353H274.964V554.235H269.082V548.353ZM274.964 548.353H280.847V554.235H274.964V548.353ZM269.082 554.235H274.964V560.118H269.082V554.235ZM263.199 554.235H269.082V560.118H263.199V554.235ZM257.317 554.235H263.199V560.118H257.317V554.235ZM251.435 554.235H257.317V560.118H251.435V554.235ZM245.552 554.235H251.435V560.118H245.552V554.235ZM233.788 542.471H239.67V548.353H233.788V542.471ZM227.905 542.471H233.788V548.353H227.905V542.471ZM222.023 542.471H227.905V548.353H222.023V542.471ZM233.788 536.588H239.67V542.471H233.788V536.588ZM239.67 536.588H245.552V542.471H239.67V536.588ZM245.552 542.471H251.435V548.353H245.552V542.471ZM239.67 542.471H245.552V548.353H239.67V542.471ZM227.905 536.588H233.788V542.471H227.905V536.588ZM227.905 530.706H233.788V536.588H227.905V530.706ZM222.023 530.706H227.905V536.588H222.023V530.706ZM222.023 524.824H227.905V530.706H222.023V524.824ZM222.023 536.588H227.905V542.471H222.023V536.588ZM222.023 518.941H227.905V524.824H222.023V518.941ZM227.905 518.941H233.788V524.824H227.905V518.941ZM233.788 518.941H239.67V524.824H233.788V518.941ZM239.67 518.941H245.552V524.824H239.67V518.941ZM239.67 524.824H245.552V530.706H239.67V524.824ZM239.67 530.706H245.552V536.588H239.67V530.706ZM233.788 524.824H239.67V530.706H233.788V524.824ZM227.905 524.824H233.788V530.706H227.905V524.824ZM233.788 530.706H239.67V536.588H233.788V530.706ZM251.435 542.471H257.317V548.353H251.435V542.471ZM257.317 542.471H263.199V548.353H257.317V542.471ZM263.199 542.471H269.082V548.353H263.199V542.471ZM269.082 542.471H274.964V548.353H269.082V542.471ZM274.964 542.471H280.847V548.353H274.964V542.471ZM274.964 536.588H280.847V542.471H274.964V536.588ZM269.082 536.588H274.964V542.471H269.082V536.588ZM280.847 536.588H286.729V542.471H280.847V536.588ZM286.729 536.588H292.611V542.471H286.729V536.588ZM286.729 530.706H292.611V536.588H286.729V530.706ZM292.611 530.706H298.494V536.588H292.611V530.706ZM292.611 524.824H298.494V530.706H292.611V524.824ZM292.611 536.588H298.494V542.471H292.611V536.588ZM292.611 518.941H298.494V524.824H292.611V518.941ZM292.611 513.059H298.494V518.941H292.611V513.059ZM292.611 507.176H298.494V513.059H292.611V507.176ZM292.611 501.294H298.494V507.176H292.611V501.294ZM292.611 495.412H298.494V501.294H292.611V495.412ZM286.729 495.412H292.611V501.294H286.729V495.412ZM286.729 489.529H292.611V495.412H286.729V489.529ZM280.847 495.412H286.729V501.294H280.847V495.412ZM274.964 495.412H280.847V501.294H274.964V495.412ZM274.964 501.294H280.847V507.176H274.964V501.294ZM274.964 507.176H280.847V513.059H274.964V507.176ZM274.964 513.059H280.847V518.941H274.964V513.059ZM274.964 518.941H280.847V524.824H274.964V518.941ZM274.964 524.824H280.847V530.706H274.964V524.824ZM274.964 530.706H280.847V536.588H274.964V530.706ZM280.847 530.706H286.729V536.588H280.847V530.706ZM280.847 524.824H286.729V530.706H280.847V524.824ZM286.729 524.824H292.611V530.706H286.729V524.824ZM286.729 518.941H292.611V524.824H286.729V518.941ZM286.729 513.059H292.611V518.941H286.729V513.059ZM286.729 507.176H292.611V513.059H286.729V507.176ZM280.847 501.294H286.729V507.176H280.847V501.294ZM280.847 507.176H286.729V513.059H280.847V507.176ZM280.847 513.059H286.729V518.941H280.847V513.059ZM280.847 518.941H286.729V524.824H280.847V518.941ZM286.729 501.294H292.611V507.176H286.729V501.294ZM292.611 489.529H298.494V495.412H292.611V489.529ZM292.611 483.647H298.494V489.529H292.611V483.647ZM292.611 477.765H298.494V483.647H292.611V477.765ZM292.611 471.882H298.494V477.765H292.611V471.882ZM292.611 466H298.494V471.882H292.611V466ZM286.729 466H292.611V471.882H286.729V466ZM286.729 460.118H292.611V466H286.729V460.118ZM286.729 454.235H292.611V460.118H286.729V454.235ZM280.847 454.235H286.729V460.118H280.847V454.235ZM274.964 454.235H280.847V460.118H274.964V454.235ZM280.847 489.529H286.729V495.412H280.847V489.529ZM280.847 483.647H286.729V489.529H280.847V483.647ZM280.847 477.765H286.729V483.647H280.847V477.765ZM286.729 477.765H292.611V483.647H286.729V477.765ZM286.729 471.882H292.611V477.765H286.729V471.882ZM286.729 483.647H292.611V489.529H286.729V483.647ZM274.964 489.529H280.847V495.412H274.964V489.529ZM274.964 483.647H280.847V489.529H274.964V483.647ZM280.847 471.882H286.729V477.765H280.847V471.882ZM274.964 471.882H280.847V477.765H274.964V471.882ZM274.964 477.765H280.847V483.647H274.964V477.765ZM269.082 471.882H274.964V477.765H269.082V471.882ZM269.082 466H274.964V471.882H269.082V466ZM274.964 460.118H280.847V466H274.964V460.118ZM280.847 460.118H286.729V466H280.847V460.118ZM280.847 466H286.729V471.882H280.847V466ZM274.964 466H280.847V471.882H274.964V466ZM269.082 460.118H274.964V466H269.082V460.118ZM269.082 454.235H274.964V460.118H269.082V454.235ZM269.082 448.353H274.964V454.235H269.082V448.353ZM274.964 448.353H280.847V454.235H274.964V448.353ZM263.199 448.353H269.082V454.235H263.199V448.353ZM257.317 448.353H263.199V454.235H257.317V448.353ZM251.435 448.353H257.317V454.235H251.435V448.353ZM245.552 448.353H251.435V454.235H245.552V448.353ZM245.552 454.235H251.435V460.118H245.552V454.235ZM239.67 454.235H245.552V460.118H239.67V454.235ZM239.67 448.353H245.552V454.235H239.67V448.353ZM233.788 454.235H239.67V460.118H233.788V454.235ZM227.905 454.235H233.788V460.118H227.905V454.235ZM227.905 460.118H233.788V466H227.905V460.118ZM227.905 466H233.788V471.882H227.905V466ZM222.023 466H227.905V471.882H222.023V466ZM222.023 471.882H227.905V477.765H222.023V471.882ZM227.905 471.882H233.788V477.765H227.905V471.882ZM233.788 471.882H239.67V477.765H233.788V471.882ZM239.67 471.882H245.552V477.765H239.67V471.882ZM245.552 466H251.435V471.882H245.552V466ZM251.435 466H257.317V471.882H251.435V466ZM257.317 466H263.199V471.882H257.317V466ZM263.199 466H269.082V471.882H263.199V466ZM263.199 454.235H269.082V460.118H263.199V454.235ZM263.199 460.118H269.082V466H263.199V460.118ZM257.317 460.118H263.199V466H257.317V460.118ZM251.435 460.118H257.317V466H251.435V460.118ZM257.317 454.235H263.199V460.118H257.317V454.235ZM251.435 454.235H257.317V460.118H251.435V454.235ZM245.552 460.118H251.435V466H245.552V460.118ZM239.67 460.118H245.552V466H239.67V460.118ZM239.67 466H245.552V471.882H239.67V466ZM233.788 466H239.67V471.882H233.788V466ZM233.788 460.118H239.67V466H233.788V460.118ZM233.788 477.765H239.67V483.647H233.788V477.765ZM233.788 483.647H239.67V489.529H233.788V483.647ZM233.788 489.529H239.67V495.412H233.788V489.529ZM233.788 495.412H239.67V501.294H233.788V495.412ZM239.67 495.412H245.552V501.294H239.67V495.412ZM239.67 501.294H245.552V507.176H239.67V501.294ZM239.67 489.529H245.552V495.412H239.67V489.529ZM239.67 483.647H245.552V489.529H239.67V483.647ZM239.67 477.765H245.552V483.647H239.67V477.765ZM239.67 507.176H245.552V513.059H239.67V507.176ZM239.67 513.059H245.552V518.941H239.67V513.059ZM233.788 513.059H239.67V518.941H233.788V513.059ZM227.905 513.059H233.788V518.941H227.905V513.059ZM222.023 507.176H227.905V513.059H222.023V507.176ZM222.023 513.059H227.905V518.941H222.023V513.059ZM222.023 501.294H227.905V507.176H222.023V501.294ZM222.023 495.412H227.905V501.294H222.023V495.412ZM222.023 489.529H227.905V495.412H222.023V489.529ZM222.023 483.647H227.905V489.529H222.023V483.647ZM222.023 477.765H227.905V483.647H222.023V477.765ZM227.905 483.647H233.788V489.529H227.905V483.647ZM227.905 489.529H233.788V495.412H227.905V489.529ZM227.905 495.412H233.788V501.294H227.905V495.412ZM227.905 501.294H233.788V507.176H227.905V501.294ZM227.905 507.176H233.788V513.059H227.905V507.176ZM233.788 507.176H239.67V513.059H233.788V507.176ZM233.788 501.294H239.67V507.176H233.788V501.294ZM227.905 477.765H233.788V483.647H227.905V477.765ZM233.788 448.353H239.67V454.235H233.788V448.353ZM227.905 448.353H233.788V454.235H227.905V448.353ZM222.023 448.353H227.905V454.235H222.023V448.353ZM222.023 454.235H227.905V460.118H222.023V454.235ZM222.023 460.118H227.905V466H222.023V460.118ZM222.023 548.353H227.905V554.235H222.023V548.353ZM222.023 554.235H227.905V560.118H222.023V554.235ZM222.023 560.118H227.905V566H222.023V560.118ZM227.905 560.118H233.788V566H227.905V560.118ZM233.788 560.118H239.67V566H233.788V560.118ZM322.046 483.647H327.928V489.529H322.046V483.647ZM322.046 489.529H327.928V495.412H322.046V489.529ZM322.046 495.412H327.928V501.294H322.046V495.412ZM322.046 501.294H327.928V507.176H322.046V501.294ZM322.046 507.176H327.928V513.059H322.046V507.176ZM316.164 507.176H322.046V513.059H316.164V507.176ZM316.164 501.294H322.046V507.176H316.164V501.294ZM316.164 495.412H322.046V501.294H316.164V495.412ZM316.164 489.529H322.046V495.412H316.164V489.529ZM316.164 483.647H322.046V489.529H316.164V483.647ZM316.164 542.471H322.046V548.353H316.164V542.471ZM316.164 536.588H322.046V542.471H316.164V536.588ZM316.164 530.706H322.046V536.588H316.164V530.706ZM316.164 524.824H322.046V530.706H316.164V524.824ZM322.046 518.941H327.928V524.824H322.046V518.941ZM322.046 513.059H327.928V518.941H322.046V513.059ZM316.164 513.059H322.046V518.941H316.164V513.059ZM316.164 518.941H322.046V524.824H316.164V518.941ZM316.164 548.353H322.046V554.235H316.164V548.353ZM316.164 554.235H322.046V560.118H316.164V554.235ZM316.164 560.118H322.046V566H316.164V560.118ZM333.811 483.647H339.693V489.529H333.811V483.647ZM333.811 489.529H339.693V495.412H333.811V489.529ZM333.811 495.412H339.693V501.294H333.811V495.412ZM333.811 501.294H339.693V507.176H333.811V501.294ZM333.811 507.176H339.693V513.059H333.811V507.176ZM333.811 513.059H339.693V518.941H333.811V513.059ZM333.811 518.941H339.693V524.824H333.811V518.941ZM333.811 524.824H339.693V530.706H333.811V524.824ZM333.811 530.706H339.693V536.588H333.811V530.706ZM333.811 536.588H339.693V542.471H333.811V536.588ZM333.811 542.471H339.693V548.353H333.811V542.471ZM333.811 548.353H339.693V554.235H333.811V548.353ZM333.811 554.235H339.693V560.118H333.811V554.235ZM333.811 560.118H339.693V566H333.811V560.118ZM327.928 560.118H333.811V566H327.928V560.118ZM322.046 560.118H327.928V566H322.046V560.118ZM322.046 554.235H327.928V560.118H322.046V554.235ZM327.928 554.235H333.811V560.118H327.928V554.235ZM327.928 548.353H333.811V554.235H327.928V548.353ZM322.046 542.471H327.928V548.353H322.046V542.471ZM322.046 536.588H327.928V542.471H322.046V536.588ZM322.046 530.706H327.928V536.588H322.046V530.706ZM327.928 530.706H333.811V536.588H327.928V530.706ZM327.928 536.588H333.811V542.471H327.928V536.588ZM327.928 542.471H333.811V548.353H327.928V542.471ZM322.046 548.353H327.928V554.235H322.046V548.353ZM327.928 524.824H333.811V530.706H327.928V524.824ZM327.928 518.941H333.811V524.824H327.928V518.941ZM327.928 513.059H333.811V518.941H327.928V513.059ZM322.046 524.824H327.928V530.706H322.046V524.824ZM327.928 507.176H333.811V513.059H327.928V507.176ZM327.928 501.294H333.811V507.176H327.928V501.294ZM327.928 495.412H333.811V501.294H327.928V495.412ZM327.928 489.529H333.811V495.412H327.928V489.529ZM327.928 483.647H333.811V489.529H327.928V483.647ZM333.811 448.353H339.693V454.235H333.811V448.353ZM327.928 454.235H333.811V460.118H327.928V454.235ZM327.928 442.471H333.811V448.353H327.928V442.471ZM322.046 448.353H327.928V454.235H322.046V448.353ZM327.928 448.353H333.811V454.235H327.928V448.353ZM322.046 442.471H327.928V448.353H322.046V442.471ZM322.046 454.235H327.928V460.118H322.046V454.235ZM333.811 454.235H339.693V460.118H333.811V454.235ZM316.164 448.353H322.046V454.235H316.164V448.353ZM316.164 454.235H322.046V460.118H316.164V454.235ZM322.046 460.118H327.928V466H322.046V460.118ZM327.928 460.118H333.811V466H327.928V460.118ZM316.164 442.471H322.046V448.353H316.164V442.471ZM333.811 442.471H339.693V448.353H333.811V442.471ZM333.811 460.118H339.693V466H333.811V460.118ZM316.164 460.118H322.046V466H316.164V460.118ZM404.433 566H398.551V560.118H404.433V566ZM416.198 566H410.316V560.118H416.198V566ZM398.551 566H392.669V560.118H398.551V566ZM392.669 566H386.786V560.118H392.669V566ZM386.786 566H380.904V560.118H386.786V566ZM380.904 566H375.022V560.118H380.904V566ZM375.022 560.118H369.139V554.235H375.022V560.118ZM380.904 560.118H375.022V554.235H380.904V560.118ZM380.904 554.235H375.022V548.353H380.904V554.235ZM369.139 560.118H363.257V554.235H369.139V560.118ZM369.139 554.235H363.257V548.353H369.139V554.235ZM375.022 554.235H369.139V548.353H375.022V554.235ZM380.904 548.353H375.022V542.471H380.904V548.353ZM386.786 548.353H380.904V542.471H386.786V548.353ZM375.022 548.353H369.139V542.471H375.022V548.353ZM369.139 548.353H363.257V542.471H369.139V548.353ZM363.257 548.353H357.375V542.471H363.257V548.353ZM363.257 542.471H357.375V536.588H363.257V542.471ZM363.257 507.176H357.375V501.294H363.257V507.176ZM363.257 501.294H357.375V495.412H363.257V501.294ZM369.139 501.294H363.257V495.412H369.139V501.294ZM369.139 495.412H363.257V489.529H369.139V495.412ZM369.139 489.529H363.257V483.647H369.139V489.529ZM375.022 489.529H369.139V483.647H375.022V489.529ZM380.904 489.529H375.022V483.647H380.904V489.529ZM386.786 495.412H380.904V489.529H386.786V495.412ZM386.786 501.294H380.904V495.412H386.786V501.294ZM380.904 501.294H375.022V495.412H380.904V501.294ZM380.904 495.412H375.022V489.529H380.904V495.412ZM375.022 495.412H369.139V489.529H375.022V495.412ZM375.022 501.294H369.139V495.412H375.022V501.294ZM375.022 507.176H369.139V501.294H375.022V507.176ZM380.904 507.176H375.022V501.294H380.904V507.176ZM380.904 542.471H375.022V536.588H380.904V542.471ZM375.022 542.471H369.139V536.588H375.022V542.471ZM369.139 507.176H363.257V501.294H369.139V507.176ZM369.139 542.471H363.257V536.588H369.139V542.471ZM386.786 489.529H380.904V483.647H386.786V489.529ZM386.786 483.647H380.904V477.765H386.786V483.647ZM380.904 483.647H375.022V477.765H380.904V483.647ZM392.669 483.647H386.786V477.765H392.669V483.647ZM398.551 483.647H392.669V477.765H398.551V483.647ZM404.433 483.647H398.551V477.765H404.433V483.647ZM410.316 483.647H404.433V477.765H410.316V483.647ZM416.198 483.647H410.316V477.765H416.198V483.647ZM416.198 489.529H410.316V483.647H416.198V489.529ZM422.08 489.529H416.198V483.647H422.08V489.529ZM427.963 489.529H422.08V483.647H427.963V489.529ZM427.963 495.412H422.08V489.529H427.963V495.412ZM433.845 501.294H427.963V495.412H433.845V501.294ZM427.963 501.294H422.08V495.412H427.963V501.294ZM433.845 507.176H427.963V501.294H433.845V507.176ZM433.845 513.059H427.963V507.176H433.845V513.059ZM433.845 518.941H427.963V513.059H433.845V518.941ZM433.845 524.824H427.963V518.941H433.845V524.824ZM433.845 530.706H427.963V524.824H433.845V530.706ZM433.845 536.588H427.963V530.706H433.845V536.588ZM427.963 536.588H422.08V530.706H427.963V536.588ZM427.963 542.471H422.08V536.588H427.963V542.471ZM433.845 542.471H427.963V536.588H433.845V542.471ZM433.845 548.353H427.963V542.471H433.845V548.353ZM427.963 548.353H422.08V542.471H427.963V548.353ZM427.963 554.235H422.08V548.353H427.963V554.235ZM427.963 560.118H422.08V554.235H427.963V560.118ZM422.08 560.118H416.198V554.235H422.08V560.118ZM416.198 560.118H410.316V554.235H416.198V560.118ZM410.316 560.118H404.433V554.235H410.316V560.118ZM410.316 554.235H404.433V548.353H410.316V554.235ZM416.198 548.353H410.316V542.471H416.198V548.353ZM422.08 548.353H416.198V542.471H422.08V548.353ZM416.198 542.471H410.316V536.588H416.198V542.471ZM416.198 536.588H410.316V530.706H416.198V536.588ZM416.198 530.706H410.316V524.824H416.198V530.706ZM416.198 524.824H410.316V518.941H416.198V524.824ZM416.198 518.941H410.316V513.059H416.198V518.941ZM416.198 513.059H410.316V507.176H416.198V513.059ZM416.198 507.176H410.316V501.294H416.198V507.176ZM416.198 501.294H410.316V495.412H416.198V501.294ZM410.316 501.294H404.433V495.412H410.316V501.294ZM410.316 495.412H404.433V489.529H410.316V495.412ZM404.433 495.412H398.551V489.529H404.433V495.412ZM398.551 495.412H392.669V489.529H398.551V495.412ZM392.669 495.412H386.786V489.529H392.669V495.412ZM392.669 489.529H386.786V483.647H392.669V489.529ZM398.551 489.529H392.669V483.647H398.551V489.529ZM404.433 489.529H398.551V483.647H404.433V489.529ZM410.316 489.529H404.433V483.647H410.316V489.529ZM416.198 495.412H410.316V489.529H416.198V495.412ZM422.08 495.412H416.198V489.529H422.08V495.412ZM422.08 501.294H416.198V495.412H422.08V501.294ZM422.08 507.176H416.198V501.294H422.08V507.176ZM422.08 513.059H416.198V507.176H422.08V513.059ZM427.963 513.059H422.08V507.176H427.963V513.059ZM427.963 507.176H422.08V501.294H427.963V507.176ZM427.963 518.941H422.08V513.059H427.963V518.941ZM427.963 524.824H422.08V518.941H427.963V524.824ZM427.963 530.706H422.08V524.824H427.963V530.706ZM422.08 530.706H416.198V524.824H422.08V530.706ZM422.08 524.824H416.198V518.941H422.08V524.824ZM422.08 518.941H416.198V513.059H422.08V518.941ZM422.08 536.588H416.198V530.706H422.08V536.588ZM422.08 542.471H416.198V536.588H422.08V542.471ZM422.08 554.235H416.198V548.353H422.08V554.235ZM416.198 554.235H410.316V548.353H416.198V554.235ZM404.433 560.118H398.551V554.235H404.433V560.118ZM398.551 560.118H392.669V554.235H398.551V560.118ZM392.669 560.118H386.786V554.235H392.669V560.118ZM386.786 560.118H380.904V554.235H386.786V560.118ZM386.786 554.235H380.904V548.353H386.786V554.235ZM392.669 554.235H386.786V548.353H392.669V554.235ZM398.551 554.235H392.669V548.353H398.551V554.235ZM404.433 554.235H398.551V548.353H404.433V554.235ZM369.139 536.588H363.257V530.706H369.139V536.588ZM375.022 536.588H369.139V530.706H375.022V536.588ZM380.904 536.588H375.022V530.706H380.904V536.588ZM369.139 530.706H363.257V524.824H369.139V530.706ZM375.022 530.706H369.139V524.824H375.022V530.706ZM380.904 530.706H375.022V524.824H380.904V530.706ZM386.786 530.706H380.904V524.824H386.786V530.706ZM392.669 530.706H386.786V524.824H392.669V530.706ZM398.551 530.706H392.669V524.824H398.551V530.706ZM404.433 530.706H398.551V524.824H404.433V530.706ZM410.316 530.706H404.433V524.824H410.316V530.706ZM410.316 524.824H404.433V518.941H410.316V524.824ZM404.433 524.824H398.551V518.941H404.433V524.824ZM398.551 524.824H392.669V518.941H398.551V524.824ZM392.669 524.824H386.786V518.941H392.669V524.824ZM386.786 524.824H380.904V518.941H386.786V524.824ZM380.904 524.824H375.022V518.941H380.904V524.824ZM427.963 548.353H433.845V554.235H427.963V548.353ZM427.963 554.235H433.845V560.118H427.963V554.235ZM427.963 560.118H433.845V566H427.963V560.118ZM422.08 560.118H427.963V566H422.08V560.118ZM416.198 560.118H422.08V566H416.198V560.118ZM380.904 530.706H386.786V536.588H380.904V530.706ZM451.515 477.765H457.398V483.647H451.515V477.765ZM457.398 477.765H463.28V483.647H457.398V477.765ZM463.28 477.765H469.162V483.647H463.28V477.765ZM451.515 489.529H457.398V495.412H451.515V489.529ZM451.515 483.647H457.398V489.529H451.515V483.647ZM463.28 560.118H469.162V566H463.28V560.118ZM457.398 560.118H463.28V566H457.398V560.118ZM451.515 554.235H457.398V560.118H451.515V554.235ZM451.515 548.353H457.398V554.235H451.515V548.353ZM451.515 560.118H457.398V566H451.515V560.118ZM480.927 477.765H486.809V483.647H480.927V477.765ZM469.162 477.765H475.045V483.647H469.162V477.765ZM492.692 477.765H498.574V483.647H492.692V477.765ZM498.574 483.647H504.456V489.529H498.574V483.647ZM492.692 483.647H498.574V489.529H492.692V483.647ZM492.692 489.529H498.574V495.412H492.692V489.529ZM504.456 489.529H510.339V495.412H504.456V489.529ZM498.574 489.529H504.456V495.412H498.574V489.529ZM492.692 495.412H498.574V501.294H492.692V495.412ZM486.809 495.412H492.692V501.294H486.809V495.412ZM498.574 495.412H504.456V501.294H498.574V495.412ZM504.456 495.412H510.339V501.294H504.456V495.412ZM510.339 501.294H516.221V507.176H510.339V501.294ZM510.339 507.176H516.221V513.059H510.339V507.176ZM510.339 513.059H516.221V518.941H510.339V513.059ZM510.339 518.941H516.221V524.824H510.339V518.941ZM510.339 524.824H516.221V530.706H510.339V524.824ZM510.339 530.706H516.221V536.588H510.339V530.706ZM510.339 536.588H516.221V542.471H510.339V536.588ZM510.339 542.471H516.221V548.353H510.339V542.471ZM504.456 542.471H510.339V548.353H504.456V542.471ZM504.456 548.353H510.339V554.235H504.456V548.353ZM504.456 554.235H510.339V560.118H504.456V554.235ZM498.574 554.235H504.456V560.118H498.574V554.235ZM492.692 554.235H498.574V560.118H492.692V554.235ZM492.692 542.471H498.574V548.353H492.692V542.471ZM492.692 548.353H498.574V554.235H492.692V548.353ZM498.574 548.353H504.456V554.235H498.574V548.353ZM498.574 542.471H504.456V548.353H498.574V542.471ZM498.574 536.588H504.456V542.471H498.574V536.588ZM492.692 536.588H498.574V542.471H492.692V536.588ZM492.692 530.706H498.574V536.588H492.692V530.706ZM492.692 524.824H498.574V530.706H492.692V524.824ZM492.692 518.941H498.574V524.824H492.692V518.941ZM492.692 513.059H498.574V518.941H492.692V513.059ZM492.692 507.176H498.574V513.059H492.692V507.176ZM492.692 501.294H498.574V507.176H492.692V501.294ZM498.574 501.294H504.456V507.176H498.574V501.294ZM498.574 507.176H504.456V513.059H498.574V507.176ZM498.574 513.059H504.456V518.941H498.574V513.059ZM498.574 518.941H504.456V524.824H498.574V518.941ZM498.574 524.824H504.456V530.706H498.574V524.824ZM498.574 530.706H504.456V536.588H498.574V530.706ZM504.456 536.588H510.339V542.471H504.456V536.588ZM504.456 530.706H510.339V536.588H504.456V530.706ZM504.456 524.824H510.339V530.706H504.456V524.824ZM504.456 518.941H510.339V524.824H504.456V518.941ZM504.456 513.059H510.339V518.941H504.456V513.059ZM504.456 507.176H510.339V513.059H504.456V507.176ZM504.456 501.294H510.339V507.176H504.456V501.294ZM492.692 560.118H498.574V566H492.692V560.118ZM469.162 560.118H475.045V566H469.162V560.118ZM469.162 554.235H475.045V560.118H469.162V554.235ZM463.28 554.235H469.162V560.118H463.28V554.235ZM457.398 554.235H463.28V560.118H457.398V554.235ZM457.398 507.176H463.28V513.059H457.398V507.176ZM457.398 501.294H463.28V507.176H457.398V501.294ZM451.515 495.412H457.398V501.294H451.515V495.412ZM457.398 489.529H463.28V495.412H457.398V489.529ZM463.28 483.647H469.162V489.529H463.28V483.647ZM469.162 483.647H475.045V489.529H469.162V483.647ZM475.045 483.647H480.927V489.529H475.045V483.647ZM475.045 489.529H480.927V495.412H475.045V489.529ZM475.045 495.412H480.927V501.294H475.045V495.412ZM469.162 495.412H475.045V501.294H469.162V495.412ZM463.28 495.412H469.162V501.294H463.28V495.412ZM469.162 501.294H475.045V507.176H469.162V501.294ZM469.162 507.176H475.045V513.059H469.162V507.176ZM469.162 513.059H475.045V518.941H469.162V513.059ZM469.162 548.353H475.045V554.235H469.162V548.353ZM463.28 548.353H469.162V554.235H463.28V548.353ZM463.28 507.176H469.162V513.059H463.28V507.176ZM463.28 501.294H469.162V507.176H463.28V501.294ZM463.28 489.529H469.162V495.412H463.28V489.529ZM469.162 489.529H475.045V495.412H469.162V489.529ZM480.927 483.647H486.809V489.529H480.927V483.647ZM486.809 483.647H492.692V489.529H486.809V483.647ZM486.809 489.529H492.692V495.412H486.809V489.529ZM480.927 489.529H486.809V495.412H480.927V489.529ZM457.398 483.647H463.28V489.529H457.398V483.647ZM457.398 548.353H463.28V554.235H457.398V548.353ZM457.398 495.412H463.28V501.294H457.398V495.412ZM451.515 501.294H457.398V507.176H451.515V501.294ZM451.515 507.176H457.398V513.059H451.515V507.176ZM451.515 542.471H457.398V548.353H451.515V542.471ZM457.398 542.471H463.28V548.353H457.398V542.471ZM463.28 542.471H469.162V548.353H463.28V542.471ZM469.162 542.471H475.045V548.353H469.162V542.471ZM463.28 513.059H469.162V518.941H463.28V513.059ZM457.398 513.059H463.28V518.941H457.398V513.059ZM451.515 513.059H457.398V518.941H451.515V513.059ZM451.515 518.941H457.398V524.824H451.515V518.941ZM451.515 524.824H457.398V530.706H451.515V524.824ZM451.515 530.706H457.398V536.588H451.515V530.706ZM457.398 530.706H463.28V536.588H457.398V530.706ZM457.398 536.588H463.28V542.471H457.398V536.588ZM463.28 536.588H469.162V542.471H463.28V536.588ZM451.515 536.588H457.398V542.471H451.515V536.588ZM469.162 536.588H475.045V542.471H469.162V536.588ZM469.162 530.706H475.045V536.588H469.162V530.706ZM469.162 524.824H475.045V530.706H469.162V524.824ZM469.162 518.941H475.045V524.824H469.162V518.941ZM463.28 518.941H469.162V524.824H463.28V518.941ZM457.398 518.941H463.28V524.824H457.398V518.941ZM457.398 524.824H463.28V530.706H457.398V524.824ZM463.28 530.706H469.162V536.588H463.28V530.706ZM463.28 524.824H469.162V530.706H463.28V524.824ZM498.574 560.118H504.456V566H498.574V560.118ZM504.456 560.118H510.339V566H504.456V560.118ZM510.339 560.118H516.221V566H510.339V560.118ZM510.339 554.235H516.221V560.118H510.339V554.235ZM510.339 548.353H516.221V554.235H510.339V548.353ZM516.221 477.765H522.103V483.647H516.221V477.765ZM522.103 477.765H527.986V483.647H522.103V477.765ZM527.986 477.765H533.868V483.647H527.986V477.765ZM533.868 477.765H539.75V483.647H533.868V477.765ZM539.75 483.647H545.633V489.529H539.75V483.647ZM533.868 483.647H539.75V489.529H533.868V483.647ZM533.868 489.529H539.75V495.412H533.868V489.529ZM545.633 483.647H551.515V489.529H545.633V483.647ZM545.633 489.529H551.515V495.412H545.633V489.529ZM539.75 489.529H545.633V495.412H539.75V489.529ZM533.868 495.412H539.75V501.294H533.868V495.412ZM527.986 495.412H533.868V501.294H527.986V495.412ZM539.75 495.412H545.633V501.294H539.75V495.412ZM545.633 495.412H551.515V501.294H545.633V495.412ZM551.515 495.412H557.398V501.294H551.515V495.412ZM551.515 501.294H557.398V507.176H551.515V501.294ZM551.515 507.176H557.398V513.059H551.515V507.176ZM551.515 513.059H557.398V518.941H551.515V513.059ZM551.515 518.941H557.398V524.824H551.515V518.941ZM551.515 524.824H557.398V530.706H551.515V524.824ZM551.515 530.706H557.398V536.588H551.515V530.706ZM551.515 536.588H557.398V542.471H551.515V536.588ZM551.515 542.471H557.398V548.353H551.515V542.471ZM545.633 542.471H551.515V548.353H545.633V542.471ZM545.633 548.353H551.515V554.235H545.633V548.353ZM545.633 554.235H551.515V560.118H545.633V554.235ZM539.75 554.235H545.633V560.118H539.75V554.235ZM533.868 554.235H539.75V560.118H533.868V554.235ZM533.868 542.471H539.75V548.353H533.868V542.471ZM533.868 548.353H539.75V554.235H533.868V548.353ZM539.75 548.353H545.633V554.235H539.75V548.353ZM539.75 542.471H545.633V548.353H539.75V542.471ZM539.75 536.588H545.633V542.471H539.75V536.588ZM533.868 536.588H539.75V542.471H533.868V536.588ZM533.868 530.706H539.75V536.588H533.868V530.706ZM533.868 524.824H539.75V530.706H533.868V524.824ZM533.868 518.941H539.75V524.824H533.868V518.941ZM533.868 513.059H539.75V518.941H533.868V513.059ZM533.868 507.176H539.75V513.059H533.868V507.176ZM533.868 501.294H539.75V507.176H533.868V501.294ZM539.75 501.294H545.633V507.176H539.75V501.294ZM539.75 507.176H545.633V513.059H539.75V507.176ZM539.75 513.059H545.633V518.941H539.75V513.059ZM539.75 518.941H545.633V524.824H539.75V518.941ZM539.75 524.824H545.633V530.706H539.75V524.824ZM539.75 530.706H545.633V536.588H539.75V530.706ZM545.633 536.588H551.515V542.471H545.633V536.588ZM545.633 530.706H551.515V536.588H545.633V530.706ZM545.633 524.824H551.515V530.706H545.633V524.824ZM545.633 518.941H551.515V524.824H545.633V518.941ZM545.633 513.059H551.515V518.941H545.633V513.059ZM545.633 507.176H551.515V513.059H545.633V507.176ZM545.633 501.294H551.515V507.176H545.633V501.294ZM533.868 560.118H539.75V566H533.868V560.118ZM510.339 483.647H516.221V489.529H510.339V483.647ZM510.339 489.529H516.221V495.412H510.339V489.529ZM510.339 495.412H516.221V501.294H510.339V495.412ZM516.221 483.647H522.103V489.529H516.221V483.647ZM522.103 483.647H527.986V489.529H522.103V483.647ZM527.986 483.647H533.868V489.529H527.986V483.647ZM527.986 489.529H533.868V495.412H527.986V489.529ZM522.103 489.529H527.986V495.412H522.103V489.529ZM516.221 489.529H522.103V495.412H516.221V489.529ZM539.75 560.118H545.633V566H539.75V560.118ZM545.633 560.118H551.515V566H545.633V560.118ZM551.515 560.118H557.398V566H551.515V560.118ZM551.515 554.235H557.398V560.118H551.515V554.235ZM551.515 548.353H557.398V554.235H551.515V548.353ZM486.809 477.765H492.692V483.647H486.809V477.765ZM516.221 495.412H522.103V501.294H516.221V495.412ZM598.482 477.765H604.364V483.647H598.482V477.765ZM604.364 477.765H610.247V483.647H604.364V477.765ZM592.6 477.765H598.482V483.647H592.6V477.765ZM610.247 477.765H616.129V483.647H610.247V477.765ZM616.129 477.765H622.011V483.647H616.129V477.765ZM622.011 477.765H627.894V483.647H622.011V477.765ZM627.894 477.765H633.776V483.647H627.894V477.765ZM633.776 483.647H639.659V489.529H633.776V483.647ZM627.894 483.647H633.776V489.529H627.894V483.647ZM627.894 489.529H633.776V495.412H627.894V489.529ZM639.659 483.647H645.541V489.529H639.659V483.647ZM639.659 489.529H645.541V495.412H639.659V489.529ZM633.776 489.529H639.659V495.412H633.776V489.529ZM627.894 495.412H633.776V501.294H627.894V495.412ZM622.011 495.412H627.894V501.294H622.011V495.412ZM633.776 495.412H639.659V501.294H633.776V495.412ZM639.659 495.412H645.541V501.294H639.659V495.412ZM645.541 495.412H651.423V501.294H645.541V495.412ZM645.541 501.294H651.423V507.176H645.541V501.294ZM645.541 507.176H651.423V513.059H645.541V507.176ZM645.541 513.059H651.423V518.941H645.541V513.059ZM645.541 518.941H651.423V524.824H645.541V518.941ZM645.541 524.824H651.423V530.706H645.541V524.824ZM645.541 530.706H651.423V536.588H645.541V530.706ZM645.541 536.588H651.423V542.471H645.541V536.588ZM645.541 542.471H651.423V548.353H645.541V542.471ZM639.659 542.471H645.541V548.353H639.659V542.471ZM639.659 548.353H645.541V554.235H639.659V548.353ZM639.659 554.235H645.541V560.118H639.659V554.235ZM633.776 554.235H639.659V560.118H633.776V554.235ZM627.894 554.235H633.776V560.118H627.894V554.235ZM622.011 548.353H627.894V554.235H622.011V548.353ZM622.011 542.471H627.894V548.353H622.011V542.471ZM627.894 542.471H633.776V548.353H627.894V542.471ZM627.894 548.353H633.776V554.235H627.894V548.353ZM633.776 548.353H639.659V554.235H633.776V548.353ZM633.776 542.471H639.659V548.353H633.776V542.471ZM633.776 536.588H639.659V542.471H633.776V536.588ZM627.894 536.588H633.776V542.471H627.894V536.588ZM627.894 530.706H633.776V536.588H627.894V530.706ZM627.894 524.824H633.776V530.706H627.894V524.824ZM627.894 518.941H633.776V524.824H627.894V518.941ZM627.894 513.059H633.776V518.941H627.894V513.059ZM627.894 507.176H633.776V513.059H627.894V507.176ZM627.894 501.294H633.776V507.176H627.894V501.294ZM633.776 501.294H639.659V507.176H633.776V501.294ZM633.776 507.176H639.659V513.059H633.776V507.176ZM633.776 513.059H639.659V518.941H633.776V513.059ZM633.776 518.941H639.659V524.824H633.776V518.941ZM633.776 524.824H639.659V530.706H633.776V524.824ZM633.776 530.706H639.659V536.588H633.776V530.706ZM639.659 536.588H645.541V542.471H639.659V536.588ZM639.659 530.706H645.541V536.588H639.659V530.706ZM639.659 524.824H645.541V530.706H639.659V524.824ZM639.659 518.941H645.541V524.824H639.659V518.941ZM639.659 513.059H645.541V518.941H639.659V513.059ZM639.659 507.176H645.541V513.059H639.659V507.176ZM639.659 501.294H645.541V507.176H639.659V501.294ZM622.011 554.235H627.894V560.118H622.011V554.235ZM622.011 560.118H627.894V566H622.011V560.118ZM627.894 560.118H633.776V566H627.894V560.118ZM616.129 560.118H622.011V566H616.129V560.118ZM610.247 560.118H616.129V566H610.247V560.118ZM604.364 560.118H610.247V566H604.364V560.118ZM598.482 560.118H604.364V566H598.482V560.118ZM592.6 560.118H598.482V566H592.6V560.118ZM592.6 554.235H598.482V560.118H592.6V554.235ZM586.717 554.235H592.6V560.118H586.717V554.235ZM580.835 554.235H586.717V560.118H580.835V554.235ZM580.835 548.353H586.717V554.235H580.835V548.353ZM574.953 542.471H580.835V548.353H574.953V542.471ZM580.835 542.471H586.717V548.353H580.835V542.471ZM574.953 536.588H580.835V542.471H574.953V536.588ZM574.953 530.706H580.835V536.588H574.953V530.706ZM574.953 524.824H580.835V530.706H574.953V524.824ZM574.953 518.941H580.835V524.824H574.953V518.941ZM574.953 513.059H580.835V518.941H574.953V513.059ZM574.953 507.176H580.835V513.059H574.953V507.176ZM580.835 507.176H586.717V513.059H580.835V507.176ZM580.835 501.294H586.717V507.176H580.835V501.294ZM574.953 501.294H580.835V507.176H574.953V501.294ZM574.953 495.412H580.835V501.294H574.953V495.412ZM580.835 495.412H586.717V501.294H580.835V495.412ZM580.835 489.529H586.717V495.412H580.835V489.529ZM580.835 483.647H586.717V489.529H580.835V483.647ZM586.717 483.647H592.6V489.529H586.717V483.647ZM592.6 483.647H598.482V489.529H592.6V483.647ZM598.482 483.647H604.364V489.529H598.482V483.647ZM598.482 489.529H604.364V495.412H598.482V489.529ZM598.482 495.412H604.364V501.294H598.482V495.412ZM592.6 495.412H598.482V501.294H592.6V495.412ZM586.717 495.412H592.6V501.294H586.717V495.412ZM592.6 501.294H598.482V507.176H592.6V501.294ZM592.6 507.176H598.482V513.059H592.6V507.176ZM592.6 513.059H598.482V518.941H592.6V513.059ZM592.6 518.941H598.482V524.824H592.6V518.941ZM592.6 524.824H598.482V530.706H592.6V524.824ZM592.6 530.706H598.482V536.588H592.6V530.706ZM592.6 536.588H598.482V542.471H592.6V536.588ZM592.6 542.471H598.482V548.353H592.6V542.471ZM598.482 542.471H604.364V548.353H598.482V542.471ZM598.482 548.353H604.364V554.235H598.482V548.353ZM604.364 548.353H610.247V554.235H604.364V548.353ZM610.247 548.353H616.129V554.235H610.247V548.353ZM616.129 548.353H622.011V554.235H616.129V548.353ZM616.129 554.235H622.011V560.118H616.129V554.235ZM610.247 554.235H616.129V560.118H610.247V554.235ZM604.364 554.235H610.247V560.118H604.364V554.235ZM598.482 554.235H604.364V560.118H598.482V554.235ZM592.6 548.353H598.482V554.235H592.6V548.353ZM586.717 548.353H592.6V554.235H586.717V548.353ZM586.717 542.471H592.6V548.353H586.717V542.471ZM586.717 536.588H592.6V542.471H586.717V536.588ZM586.717 530.706H592.6V536.588H586.717V530.706ZM580.835 530.706H586.717V536.588H580.835V530.706ZM580.835 536.588H586.717V542.471H580.835V536.588ZM580.835 524.824H586.717V530.706H580.835V524.824ZM580.835 518.941H586.717V524.824H580.835V518.941ZM580.835 513.059H586.717V518.941H580.835V513.059ZM586.717 513.059H592.6V518.941H586.717V513.059ZM586.717 518.941H592.6V524.824H586.717V518.941ZM586.717 524.824H592.6V530.706H586.717V524.824ZM586.717 507.176H592.6V513.059H586.717V507.176ZM586.717 501.294H592.6V507.176H586.717V501.294ZM586.717 489.529H592.6V495.412H586.717V489.529ZM592.6 489.529H598.482V495.412H592.6V489.529ZM604.364 483.647H610.247V489.529H604.364V483.647ZM610.247 483.647H616.129V489.529H610.247V483.647ZM616.129 483.647H622.011V489.529H616.129V483.647ZM622.011 483.647H627.894V489.529H622.011V483.647ZM622.011 489.529H627.894V495.412H622.011V489.529ZM616.129 489.529H622.011V495.412H616.129V489.529ZM610.247 489.529H616.129V495.412H610.247V489.529ZM604.364 489.529H610.247V495.412H604.364V489.529ZM669.093 477.765H674.976V483.647H669.093V477.765ZM674.976 477.765H680.858V483.647H674.976V477.765ZM680.858 477.765H686.74V483.647H680.858V477.765ZM669.093 489.529H674.976V495.412H669.093V489.529ZM669.093 483.647H674.976V489.529H669.093V483.647ZM680.858 560.118H686.74V566H680.858V560.118ZM674.976 560.118H680.858V566H674.976V560.118ZM669.093 554.235H674.976V560.118H669.093V554.235ZM669.093 548.353H674.976V554.235H669.093V548.353ZM669.093 560.118H674.976V566H669.093V560.118ZM698.505 477.765H704.387V483.647H698.505V477.765ZM686.74 477.765H692.623V483.647H686.74V477.765ZM704.387 477.765H710.27V483.647H704.387V477.765ZM710.27 477.765H716.152V483.647H710.27V477.765ZM716.152 477.765H722.034V483.647H716.152V477.765ZM722.034 477.765H727.917V483.647H722.034V477.765ZM727.917 483.647H733.799V489.529H727.917V483.647ZM722.034 483.647H727.917V489.529H722.034V483.647ZM722.034 489.529H727.917V495.412H722.034V489.529ZM733.799 483.647H739.682V489.529H733.799V483.647ZM733.799 489.529H739.682V495.412H733.799V489.529ZM727.917 489.529H733.799V495.412H727.917V489.529ZM722.034 495.412H727.917V501.294H722.034V495.412ZM716.152 495.412H722.034V501.294H716.152V495.412ZM727.917 495.412H733.799V501.294H727.917V495.412ZM733.799 495.412H739.682V501.294H733.799V495.412ZM739.682 495.412H745.564V501.294H739.682V495.412ZM739.682 501.294H745.564V507.176H739.682V501.294ZM739.682 507.176H745.564V513.059H739.682V507.176ZM739.682 513.059H745.564V518.941H739.682V513.059ZM739.682 518.941H745.564V524.824H739.682V518.941ZM739.682 524.824H745.564V530.706H739.682V524.824ZM739.682 530.706H745.564V536.588H739.682V530.706ZM739.682 536.588H745.564V542.471H739.682V536.588ZM739.682 542.471H745.564V548.353H739.682V542.471ZM733.799 542.471H739.682V548.353H733.799V542.471ZM733.799 548.353H739.682V554.235H733.799V548.353ZM733.799 554.235H739.682V560.118H733.799V554.235ZM727.917 554.235H733.799V560.118H727.917V554.235ZM722.034 554.235H727.917V560.118H722.034V554.235ZM722.034 542.471H727.917V548.353H722.034V542.471ZM722.034 548.353H727.917V554.235H722.034V548.353ZM727.917 548.353H733.799V554.235H727.917V548.353ZM727.917 542.471H733.799V548.353H727.917V542.471ZM727.917 536.588H733.799V542.471H727.917V536.588ZM722.034 536.588H727.917V542.471H722.034V536.588ZM722.034 530.706H727.917V536.588H722.034V530.706ZM722.034 524.824H727.917V530.706H722.034V524.824ZM722.034 518.941H727.917V524.824H722.034V518.941ZM722.034 513.059H727.917V518.941H722.034V513.059ZM722.034 507.176H727.917V513.059H722.034V507.176ZM722.034 501.294H727.917V507.176H722.034V501.294ZM727.917 501.294H733.799V507.176H727.917V501.294ZM727.917 507.176H733.799V513.059H727.917V507.176ZM727.917 513.059H733.799V518.941H727.917V513.059ZM727.917 518.941H733.799V524.824H727.917V518.941ZM727.917 524.824H733.799V530.706H727.917V524.824ZM727.917 530.706H733.799V536.588H727.917V530.706ZM733.799 536.588H739.682V542.471H733.799V536.588ZM733.799 530.706H739.682V536.588H733.799V530.706ZM733.799 524.824H739.682V530.706H733.799V524.824ZM733.799 518.941H739.682V524.824H733.799V518.941ZM733.799 513.059H739.682V518.941H733.799V513.059ZM733.799 507.176H739.682V513.059H733.799V507.176ZM733.799 501.294H739.682V507.176H733.799V501.294ZM722.034 560.118H727.917V566H722.034V560.118ZM686.74 560.118H692.623V566H686.74V560.118ZM686.74 554.235H692.623V560.118H686.74V554.235ZM680.858 554.235H686.74V560.118H680.858V554.235ZM674.976 554.235H680.858V560.118H674.976V554.235ZM674.976 507.176H680.858V513.059H674.976V507.176ZM674.976 501.294H680.858V507.176H674.976V501.294ZM669.093 495.412H674.976V501.294H669.093V495.412ZM674.976 489.529H680.858V495.412H674.976V489.529ZM680.858 483.647H686.74V489.529H680.858V483.647ZM686.74 483.647H692.623V489.529H686.74V483.647ZM692.623 483.647H698.505V489.529H692.623V483.647ZM692.623 489.529H698.505V495.412H692.623V489.529ZM692.623 495.412H698.505V501.294H692.623V495.412ZM686.74 495.412H692.623V501.294H686.74V495.412ZM680.858 495.412H686.74V501.294H680.858V495.412ZM686.74 501.294H692.623V507.176H686.74V501.294ZM686.74 507.176H692.623V513.059H686.74V507.176ZM686.74 513.059H692.623V518.941H686.74V513.059ZM686.74 548.353H692.623V554.235H686.74V548.353ZM680.858 548.353H686.74V554.235H680.858V548.353ZM680.858 507.176H686.74V513.059H680.858V507.176ZM680.858 501.294H686.74V507.176H680.858V501.294ZM680.858 489.529H686.74V495.412H680.858V489.529ZM686.74 489.529H692.623V495.412H686.74V489.529ZM698.505 483.647H704.387V489.529H698.505V483.647ZM704.387 483.647H710.27V489.529H704.387V483.647ZM710.27 483.647H716.152V489.529H710.27V483.647ZM716.152 483.647H722.034V489.529H716.152V483.647ZM716.152 489.529H722.034V495.412H716.152V489.529ZM710.27 489.529H716.152V495.412H710.27V489.529ZM704.387 489.529H710.27V495.412H704.387V489.529ZM698.505 489.529H704.387V495.412H698.505V489.529ZM674.976 483.647H680.858V489.529H674.976V483.647ZM674.976 548.353H680.858V554.235H674.976V548.353ZM674.976 495.412H680.858V501.294H674.976V495.412ZM669.093 501.294H674.976V507.176H669.093V501.294ZM669.093 507.176H674.976V513.059H669.093V507.176ZM669.093 542.471H674.976V548.353H669.093V542.471ZM674.976 542.471H680.858V548.353H674.976V542.471ZM680.858 542.471H686.74V548.353H680.858V542.471ZM686.74 542.471H692.623V548.353H686.74V542.471ZM680.858 513.059H686.74V518.941H680.858V513.059ZM674.976 513.059H680.858V518.941H674.976V513.059ZM669.093 513.059H674.976V518.941H669.093V513.059ZM669.093 518.941H674.976V524.824H669.093V518.941ZM669.093 524.824H674.976V530.706H669.093V524.824ZM669.093 530.706H674.976V536.588H669.093V530.706ZM674.976 530.706H680.858V536.588H674.976V530.706ZM674.976 536.588H680.858V542.471H674.976V536.588ZM680.858 536.588H686.74V542.471H680.858V536.588ZM669.093 536.588H674.976V542.471H669.093V536.588ZM686.74 536.588H692.623V542.471H686.74V536.588ZM686.74 530.706H692.623V536.588H686.74V530.706ZM686.74 524.824H692.623V530.706H686.74V524.824ZM686.74 518.941H692.623V524.824H686.74V518.941ZM680.858 518.941H686.74V524.824H680.858V518.941ZM674.976 518.941H680.858V524.824H674.976V518.941ZM674.976 524.824H680.858V530.706H674.976V524.824ZM680.858 530.706H686.74V536.588H680.858V530.706ZM680.858 524.824H686.74V530.706H680.858V524.824ZM727.917 560.118H733.799V566H727.917V560.118ZM733.799 560.118H739.682V566H733.799V560.118ZM739.682 560.118H745.564V566H739.682V560.118ZM739.682 554.235H745.564V560.118H739.682V554.235ZM739.682 548.353H745.564V554.235H739.682V548.353ZM839.704 448.353V454.235H833.822V448.353H839.704ZM833.822 448.353V454.235H827.94V448.353H833.822ZM827.94 448.353V454.235H822.057V448.353H827.94ZM822.057 448.353V454.235H816.175V448.353H822.057ZM822.057 454.235V460.118H816.175V454.235H822.057ZM822.057 460.118V466H816.175V460.118H822.057ZM827.94 460.118V466H822.057V460.118H827.94ZM833.822 460.118V466H827.94V460.118H833.822ZM833.822 454.235V460.118H827.94V454.235H833.822ZM839.704 454.235V460.118H833.822V454.235H839.704ZM827.94 454.235V460.118H822.057V454.235H827.94ZM839.704 460.118V466H833.822V460.118H839.704ZM839.704 466V471.882H833.822V466H839.704ZM839.704 471.882V477.765H833.822V471.882H839.704ZM833.822 471.882V477.765H827.94V471.882H833.822ZM827.94 471.882V477.765H822.057V471.882H827.94ZM822.057 471.882V477.765H816.175V471.882H822.057ZM822.057 466V471.882H816.175V466H822.057ZM827.94 466V471.882H822.057V466H827.94ZM833.822 466V471.882H827.94V466H833.822ZM839.704 477.765V483.647H833.822V477.765H839.704ZM833.822 477.765V483.647H827.94V477.765H833.822ZM827.94 477.765V483.647H822.057V477.765H827.94ZM839.704 489.529V495.412H833.822V489.529H839.704ZM839.704 483.647V489.529H833.822V483.647H839.704ZM827.94 560.118V566H822.057V560.118H827.94ZM833.822 560.118V566H827.94V560.118H833.822ZM839.704 554.235V560.118H833.822V554.235H839.704ZM839.704 548.353V554.235H833.822V548.353H839.704ZM839.704 560.118V566H833.822V560.118H839.704ZM810.293 477.765V483.647H804.41V477.765H810.293ZM822.057 477.765V483.647H816.175V477.765H822.057ZM804.41 477.765V483.647H798.528V477.765H804.41ZM798.528 477.765V483.647H792.646V477.765H798.528ZM792.646 477.765V483.647H786.763V477.765H792.646ZM786.763 477.765V483.647H780.881V477.765H786.763ZM780.881 483.647V489.529H774.999V483.647H780.881ZM786.763 483.647V489.529H780.881V483.647H786.763ZM786.763 489.529V495.412H780.881V489.529H786.763ZM774.999 483.647V489.529H769.116V483.647H774.999ZM774.999 489.529V495.412H769.116V489.529H774.999ZM780.881 489.529V495.412H774.999V489.529H780.881ZM786.763 495.412V501.294H780.881V495.412H786.763ZM792.646 495.412V501.294H786.763V495.412H792.646ZM780.881 495.412V501.294H774.999V495.412H780.881ZM774.999 495.412V501.294H769.116V495.412H774.999ZM769.116 495.412V501.294H763.234V495.412H769.116ZM769.116 501.294V507.176H763.234V501.294H769.116ZM769.116 507.176V513.059H763.234V507.176H769.116ZM769.116 513.059V518.941H763.234V513.059H769.116ZM769.116 518.941V524.824H763.234V518.941H769.116ZM769.116 524.824V530.706H763.234V524.824H769.116ZM769.116 530.706V536.588H763.234V530.706H769.116ZM769.116 536.588V542.471H763.234V536.588H769.116ZM769.116 542.471V548.353H763.234V542.471H769.116ZM774.999 542.471V548.353H769.116V542.471H774.999ZM774.999 548.353V554.235H769.116V548.353H774.999ZM774.999 554.235V560.118H769.116V554.235H774.999ZM780.881 554.235V560.118H774.999V554.235H780.881ZM786.763 554.235V560.118H780.881V554.235H786.763ZM792.646 548.353V554.235H786.763V548.353H792.646ZM792.646 542.471V548.353H786.763V542.471H792.646ZM786.763 542.471V548.353H780.881V542.471H786.763ZM786.763 548.353V554.235H780.881V548.353H786.763ZM780.881 548.353V554.235H774.999V548.353H780.881ZM780.881 542.471V548.353H774.999V542.471H780.881ZM780.881 536.588V542.471H774.999V536.588H780.881ZM786.763 536.588V542.471H780.881V536.588H786.763ZM786.763 530.706V536.588H780.881V530.706H786.763ZM786.763 524.824V530.706H780.881V524.824H786.763ZM786.763 518.941V524.824H780.881V518.941H786.763ZM786.763 513.059V518.941H780.881V513.059H786.763ZM786.763 507.176V513.059H780.881V507.176H786.763ZM786.763 501.294V507.176H780.881V501.294H786.763ZM780.881 501.294V507.176H774.999V501.294H780.881ZM780.881 507.176V513.059H774.999V507.176H780.881ZM780.881 513.059V518.941H774.999V513.059H780.881ZM780.881 518.941V524.824H774.999V518.941H780.881ZM780.881 524.824V530.706H774.999V524.824H780.881ZM780.881 530.706V536.588H774.999V530.706H780.881ZM774.999 536.588V542.471H769.116V536.588H774.999ZM774.999 530.706V536.588H769.116V530.706H774.999ZM774.999 524.824V530.706H769.116V524.824H774.999ZM774.999 518.941V524.824H769.116V518.941H774.999ZM774.999 513.059V518.941H769.116V513.059H774.999ZM774.999 507.176V513.059H769.116V507.176H774.999ZM774.999 501.294V507.176H769.116V501.294H774.999ZM792.646 554.235V560.118H786.763V554.235H792.646ZM792.646 560.118V566H786.763V560.118H792.646ZM786.763 560.118V566H780.881V560.118H786.763ZM798.528 560.118V566H792.646V560.118H798.528ZM804.41 560.118V566H798.528V560.118H804.41ZM810.293 560.118V566H804.41V560.118H810.293ZM822.057 560.118V566H816.175V560.118H822.057ZM822.057 554.235V560.118H816.175V554.235H822.057ZM827.94 554.235V560.118H822.057V554.235H827.94ZM833.822 554.235V560.118H827.94V554.235H833.822ZM833.822 507.176V513.059H827.94V507.176H833.822ZM833.822 501.294V507.176H827.94V501.294H833.822ZM839.704 495.412V501.294H833.822V495.412H839.704ZM833.822 489.529V495.412H827.94V489.529H833.822ZM827.94 483.647V489.529H822.057V483.647H827.94ZM822.057 483.647V489.529H816.175V483.647H822.057ZM816.175 483.647V489.529H810.293V483.647H816.175ZM816.175 489.529V495.412H810.293V489.529H816.175ZM822.057 495.412V501.294H816.175V495.412H822.057ZM827.94 495.412V501.294H822.057V495.412H827.94ZM822.057 501.294V507.176H816.175V501.294H822.057ZM822.057 507.176V513.059H816.175V507.176H822.057ZM822.057 513.059V518.941H816.175V513.059H822.057ZM810.293 548.353V554.235H804.41V548.353H810.293ZM804.41 548.353V554.235H798.528V548.353H804.41ZM798.528 548.353V554.235H792.646V548.353H798.528ZM798.528 554.235V560.118H792.646V554.235H798.528ZM804.41 554.235V560.118H798.528V554.235H804.41ZM810.293 554.235V560.118H804.41V554.235H810.293ZM816.175 554.235V560.118H810.293V554.235H816.175ZM822.057 548.353V554.235H816.175V548.353H822.057ZM827.94 548.353V554.235H822.057V548.353H827.94ZM827.94 507.176V513.059H822.057V507.176H827.94ZM827.94 501.294V507.176H822.057V501.294H827.94ZM827.94 489.529V495.412H822.057V489.529H827.94ZM822.057 489.529V495.412H816.175V489.529H822.057ZM810.293 483.647V489.529H804.41V483.647H810.293ZM804.41 483.647V489.529H798.528V483.647H804.41ZM798.528 483.647V489.529H792.646V483.647H798.528ZM792.646 483.647V489.529H786.763V483.647H792.646ZM792.646 489.529V495.412H786.763V489.529H792.646ZM798.528 489.529V495.412H792.646V489.529H798.528ZM804.41 489.529V495.412H798.528V489.529H804.41ZM810.293 489.529V495.412H804.41V489.529H810.293ZM833.822 483.647V489.529H827.94V483.647H833.822ZM833.822 548.353V554.235H827.94V548.353H833.822ZM833.822 495.412V501.294H827.94V495.412H833.822ZM839.704 501.294V507.176H833.822V501.294H839.704ZM839.704 507.176V513.059H833.822V507.176H839.704ZM839.704 542.471V548.353H833.822V542.471H839.704ZM833.822 542.471V548.353H827.94V542.471H833.822ZM827.94 542.471V548.353H822.057V542.471H827.94ZM822.057 542.471V548.353H816.175V542.471H822.057ZM827.94 513.059V518.941H822.057V513.059H827.94ZM833.822 513.059V518.941H827.94V513.059H833.822ZM839.704 513.059V518.941H833.822V513.059H839.704ZM839.704 518.941V524.824H833.822V518.941H839.704ZM839.704 524.824V530.706H833.822V524.824H839.704ZM839.704 530.706V536.588H833.822V530.706H839.704ZM833.822 530.706V536.588H827.94V530.706H833.822ZM833.822 536.588V542.471H827.94V536.588H833.822ZM827.94 536.588V542.471H822.057V536.588H827.94ZM839.704 536.588V542.471H833.822V536.588H839.704ZM822.057 536.588V542.471H816.175V536.588H822.057ZM822.057 530.706V536.588H816.175V530.706H822.057ZM822.057 524.824V530.706H816.175V524.824H822.057ZM822.057 518.941V524.824H816.175V518.941H822.057ZM827.94 518.941V524.824H822.057V518.941H827.94ZM833.822 518.941V524.824H827.94V518.941H833.822ZM833.822 524.824V530.706H827.94V524.824H833.822ZM827.94 530.706V536.588H822.057V530.706H827.94ZM827.94 524.824V530.706H822.057V524.824H827.94ZM810.293 477.765H816.175V483.647H810.293V477.765ZM810.293 548.353H816.175V554.235H810.293V548.353ZM810.293 542.471H816.175V548.353H810.293V542.471ZM863.257 542.471H869.139V548.353H863.257V542.471ZM869.139 542.471H875.022V548.353H869.139V542.471ZM875.022 542.471H880.904V548.353H875.022V542.471ZM875.022 548.353H880.904V554.235H875.022V548.353ZM875.022 554.235H880.904V560.118H875.022V554.235ZM875.022 560.118H880.904V566H875.022V560.118ZM869.139 560.118H875.022V566H869.139V560.118ZM863.257 560.118H869.139V566H863.257V560.118ZM857.375 560.118H863.257V566H857.375V560.118ZM857.375 554.235H863.257V560.118H857.375V554.235ZM857.375 548.353H863.257V554.235H857.375V548.353ZM857.375 542.471H863.257V548.353H857.375V542.471ZM863.257 548.353H869.139V554.235H863.257V548.353ZM869.139 548.353H875.022V554.235H869.139V548.353ZM863.257 554.235H869.139V560.118H863.257V554.235ZM869.139 554.235H875.022V560.118H869.139V554.235Z" fill="white"/>
</svg>
