<svg width="1015" height="279" viewBox="0 0 1015 279" fill="none" xmlns="http://www.w3.org/2000/svg">
<rect width="1015" height="279" fill="#0B1A3A"/>
<path d="M154.471 139.176H160.353V145.059H154.471V139.176ZM154.471 133.294H160.353V139.176H154.471V133.294ZM154.471 127.412H160.353V133.294H154.471V127.412ZM154.471 121.529H160.353V127.412H154.471V121.529ZM154.471 115.647H160.353V121.529H154.471V115.647ZM154.471 109.765H160.353V115.647H154.471V109.765ZM154.471 103.882H160.353V109.765H154.471V103.882ZM154.471 98H160.353V103.882H154.471V98ZM148.588 98H154.471V103.882H148.588V98ZM148.588 92.1177H154.471V98H148.588V92.1177ZM148.588 86.2353H154.471V92.1177H148.588V86.2353ZM142.706 86.2353H148.588V92.1177H142.706V86.2353ZM142.706 92.1177H148.588V98H142.706V92.1177ZM142.706 98H148.588V103.882H142.706V98ZM142.706 103.882H148.588V109.765H142.706V103.882ZM142.706 109.765H148.588V115.647H142.706V109.765ZM142.706 115.647H148.588V121.529H142.706V115.647ZM142.706 121.529H148.588V127.412H142.706V121.529ZM142.706 127.412H148.588V133.294H142.706V127.412ZM142.706 133.294H148.588V139.176H142.706V133.294ZM142.706 139.176H148.588V145.059H142.706V139.176ZM142.706 145.059H148.588V150.941H142.706V145.059ZM142.706 150.941H148.588V156.824H142.706V150.941ZM148.588 150.941H154.471V156.824H148.588V150.941ZM148.588 145.059H154.471V150.941H148.588V145.059ZM148.588 139.176H154.471V145.059H148.588V139.176ZM148.588 133.294H154.471V139.176H148.588V133.294ZM148.588 127.412H154.471V133.294H148.588V127.412ZM148.588 121.529H154.471V127.412H148.588V121.529ZM148.588 115.647H154.471V121.529H148.588V115.647ZM148.588 109.765H154.471V115.647H148.588V109.765ZM148.588 103.882H154.471V109.765H148.588V103.882ZM136.824 103.882H142.706V109.765H136.824V103.882ZM130.941 103.882H136.824V109.765H130.941V103.882ZM136.824 98H142.706V103.882H136.824V98ZM130.941 98H136.824V103.882H130.941V98ZM125.059 98H130.941V103.882H125.059V98ZM119.176 98H125.059V103.882H119.176V98ZM113.294 98H119.176V103.882H113.294V98ZM107.412 98H113.294V103.882H107.412V98ZM101.529 98H107.412V103.882H101.529V98ZM101.529 103.882H107.412V109.765H101.529V103.882ZM101.529 109.765H107.412V115.647H101.529V109.765ZM101.529 115.647H107.412V121.529H101.529V115.647ZM101.529 121.529H107.412V127.412H101.529V121.529ZM101.529 127.412H107.412V133.294H101.529V127.412ZM101.529 133.294H107.412V139.176H101.529V133.294ZM101.529 139.176H107.412V145.059H101.529V139.176ZM107.412 139.176H113.294V145.059H107.412V139.176ZM107.412 145.059H113.294V150.941H107.412V145.059ZM113.294 145.059H119.176V150.941H113.294V145.059ZM119.176 145.059H125.059V150.941H119.176V145.059ZM125.059 145.059H130.941V150.941H125.059V145.059ZM130.941 145.059H136.824V150.941H130.941V145.059ZM130.941 139.176H136.824V145.059H130.941V139.176ZM125.059 139.176H130.941V145.059H125.059V139.176ZM119.176 139.176H125.059V145.059H119.176V139.176ZM113.294 139.176H119.176V145.059H113.294V139.176ZM136.824 139.176H142.706V145.059H136.824V139.176ZM136.824 133.294H142.706V139.176H136.824V133.294ZM130.941 133.294H136.824V139.176H130.941V133.294ZM136.824 127.412H142.706V133.294H136.824V127.412ZM136.824 109.765H142.706V115.647H136.824V109.765ZM136.824 115.647H142.706V121.529H136.824V115.647ZM136.824 121.529H142.706V127.412H136.824V121.529ZM136.824 145.059H142.706V150.941H136.824V145.059ZM136.824 150.941H142.706V156.824H136.824V150.941ZM136.824 156.824H142.706V162.706H136.824V156.824ZM130.941 156.824H136.824V162.706H130.941V156.824ZM125.059 156.824H130.941V162.706H125.059V156.824ZM119.176 156.824H125.059V162.706H119.176V156.824ZM113.294 156.824H119.176V162.706H113.294V156.824ZM113.294 150.941H119.176V156.824H113.294V150.941ZM107.412 150.941H113.294V156.824H107.412V150.941ZM107.412 156.824H113.294V162.706H107.412V156.824ZM119.176 150.941H125.059V156.824H119.176V150.941ZM125.059 150.941H130.941V156.824H125.059V150.941ZM130.941 150.941H136.824V156.824H130.941V150.941ZM136.824 80.3529H142.706V86.2353H136.824V80.3529ZM136.824 86.2353H142.706V92.1177H136.824V86.2353ZM136.824 92.1177H142.706V98H136.824V92.1177ZM130.941 92.1177H136.824V98H130.941V92.1177ZM130.941 86.2353H136.824V92.1177H130.941V86.2353ZM130.941 80.3529H136.824V86.2353H130.941V80.3529ZM125.059 80.3529H130.941V86.2353H125.059V80.3529ZM119.176 80.3529H125.059V86.2353H119.176V80.3529ZM113.294 80.3529H119.176V86.2353H113.294V80.3529ZM107.412 80.3529H113.294V86.2353H107.412V80.3529ZM101.529 80.3529H107.412V86.2353H101.529V80.3529ZM95.6471 80.3529H101.529V86.2353H95.6471V80.3529ZM89.7647 80.3529H95.6471V86.2353H89.7647V80.3529ZM83.8824 80.3529H89.7647V86.2353H83.8824V80.3529ZM83.8824 86.2353H89.7647V92.1177H83.8824V86.2353ZM83.8824 92.1177H89.7647V98H83.8824V92.1177ZM83.8824 98H89.7647V103.882H83.8824V98ZM89.7647 98H95.6471V103.882H89.7647V98ZM89.7647 92.1177H95.6471V98H89.7647V92.1177ZM95.6471 92.1177H101.529V98H95.6471V92.1177ZM101.529 92.1177H107.412V98H101.529V92.1177ZM107.412 92.1177H113.294V98H107.412V92.1177ZM113.294 92.1177H119.176V98H113.294V92.1177ZM119.176 92.1177H125.059V98H119.176V92.1177ZM125.059 92.1177H130.941V98H125.059V92.1177ZM125.059 86.2353H130.941V92.1177H125.059V86.2353ZM119.176 86.2353H125.059V92.1177H119.176V86.2353ZM113.294 86.2353H119.176V92.1177H113.294V86.2353ZM107.412 86.2353H113.294V92.1177H107.412V86.2353ZM101.529 86.2353H107.412V92.1177H101.529V86.2353ZM95.6471 86.2353H101.529V92.1177H95.6471V86.2353ZM89.7647 103.882H95.6471V109.765H89.7647V103.882ZM89.7647 109.765H95.6471V115.647H89.7647V109.765ZM89.7647 86.2353H95.6471V92.1177H89.7647V86.2353ZM95.6471 98H101.529V103.882H95.6471V98ZM95.6471 103.882H101.529V109.765H95.6471V103.882ZM95.6471 109.765H101.529V115.647H95.6471V109.765ZM95.6471 115.647H101.529V121.529H95.6471V115.647ZM95.6471 121.529H101.529V127.412H95.6471V121.529ZM95.6471 127.412H101.529V133.294H95.6471V127.412ZM95.6471 133.294H101.529V139.176H95.6471V133.294ZM95.6471 139.176H101.529V145.059H95.6471V139.176ZM89.7647 139.176H95.6471V145.059H89.7647V139.176ZM89.7647 133.294H95.6471V139.176H89.7647V133.294ZM89.7647 127.412H95.6471V133.294H89.7647V127.412ZM89.7647 121.529H95.6471V127.412H89.7647V121.529ZM83.8824 115.647H89.7647V121.529H83.8824V115.647ZM83.8824 109.765H89.7647V115.647H83.8824V109.765ZM83.8824 103.882H89.7647V109.765H83.8824V103.882ZM83.8824 121.529H89.7647V127.412H83.8824V121.529ZM83.8824 127.412H89.7647V133.294H83.8824V127.412ZM89.7647 115.647H95.6471V121.529H89.7647V115.647ZM83.8824 133.294H89.7647V139.176H83.8824V133.294ZM83.8824 139.176H89.7647V145.059H83.8824V139.176ZM83.8824 145.059H89.7647V150.941H83.8824V145.059ZM83.8824 150.941H89.7647V156.824H83.8824V150.941ZM89.7647 150.941H95.6471V156.824H89.7647V150.941ZM95.6471 150.941H101.529V156.824H95.6471V150.941ZM101.529 150.941H107.412V156.824H101.529V150.941ZM101.529 156.824H107.412V162.706H101.529V156.824ZM95.6471 156.824H101.529V162.706H95.6471V156.824ZM89.7647 156.824H95.6471V162.706H89.7647V156.824ZM83.8824 156.824H89.7647V162.706H83.8824V156.824ZM89.7647 145.059H95.6471V150.941H89.7647V145.059ZM95.6471 145.059H101.529V150.941H95.6471V145.059ZM101.529 145.059H107.412V150.941H101.529V145.059ZM83.8824 162.706H89.7647V168.588H83.8824V162.706ZM83.8824 168.588H89.7647V174.471H83.8824V168.588ZM83.8824 174.471H89.7647V180.353H83.8824V174.471ZM83.8824 180.353H89.7647V186.235H83.8824V180.353ZM83.8824 186.235H89.7647V192.118H83.8824V186.235ZM83.8824 192.118H89.7647V198H83.8824V192.118ZM89.7647 192.118H95.6471V198H89.7647V192.118ZM95.6471 192.118H101.529V198H95.6471V192.118ZM101.529 192.118H107.412V198H101.529V192.118ZM101.529 186.235H107.412V192.118H101.529V186.235ZM101.529 180.353H107.412V186.235H101.529V180.353ZM101.529 174.471H107.412V180.353H101.529V174.471ZM101.529 168.588H107.412V174.471H101.529V168.588ZM101.529 162.706H107.412V168.588H101.529V162.706ZM95.6471 162.706H101.529V168.588H95.6471V162.706ZM89.7647 162.706H95.6471V168.588H89.7647V162.706ZM89.7647 168.588H95.6471V174.471H89.7647V168.588ZM89.7647 174.471H95.6471V180.353H89.7647V174.471ZM89.7647 180.353H95.6471V186.235H89.7647V180.353ZM89.7647 186.235H95.6471V192.118H89.7647V186.235ZM95.6471 186.235H101.529V192.118H95.6471V186.235ZM95.6471 180.353H101.529V186.235H95.6471V180.353ZM95.6471 174.471H101.529V180.353H95.6471V174.471ZM95.6471 168.588H101.529V174.471H95.6471V168.588ZM178.023 127.412H183.905V133.294H178.023V127.412ZM183.905 127.412H189.788V133.294H183.905V127.412ZM189.788 127.412H195.67V133.294H189.788V127.412ZM195.67 127.412H201.552V133.294H195.67V127.412ZM201.552 127.412H207.435V133.294H201.552V127.412ZM207.435 127.412H213.317V133.294H207.435V127.412ZM213.317 127.412H219.199V133.294H213.317V127.412ZM219.199 127.412H225.082V133.294H219.199V127.412ZM225.082 127.412H230.964V133.294H225.082V127.412ZM230.964 127.412H236.847V133.294H230.964V127.412ZM236.847 127.412H242.729V133.294H236.847V127.412ZM242.729 133.294H248.611V139.176H242.729V133.294ZM236.847 133.294H242.729V139.176H236.847V133.294ZM230.964 133.294H236.847V139.176H230.964V133.294ZM242.729 127.412H248.611V133.294H242.729V127.412ZM225.082 133.294H230.964V139.176H225.082V133.294ZM219.199 133.294H225.082V139.176H219.199V133.294ZM207.435 133.294H213.317V139.176H207.435V133.294ZM201.552 139.176H207.435V145.059H201.552V139.176ZM195.67 139.176H201.552V145.059H195.67V139.176ZM195.67 133.294H201.552V139.176H195.67V133.294ZM189.788 133.294H195.67V139.176H189.788V133.294ZM183.905 133.294H189.788V139.176H183.905V133.294ZM178.023 133.294H183.905V139.176H178.023V133.294ZM201.552 133.294H207.435V139.176H201.552V133.294ZM213.317 133.294H219.199V139.176H213.317V133.294ZM219.199 139.176H225.082V145.059H219.199V139.176ZM225.082 139.176H230.964V145.059H225.082V139.176ZM230.964 139.176H236.847V145.059H230.964V139.176ZM230.964 145.059H236.847V150.941H230.964V145.059ZM236.847 145.059H242.729V150.941H236.847V145.059ZM236.847 139.176H242.729V145.059H236.847V139.176ZM242.729 139.176H248.611V145.059H242.729V139.176ZM242.729 145.059H248.611V150.941H242.729V145.059ZM225.082 145.059H230.964V150.941H225.082V145.059ZM219.199 145.059H225.082V150.941H219.199V145.059ZM213.317 145.059H219.199V150.941H213.317V145.059ZM213.317 139.176H219.199V145.059H213.317V139.176ZM207.435 139.176H213.317V145.059H207.435V139.176ZM189.788 139.176H195.67V145.059H189.788V139.176ZM183.905 139.176H189.788V145.059H183.905V139.176ZM178.023 139.176H183.905V145.059H178.023V139.176ZM178.023 145.059H183.905V150.941H178.023V145.059ZM183.905 145.059H189.788V150.941H183.905V145.059ZM189.788 145.059H195.67V150.941H189.788V145.059ZM195.67 145.059H201.552V150.941H195.67V145.059ZM201.552 145.059H207.435V150.941H201.552V145.059ZM207.435 145.059H213.317V150.941H207.435V145.059ZM342.775 80.3529V86.2353H336.892V80.3529H342.775ZM336.892 80.3529V86.2353H331.01V80.3529H336.892ZM331.01 80.3529V86.2353H325.128V80.3529H331.01ZM325.128 80.3529V86.2353H319.245V80.3529H325.128ZM325.128 86.2353V92.1177H319.245V86.2353H325.128ZM325.128 92.1177V98H319.245V92.1177H325.128ZM331.01 92.1177V98H325.128V92.1177H331.01ZM336.892 92.1177V98H331.01V92.1177H336.892ZM336.892 86.2353V92.1177H331.01V86.2353H336.892ZM342.775 86.2353V92.1177H336.892V86.2353H342.775ZM331.01 86.2353V92.1177H325.128V86.2353H331.01ZM342.775 92.1177V98H336.892V92.1177H342.775ZM342.775 98V103.882H336.892V98H342.775ZM342.775 103.882V109.765H336.892V103.882H342.775ZM336.892 103.882V109.765H331.01V103.882H336.892ZM331.01 103.882V109.765H325.128V103.882H331.01ZM325.128 103.882V109.765H319.245V103.882H325.128ZM325.128 98V103.882H319.245V98H325.128ZM331.01 98V103.882H325.128V98H331.01ZM336.892 98V103.882H331.01V98H336.892ZM342.775 109.765V115.647H336.892V109.765H342.775ZM336.892 109.765V115.647H331.01V109.765H336.892ZM331.01 109.765V115.647H325.128V109.765H331.01ZM342.775 121.529V127.412H336.892V121.529H342.775ZM342.775 115.647V121.529H336.892V115.647H342.775ZM331.01 192.118V198H325.128V192.118H331.01ZM336.892 192.118V198H331.01V192.118H336.892ZM342.775 186.235V192.118H336.892V186.235H342.775ZM342.775 180.353V186.235H336.892V180.353H342.775ZM342.775 192.118V198H336.892V192.118H342.775ZM313.363 109.765V115.647H307.481V109.765H313.363ZM325.128 109.765V115.647H319.245V109.765H325.128ZM307.481 109.765V115.647H301.598V109.765H307.481ZM301.598 109.765V115.647H295.716V109.765H301.598ZM295.716 109.765V115.647H289.834V109.765H295.716ZM289.834 109.765V115.647H283.951V109.765H289.834ZM283.951 115.647V121.529H278.069V115.647H283.951ZM289.834 115.647V121.529H283.951V115.647H289.834ZM289.834 121.529V127.412H283.951V121.529H289.834ZM278.069 115.647V121.529H272.187V115.647H278.069ZM278.069 121.529V127.412H272.187V121.529H278.069ZM283.951 121.529V127.412H278.069V121.529H283.951ZM289.834 127.412V133.294H283.951V127.412H289.834ZM295.716 127.412V133.294H289.834V127.412H295.716ZM283.951 127.412V133.294H278.069V127.412H283.951ZM278.069 127.412V133.294H272.187V127.412H278.069ZM272.187 127.412V133.294H266.304V127.412H272.187ZM272.187 133.294V139.176H266.304V133.294H272.187ZM272.187 139.176V145.059H266.304V139.176H272.187ZM272.187 145.059V150.941H266.304V145.059H272.187ZM272.187 150.941V156.824H266.304V150.941H272.187ZM272.187 156.824V162.706H266.304V156.824H272.187ZM272.187 162.706V168.588H266.304V162.706H272.187ZM272.187 168.588V174.471H266.304V168.588H272.187ZM272.187 174.471V180.353H266.304V174.471H272.187ZM278.069 174.471V180.353H272.187V174.471H278.069ZM278.069 180.353V186.235H272.187V180.353H278.069ZM278.069 186.235V192.118H272.187V186.235H278.069ZM283.951 186.235V192.118H278.069V186.235H283.951ZM289.834 186.235V192.118H283.951V186.235H289.834ZM295.716 180.353V186.235H289.834V180.353H295.716ZM295.716 174.471V180.353H289.834V174.471H295.716ZM289.834 174.471V180.353H283.951V174.471H289.834ZM289.834 180.353V186.235H283.951V180.353H289.834ZM283.951 180.353V186.235H278.069V180.353H283.951ZM283.951 174.471V180.353H278.069V174.471H283.951ZM283.951 168.588V174.471H278.069V168.588H283.951ZM289.834 168.588V174.471H283.951V168.588H289.834ZM289.834 162.706V168.588H283.951V162.706H289.834ZM289.834 156.824V162.706H283.951V156.824H289.834ZM289.834 150.941V156.824H283.951V150.941H289.834ZM289.834 145.059V150.941H283.951V145.059H289.834ZM289.834 139.176V145.059H283.951V139.176H289.834ZM289.834 133.294V139.176H283.951V133.294H289.834ZM283.951 133.294V139.176H278.069V133.294H283.951ZM283.951 139.176V145.059H278.069V139.176H283.951ZM283.951 145.059V150.941H278.069V145.059H283.951ZM283.951 150.941V156.824H278.069V150.941H283.951ZM283.951 156.824V162.706H278.069V156.824H283.951ZM283.951 162.706V168.588H278.069V162.706H283.951ZM278.069 168.588V174.471H272.187V168.588H278.069ZM278.069 162.706V168.588H272.187V162.706H278.069ZM278.069 156.824V162.706H272.187V156.824H278.069ZM278.069 150.941V156.824H272.187V150.941H278.069ZM278.069 145.059V150.941H272.187V145.059H278.069ZM278.069 139.176V145.059H272.187V139.176H278.069ZM278.069 133.294V139.176H272.187V133.294H278.069ZM295.716 186.235V192.118H289.834V186.235H295.716ZM295.716 192.118V198H289.834V192.118H295.716ZM289.834 192.118V198H283.951V192.118H289.834ZM301.598 192.118V198H295.716V192.118H301.598ZM307.481 192.118V198H301.598V192.118H307.481ZM313.363 192.118V198H307.481V192.118H313.363ZM325.128 192.118V198H319.245V192.118H325.128ZM325.128 186.235V192.118H319.245V186.235H325.128ZM331.01 186.235V192.118H325.128V186.235H331.01ZM336.892 186.235V192.118H331.01V186.235H336.892ZM336.892 139.176V145.059H331.01V139.176H336.892ZM336.892 133.294V139.176H331.01V133.294H336.892ZM342.775 127.412V133.294H336.892V127.412H342.775ZM336.892 121.529V127.412H331.01V121.529H336.892ZM331.01 115.647V121.529H325.128V115.647H331.01ZM325.128 115.647V121.529H319.245V115.647H325.128ZM319.245 115.647V121.529H313.363V115.647H319.245ZM319.245 121.529V127.412H313.363V121.529H319.245ZM325.128 127.412V133.294H319.245V127.412H325.128ZM331.01 127.412V133.294H325.128V127.412H331.01ZM325.128 133.294V139.176H319.245V133.294H325.128ZM325.128 139.176V145.059H319.245V139.176H325.128ZM325.128 145.059V150.941H319.245V145.059H325.128ZM313.363 180.353V186.235H307.481V180.353H313.363ZM307.481 180.353V186.235H301.598V180.353H307.481ZM301.598 180.353V186.235H295.716V180.353H301.598ZM301.598 186.235V192.118H295.716V186.235H301.598ZM307.481 186.235V192.118H301.598V186.235H307.481ZM313.363 186.235V192.118H307.481V186.235H313.363ZM319.245 186.235V192.118H313.363V186.235H319.245ZM325.128 180.353V186.235H319.245V180.353H325.128ZM331.01 180.353V186.235H325.128V180.353H331.01ZM331.01 139.176V145.059H325.128V139.176H331.01ZM331.01 133.294V139.176H325.128V133.294H331.01ZM331.01 121.529V127.412H325.128V121.529H331.01ZM325.128 121.529V127.412H319.245V121.529H325.128ZM313.363 115.647V121.529H307.481V115.647H313.363ZM307.481 115.647V121.529H301.598V115.647H307.481ZM301.598 115.647V121.529H295.716V115.647H301.598ZM295.716 115.647V121.529H289.834V115.647H295.716ZM295.716 121.529V127.412H289.834V121.529H295.716ZM301.598 121.529V127.412H295.716V121.529H301.598ZM307.481 121.529V127.412H301.598V121.529H307.481ZM313.363 121.529V127.412H307.481V121.529H313.363ZM336.892 115.647V121.529H331.01V115.647H336.892ZM336.892 180.353V186.235H331.01V180.353H336.892ZM336.892 127.412V133.294H331.01V127.412H336.892ZM342.775 133.294V139.176H336.892V133.294H342.775ZM342.775 139.176V145.059H336.892V139.176H342.775ZM342.775 174.471V180.353H336.892V174.471H342.775ZM336.892 174.471V180.353H331.01V174.471H336.892ZM331.01 174.471V180.353H325.128V174.471H331.01ZM325.128 174.471V180.353H319.245V174.471H325.128ZM331.01 145.059V150.941H325.128V145.059H331.01ZM336.892 145.059V150.941H331.01V145.059H336.892ZM342.775 145.059V150.941H336.892V145.059H342.775ZM342.775 150.941V156.824H336.892V150.941H342.775ZM342.775 156.824V162.706H336.892V156.824H342.775ZM342.775 162.706V168.588H336.892V162.706H342.775ZM336.892 162.706V168.588H331.01V162.706H336.892ZM336.892 168.588V174.471H331.01V168.588H336.892ZM331.01 168.588V174.471H325.128V168.588H331.01ZM342.775 168.588V174.471H336.892V168.588H342.775ZM325.128 168.588V174.471H319.245V168.588H325.128ZM325.128 162.706V168.588H319.245V162.706H325.128ZM325.128 156.824V162.706H319.245V156.824H325.128ZM325.128 150.941V156.824H319.245V150.941H325.128ZM331.01 150.941V156.824H325.128V150.941H331.01ZM336.892 150.941V156.824H331.01V150.941H336.892ZM336.892 156.824V162.706H331.01V156.824H336.892ZM331.01 162.706V168.588H325.128V162.706H331.01ZM331.01 156.824V162.706H325.128V156.824H331.01ZM313.363 109.765H319.245V115.647H313.363V109.765ZM313.363 180.353H319.245V186.235H313.363V180.353ZM313.363 174.471H319.245V180.353H313.363V174.471ZM366.327 115.647H372.21V121.529H366.327V115.647ZM366.327 121.529H372.21V127.412H366.327V121.529ZM366.327 127.412H372.21V133.294H366.327V127.412ZM366.327 133.294H372.21V139.176H366.327V133.294ZM366.327 139.176H372.21V145.059H366.327V139.176ZM360.445 139.176H366.327V145.059H360.445V139.176ZM360.445 133.294H366.327V139.176H360.445V133.294ZM360.445 127.412H366.327V133.294H360.445V127.412ZM360.445 121.529H366.327V127.412H360.445V121.529ZM360.445 115.647H366.327V121.529H360.445V115.647ZM360.445 174.471H366.327V180.353H360.445V174.471ZM360.445 168.588H366.327V174.471H360.445V168.588ZM360.445 162.706H366.327V168.588H360.445V162.706ZM360.445 156.824H366.327V162.706H360.445V156.824ZM366.327 150.941H372.21V156.824H366.327V150.941ZM366.327 145.059H372.21V150.941H366.327V145.059ZM360.445 145.059H366.327V150.941H360.445V145.059ZM360.445 150.941H366.327V156.824H360.445V150.941ZM360.445 180.353H366.327V186.235H360.445V180.353ZM360.445 186.235H366.327V192.118H360.445V186.235ZM360.445 192.118H366.327V198H360.445V192.118ZM378.092 115.647H383.974V121.529H378.092V115.647ZM378.092 121.529H383.974V127.412H378.092V121.529ZM378.092 127.412H383.974V133.294H378.092V127.412ZM378.092 133.294H383.974V139.176H378.092V133.294ZM378.092 139.176H383.974V145.059H378.092V139.176ZM378.092 145.059H383.974V150.941H378.092V145.059ZM378.092 150.941H383.974V156.824H378.092V150.941ZM378.092 156.824H383.974V162.706H378.092V156.824ZM378.092 162.706H383.974V168.588H378.092V162.706ZM378.092 168.588H383.974V174.471H378.092V168.588ZM378.092 174.471H383.974V180.353H378.092V174.471ZM378.092 180.353H383.974V186.235H378.092V180.353ZM378.092 186.235H383.974V192.118H378.092V186.235ZM378.092 192.118H383.974V198H378.092V192.118ZM372.21 192.118H378.092V198H372.21V192.118ZM366.327 192.118H372.21V198H366.327V192.118ZM366.327 186.235H372.21V192.118H366.327V186.235ZM372.21 186.235H378.092V192.118H372.21V186.235ZM372.21 180.353H378.092V186.235H372.21V180.353ZM366.327 174.471H372.21V180.353H366.327V174.471ZM366.327 168.588H372.21V174.471H366.327V168.588ZM366.327 162.706H372.21V168.588H366.327V162.706ZM372.21 162.706H378.092V168.588H372.21V162.706ZM372.21 168.588H378.092V174.471H372.21V168.588ZM372.21 174.471H378.092V180.353H372.21V174.471ZM366.327 180.353H372.21V186.235H366.327V180.353ZM372.21 156.824H378.092V162.706H372.21V156.824ZM372.21 150.941H378.092V156.824H372.21V150.941ZM372.21 145.059H378.092V150.941H372.21V145.059ZM366.327 156.824H372.21V162.706H366.327V156.824ZM372.21 139.176H378.092V145.059H372.21V139.176ZM372.21 133.294H378.092V139.176H372.21V133.294ZM372.21 127.412H378.092V133.294H372.21V127.412ZM372.21 121.529H378.092V127.412H372.21V121.529ZM372.21 115.647H378.092V121.529H372.21V115.647ZM378.092 80.3529H383.974V86.2353H378.092V80.3529ZM372.21 86.2353H378.092V92.1177H372.21V86.2353ZM372.21 74.4706H378.092V80.3529H372.21V74.4706ZM366.327 80.3529H372.21V86.2353H366.327V80.3529ZM372.21 80.3529H378.092V86.2353H372.21V80.3529ZM366.327 74.4706H372.21V80.3529H366.327V74.4706ZM366.327 86.2353H372.21V92.1177H366.327V86.2353ZM378.092 86.2353H383.974V92.1177H378.092V86.2353ZM360.445 80.3529H366.327V86.2353H360.445V80.3529ZM360.445 86.2353H366.327V92.1177H360.445V86.2353ZM366.327 92.1177H372.21V98H366.327V92.1177ZM372.21 92.1177H378.092V98H372.21V92.1177ZM360.445 74.4706H366.327V80.3529H360.445V74.4706ZM378.092 74.4706H383.974V80.3529H378.092V74.4706ZM378.092 92.1177H383.974V98H378.092V92.1177ZM360.445 92.1177H366.327V98H360.445V92.1177ZM448.715 198H442.832V192.118H448.715V198ZM460.479 198H454.597V192.118H460.479V198ZM442.832 198H436.95V192.118H442.832V198ZM436.95 198H431.068V192.118H436.95V198ZM431.068 198H425.185V192.118H431.068V198ZM425.185 198H419.303V192.118H425.185V198ZM419.303 192.118H413.42V186.235H419.303V192.118ZM425.185 192.118H419.303V186.235H425.185V192.118ZM425.185 186.235H419.303V180.353H425.185V186.235ZM413.42 192.118H407.538V186.235H413.42V192.118ZM413.42 186.235H407.538V180.353H413.42V186.235ZM419.303 186.235H413.42V180.353H419.303V186.235ZM425.185 180.353H419.303V174.471H425.185V180.353ZM431.068 180.353H425.185V174.471H431.068V180.353ZM419.303 180.353H413.42V174.471H419.303V180.353ZM413.42 180.353H407.538V174.471H413.42V180.353ZM407.538 180.353H401.656V174.471H407.538V180.353ZM407.538 174.471H401.656V168.588H407.538V174.471ZM407.538 139.176H401.656V133.294H407.538V139.176ZM407.538 133.294H401.656V127.412H407.538V133.294ZM413.42 133.294H407.538V127.412H413.42V133.294ZM413.42 127.412H407.538V121.529H413.42V127.412ZM413.42 121.529H407.538V115.647H413.42V121.529ZM419.303 121.529H413.42V115.647H419.303V121.529ZM425.185 121.529H419.303V115.647H425.185V121.529ZM431.068 127.412H425.185V121.529H431.068V127.412ZM431.068 133.294H425.185V127.412H431.068V133.294ZM425.185 133.294H419.303V127.412H425.185V133.294ZM425.185 127.412H419.303V121.529H425.185V127.412ZM419.303 127.412H413.42V121.529H419.303V127.412ZM419.303 133.294H413.42V127.412H419.303V133.294ZM419.303 139.176H413.42V133.294H419.303V139.176ZM425.185 139.176H419.303V133.294H425.185V139.176ZM425.185 174.471H419.303V168.588H425.185V174.471ZM419.303 174.471H413.42V168.588H419.303V174.471ZM413.42 139.176H407.538V133.294H413.42V139.176ZM413.42 174.471H407.538V168.588H413.42V174.471ZM431.068 121.529H425.185V115.647H431.068V121.529ZM431.068 115.647H425.185V109.765H431.068V115.647ZM425.185 115.647H419.303V109.765H425.185V115.647ZM436.95 115.647H431.068V109.765H436.95V115.647ZM442.832 115.647H436.95V109.765H442.832V115.647ZM448.715 115.647H442.832V109.765H448.715V115.647ZM454.597 115.647H448.715V109.765H454.597V115.647ZM460.479 115.647H454.597V109.765H460.479V115.647ZM460.479 121.529H454.597V115.647H460.479V121.529ZM466.362 121.529H460.479V115.647H466.362V121.529ZM472.244 121.529H466.362V115.647H472.244V121.529ZM472.244 127.412H466.362V121.529H472.244V127.412ZM478.126 133.294H472.244V127.412H478.126V133.294ZM472.244 133.294H466.362V127.412H472.244V133.294ZM478.126 139.176H472.244V133.294H478.126V139.176ZM478.126 145.059H472.244V139.176H478.126V145.059ZM478.126 150.941H472.244V145.059H478.126V150.941ZM478.126 156.824H472.244V150.941H478.126V156.824ZM478.126 162.706H472.244V156.824H478.126V162.706ZM478.126 168.588H472.244V162.706H478.126V168.588ZM472.244 168.588H466.362V162.706H472.244V168.588ZM472.244 174.471H466.362V168.588H472.244V174.471ZM478.126 174.471H472.244V168.588H478.126V174.471ZM478.126 180.353H472.244V174.471H478.126V180.353ZM472.244 180.353H466.362V174.471H472.244V180.353ZM472.244 186.235H466.362V180.353H472.244V186.235ZM472.244 192.118H466.362V186.235H472.244V192.118ZM466.362 192.118H460.479V186.235H466.362V192.118ZM460.479 192.118H454.597V186.235H460.479V192.118ZM454.597 192.118H448.715V186.235H454.597V192.118ZM454.597 186.235H448.715V180.353H454.597V186.235ZM460.479 180.353H454.597V174.471H460.479V180.353ZM466.362 180.353H460.479V174.471H466.362V180.353ZM460.479 174.471H454.597V168.588H460.479V174.471ZM460.479 168.588H454.597V162.706H460.479V168.588ZM460.479 162.706H454.597V156.824H460.479V162.706ZM460.479 156.824H454.597V150.941H460.479V156.824ZM460.479 150.941H454.597V145.059H460.479V150.941ZM460.479 145.059H454.597V139.176H460.479V145.059ZM460.479 139.176H454.597V133.294H460.479V139.176ZM460.479 133.294H454.597V127.412H460.479V133.294ZM454.597 133.294H448.715V127.412H454.597V133.294ZM454.597 127.412H448.715V121.529H454.597V127.412ZM448.715 127.412H442.832V121.529H448.715V127.412ZM442.832 127.412H436.95V121.529H442.832V127.412ZM436.95 127.412H431.068V121.529H436.95V127.412ZM436.95 121.529H431.068V115.647H436.95V121.529ZM442.832 121.529H436.95V115.647H442.832V121.529ZM448.715 121.529H442.832V115.647H448.715V121.529ZM454.597 121.529H448.715V115.647H454.597V121.529ZM460.479 127.412H454.597V121.529H460.479V127.412ZM466.362 127.412H460.479V121.529H466.362V127.412ZM466.362 133.294H460.479V127.412H466.362V133.294ZM466.362 139.176H460.479V133.294H466.362V139.176ZM466.362 145.059H460.479V139.176H466.362V145.059ZM472.244 145.059H466.362V139.176H472.244V145.059ZM472.244 139.176H466.362V133.294H472.244V139.176ZM472.244 150.941H466.362V145.059H472.244V150.941ZM472.244 156.824H466.362V150.941H472.244V156.824ZM472.244 162.706H466.362V156.824H472.244V162.706ZM466.362 162.706H460.479V156.824H466.362V162.706ZM466.362 156.824H460.479V150.941H466.362V156.824ZM466.362 150.941H460.479V145.059H466.362V150.941ZM466.362 168.588H460.479V162.706H466.362V168.588ZM466.362 174.471H460.479V168.588H466.362V174.471ZM466.362 186.235H460.479V180.353H466.362V186.235ZM460.479 186.235H454.597V180.353H460.479V186.235ZM448.715 192.118H442.832V186.235H448.715V192.118ZM442.832 192.118H436.95V186.235H442.832V192.118ZM436.95 192.118H431.068V186.235H436.95V192.118ZM431.068 192.118H425.185V186.235H431.068V192.118ZM431.068 186.235H425.185V180.353H431.068V186.235ZM436.95 186.235H431.068V180.353H436.95V186.235ZM442.832 186.235H436.95V180.353H442.832V186.235ZM448.715 186.235H442.832V180.353H448.715V186.235ZM413.42 168.588H407.538V162.706H413.42V168.588ZM419.303 168.588H413.42V162.706H419.303V168.588ZM425.185 168.588H419.303V162.706H425.185V168.588ZM413.42 162.706H407.538V156.824H413.42V162.706ZM419.303 162.706H413.42V156.824H419.303V162.706ZM425.185 162.706H419.303V156.824H425.185V162.706ZM431.068 162.706H425.185V156.824H431.068V162.706ZM436.95 162.706H431.068V156.824H436.95V162.706ZM442.832 162.706H436.95V156.824H442.832V162.706ZM448.715 162.706H442.832V156.824H448.715V162.706ZM454.597 162.706H448.715V156.824H454.597V162.706ZM454.597 156.824H448.715V150.941H454.597V156.824ZM448.715 156.824H442.832V150.941H448.715V156.824ZM442.832 156.824H436.95V150.941H442.832V156.824ZM436.95 156.824H431.068V150.941H436.95V156.824ZM431.068 156.824H425.185V150.941H431.068V156.824ZM425.185 156.824H419.303V150.941H425.185V156.824ZM472.244 180.353H478.126V186.235H472.244V180.353ZM472.244 186.235H478.126V192.118H472.244V186.235ZM472.244 192.118H478.126V198H472.244V192.118ZM466.362 192.118H472.244V198H466.362V192.118ZM460.479 192.118H466.362V198H460.479V192.118ZM425.185 162.706H431.068V168.588H425.185V162.706ZM495.796 109.765H501.679V115.647H495.796V109.765ZM501.679 109.765H507.561V115.647H501.679V109.765ZM507.561 109.765H513.443V115.647H507.561V109.765ZM495.796 121.529H501.679V127.412H495.796V121.529ZM495.796 115.647H501.679V121.529H495.796V115.647ZM507.561 192.118H513.443V198H507.561V192.118ZM501.679 192.118H507.561V198H501.679V192.118ZM495.796 186.235H501.679V192.118H495.796V186.235ZM495.796 180.353H501.679V186.235H495.796V180.353ZM495.796 192.118H501.679V198H495.796V192.118ZM525.208 109.765H531.091V115.647H525.208V109.765ZM513.443 109.765H519.326V115.647H513.443V109.765ZM536.973 109.765H542.855V115.647H536.973V109.765ZM542.855 115.647H548.738V121.529H542.855V115.647ZM536.973 115.647H542.855V121.529H536.973V115.647ZM536.973 121.529H542.855V127.412H536.973V121.529ZM548.738 121.529H554.62V127.412H548.738V121.529ZM542.855 121.529H548.738V127.412H542.855V121.529ZM536.973 127.412H542.855V133.294H536.973V127.412ZM531.091 127.412H536.973V133.294H531.091V127.412ZM542.855 127.412H548.738V133.294H542.855V127.412ZM548.738 127.412H554.62V133.294H548.738V127.412ZM554.62 133.294H560.502V139.176H554.62V133.294ZM554.62 139.176H560.502V145.059H554.62V139.176ZM554.62 145.059H560.502V150.941H554.62V145.059ZM554.62 150.941H560.502V156.824H554.62V150.941ZM554.62 156.824H560.502V162.706H554.62V156.824ZM554.62 162.706H560.502V168.588H554.62V162.706ZM554.62 168.588H560.502V174.471H554.62V168.588ZM554.62 174.471H560.502V180.353H554.62V174.471ZM548.738 174.471H554.62V180.353H548.738V174.471ZM548.738 180.353H554.62V186.235H548.738V180.353ZM548.738 186.235H554.62V192.118H548.738V186.235ZM542.855 186.235H548.738V192.118H542.855V186.235ZM536.973 186.235H542.855V192.118H536.973V186.235ZM536.973 174.471H542.855V180.353H536.973V174.471ZM536.973 180.353H542.855V186.235H536.973V180.353ZM542.855 180.353H548.738V186.235H542.855V180.353ZM542.855 174.471H548.738V180.353H542.855V174.471ZM542.855 168.588H548.738V174.471H542.855V168.588ZM536.973 168.588H542.855V174.471H536.973V168.588ZM536.973 162.706H542.855V168.588H536.973V162.706ZM536.973 156.824H542.855V162.706H536.973V156.824ZM536.973 150.941H542.855V156.824H536.973V150.941ZM536.973 145.059H542.855V150.941H536.973V145.059ZM536.973 139.176H542.855V145.059H536.973V139.176ZM536.973 133.294H542.855V139.176H536.973V133.294ZM542.855 133.294H548.738V139.176H542.855V133.294ZM542.855 139.176H548.738V145.059H542.855V139.176ZM542.855 145.059H548.738V150.941H542.855V145.059ZM542.855 150.941H548.738V156.824H542.855V150.941ZM542.855 156.824H548.738V162.706H542.855V156.824ZM542.855 162.706H548.738V168.588H542.855V162.706ZM548.738 168.588H554.62V174.471H548.738V168.588ZM548.738 162.706H554.62V168.588H548.738V162.706ZM548.738 156.824H554.62V162.706H548.738V156.824ZM548.738 150.941H554.62V156.824H548.738V150.941ZM548.738 145.059H554.62V150.941H548.738V145.059ZM548.738 139.176H554.62V145.059H548.738V139.176ZM548.738 133.294H554.62V139.176H548.738V133.294ZM536.973 192.118H542.855V198H536.973V192.118ZM513.443 192.118H519.326V198H513.443V192.118ZM513.443 186.235H519.326V192.118H513.443V186.235ZM507.561 186.235H513.443V192.118H507.561V186.235ZM501.679 186.235H507.561V192.118H501.679V186.235ZM501.679 139.176H507.561V145.059H501.679V139.176ZM501.679 133.294H507.561V139.176H501.679V133.294ZM495.796 127.412H501.679V133.294H495.796V127.412ZM501.679 121.529H507.561V127.412H501.679V121.529ZM507.561 115.647H513.443V121.529H507.561V115.647ZM513.443 115.647H519.326V121.529H513.443V115.647ZM519.326 115.647H525.208V121.529H519.326V115.647ZM519.326 121.529H525.208V127.412H519.326V121.529ZM519.326 127.412H525.208V133.294H519.326V127.412ZM513.443 127.412H519.326V133.294H513.443V127.412ZM507.561 127.412H513.443V133.294H507.561V127.412ZM513.443 133.294H519.326V139.176H513.443V133.294ZM513.443 139.176H519.326V145.059H513.443V139.176ZM513.443 145.059H519.326V150.941H513.443V145.059ZM513.443 180.353H519.326V186.235H513.443V180.353ZM507.561 180.353H513.443V186.235H507.561V180.353ZM507.561 139.176H513.443V145.059H507.561V139.176ZM507.561 133.294H513.443V139.176H507.561V133.294ZM507.561 121.529H513.443V127.412H507.561V121.529ZM513.443 121.529H519.326V127.412H513.443V121.529ZM525.208 115.647H531.091V121.529H525.208V115.647ZM531.091 115.647H536.973V121.529H531.091V115.647ZM531.091 121.529H536.973V127.412H531.091V121.529ZM525.208 121.529H531.091V127.412H525.208V121.529ZM501.679 115.647H507.561V121.529H501.679V115.647ZM501.679 180.353H507.561V186.235H501.679V180.353ZM501.679 127.412H507.561V133.294H501.679V127.412ZM495.796 133.294H501.679V139.176H495.796V133.294ZM495.796 139.176H501.679V145.059H495.796V139.176ZM495.796 174.471H501.679V180.353H495.796V174.471ZM501.679 174.471H507.561V180.353H501.679V174.471ZM507.561 174.471H513.443V180.353H507.561V174.471ZM513.443 174.471H519.326V180.353H513.443V174.471ZM507.561 145.059H513.443V150.941H507.561V145.059ZM501.679 145.059H507.561V150.941H501.679V145.059ZM495.796 145.059H501.679V150.941H495.796V145.059ZM495.796 150.941H501.679V156.824H495.796V150.941ZM495.796 156.824H501.679V162.706H495.796V156.824ZM495.796 162.706H501.679V168.588H495.796V162.706ZM501.679 162.706H507.561V168.588H501.679V162.706ZM501.679 168.588H507.561V174.471H501.679V168.588ZM507.561 168.588H513.443V174.471H507.561V168.588ZM495.796 168.588H501.679V174.471H495.796V168.588ZM513.443 168.588H519.326V174.471H513.443V168.588ZM513.443 162.706H519.326V168.588H513.443V162.706ZM513.443 156.824H519.326V162.706H513.443V156.824ZM513.443 150.941H519.326V156.824H513.443V150.941ZM507.561 150.941H513.443V156.824H507.561V150.941ZM501.679 150.941H507.561V156.824H501.679V150.941ZM501.679 156.824H507.561V162.706H501.679V156.824ZM507.561 162.706H513.443V168.588H507.561V162.706ZM507.561 156.824H513.443V162.706H507.561V156.824ZM542.855 192.118H548.738V198H542.855V192.118ZM548.738 192.118H554.62V198H548.738V192.118ZM554.62 192.118H560.502V198H554.62V192.118ZM554.62 186.235H560.502V192.118H554.62V186.235ZM554.62 180.353H560.502V186.235H554.62V180.353ZM560.502 109.765H566.385V115.647H560.502V109.765ZM566.385 109.765H572.267V115.647H566.385V109.765ZM572.267 109.765H578.149V115.647H572.267V109.765ZM578.149 109.765H584.032V115.647H578.149V109.765ZM584.032 115.647H589.914V121.529H584.032V115.647ZM578.149 115.647H584.032V121.529H578.149V115.647ZM578.149 121.529H584.032V127.412H578.149V121.529ZM589.914 115.647H595.796V121.529H589.914V115.647ZM589.914 121.529H595.796V127.412H589.914V121.529ZM584.032 121.529H589.914V127.412H584.032V121.529ZM578.149 127.412H584.032V133.294H578.149V127.412ZM572.267 127.412H578.149V133.294H572.267V127.412ZM584.032 127.412H589.914V133.294H584.032V127.412ZM589.914 127.412H595.796V133.294H589.914V127.412ZM595.796 127.412H601.679V133.294H595.796V127.412ZM595.796 133.294H601.679V139.176H595.796V133.294ZM595.796 139.176H601.679V145.059H595.796V139.176ZM595.796 145.059H601.679V150.941H595.796V145.059ZM595.796 150.941H601.679V156.824H595.796V150.941ZM595.796 156.824H601.679V162.706H595.796V156.824ZM595.796 162.706H601.679V168.588H595.796V162.706ZM595.796 168.588H601.679V174.471H595.796V168.588ZM595.796 174.471H601.679V180.353H595.796V174.471ZM589.914 174.471H595.796V180.353H589.914V174.471ZM589.914 180.353H595.796V186.235H589.914V180.353ZM589.914 186.235H595.796V192.118H589.914V186.235ZM584.032 186.235H589.914V192.118H584.032V186.235ZM578.149 186.235H584.032V192.118H578.149V186.235ZM578.149 174.471H584.032V180.353H578.149V174.471ZM578.149 180.353H584.032V186.235H578.149V180.353ZM584.032 180.353H589.914V186.235H584.032V180.353ZM584.032 174.471H589.914V180.353H584.032V174.471ZM584.032 168.588H589.914V174.471H584.032V168.588ZM578.149 168.588H584.032V174.471H578.149V168.588ZM578.149 162.706H584.032V168.588H578.149V162.706ZM578.149 156.824H584.032V162.706H578.149V156.824ZM578.149 150.941H584.032V156.824H578.149V150.941ZM578.149 145.059H584.032V150.941H578.149V145.059ZM578.149 139.176H584.032V145.059H578.149V139.176ZM578.149 133.294H584.032V139.176H578.149V133.294ZM584.032 133.294H589.914V139.176H584.032V133.294ZM584.032 139.176H589.914V145.059H584.032V139.176ZM584.032 145.059H589.914V150.941H584.032V145.059ZM584.032 150.941H589.914V156.824H584.032V150.941ZM584.032 156.824H589.914V162.706H584.032V156.824ZM584.032 162.706H589.914V168.588H584.032V162.706ZM589.914 168.588H595.796V174.471H589.914V168.588ZM589.914 162.706H595.796V168.588H589.914V162.706ZM589.914 156.824H595.796V162.706H589.914V156.824ZM589.914 150.941H595.796V156.824H589.914V150.941ZM589.914 145.059H595.796V150.941H589.914V145.059ZM589.914 139.176H595.796V145.059H589.914V139.176ZM589.914 133.294H595.796V139.176H589.914V133.294ZM578.149 192.118H584.032V198H578.149V192.118ZM554.62 115.647H560.502V121.529H554.62V115.647ZM554.62 121.529H560.502V127.412H554.62V121.529ZM554.62 127.412H560.502V133.294H554.62V127.412ZM560.502 115.647H566.385V121.529H560.502V115.647ZM566.385 115.647H572.267V121.529H566.385V115.647ZM572.267 115.647H578.149V121.529H572.267V115.647ZM572.267 121.529H578.149V127.412H572.267V121.529ZM566.385 121.529H572.267V127.412H566.385V121.529ZM560.502 121.529H566.385V127.412H560.502V121.529ZM584.032 192.118H589.914V198H584.032V192.118ZM589.914 192.118H595.796V198H589.914V192.118ZM595.796 192.118H601.679V198H595.796V192.118ZM595.796 186.235H601.679V192.118H595.796V186.235ZM595.796 180.353H601.679V186.235H595.796V180.353ZM531.091 109.765H536.973V115.647H531.091V109.765ZM560.502 127.412H566.385V133.294H560.502V127.412ZM642.763 109.765H648.646V115.647H642.763V109.765ZM648.646 109.765H654.528V115.647H648.646V109.765ZM636.881 109.765H642.763V115.647H636.881V109.765ZM654.528 109.765H660.41V115.647H654.528V109.765ZM660.41 109.765H666.293V115.647H660.41V109.765ZM666.293 109.765H672.175V115.647H666.293V109.765ZM672.175 109.765H678.057V115.647H672.175V109.765ZM678.057 115.647H683.94V121.529H678.057V115.647ZM672.175 115.647H678.057V121.529H672.175V115.647ZM672.175 121.529H678.057V127.412H672.175V121.529ZM683.94 115.647H689.822V121.529H683.94V115.647ZM683.94 121.529H689.822V127.412H683.94V121.529ZM678.057 121.529H683.94V127.412H678.057V121.529ZM672.175 127.412H678.057V133.294H672.175V127.412ZM666.293 127.412H672.175V133.294H666.293V127.412ZM678.057 127.412H683.94V133.294H678.057V127.412ZM683.94 127.412H689.822V133.294H683.94V127.412ZM689.822 127.412H695.704V133.294H689.822V127.412ZM689.822 133.294H695.704V139.176H689.822V133.294ZM689.822 139.176H695.704V145.059H689.822V139.176ZM689.822 145.059H695.704V150.941H689.822V145.059ZM689.822 150.941H695.704V156.824H689.822V150.941ZM689.822 156.824H695.704V162.706H689.822V156.824ZM689.822 162.706H695.704V168.588H689.822V162.706ZM689.822 168.588H695.704V174.471H689.822V168.588ZM689.822 174.471H695.704V180.353H689.822V174.471ZM683.94 174.471H689.822V180.353H683.94V174.471ZM683.94 180.353H689.822V186.235H683.94V180.353ZM683.94 186.235H689.822V192.118H683.94V186.235ZM678.057 186.235H683.94V192.118H678.057V186.235ZM672.175 186.235H678.057V192.118H672.175V186.235ZM666.293 180.353H672.175V186.235H666.293V180.353ZM666.293 174.471H672.175V180.353H666.293V174.471ZM672.175 174.471H678.057V180.353H672.175V174.471ZM672.175 180.353H678.057V186.235H672.175V180.353ZM678.057 180.353H683.94V186.235H678.057V180.353ZM678.057 174.471H683.94V180.353H678.057V174.471ZM678.057 168.588H683.94V174.471H678.057V168.588ZM672.175 168.588H678.057V174.471H672.175V168.588ZM672.175 162.706H678.057V168.588H672.175V162.706ZM672.175 156.824H678.057V162.706H672.175V156.824ZM672.175 150.941H678.057V156.824H672.175V150.941ZM672.175 145.059H678.057V150.941H672.175V145.059ZM672.175 139.176H678.057V145.059H672.175V139.176ZM672.175 133.294H678.057V139.176H672.175V133.294ZM678.057 133.294H683.94V139.176H678.057V133.294ZM678.057 139.176H683.94V145.059H678.057V139.176ZM678.057 145.059H683.94V150.941H678.057V145.059ZM678.057 150.941H683.94V156.824H678.057V150.941ZM678.057 156.824H683.94V162.706H678.057V156.824ZM678.057 162.706H683.94V168.588H678.057V162.706ZM683.94 168.588H689.822V174.471H683.94V168.588ZM683.94 162.706H689.822V168.588H683.94V162.706ZM683.94 156.824H689.822V162.706H683.94V156.824ZM683.94 150.941H689.822V156.824H683.94V150.941ZM683.94 145.059H689.822V150.941H683.94V145.059ZM683.94 139.176H689.822V145.059H683.94V139.176ZM683.94 133.294H689.822V139.176H683.94V133.294ZM666.293 186.235H672.175V192.118H666.293V186.235ZM666.293 192.118H672.175V198H666.293V192.118ZM672.175 192.118H678.057V198H672.175V192.118ZM660.41 192.118H666.293V198H660.41V192.118ZM654.528 192.118H660.41V198H654.528V192.118ZM648.646 192.118H654.528V198H648.646V192.118ZM642.763 192.118H648.646V198H642.763V192.118ZM636.881 192.118H642.763V198H636.881V192.118ZM636.881 186.235H642.763V192.118H636.881V186.235ZM630.999 186.235H636.881V192.118H630.999V186.235ZM625.116 186.235H630.999V192.118H625.116V186.235ZM625.116 180.353H630.999V186.235H625.116V180.353ZM619.234 174.471H625.116V180.353H619.234V174.471ZM625.116 174.471H630.999V180.353H625.116V174.471ZM619.234 168.588H625.116V174.471H619.234V168.588ZM619.234 162.706H625.116V168.588H619.234V162.706ZM619.234 156.824H625.116V162.706H619.234V156.824ZM619.234 150.941H625.116V156.824H619.234V150.941ZM619.234 145.059H625.116V150.941H619.234V145.059ZM619.234 139.176H625.116V145.059H619.234V139.176ZM625.116 139.176H630.999V145.059H625.116V139.176ZM625.116 133.294H630.999V139.176H625.116V133.294ZM619.234 133.294H625.116V139.176H619.234V133.294ZM619.234 127.412H625.116V133.294H619.234V127.412ZM625.116 127.412H630.999V133.294H625.116V127.412ZM625.116 121.529H630.999V127.412H625.116V121.529ZM625.116 115.647H630.999V121.529H625.116V115.647ZM630.999 115.647H636.881V121.529H630.999V115.647ZM636.881 115.647H642.763V121.529H636.881V115.647ZM642.763 115.647H648.646V121.529H642.763V115.647ZM642.763 121.529H648.646V127.412H642.763V121.529ZM642.763 127.412H648.646V133.294H642.763V127.412ZM636.881 127.412H642.763V133.294H636.881V127.412ZM630.999 127.412H636.881V133.294H630.999V127.412ZM636.881 133.294H642.763V139.176H636.881V133.294ZM636.881 139.176H642.763V145.059H636.881V139.176ZM636.881 145.059H642.763V150.941H636.881V145.059ZM636.881 150.941H642.763V156.824H636.881V150.941ZM636.881 156.824H642.763V162.706H636.881V156.824ZM636.881 162.706H642.763V168.588H636.881V162.706ZM636.881 168.588H642.763V174.471H636.881V168.588ZM636.881 174.471H642.763V180.353H636.881V174.471ZM642.763 174.471H648.646V180.353H642.763V174.471ZM642.763 180.353H648.646V186.235H642.763V180.353ZM648.646 180.353H654.528V186.235H648.646V180.353ZM654.528 180.353H660.41V186.235H654.528V180.353ZM660.41 180.353H666.293V186.235H660.41V180.353ZM660.41 186.235H666.293V192.118H660.41V186.235ZM654.528 186.235H660.41V192.118H654.528V186.235ZM648.646 186.235H654.528V192.118H648.646V186.235ZM642.763 186.235H648.646V192.118H642.763V186.235ZM636.881 180.353H642.763V186.235H636.881V180.353ZM630.999 180.353H636.881V186.235H630.999V180.353ZM630.999 174.471H636.881V180.353H630.999V174.471ZM630.999 168.588H636.881V174.471H630.999V168.588ZM630.999 162.706H636.881V168.588H630.999V162.706ZM625.116 162.706H630.999V168.588H625.116V162.706ZM625.116 168.588H630.999V174.471H625.116V168.588ZM625.116 156.824H630.999V162.706H625.116V156.824ZM625.116 150.941H630.999V156.824H625.116V150.941ZM625.116 145.059H630.999V150.941H625.116V145.059ZM630.999 145.059H636.881V150.941H630.999V145.059ZM630.999 150.941H636.881V156.824H630.999V150.941ZM630.999 156.824H636.881V162.706H630.999V156.824ZM630.999 139.176H636.881V145.059H630.999V139.176ZM630.999 133.294H636.881V139.176H630.999V133.294ZM630.999 121.529H636.881V127.412H630.999V121.529ZM636.881 121.529H642.763V127.412H636.881V121.529ZM648.646 115.647H654.528V121.529H648.646V115.647ZM654.528 115.647H660.41V121.529H654.528V115.647ZM660.41 115.647H666.293V121.529H660.41V115.647ZM666.293 115.647H672.175V121.529H666.293V115.647ZM666.293 121.529H672.175V127.412H666.293V121.529ZM660.41 121.529H666.293V127.412H660.41V121.529ZM654.528 121.529H660.41V127.412H654.528V121.529ZM648.646 121.529H654.528V127.412H648.646V121.529ZM713.375 109.765H719.257V115.647H713.375V109.765ZM719.257 109.765H725.139V115.647H719.257V109.765ZM725.139 109.765H731.022V115.647H725.139V109.765ZM713.375 121.529H719.257V127.412H713.375V121.529ZM713.375 115.647H719.257V121.529H713.375V115.647ZM725.139 192.118H731.022V198H725.139V192.118ZM719.257 192.118H725.139V198H719.257V192.118ZM713.375 186.235H719.257V192.118H713.375V186.235ZM713.375 180.353H719.257V186.235H713.375V180.353ZM713.375 192.118H719.257V198H713.375V192.118ZM742.786 109.765H748.669V115.647H742.786V109.765ZM731.022 109.765H736.904V115.647H731.022V109.765ZM748.669 109.765H754.551V115.647H748.669V109.765ZM754.551 109.765H760.433V115.647H754.551V109.765ZM760.433 109.765H766.316V115.647H760.433V109.765ZM766.316 109.765H772.198V115.647H766.316V109.765ZM772.198 115.647H778.08V121.529H772.198V115.647ZM766.316 115.647H772.198V121.529H766.316V115.647ZM766.316 121.529H772.198V127.412H766.316V121.529ZM778.08 115.647H783.963V121.529H778.08V115.647ZM778.08 121.529H783.963V127.412H778.08V121.529ZM772.198 121.529H778.08V127.412H772.198V121.529ZM766.316 127.412H772.198V133.294H766.316V127.412ZM760.433 127.412H766.316V133.294H760.433V127.412ZM772.198 127.412H778.08V133.294H772.198V127.412ZM778.08 127.412H783.963V133.294H778.08V127.412ZM783.963 127.412H789.845V133.294H783.963V127.412ZM783.963 133.294H789.845V139.176H783.963V133.294ZM783.963 139.176H789.845V145.059H783.963V139.176ZM783.963 145.059H789.845V150.941H783.963V145.059ZM783.963 150.941H789.845V156.824H783.963V150.941ZM783.963 156.824H789.845V162.706H783.963V156.824ZM783.963 162.706H789.845V168.588H783.963V162.706ZM783.963 168.588H789.845V174.471H783.963V168.588ZM783.963 174.471H789.845V180.353H783.963V174.471ZM778.08 174.471H783.963V180.353H778.08V174.471ZM778.08 180.353H783.963V186.235H778.08V180.353ZM778.08 186.235H783.963V192.118H778.08V186.235ZM772.198 186.235H778.08V192.118H772.198V186.235ZM766.316 186.235H772.198V192.118H766.316V186.235ZM766.316 174.471H772.198V180.353H766.316V174.471ZM766.316 180.353H772.198V186.235H766.316V180.353ZM772.198 180.353H778.08V186.235H772.198V180.353ZM772.198 174.471H778.08V180.353H772.198V174.471ZM772.198 168.588H778.08V174.471H772.198V168.588ZM766.316 168.588H772.198V174.471H766.316V168.588ZM766.316 162.706H772.198V168.588H766.316V162.706ZM766.316 156.824H772.198V162.706H766.316V156.824ZM766.316 150.941H772.198V156.824H766.316V150.941ZM766.316 145.059H772.198V150.941H766.316V145.059ZM766.316 139.176H772.198V145.059H766.316V139.176ZM766.316 133.294H772.198V139.176H766.316V133.294ZM772.198 133.294H778.08V139.176H772.198V133.294ZM772.198 139.176H778.08V145.059H772.198V139.176ZM772.198 145.059H778.08V150.941H772.198V145.059ZM772.198 150.941H778.08V156.824H772.198V150.941ZM772.198 156.824H778.08V162.706H772.198V156.824ZM772.198 162.706H778.08V168.588H772.198V162.706ZM778.08 168.588H783.963V174.471H778.08V168.588ZM778.08 162.706H783.963V168.588H778.08V162.706ZM778.08 156.824H783.963V162.706H778.08V156.824ZM778.08 150.941H783.963V156.824H778.08V150.941ZM778.08 145.059H783.963V150.941H778.08V145.059ZM778.08 139.176H783.963V145.059H778.08V139.176ZM778.08 133.294H783.963V139.176H778.08V133.294ZM766.316 192.118H772.198V198H766.316V192.118ZM731.022 192.118H736.904V198H731.022V192.118ZM731.022 186.235H736.904V192.118H731.022V186.235ZM725.139 186.235H731.022V192.118H725.139V186.235ZM719.257 186.235H725.139V192.118H719.257V186.235ZM719.257 139.176H725.139V145.059H719.257V139.176ZM719.257 133.294H725.139V139.176H719.257V133.294ZM713.375 127.412H719.257V133.294H713.375V127.412ZM719.257 121.529H725.139V127.412H719.257V121.529ZM725.139 115.647H731.022V121.529H725.139V115.647ZM731.022 115.647H736.904V121.529H731.022V115.647ZM736.904 115.647H742.786V121.529H736.904V115.647ZM736.904 121.529H742.786V127.412H736.904V121.529ZM736.904 127.412H742.786V133.294H736.904V127.412ZM731.022 127.412H736.904V133.294H731.022V127.412ZM725.139 127.412H731.022V133.294H725.139V127.412ZM731.022 133.294H736.904V139.176H731.022V133.294ZM731.022 139.176H736.904V145.059H731.022V139.176ZM731.022 145.059H736.904V150.941H731.022V145.059ZM731.022 180.353H736.904V186.235H731.022V180.353ZM725.139 180.353H731.022V186.235H725.139V180.353ZM725.139 139.176H731.022V145.059H725.139V139.176ZM725.139 133.294H731.022V139.176H725.139V133.294ZM725.139 121.529H731.022V127.412H725.139V121.529ZM731.022 121.529H736.904V127.412H731.022V121.529ZM742.786 115.647H748.669V121.529H742.786V115.647ZM748.669 115.647H754.551V121.529H748.669V115.647ZM754.551 115.647H760.433V121.529H754.551V115.647ZM760.433 115.647H766.316V121.529H760.433V115.647ZM760.433 121.529H766.316V127.412H760.433V121.529ZM754.551 121.529H760.433V127.412H754.551V121.529ZM748.669 121.529H754.551V127.412H748.669V121.529ZM742.786 121.529H748.669V127.412H742.786V121.529ZM719.257 115.647H725.139V121.529H719.257V115.647ZM719.257 180.353H725.139V186.235H719.257V180.353ZM719.257 127.412H725.139V133.294H719.257V127.412ZM713.375 133.294H719.257V139.176H713.375V133.294ZM713.375 139.176H719.257V145.059H713.375V139.176ZM713.375 174.471H719.257V180.353H713.375V174.471ZM719.257 174.471H725.139V180.353H719.257V174.471ZM725.139 174.471H731.022V180.353H725.139V174.471ZM731.022 174.471H736.904V180.353H731.022V174.471ZM725.139 145.059H731.022V150.941H725.139V145.059ZM719.257 145.059H725.139V150.941H719.257V145.059ZM713.375 145.059H719.257V150.941H713.375V145.059ZM713.375 150.941H719.257V156.824H713.375V150.941ZM713.375 156.824H719.257V162.706H713.375V156.824ZM713.375 162.706H719.257V168.588H713.375V162.706ZM719.257 162.706H725.139V168.588H719.257V162.706ZM719.257 168.588H725.139V174.471H719.257V168.588ZM725.139 168.588H731.022V174.471H725.139V168.588ZM713.375 168.588H719.257V174.471H713.375V168.588ZM731.022 168.588H736.904V174.471H731.022V168.588ZM731.022 162.706H736.904V168.588H731.022V162.706ZM731.022 156.824H736.904V162.706H731.022V156.824ZM731.022 150.941H736.904V156.824H731.022V150.941ZM725.139 150.941H731.022V156.824H725.139V150.941ZM719.257 150.941H725.139V156.824H719.257V150.941ZM719.257 156.824H725.139V162.706H719.257V156.824ZM725.139 162.706H731.022V168.588H725.139V162.706ZM725.139 156.824H731.022V162.706H725.139V156.824ZM772.198 192.118H778.08V198H772.198V192.118ZM778.08 192.118H783.963V198H778.08V192.118ZM783.963 192.118H789.845V198H783.963V192.118ZM783.963 186.235H789.845V192.118H783.963V186.235ZM783.963 180.353H789.845V186.235H783.963V180.353ZM883.986 80.3529V86.2353H878.103V80.3529H883.986ZM878.103 80.3529V86.2353H872.221V80.3529H878.103ZM872.221 80.3529V86.2353H866.339V80.3529H872.221ZM866.339 80.3529V86.2353H860.456V80.3529H866.339ZM866.339 86.2353V92.1177H860.456V86.2353H866.339ZM866.339 92.1177V98H860.456V92.1177H866.339ZM872.221 92.1177V98H866.339V92.1177H872.221ZM878.103 92.1177V98H872.221V92.1177H878.103ZM878.103 86.2353V92.1177H872.221V86.2353H878.103ZM883.986 86.2353V92.1177H878.103V86.2353H883.986ZM872.221 86.2353V92.1177H866.339V86.2353H872.221ZM883.986 92.1177V98H878.103V92.1177H883.986ZM883.986 98V103.882H878.103V98H883.986ZM883.986 103.882V109.765H878.103V103.882H883.986ZM878.103 103.882V109.765H872.221V103.882H878.103ZM872.221 103.882V109.765H866.339V103.882H872.221ZM866.339 103.882V109.765H860.456V103.882H866.339ZM866.339 98V103.882H860.456V98H866.339ZM872.221 98V103.882H866.339V98H872.221ZM878.103 98V103.882H872.221V98H878.103ZM883.986 109.765V115.647H878.103V109.765H883.986ZM878.103 109.765V115.647H872.221V109.765H878.103ZM872.221 109.765V115.647H866.339V109.765H872.221ZM883.986 121.529V127.412H878.103V121.529H883.986ZM883.986 115.647V121.529H878.103V115.647H883.986ZM872.221 192.118V198H866.339V192.118H872.221ZM878.103 192.118V198H872.221V192.118H878.103ZM883.986 186.235V192.118H878.103V186.235H883.986ZM883.986 180.353V186.235H878.103V180.353H883.986ZM883.986 192.118V198H878.103V192.118H883.986ZM854.574 109.765V115.647H848.692V109.765H854.574ZM866.339 109.765V115.647H860.456V109.765H866.339ZM848.692 109.765V115.647H842.809V109.765H848.692ZM842.809 109.765V115.647H836.927V109.765H842.809ZM836.927 109.765V115.647H831.045V109.765H836.927ZM831.045 109.765V115.647H825.162V109.765H831.045ZM825.162 115.647V121.529H819.28V115.647H825.162ZM831.045 115.647V121.529H825.162V115.647H831.045ZM831.045 121.529V127.412H825.162V121.529H831.045ZM819.28 115.647V121.529H813.398V115.647H819.28ZM819.28 121.529V127.412H813.398V121.529H819.28ZM825.162 121.529V127.412H819.28V121.529H825.162ZM831.045 127.412V133.294H825.162V127.412H831.045ZM836.927 127.412V133.294H831.045V127.412H836.927ZM825.162 127.412V133.294H819.28V127.412H825.162ZM819.28 127.412V133.294H813.398V127.412H819.28ZM813.398 127.412V133.294H807.515V127.412H813.398ZM813.398 133.294V139.176H807.515V133.294H813.398ZM813.398 139.176V145.059H807.515V139.176H813.398ZM813.398 145.059V150.941H807.515V145.059H813.398ZM813.398 150.941V156.824H807.515V150.941H813.398ZM813.398 156.824V162.706H807.515V156.824H813.398ZM813.398 162.706V168.588H807.515V162.706H813.398ZM813.398 168.588V174.471H807.515V168.588H813.398ZM813.398 174.471V180.353H807.515V174.471H813.398ZM819.28 174.471V180.353H813.398V174.471H819.28ZM819.28 180.353V186.235H813.398V180.353H819.28ZM819.28 186.235V192.118H813.398V186.235H819.28ZM825.162 186.235V192.118H819.28V186.235H825.162ZM831.045 186.235V192.118H825.162V186.235H831.045ZM836.927 180.353V186.235H831.045V180.353H836.927ZM836.927 174.471V180.353H831.045V174.471H836.927ZM831.045 174.471V180.353H825.162V174.471H831.045ZM831.045 180.353V186.235H825.162V180.353H831.045ZM825.162 180.353V186.235H819.28V180.353H825.162ZM825.162 174.471V180.353H819.28V174.471H825.162ZM825.162 168.588V174.471H819.28V168.588H825.162ZM831.045 168.588V174.471H825.162V168.588H831.045ZM831.045 162.706V168.588H825.162V162.706H831.045ZM831.045 156.824V162.706H825.162V156.824H831.045ZM831.045 150.941V156.824H825.162V150.941H831.045ZM831.045 145.059V150.941H825.162V145.059H831.045ZM831.045 139.176V145.059H825.162V139.176H831.045ZM831.045 133.294V139.176H825.162V133.294H831.045ZM825.162 133.294V139.176H819.28V133.294H825.162ZM825.162 139.176V145.059H819.28V139.176H825.162ZM825.162 145.059V150.941H819.28V145.059H825.162ZM825.162 150.941V156.824H819.28V150.941H825.162ZM825.162 156.824V162.706H819.28V156.824H825.162ZM825.162 162.706V168.588H819.28V162.706H825.162ZM819.28 168.588V174.471H813.398V168.588H819.28ZM819.28 162.706V168.588H813.398V162.706H819.28ZM819.28 156.824V162.706H813.398V156.824H819.28ZM819.28 150.941V156.824H813.398V150.941H819.28ZM819.28 145.059V150.941H813.398V145.059H819.28ZM819.28 139.176V145.059H813.398V139.176H819.28ZM819.28 133.294V139.176H813.398V133.294H819.28ZM836.927 186.235V192.118H831.045V186.235H836.927ZM836.927 192.118V198H831.045V192.118H836.927ZM831.045 192.118V198H825.162V192.118H831.045ZM842.809 192.118V198H836.927V192.118H842.809ZM848.692 192.118V198H842.809V192.118H848.692ZM854.574 192.118V198H848.692V192.118H854.574ZM866.339 192.118V198H860.456V192.118H866.339ZM866.339 186.235V192.118H860.456V186.235H866.339ZM872.221 186.235V192.118H866.339V186.235H872.221ZM878.103 186.235V192.118H872.221V186.235H878.103ZM878.103 139.176V145.059H872.221V139.176H878.103ZM878.103 133.294V139.176H872.221V133.294H878.103ZM883.986 127.412V133.294H878.103V127.412H883.986ZM878.103 121.529V127.412H872.221V121.529H878.103ZM872.221 115.647V121.529H866.339V115.647H872.221ZM866.339 115.647V121.529H860.456V115.647H866.339ZM860.456 115.647V121.529H854.574V115.647H860.456ZM860.456 121.529V127.412H854.574V121.529H860.456ZM866.339 127.412V133.294H860.456V127.412H866.339ZM872.221 127.412V133.294H866.339V127.412H872.221ZM866.339 133.294V139.176H860.456V133.294H866.339ZM866.339 139.176V145.059H860.456V139.176H866.339ZM866.339 145.059V150.941H860.456V145.059H866.339ZM854.574 180.353V186.235H848.692V180.353H854.574ZM848.692 180.353V186.235H842.809V180.353H848.692ZM842.809 180.353V186.235H836.927V180.353H842.809ZM842.809 186.235V192.118H836.927V186.235H842.809ZM848.692 186.235V192.118H842.809V186.235H848.692ZM854.574 186.235V192.118H848.692V186.235H854.574ZM860.456 186.235V192.118H854.574V186.235H860.456ZM866.339 180.353V186.235H860.456V180.353H866.339ZM872.221 180.353V186.235H866.339V180.353H872.221ZM872.221 139.176V145.059H866.339V139.176H872.221ZM872.221 133.294V139.176H866.339V133.294H872.221ZM872.221 121.529V127.412H866.339V121.529H872.221ZM866.339 121.529V127.412H860.456V121.529H866.339ZM854.574 115.647V121.529H848.692V115.647H854.574ZM848.692 115.647V121.529H842.809V115.647H848.692ZM842.809 115.647V121.529H836.927V115.647H842.809ZM836.927 115.647V121.529H831.045V115.647H836.927ZM836.927 121.529V127.412H831.045V121.529H836.927ZM842.809 121.529V127.412H836.927V121.529H842.809ZM848.692 121.529V127.412H842.809V121.529H848.692ZM854.574 121.529V127.412H848.692V121.529H854.574ZM878.103 115.647V121.529H872.221V115.647H878.103ZM878.103 180.353V186.235H872.221V180.353H878.103ZM878.103 127.412V133.294H872.221V127.412H878.103ZM883.986 133.294V139.176H878.103V133.294H883.986ZM883.986 139.176V145.059H878.103V139.176H883.986ZM883.986 174.471V180.353H878.103V174.471H883.986ZM878.103 174.471V180.353H872.221V174.471H878.103ZM872.221 174.471V180.353H866.339V174.471H872.221ZM866.339 174.471V180.353H860.456V174.471H866.339ZM872.221 145.059V150.941H866.339V145.059H872.221ZM878.103 145.059V150.941H872.221V145.059H878.103ZM883.986 145.059V150.941H878.103V145.059H883.986ZM883.986 150.941V156.824H878.103V150.941H883.986ZM883.986 156.824V162.706H878.103V156.824H883.986ZM883.986 162.706V168.588H878.103V162.706H883.986ZM878.103 162.706V168.588H872.221V162.706H878.103ZM878.103 168.588V174.471H872.221V168.588H878.103ZM872.221 168.588V174.471H866.339V168.588H872.221ZM883.986 168.588V174.471H878.103V168.588H883.986ZM866.339 168.588V174.471H860.456V168.588H866.339ZM866.339 162.706V168.588H860.456V162.706H866.339ZM866.339 156.824V162.706H860.456V156.824H866.339ZM866.339 150.941V156.824H860.456V150.941H866.339ZM872.221 150.941V156.824H866.339V150.941H872.221ZM878.103 150.941V156.824H872.221V150.941H878.103ZM878.103 156.824V162.706H872.221V156.824H878.103ZM872.221 162.706V168.588H866.339V162.706H872.221ZM872.221 156.824V162.706H866.339V156.824H872.221ZM854.574 109.765H860.456V115.647H854.574V109.765ZM854.574 180.353H860.456V186.235H854.574V180.353ZM854.574 174.471H860.456V180.353H854.574V174.471ZM907.538 174.471H913.42V180.353H907.538V174.471ZM913.42 174.471H919.303V180.353H913.42V174.471ZM919.303 174.471H925.185V180.353H919.303V174.471ZM919.303 180.353H925.185V186.235H919.303V180.353ZM919.303 186.235H925.185V192.118H919.303V186.235ZM919.303 192.118H925.185V198H919.303V192.118ZM913.42 192.118H919.303V198H913.42V192.118ZM907.538 192.118H913.42V198H907.538V192.118ZM901.656 192.118H907.538V198H901.656V192.118ZM901.656 186.235H907.538V192.118H901.656V186.235ZM901.656 180.353H907.538V186.235H901.656V180.353ZM901.656 174.471H907.538V180.353H901.656V174.471ZM907.538 180.353H913.42V186.235H907.538V180.353ZM913.42 180.353H919.303V186.235H913.42V180.353ZM907.538 186.235H913.42V192.118H907.538V186.235ZM913.42 186.235H919.303V192.118H913.42V186.235Z" fill="white"/>
</svg>
