<svg width="1015" height="1015" viewBox="0 0 1015 1015" fill="none" xmlns="http://www.w3.org/2000/svg">
<rect width="1015" height="1015" fill="#0B1A3A"/>
<path d="M154.471 507.176H160.353V513.059H154.471V507.176ZM154.471 501.294H160.353V507.176H154.471V501.294ZM154.471 495.412H160.353V501.294H154.471V495.412ZM154.471 489.529H160.353V495.412H154.471V489.529ZM154.471 483.647H160.353V489.529H154.471V483.647ZM154.471 477.765H160.353V483.647H154.471V477.765ZM154.471 471.882H160.353V477.765H154.471V471.882ZM154.471 466H160.353V471.882H154.471V466ZM148.588 466H154.471V471.882H148.588V466ZM148.588 460.118H154.471V466H148.588V460.118ZM148.588 454.235H154.471V460.118H148.588V454.235ZM142.706 454.235H148.588V460.118H142.706V454.235ZM142.706 460.118H148.588V466H142.706V460.118ZM142.706 466H148.588V471.882H142.706V466ZM142.706 471.882H148.588V477.765H142.706V471.882ZM142.706 477.765H148.588V483.647H142.706V477.765ZM142.706 483.647H148.588V489.529H142.706V483.647ZM142.706 489.529H148.588V495.412H142.706V489.529ZM142.706 495.412H148.588V501.294H142.706V495.412ZM142.706 501.294H148.588V507.176H142.706V501.294ZM142.706 507.176H148.588V513.059H142.706V507.176ZM142.706 513.059H148.588V518.941H142.706V513.059ZM142.706 518.941H148.588V524.824H142.706V518.941ZM148.588 518.941H154.471V524.824H148.588V518.941ZM148.588 513.059H154.471V518.941H148.588V513.059ZM148.588 507.176H154.471V513.059H148.588V507.176ZM148.588 501.294H154.471V507.176H148.588V501.294ZM148.588 495.412H154.471V501.294H148.588V495.412ZM148.588 489.529H154.471V495.412H148.588V489.529ZM148.588 483.647H154.471V489.529H148.588V483.647ZM148.588 477.765H154.471V483.647H148.588V477.765ZM148.588 471.882H154.471V477.765H148.588V471.882ZM136.824 471.882H142.706V477.765H136.824V471.882ZM130.941 471.882H136.824V477.765H130.941V471.882ZM136.824 466H142.706V471.882H136.824V466ZM130.941 466H136.824V471.882H130.941V466ZM125.059 466H130.941V471.882H125.059V466ZM119.176 466H125.059V471.882H119.176V466ZM113.294 466H119.176V471.882H113.294V466ZM107.412 466H113.294V471.882H107.412V466ZM101.529 466H107.412V471.882H101.529V466ZM101.529 471.882H107.412V477.765H101.529V471.882ZM101.529 477.765H107.412V483.647H101.529V477.765ZM101.529 483.647H107.412V489.529H101.529V483.647ZM101.529 489.529H107.412V495.412H101.529V489.529ZM101.529 495.412H107.412V501.294H101.529V495.412ZM101.529 501.294H107.412V507.176H101.529V501.294ZM101.529 507.176H107.412V513.059H101.529V507.176ZM107.412 507.176H113.294V513.059H107.412V507.176ZM107.412 513.059H113.294V518.941H107.412V513.059ZM113.294 513.059H119.176V518.941H113.294V513.059ZM119.176 513.059H125.059V518.941H119.176V513.059ZM125.059 513.059H130.941V518.941H125.059V513.059ZM130.941 513.059H136.824V518.941H130.941V513.059ZM130.941 507.176H136.824V513.059H130.941V507.176ZM125.059 507.176H130.941V513.059H125.059V507.176ZM119.176 507.176H125.059V513.059H119.176V507.176ZM113.294 507.176H119.176V513.059H113.294V507.176ZM136.824 507.176H142.706V513.059H136.824V507.176ZM136.824 501.294H142.706V507.176H136.824V501.294ZM130.941 501.294H136.824V507.176H130.941V501.294ZM136.824 495.412H142.706V501.294H136.824V495.412ZM136.824 477.765H142.706V483.647H136.824V477.765ZM136.824 483.647H142.706V489.529H136.824V483.647ZM136.824 489.529H142.706V495.412H136.824V489.529ZM136.824 513.059H142.706V518.941H136.824V513.059ZM136.824 518.941H142.706V524.824H136.824V518.941ZM136.824 524.824H142.706V530.706H136.824V524.824ZM130.941 524.824H136.824V530.706H130.941V524.824ZM125.059 524.824H130.941V530.706H125.059V524.824ZM119.176 524.824H125.059V530.706H119.176V524.824ZM113.294 524.824H119.176V530.706H113.294V524.824ZM113.294 518.941H119.176V524.824H113.294V518.941ZM107.412 518.941H113.294V524.824H107.412V518.941ZM107.412 524.824H113.294V530.706H107.412V524.824ZM119.176 518.941H125.059V524.824H119.176V518.941ZM125.059 518.941H130.941V524.824H125.059V518.941ZM130.941 518.941H136.824V524.824H130.941V518.941ZM136.824 448.353H142.706V454.235H136.824V448.353ZM136.824 454.235H142.706V460.118H136.824V454.235ZM136.824 460.118H142.706V466H136.824V460.118ZM130.941 460.118H136.824V466H130.941V460.118ZM130.941 454.235H136.824V460.118H130.941V454.235ZM130.941 448.353H136.824V454.235H130.941V448.353ZM125.059 448.353H130.941V454.235H125.059V448.353ZM119.176 448.353H125.059V454.235H119.176V448.353ZM113.294 448.353H119.176V454.235H113.294V448.353ZM107.412 448.353H113.294V454.235H107.412V448.353ZM101.529 448.353H107.412V454.235H101.529V448.353ZM95.6471 448.353H101.529V454.235H95.6471V448.353ZM89.7647 448.353H95.6471V454.235H89.7647V448.353ZM83.8824 448.353H89.7647V454.235H83.8824V448.353ZM83.8824 454.235H89.7647V460.118H83.8824V454.235ZM83.8824 460.118H89.7647V466H83.8824V460.118ZM83.8824 466H89.7647V471.882H83.8824V466ZM89.7647 466H95.6471V471.882H89.7647V466ZM89.7647 460.118H95.6471V466H89.7647V460.118ZM95.6471 460.118H101.529V466H95.6471V460.118ZM101.529 460.118H107.412V466H101.529V460.118ZM107.412 460.118H113.294V466H107.412V460.118ZM113.294 460.118H119.176V466H113.294V460.118ZM119.176 460.118H125.059V466H119.176V460.118ZM125.059 460.118H130.941V466H125.059V460.118ZM125.059 454.235H130.941V460.118H125.059V454.235ZM119.176 454.235H125.059V460.118H119.176V454.235ZM113.294 454.235H119.176V460.118H113.294V454.235ZM107.412 454.235H113.294V460.118H107.412V454.235ZM101.529 454.235H107.412V460.118H101.529V454.235ZM95.6471 454.235H101.529V460.118H95.6471V454.235ZM89.7647 471.882H95.6471V477.765H89.7647V471.882ZM89.7647 477.765H95.6471V483.647H89.7647V477.765ZM89.7647 454.235H95.6471V460.118H89.7647V454.235ZM95.6471 466H101.529V471.882H95.6471V466ZM95.6471 471.882H101.529V477.765H95.6471V471.882ZM95.6471 477.765H101.529V483.647H95.6471V477.765ZM95.6471 483.647H101.529V489.529H95.6471V483.647ZM95.6471 489.529H101.529V495.412H95.6471V489.529ZM95.6471 495.412H101.529V501.294H95.6471V495.412ZM95.6471 501.294H101.529V507.176H95.6471V501.294ZM95.6471 507.176H101.529V513.059H95.6471V507.176ZM89.7647 507.176H95.6471V513.059H89.7647V507.176ZM89.7647 501.294H95.6471V507.176H89.7647V501.294ZM89.7647 495.412H95.6471V501.294H89.7647V495.412ZM89.7647 489.529H95.6471V495.412H89.7647V489.529ZM83.8824 483.647H89.7647V489.529H83.8824V483.647ZM83.8824 477.765H89.7647V483.647H83.8824V477.765ZM83.8824 471.882H89.7647V477.765H83.8824V471.882ZM83.8824 489.529H89.7647V495.412H83.8824V489.529ZM83.8824 495.412H89.7647V501.294H83.8824V495.412ZM89.7647 483.647H95.6471V489.529H89.7647V483.647ZM83.8824 501.294H89.7647V507.176H83.8824V501.294ZM83.8824 507.176H89.7647V513.059H83.8824V507.176ZM83.8824 513.059H89.7647V518.941H83.8824V513.059ZM83.8824 518.941H89.7647V524.824H83.8824V518.941ZM89.7647 518.941H95.6471V524.824H89.7647V518.941ZM95.6471 518.941H101.529V524.824H95.6471V518.941ZM101.529 518.941H107.412V524.824H101.529V518.941ZM101.529 524.824H107.412V530.706H101.529V524.824ZM95.6471 524.824H101.529V530.706H95.6471V524.824ZM89.7647 524.824H95.6471V530.706H89.7647V524.824ZM83.8824 524.824H89.7647V530.706H83.8824V524.824ZM89.7647 513.059H95.6471V518.941H89.7647V513.059ZM95.6471 513.059H101.529V518.941H95.6471V513.059ZM101.529 513.059H107.412V518.941H101.529V513.059ZM83.8824 530.706H89.7647V536.588H83.8824V530.706ZM83.8824 536.588H89.7647V542.471H83.8824V536.588ZM83.8824 542.471H89.7647V548.353H83.8824V542.471ZM83.8824 548.353H89.7647V554.235H83.8824V548.353ZM83.8824 554.235H89.7647V560.118H83.8824V554.235ZM83.8824 560.118H89.7647V566H83.8824V560.118ZM89.7647 560.118H95.6471V566H89.7647V560.118ZM95.6471 560.118H101.529V566H95.6471V560.118ZM101.529 560.118H107.412V566H101.529V560.118ZM101.529 554.235H107.412V560.118H101.529V554.235ZM101.529 548.353H107.412V554.235H101.529V548.353ZM101.529 542.471H107.412V548.353H101.529V542.471ZM101.529 536.588H107.412V542.471H101.529V536.588ZM101.529 530.706H107.412V536.588H101.529V530.706ZM95.6471 530.706H101.529V536.588H95.6471V530.706ZM89.7647 530.706H95.6471V536.588H89.7647V530.706ZM89.7647 536.588H95.6471V542.471H89.7647V536.588ZM89.7647 542.471H95.6471V548.353H89.7647V542.471ZM89.7647 548.353H95.6471V554.235H89.7647V548.353ZM89.7647 554.235H95.6471V560.118H89.7647V554.235ZM95.6471 554.235H101.529V560.118H95.6471V554.235ZM95.6471 548.353H101.529V554.235H95.6471V548.353ZM95.6471 542.471H101.529V548.353H95.6471V542.471ZM95.6471 536.588H101.529V542.471H95.6471V536.588ZM178.023 495.412H183.905V501.294H178.023V495.412ZM183.905 495.412H189.788V501.294H183.905V495.412ZM189.788 495.412H195.67V501.294H189.788V495.412ZM195.67 495.412H201.552V501.294H195.67V495.412ZM201.552 495.412H207.435V501.294H201.552V495.412ZM207.435 495.412H213.317V501.294H207.435V495.412ZM213.317 495.412H219.199V501.294H213.317V495.412ZM219.199 495.412H225.082V501.294H219.199V495.412ZM225.082 495.412H230.964V501.294H225.082V495.412ZM230.964 495.412H236.847V501.294H230.964V495.412ZM236.847 495.412H242.729V501.294H236.847V495.412ZM242.729 501.294H248.611V507.176H242.729V501.294ZM236.847 501.294H242.729V507.176H236.847V501.294ZM230.964 501.294H236.847V507.176H230.964V501.294ZM242.729 495.412H248.611V501.294H242.729V495.412ZM225.082 501.294H230.964V507.176H225.082V501.294ZM219.199 501.294H225.082V507.176H219.199V501.294ZM207.435 501.294H213.317V507.176H207.435V501.294ZM201.552 507.176H207.435V513.059H201.552V507.176ZM195.67 507.176H201.552V513.059H195.67V507.176ZM195.67 501.294H201.552V507.176H195.67V501.294ZM189.788 501.294H195.67V507.176H189.788V501.294ZM183.905 501.294H189.788V507.176H183.905V501.294ZM178.023 501.294H183.905V507.176H178.023V501.294ZM201.552 501.294H207.435V507.176H201.552V501.294ZM213.317 501.294H219.199V507.176H213.317V501.294ZM219.199 507.176H225.082V513.059H219.199V507.176ZM225.082 507.176H230.964V513.059H225.082V507.176ZM230.964 507.176H236.847V513.059H230.964V507.176ZM230.964 513.059H236.847V518.941H230.964V513.059ZM236.847 513.059H242.729V518.941H236.847V513.059ZM236.847 507.176H242.729V513.059H236.847V507.176ZM242.729 507.176H248.611V513.059H242.729V507.176ZM242.729 513.059H248.611V518.941H242.729V513.059ZM225.082 513.059H230.964V518.941H225.082V513.059ZM219.199 513.059H225.082V518.941H219.199V513.059ZM213.317 513.059H219.199V518.941H213.317V513.059ZM213.317 507.176H219.199V513.059H213.317V507.176ZM207.435 507.176H213.317V513.059H207.435V507.176ZM189.788 507.176H195.67V513.059H189.788V507.176ZM183.905 507.176H189.788V513.059H183.905V507.176ZM178.023 507.176H183.905V513.059H178.023V507.176ZM178.023 513.059H183.905V518.941H178.023V513.059ZM183.905 513.059H189.788V518.941H183.905V513.059ZM189.788 513.059H195.67V518.941H189.788V513.059ZM195.67 513.059H201.552V518.941H195.67V513.059ZM201.552 513.059H207.435V518.941H201.552V513.059ZM207.435 513.059H213.317V518.941H207.435V513.059ZM342.775 448.353V454.235H336.892V448.353H342.775ZM336.892 448.353V454.235H331.01V448.353H336.892ZM331.01 448.353V454.235H325.128V448.353H331.01ZM325.128 448.353V454.235H319.245V448.353H325.128ZM325.128 454.235V460.118H319.245V454.235H325.128ZM325.128 460.118V466H319.245V460.118H325.128ZM331.01 460.118V466H325.128V460.118H331.01ZM336.892 460.118V466H331.01V460.118H336.892ZM336.892 454.235V460.118H331.01V454.235H336.892ZM342.775 454.235V460.118H336.892V454.235H342.775ZM331.01 454.235V460.118H325.128V454.235H331.01ZM342.775 460.118V466H336.892V460.118H342.775ZM342.775 466V471.882H336.892V466H342.775ZM342.775 471.882V477.765H336.892V471.882H342.775ZM336.892 471.882V477.765H331.01V471.882H336.892ZM331.01 471.882V477.765H325.128V471.882H331.01ZM325.128 471.882V477.765H319.245V471.882H325.128ZM325.128 466V471.882H319.245V466H325.128ZM331.01 466V471.882H325.128V466H331.01ZM336.892 466V471.882H331.01V466H336.892ZM342.775 477.765V483.647H336.892V477.765H342.775ZM336.892 477.765V483.647H331.01V477.765H336.892ZM331.01 477.765V483.647H325.128V477.765H331.01ZM342.775 489.529V495.412H336.892V489.529H342.775ZM342.775 483.647V489.529H336.892V483.647H342.775ZM331.01 560.118V566H325.128V560.118H331.01ZM336.892 560.118V566H331.01V560.118H336.892ZM342.775 554.235V560.118H336.892V554.235H342.775ZM342.775 548.353V554.235H336.892V548.353H342.775ZM342.775 560.118V566H336.892V560.118H342.775ZM313.363 477.765V483.647H307.481V477.765H313.363ZM325.128 477.765V483.647H319.245V477.765H325.128ZM307.481 477.765V483.647H301.598V477.765H307.481ZM301.598 477.765V483.647H295.716V477.765H301.598ZM295.716 477.765V483.647H289.834V477.765H295.716ZM289.834 477.765V483.647H283.951V477.765H289.834ZM283.951 483.647V489.529H278.069V483.647H283.951ZM289.834 483.647V489.529H283.951V483.647H289.834ZM289.834 489.529V495.412H283.951V489.529H289.834ZM278.069 483.647V489.529H272.187V483.647H278.069ZM278.069 489.529V495.412H272.187V489.529H278.069ZM283.951 489.529V495.412H278.069V489.529H283.951ZM289.834 495.412V501.294H283.951V495.412H289.834ZM295.716 495.412V501.294H289.834V495.412H295.716ZM283.951 495.412V501.294H278.069V495.412H283.951ZM278.069 495.412V501.294H272.187V495.412H278.069ZM272.187 495.412V501.294H266.304V495.412H272.187ZM272.187 501.294V507.176H266.304V501.294H272.187ZM272.187 507.176V513.059H266.304V507.176H272.187ZM272.187 513.059V518.941H266.304V513.059H272.187ZM272.187 518.941V524.824H266.304V518.941H272.187ZM272.187 524.824V530.706H266.304V524.824H272.187ZM272.187 530.706V536.588H266.304V530.706H272.187ZM272.187 536.588V542.471H266.304V536.588H272.187ZM272.187 542.471V548.353H266.304V542.471H272.187ZM278.069 542.471V548.353H272.187V542.471H278.069ZM278.069 548.353V554.235H272.187V548.353H278.069ZM278.069 554.235V560.118H272.187V554.235H278.069ZM283.951 554.235V560.118H278.069V554.235H283.951ZM289.834 554.235V560.118H283.951V554.235H289.834ZM295.716 548.353V554.235H289.834V548.353H295.716ZM295.716 542.471V548.353H289.834V542.471H295.716ZM289.834 542.471V548.353H283.951V542.471H289.834ZM289.834 548.353V554.235H283.951V548.353H289.834ZM283.951 548.353V554.235H278.069V548.353H283.951ZM283.951 542.471V548.353H278.069V542.471H283.951ZM283.951 536.588V542.471H278.069V536.588H283.951ZM289.834 536.588V542.471H283.951V536.588H289.834ZM289.834 530.706V536.588H283.951V530.706H289.834ZM289.834 524.824V530.706H283.951V524.824H289.834ZM289.834 518.941V524.824H283.951V518.941H289.834ZM289.834 513.059V518.941H283.951V513.059H289.834ZM289.834 507.176V513.059H283.951V507.176H289.834ZM289.834 501.294V507.176H283.951V501.294H289.834ZM283.951 501.294V507.176H278.069V501.294H283.951ZM283.951 507.176V513.059H278.069V507.176H283.951ZM283.951 513.059V518.941H278.069V513.059H283.951ZM283.951 518.941V524.824H278.069V518.941H283.951ZM283.951 524.824V530.706H278.069V524.824H283.951ZM283.951 530.706V536.588H278.069V530.706H283.951ZM278.069 536.588V542.471H272.187V536.588H278.069ZM278.069 530.706V536.588H272.187V530.706H278.069ZM278.069 524.824V530.706H272.187V524.824H278.069ZM278.069 518.941V524.824H272.187V518.941H278.069ZM278.069 513.059V518.941H272.187V513.059H278.069ZM278.069 507.176V513.059H272.187V507.176H278.069ZM278.069 501.294V507.176H272.187V501.294H278.069ZM295.716 554.235V560.118H289.834V554.235H295.716ZM295.716 560.118V566H289.834V560.118H295.716ZM289.834 560.118V566H283.951V560.118H289.834ZM301.598 560.118V566H295.716V560.118H301.598ZM307.481 560.118V566H301.598V560.118H307.481ZM313.363 560.118V566H307.481V560.118H313.363ZM325.128 560.118V566H319.245V560.118H325.128ZM325.128 554.235V560.118H319.245V554.235H325.128ZM331.01 554.235V560.118H325.128V554.235H331.01ZM336.892 554.235V560.118H331.01V554.235H336.892ZM336.892 507.176V513.059H331.01V507.176H336.892ZM336.892 501.294V507.176H331.01V501.294H336.892ZM342.775 495.412V501.294H336.892V495.412H342.775ZM336.892 489.529V495.412H331.01V489.529H336.892ZM331.01 483.647V489.529H325.128V483.647H331.01ZM325.128 483.647V489.529H319.245V483.647H325.128ZM319.245 483.647V489.529H313.363V483.647H319.245ZM319.245 489.529V495.412H313.363V489.529H319.245ZM325.128 495.412V501.294H319.245V495.412H325.128ZM331.01 495.412V501.294H325.128V495.412H331.01ZM325.128 501.294V507.176H319.245V501.294H325.128ZM325.128 507.176V513.059H319.245V507.176H325.128ZM325.128 513.059V518.941H319.245V513.059H325.128ZM313.363 548.353V554.235H307.481V548.353H313.363ZM307.481 548.353V554.235H301.598V548.353H307.481ZM301.598 548.353V554.235H295.716V548.353H301.598ZM301.598 554.235V560.118H295.716V554.235H301.598ZM307.481 554.235V560.118H301.598V554.235H307.481ZM313.363 554.235V560.118H307.481V554.235H313.363ZM319.245 554.235V560.118H313.363V554.235H319.245ZM325.128 548.353V554.235H319.245V548.353H325.128ZM331.01 548.353V554.235H325.128V548.353H331.01ZM331.01 507.176V513.059H325.128V507.176H331.01ZM331.01 501.294V507.176H325.128V501.294H331.01ZM331.01 489.529V495.412H325.128V489.529H331.01ZM325.128 489.529V495.412H319.245V489.529H325.128ZM313.363 483.647V489.529H307.481V483.647H313.363ZM307.481 483.647V489.529H301.598V483.647H307.481ZM301.598 483.647V489.529H295.716V483.647H301.598ZM295.716 483.647V489.529H289.834V483.647H295.716ZM295.716 489.529V495.412H289.834V489.529H295.716ZM301.598 489.529V495.412H295.716V489.529H301.598ZM307.481 489.529V495.412H301.598V489.529H307.481ZM313.363 489.529V495.412H307.481V489.529H313.363ZM336.892 483.647V489.529H331.01V483.647H336.892ZM336.892 548.353V554.235H331.01V548.353H336.892ZM336.892 495.412V501.294H331.01V495.412H336.892ZM342.775 501.294V507.176H336.892V501.294H342.775ZM342.775 507.176V513.059H336.892V507.176H342.775ZM342.775 542.471V548.353H336.892V542.471H342.775ZM336.892 542.471V548.353H331.01V542.471H336.892ZM331.01 542.471V548.353H325.128V542.471H331.01ZM325.128 542.471V548.353H319.245V542.471H325.128ZM331.01 513.059V518.941H325.128V513.059H331.01ZM336.892 513.059V518.941H331.01V513.059H336.892ZM342.775 513.059V518.941H336.892V513.059H342.775ZM342.775 518.941V524.824H336.892V518.941H342.775ZM342.775 524.824V530.706H336.892V524.824H342.775ZM342.775 530.706V536.588H336.892V530.706H342.775ZM336.892 530.706V536.588H331.01V530.706H336.892ZM336.892 536.588V542.471H331.01V536.588H336.892ZM331.01 536.588V542.471H325.128V536.588H331.01ZM342.775 536.588V542.471H336.892V536.588H342.775ZM325.128 536.588V542.471H319.245V536.588H325.128ZM325.128 530.706V536.588H319.245V530.706H325.128ZM325.128 524.824V530.706H319.245V524.824H325.128ZM325.128 518.941V524.824H319.245V518.941H325.128ZM331.01 518.941V524.824H325.128V518.941H331.01ZM336.892 518.941V524.824H331.01V518.941H336.892ZM336.892 524.824V530.706H331.01V524.824H336.892ZM331.01 530.706V536.588H325.128V530.706H331.01ZM331.01 524.824V530.706H325.128V524.824H331.01ZM313.363 477.765H319.245V483.647H313.363V477.765ZM313.363 548.353H319.245V554.235H313.363V548.353ZM313.363 542.471H319.245V548.353H313.363V542.471ZM366.327 483.647H372.21V489.529H366.327V483.647ZM366.327 489.529H372.21V495.412H366.327V489.529ZM366.327 495.412H372.21V501.294H366.327V495.412ZM366.327 501.294H372.21V507.176H366.327V501.294ZM366.327 507.176H372.21V513.059H366.327V507.176ZM360.445 507.176H366.327V513.059H360.445V507.176ZM360.445 501.294H366.327V507.176H360.445V501.294ZM360.445 495.412H366.327V501.294H360.445V495.412ZM360.445 489.529H366.327V495.412H360.445V489.529ZM360.445 483.647H366.327V489.529H360.445V483.647ZM360.445 542.471H366.327V548.353H360.445V542.471ZM360.445 536.588H366.327V542.471H360.445V536.588ZM360.445 530.706H366.327V536.588H360.445V530.706ZM360.445 524.824H366.327V530.706H360.445V524.824ZM366.327 518.941H372.21V524.824H366.327V518.941ZM366.327 513.059H372.21V518.941H366.327V513.059ZM360.445 513.059H366.327V518.941H360.445V513.059ZM360.445 518.941H366.327V524.824H360.445V518.941ZM360.445 548.353H366.327V554.235H360.445V548.353ZM360.445 554.235H366.327V560.118H360.445V554.235ZM360.445 560.118H366.327V566H360.445V560.118ZM378.092 483.647H383.974V489.529H378.092V483.647ZM378.092 489.529H383.974V495.412H378.092V489.529ZM378.092 495.412H383.974V501.294H378.092V495.412ZM378.092 501.294H383.974V507.176H378.092V501.294ZM378.092 507.176H383.974V513.059H378.092V507.176ZM378.092 513.059H383.974V518.941H378.092V513.059ZM378.092 518.941H383.974V524.824H378.092V518.941ZM378.092 524.824H383.974V530.706H378.092V524.824ZM378.092 530.706H383.974V536.588H378.092V530.706ZM378.092 536.588H383.974V542.471H378.092V536.588ZM378.092 542.471H383.974V548.353H378.092V542.471ZM378.092 548.353H383.974V554.235H378.092V548.353ZM378.092 554.235H383.974V560.118H378.092V554.235ZM378.092 560.118H383.974V566H378.092V560.118ZM372.21 560.118H378.092V566H372.21V560.118ZM366.327 560.118H372.21V566H366.327V560.118ZM366.327 554.235H372.21V560.118H366.327V554.235ZM372.21 554.235H378.092V560.118H372.21V554.235ZM372.21 548.353H378.092V554.235H372.21V548.353ZM366.327 542.471H372.21V548.353H366.327V542.471ZM366.327 536.588H372.21V542.471H366.327V536.588ZM366.327 530.706H372.21V536.588H366.327V530.706ZM372.21 530.706H378.092V536.588H372.21V530.706ZM372.21 536.588H378.092V542.471H372.21V536.588ZM372.21 542.471H378.092V548.353H372.21V542.471ZM366.327 548.353H372.21V554.235H366.327V548.353ZM372.21 524.824H378.092V530.706H372.21V524.824ZM372.21 518.941H378.092V524.824H372.21V518.941ZM372.21 513.059H378.092V518.941H372.21V513.059ZM366.327 524.824H372.21V530.706H366.327V524.824ZM372.21 507.176H378.092V513.059H372.21V507.176ZM372.21 501.294H378.092V507.176H372.21V501.294ZM372.21 495.412H378.092V501.294H372.21V495.412ZM372.21 489.529H378.092V495.412H372.21V489.529ZM372.21 483.647H378.092V489.529H372.21V483.647ZM378.092 448.353H383.974V454.235H378.092V448.353ZM372.21 454.235H378.092V460.118H372.21V454.235ZM372.21 442.471H378.092V448.353H372.21V442.471ZM366.327 448.353H372.21V454.235H366.327V448.353ZM372.21 448.353H378.092V454.235H372.21V448.353ZM366.327 442.471H372.21V448.353H366.327V442.471ZM366.327 454.235H372.21V460.118H366.327V454.235ZM378.092 454.235H383.974V460.118H378.092V454.235ZM360.445 448.353H366.327V454.235H360.445V448.353ZM360.445 454.235H366.327V460.118H360.445V454.235ZM366.327 460.118H372.21V466H366.327V460.118ZM372.21 460.118H378.092V466H372.21V460.118ZM360.445 442.471H366.327V448.353H360.445V442.471ZM378.092 442.471H383.974V448.353H378.092V442.471ZM378.092 460.118H383.974V466H378.092V460.118ZM360.445 460.118H366.327V466H360.445V460.118ZM448.715 566H442.832V560.118H448.715V566ZM460.479 566H454.597V560.118H460.479V566ZM442.832 566H436.95V560.118H442.832V566ZM436.95 566H431.068V560.118H436.95V566ZM431.068 566H425.185V560.118H431.068V566ZM425.185 566H419.303V560.118H425.185V566ZM419.303 560.118H413.42V554.235H419.303V560.118ZM425.185 560.118H419.303V554.235H425.185V560.118ZM425.185 554.235H419.303V548.353H425.185V554.235ZM413.42 560.118H407.538V554.235H413.42V560.118ZM413.42 554.235H407.538V548.353H413.42V554.235ZM419.303 554.235H413.42V548.353H419.303V554.235ZM425.185 548.353H419.303V542.471H425.185V548.353ZM431.068 548.353H425.185V542.471H431.068V548.353ZM419.303 548.353H413.42V542.471H419.303V548.353ZM413.42 548.353H407.538V542.471H413.42V548.353ZM407.538 548.353H401.656V542.471H407.538V548.353ZM407.538 542.471H401.656V536.588H407.538V542.471ZM407.538 507.176H401.656V501.294H407.538V507.176ZM407.538 501.294H401.656V495.412H407.538V501.294ZM413.42 501.294H407.538V495.412H413.42V501.294ZM413.42 495.412H407.538V489.529H413.42V495.412ZM413.42 489.529H407.538V483.647H413.42V489.529ZM419.303 489.529H413.42V483.647H419.303V489.529ZM425.185 489.529H419.303V483.647H425.185V489.529ZM431.068 495.412H425.185V489.529H431.068V495.412ZM431.068 501.294H425.185V495.412H431.068V501.294ZM425.185 501.294H419.303V495.412H425.185V501.294ZM425.185 495.412H419.303V489.529H425.185V495.412ZM419.303 495.412H413.42V489.529H419.303V495.412ZM419.303 501.294H413.42V495.412H419.303V501.294ZM419.303 507.176H413.42V501.294H419.303V507.176ZM425.185 507.176H419.303V501.294H425.185V507.176ZM425.185 542.471H419.303V536.588H425.185V542.471ZM419.303 542.471H413.42V536.588H419.303V542.471ZM413.42 507.176H407.538V501.294H413.42V507.176ZM413.42 542.471H407.538V536.588H413.42V542.471ZM431.068 489.529H425.185V483.647H431.068V489.529ZM431.068 483.647H425.185V477.765H431.068V483.647ZM425.185 483.647H419.303V477.765H425.185V483.647ZM436.95 483.647H431.068V477.765H436.95V483.647ZM442.832 483.647H436.95V477.765H442.832V483.647ZM448.715 483.647H442.832V477.765H448.715V483.647ZM454.597 483.647H448.715V477.765H454.597V483.647ZM460.479 483.647H454.597V477.765H460.479V483.647ZM460.479 489.529H454.597V483.647H460.479V489.529ZM466.362 489.529H460.479V483.647H466.362V489.529ZM472.244 489.529H466.362V483.647H472.244V489.529ZM472.244 495.412H466.362V489.529H472.244V495.412ZM478.126 501.294H472.244V495.412H478.126V501.294ZM472.244 501.294H466.362V495.412H472.244V501.294ZM478.126 507.176H472.244V501.294H478.126V507.176ZM478.126 513.059H472.244V507.176H478.126V513.059ZM478.126 518.941H472.244V513.059H478.126V518.941ZM478.126 524.824H472.244V518.941H478.126V524.824ZM478.126 530.706H472.244V524.824H478.126V530.706ZM478.126 536.588H472.244V530.706H478.126V536.588ZM472.244 536.588H466.362V530.706H472.244V536.588ZM472.244 542.471H466.362V536.588H472.244V542.471ZM478.126 542.471H472.244V536.588H478.126V542.471ZM478.126 548.353H472.244V542.471H478.126V548.353ZM472.244 548.353H466.362V542.471H472.244V548.353ZM472.244 554.235H466.362V548.353H472.244V554.235ZM472.244 560.118H466.362V554.235H472.244V560.118ZM466.362 560.118H460.479V554.235H466.362V560.118ZM460.479 560.118H454.597V554.235H460.479V560.118ZM454.597 560.118H448.715V554.235H454.597V560.118ZM454.597 554.235H448.715V548.353H454.597V554.235ZM460.479 548.353H454.597V542.471H460.479V548.353ZM466.362 548.353H460.479V542.471H466.362V548.353ZM460.479 542.471H454.597V536.588H460.479V542.471ZM460.479 536.588H454.597V530.706H460.479V536.588ZM460.479 530.706H454.597V524.824H460.479V530.706ZM460.479 524.824H454.597V518.941H460.479V524.824ZM460.479 518.941H454.597V513.059H460.479V518.941ZM460.479 513.059H454.597V507.176H460.479V513.059ZM460.479 507.176H454.597V501.294H460.479V507.176ZM460.479 501.294H454.597V495.412H460.479V501.294ZM454.597 501.294H448.715V495.412H454.597V501.294ZM454.597 495.412H448.715V489.529H454.597V495.412ZM448.715 495.412H442.832V489.529H448.715V495.412ZM442.832 495.412H436.95V489.529H442.832V495.412ZM436.95 495.412H431.068V489.529H436.95V495.412ZM436.95 489.529H431.068V483.647H436.95V489.529ZM442.832 489.529H436.95V483.647H442.832V489.529ZM448.715 489.529H442.832V483.647H448.715V489.529ZM454.597 489.529H448.715V483.647H454.597V489.529ZM460.479 495.412H454.597V489.529H460.479V495.412ZM466.362 495.412H460.479V489.529H466.362V495.412ZM466.362 501.294H460.479V495.412H466.362V501.294ZM466.362 507.176H460.479V501.294H466.362V507.176ZM466.362 513.059H460.479V507.176H466.362V513.059ZM472.244 513.059H466.362V507.176H472.244V513.059ZM472.244 507.176H466.362V501.294H472.244V507.176ZM472.244 518.941H466.362V513.059H472.244V518.941ZM472.244 524.824H466.362V518.941H472.244V524.824ZM472.244 530.706H466.362V524.824H472.244V530.706ZM466.362 530.706H460.479V524.824H466.362V530.706ZM466.362 524.824H460.479V518.941H466.362V524.824ZM466.362 518.941H460.479V513.059H466.362V518.941ZM466.362 536.588H460.479V530.706H466.362V536.588ZM466.362 542.471H460.479V536.588H466.362V542.471ZM466.362 554.235H460.479V548.353H466.362V554.235ZM460.479 554.235H454.597V548.353H460.479V554.235ZM448.715 560.118H442.832V554.235H448.715V560.118ZM442.832 560.118H436.95V554.235H442.832V560.118ZM436.95 560.118H431.068V554.235H436.95V560.118ZM431.068 560.118H425.185V554.235H431.068V560.118ZM431.068 554.235H425.185V548.353H431.068V554.235ZM436.95 554.235H431.068V548.353H436.95V554.235ZM442.832 554.235H436.95V548.353H442.832V554.235ZM448.715 554.235H442.832V548.353H448.715V554.235ZM413.42 536.588H407.538V530.706H413.42V536.588ZM419.303 536.588H413.42V530.706H419.303V536.588ZM425.185 536.588H419.303V530.706H425.185V536.588ZM413.42 530.706H407.538V524.824H413.42V530.706ZM419.303 530.706H413.42V524.824H419.303V530.706ZM425.185 530.706H419.303V524.824H425.185V530.706ZM431.068 530.706H425.185V524.824H431.068V530.706ZM436.95 530.706H431.068V524.824H436.95V530.706ZM442.832 530.706H436.95V524.824H442.832V530.706ZM448.715 530.706H442.832V524.824H448.715V530.706ZM454.597 530.706H448.715V524.824H454.597V530.706ZM454.597 524.824H448.715V518.941H454.597V524.824ZM448.715 524.824H442.832V518.941H448.715V524.824ZM442.832 524.824H436.95V518.941H442.832V524.824ZM436.95 524.824H431.068V518.941H436.95V524.824ZM431.068 524.824H425.185V518.941H431.068V524.824ZM425.185 524.824H419.303V518.941H425.185V524.824ZM472.244 548.353H478.126V554.235H472.244V548.353ZM472.244 554.235H478.126V560.118H472.244V554.235ZM472.244 560.118H478.126V566H472.244V560.118ZM466.362 560.118H472.244V566H466.362V560.118ZM460.479 560.118H466.362V566H460.479V560.118ZM425.185 530.706H431.068V536.588H425.185V530.706ZM495.796 477.765H501.679V483.647H495.796V477.765ZM501.679 477.765H507.561V483.647H501.679V477.765ZM507.561 477.765H513.443V483.647H507.561V477.765ZM495.796 489.529H501.679V495.412H495.796V489.529ZM495.796 483.647H501.679V489.529H495.796V483.647ZM507.561 560.118H513.443V566H507.561V560.118ZM501.679 560.118H507.561V566H501.679V560.118ZM495.796 554.235H501.679V560.118H495.796V554.235ZM495.796 548.353H501.679V554.235H495.796V548.353ZM495.796 560.118H501.679V566H495.796V560.118ZM525.208 477.765H531.091V483.647H525.208V477.765ZM513.443 477.765H519.326V483.647H513.443V477.765ZM536.973 477.765H542.855V483.647H536.973V477.765ZM542.855 483.647H548.738V489.529H542.855V483.647ZM536.973 483.647H542.855V489.529H536.973V483.647ZM536.973 489.529H542.855V495.412H536.973V489.529ZM548.738 489.529H554.62V495.412H548.738V489.529ZM542.855 489.529H548.738V495.412H542.855V489.529ZM536.973 495.412H542.855V501.294H536.973V495.412ZM531.091 495.412H536.973V501.294H531.091V495.412ZM542.855 495.412H548.738V501.294H542.855V495.412ZM548.738 495.412H554.62V501.294H548.738V495.412ZM554.62 501.294H560.502V507.176H554.62V501.294ZM554.62 507.176H560.502V513.059H554.62V507.176ZM554.62 513.059H560.502V518.941H554.62V513.059ZM554.62 518.941H560.502V524.824H554.62V518.941ZM554.62 524.824H560.502V530.706H554.62V524.824ZM554.62 530.706H560.502V536.588H554.62V530.706ZM554.62 536.588H560.502V542.471H554.62V536.588ZM554.62 542.471H560.502V548.353H554.62V542.471ZM548.738 542.471H554.62V548.353H548.738V542.471ZM548.738 548.353H554.62V554.235H548.738V548.353ZM548.738 554.235H554.62V560.118H548.738V554.235ZM542.855 554.235H548.738V560.118H542.855V554.235ZM536.973 554.235H542.855V560.118H536.973V554.235ZM536.973 542.471H542.855V548.353H536.973V542.471ZM536.973 548.353H542.855V554.235H536.973V548.353ZM542.855 548.353H548.738V554.235H542.855V548.353ZM542.855 542.471H548.738V548.353H542.855V542.471ZM542.855 536.588H548.738V542.471H542.855V536.588ZM536.973 536.588H542.855V542.471H536.973V536.588ZM536.973 530.706H542.855V536.588H536.973V530.706ZM536.973 524.824H542.855V530.706H536.973V524.824ZM536.973 518.941H542.855V524.824H536.973V518.941ZM536.973 513.059H542.855V518.941H536.973V513.059ZM536.973 507.176H542.855V513.059H536.973V507.176ZM536.973 501.294H542.855V507.176H536.973V501.294ZM542.855 501.294H548.738V507.176H542.855V501.294ZM542.855 507.176H548.738V513.059H542.855V507.176ZM542.855 513.059H548.738V518.941H542.855V513.059ZM542.855 518.941H548.738V524.824H542.855V518.941ZM542.855 524.824H548.738V530.706H542.855V524.824ZM542.855 530.706H548.738V536.588H542.855V530.706ZM548.738 536.588H554.62V542.471H548.738V536.588ZM548.738 530.706H554.62V536.588H548.738V530.706ZM548.738 524.824H554.62V530.706H548.738V524.824ZM548.738 518.941H554.62V524.824H548.738V518.941ZM548.738 513.059H554.62V518.941H548.738V513.059ZM548.738 507.176H554.62V513.059H548.738V507.176ZM548.738 501.294H554.62V507.176H548.738V501.294ZM536.973 560.118H542.855V566H536.973V560.118ZM513.443 560.118H519.326V566H513.443V560.118ZM513.443 554.235H519.326V560.118H513.443V554.235ZM507.561 554.235H513.443V560.118H507.561V554.235ZM501.679 554.235H507.561V560.118H501.679V554.235ZM501.679 507.176H507.561V513.059H501.679V507.176ZM501.679 501.294H507.561V507.176H501.679V501.294ZM495.796 495.412H501.679V501.294H495.796V495.412ZM501.679 489.529H507.561V495.412H501.679V489.529ZM507.561 483.647H513.443V489.529H507.561V483.647ZM513.443 483.647H519.326V489.529H513.443V483.647ZM519.326 483.647H525.208V489.529H519.326V483.647ZM519.326 489.529H525.208V495.412H519.326V489.529ZM519.326 495.412H525.208V501.294H519.326V495.412ZM513.443 495.412H519.326V501.294H513.443V495.412ZM507.561 495.412H513.443V501.294H507.561V495.412ZM513.443 501.294H519.326V507.176H513.443V501.294ZM513.443 507.176H519.326V513.059H513.443V507.176ZM513.443 513.059H519.326V518.941H513.443V513.059ZM513.443 548.353H519.326V554.235H513.443V548.353ZM507.561 548.353H513.443V554.235H507.561V548.353ZM507.561 507.176H513.443V513.059H507.561V507.176ZM507.561 501.294H513.443V507.176H507.561V501.294ZM507.561 489.529H513.443V495.412H507.561V489.529ZM513.443 489.529H519.326V495.412H513.443V489.529ZM525.208 483.647H531.091V489.529H525.208V483.647ZM531.091 483.647H536.973V489.529H531.091V483.647ZM531.091 489.529H536.973V495.412H531.091V489.529ZM525.208 489.529H531.091V495.412H525.208V489.529ZM501.679 483.647H507.561V489.529H501.679V483.647ZM501.679 548.353H507.561V554.235H501.679V548.353ZM501.679 495.412H507.561V501.294H501.679V495.412ZM495.796 501.294H501.679V507.176H495.796V501.294ZM495.796 507.176H501.679V513.059H495.796V507.176ZM495.796 542.471H501.679V548.353H495.796V542.471ZM501.679 542.471H507.561V548.353H501.679V542.471ZM507.561 542.471H513.443V548.353H507.561V542.471ZM513.443 542.471H519.326V548.353H513.443V542.471ZM507.561 513.059H513.443V518.941H507.561V513.059ZM501.679 513.059H507.561V518.941H501.679V513.059ZM495.796 513.059H501.679V518.941H495.796V513.059ZM495.796 518.941H501.679V524.824H495.796V518.941ZM495.796 524.824H501.679V530.706H495.796V524.824ZM495.796 530.706H501.679V536.588H495.796V530.706ZM501.679 530.706H507.561V536.588H501.679V530.706ZM501.679 536.588H507.561V542.471H501.679V536.588ZM507.561 536.588H513.443V542.471H507.561V536.588ZM495.796 536.588H501.679V542.471H495.796V536.588ZM513.443 536.588H519.326V542.471H513.443V536.588ZM513.443 530.706H519.326V536.588H513.443V530.706ZM513.443 524.824H519.326V530.706H513.443V524.824ZM513.443 518.941H519.326V524.824H513.443V518.941ZM507.561 518.941H513.443V524.824H507.561V518.941ZM501.679 518.941H507.561V524.824H501.679V518.941ZM501.679 524.824H507.561V530.706H501.679V524.824ZM507.561 530.706H513.443V536.588H507.561V530.706ZM507.561 524.824H513.443V530.706H507.561V524.824ZM542.855 560.118H548.738V566H542.855V560.118ZM548.738 560.118H554.62V566H548.738V560.118ZM554.62 560.118H560.502V566H554.62V560.118ZM554.62 554.235H560.502V560.118H554.62V554.235ZM554.62 548.353H560.502V554.235H554.62V548.353ZM560.502 477.765H566.385V483.647H560.502V477.765ZM566.385 477.765H572.267V483.647H566.385V477.765ZM572.267 477.765H578.149V483.647H572.267V477.765ZM578.149 477.765H584.032V483.647H578.149V477.765ZM584.032 483.647H589.914V489.529H584.032V483.647ZM578.149 483.647H584.032V489.529H578.149V483.647ZM578.149 489.529H584.032V495.412H578.149V489.529ZM589.914 483.647H595.796V489.529H589.914V483.647ZM589.914 489.529H595.796V495.412H589.914V489.529ZM584.032 489.529H589.914V495.412H584.032V489.529ZM578.149 495.412H584.032V501.294H578.149V495.412ZM572.267 495.412H578.149V501.294H572.267V495.412ZM584.032 495.412H589.914V501.294H584.032V495.412ZM589.914 495.412H595.796V501.294H589.914V495.412ZM595.796 495.412H601.679V501.294H595.796V495.412ZM595.796 501.294H601.679V507.176H595.796V501.294ZM595.796 507.176H601.679V513.059H595.796V507.176ZM595.796 513.059H601.679V518.941H595.796V513.059ZM595.796 518.941H601.679V524.824H595.796V518.941ZM595.796 524.824H601.679V530.706H595.796V524.824ZM595.796 530.706H601.679V536.588H595.796V530.706ZM595.796 536.588H601.679V542.471H595.796V536.588ZM595.796 542.471H601.679V548.353H595.796V542.471ZM589.914 542.471H595.796V548.353H589.914V542.471ZM589.914 548.353H595.796V554.235H589.914V548.353ZM589.914 554.235H595.796V560.118H589.914V554.235ZM584.032 554.235H589.914V560.118H584.032V554.235ZM578.149 554.235H584.032V560.118H578.149V554.235ZM578.149 542.471H584.032V548.353H578.149V542.471ZM578.149 548.353H584.032V554.235H578.149V548.353ZM584.032 548.353H589.914V554.235H584.032V548.353ZM584.032 542.471H589.914V548.353H584.032V542.471ZM584.032 536.588H589.914V542.471H584.032V536.588ZM578.149 536.588H584.032V542.471H578.149V536.588ZM578.149 530.706H584.032V536.588H578.149V530.706ZM578.149 524.824H584.032V530.706H578.149V524.824ZM578.149 518.941H584.032V524.824H578.149V518.941ZM578.149 513.059H584.032V518.941H578.149V513.059ZM578.149 507.176H584.032V513.059H578.149V507.176ZM578.149 501.294H584.032V507.176H578.149V501.294ZM584.032 501.294H589.914V507.176H584.032V501.294ZM584.032 507.176H589.914V513.059H584.032V507.176ZM584.032 513.059H589.914V518.941H584.032V513.059ZM584.032 518.941H589.914V524.824H584.032V518.941ZM584.032 524.824H589.914V530.706H584.032V524.824ZM584.032 530.706H589.914V536.588H584.032V530.706ZM589.914 536.588H595.796V542.471H589.914V536.588ZM589.914 530.706H595.796V536.588H589.914V530.706ZM589.914 524.824H595.796V530.706H589.914V524.824ZM589.914 518.941H595.796V524.824H589.914V518.941ZM589.914 513.059H595.796V518.941H589.914V513.059ZM589.914 507.176H595.796V513.059H589.914V507.176ZM589.914 501.294H595.796V507.176H589.914V501.294ZM578.149 560.118H584.032V566H578.149V560.118ZM554.62 483.647H560.502V489.529H554.62V483.647ZM554.62 489.529H560.502V495.412H554.62V489.529ZM554.62 495.412H560.502V501.294H554.62V495.412ZM560.502 483.647H566.385V489.529H560.502V483.647ZM566.385 483.647H572.267V489.529H566.385V483.647ZM572.267 483.647H578.149V489.529H572.267V483.647ZM572.267 489.529H578.149V495.412H572.267V489.529ZM566.385 489.529H572.267V495.412H566.385V489.529ZM560.502 489.529H566.385V495.412H560.502V489.529ZM584.032 560.118H589.914V566H584.032V560.118ZM589.914 560.118H595.796V566H589.914V560.118ZM595.796 560.118H601.679V566H595.796V560.118ZM595.796 554.235H601.679V560.118H595.796V554.235ZM595.796 548.353H601.679V554.235H595.796V548.353ZM531.091 477.765H536.973V483.647H531.091V477.765ZM560.502 495.412H566.385V501.294H560.502V495.412ZM642.763 477.765H648.646V483.647H642.763V477.765ZM648.646 477.765H654.528V483.647H648.646V477.765ZM636.881 477.765H642.763V483.647H636.881V477.765ZM654.528 477.765H660.41V483.647H654.528V477.765ZM660.41 477.765H666.293V483.647H660.41V477.765ZM666.293 477.765H672.175V483.647H666.293V477.765ZM672.175 477.765H678.057V483.647H672.175V477.765ZM678.057 483.647H683.94V489.529H678.057V483.647ZM672.175 483.647H678.057V489.529H672.175V483.647ZM672.175 489.529H678.057V495.412H672.175V489.529ZM683.94 483.647H689.822V489.529H683.94V483.647ZM683.94 489.529H689.822V495.412H683.94V489.529ZM678.057 489.529H683.94V495.412H678.057V489.529ZM672.175 495.412H678.057V501.294H672.175V495.412ZM666.293 495.412H672.175V501.294H666.293V495.412ZM678.057 495.412H683.94V501.294H678.057V495.412ZM683.94 495.412H689.822V501.294H683.94V495.412ZM689.822 495.412H695.704V501.294H689.822V495.412ZM689.822 501.294H695.704V507.176H689.822V501.294ZM689.822 507.176H695.704V513.059H689.822V507.176ZM689.822 513.059H695.704V518.941H689.822V513.059ZM689.822 518.941H695.704V524.824H689.822V518.941ZM689.822 524.824H695.704V530.706H689.822V524.824ZM689.822 530.706H695.704V536.588H689.822V530.706ZM689.822 536.588H695.704V542.471H689.822V536.588ZM689.822 542.471H695.704V548.353H689.822V542.471ZM683.94 542.471H689.822V548.353H683.94V542.471ZM683.94 548.353H689.822V554.235H683.94V548.353ZM683.94 554.235H689.822V560.118H683.94V554.235ZM678.057 554.235H683.94V560.118H678.057V554.235ZM672.175 554.235H678.057V560.118H672.175V554.235ZM666.293 548.353H672.175V554.235H666.293V548.353ZM666.293 542.471H672.175V548.353H666.293V542.471ZM672.175 542.471H678.057V548.353H672.175V542.471ZM672.175 548.353H678.057V554.235H672.175V548.353ZM678.057 548.353H683.94V554.235H678.057V548.353ZM678.057 542.471H683.94V548.353H678.057V542.471ZM678.057 536.588H683.94V542.471H678.057V536.588ZM672.175 536.588H678.057V542.471H672.175V536.588ZM672.175 530.706H678.057V536.588H672.175V530.706ZM672.175 524.824H678.057V530.706H672.175V524.824ZM672.175 518.941H678.057V524.824H672.175V518.941ZM672.175 513.059H678.057V518.941H672.175V513.059ZM672.175 507.176H678.057V513.059H672.175V507.176ZM672.175 501.294H678.057V507.176H672.175V501.294ZM678.057 501.294H683.94V507.176H678.057V501.294ZM678.057 507.176H683.94V513.059H678.057V507.176ZM678.057 513.059H683.94V518.941H678.057V513.059ZM678.057 518.941H683.94V524.824H678.057V518.941ZM678.057 524.824H683.94V530.706H678.057V524.824ZM678.057 530.706H683.94V536.588H678.057V530.706ZM683.94 536.588H689.822V542.471H683.94V536.588ZM683.94 530.706H689.822V536.588H683.94V530.706ZM683.94 524.824H689.822V530.706H683.94V524.824ZM683.94 518.941H689.822V524.824H683.94V518.941ZM683.94 513.059H689.822V518.941H683.94V513.059ZM683.94 507.176H689.822V513.059H683.94V507.176ZM683.94 501.294H689.822V507.176H683.94V501.294ZM666.293 554.235H672.175V560.118H666.293V554.235ZM666.293 560.118H672.175V566H666.293V560.118ZM672.175 560.118H678.057V566H672.175V560.118ZM660.41 560.118H666.293V566H660.41V560.118ZM654.528 560.118H660.41V566H654.528V560.118ZM648.646 560.118H654.528V566H648.646V560.118ZM642.763 560.118H648.646V566H642.763V560.118ZM636.881 560.118H642.763V566H636.881V560.118ZM636.881 554.235H642.763V560.118H636.881V554.235ZM630.999 554.235H636.881V560.118H630.999V554.235ZM625.116 554.235H630.999V560.118H625.116V554.235ZM625.116 548.353H630.999V554.235H625.116V548.353ZM619.234 542.471H625.116V548.353H619.234V542.471ZM625.116 542.471H630.999V548.353H625.116V542.471ZM619.234 536.588H625.116V542.471H619.234V536.588ZM619.234 530.706H625.116V536.588H619.234V530.706ZM619.234 524.824H625.116V530.706H619.234V524.824ZM619.234 518.941H625.116V524.824H619.234V518.941ZM619.234 513.059H625.116V518.941H619.234V513.059ZM619.234 507.176H625.116V513.059H619.234V507.176ZM625.116 507.176H630.999V513.059H625.116V507.176ZM625.116 501.294H630.999V507.176H625.116V501.294ZM619.234 501.294H625.116V507.176H619.234V501.294ZM619.234 495.412H625.116V501.294H619.234V495.412ZM625.116 495.412H630.999V501.294H625.116V495.412ZM625.116 489.529H630.999V495.412H625.116V489.529ZM625.116 483.647H630.999V489.529H625.116V483.647ZM630.999 483.647H636.881V489.529H630.999V483.647ZM636.881 483.647H642.763V489.529H636.881V483.647ZM642.763 483.647H648.646V489.529H642.763V483.647ZM642.763 489.529H648.646V495.412H642.763V489.529ZM642.763 495.412H648.646V501.294H642.763V495.412ZM636.881 495.412H642.763V501.294H636.881V495.412ZM630.999 495.412H636.881V501.294H630.999V495.412ZM636.881 501.294H642.763V507.176H636.881V501.294ZM636.881 507.176H642.763V513.059H636.881V507.176ZM636.881 513.059H642.763V518.941H636.881V513.059ZM636.881 518.941H642.763V524.824H636.881V518.941ZM636.881 524.824H642.763V530.706H636.881V524.824ZM636.881 530.706H642.763V536.588H636.881V530.706ZM636.881 536.588H642.763V542.471H636.881V536.588ZM636.881 542.471H642.763V548.353H636.881V542.471ZM642.763 542.471H648.646V548.353H642.763V542.471ZM642.763 548.353H648.646V554.235H642.763V548.353ZM648.646 548.353H654.528V554.235H648.646V548.353ZM654.528 548.353H660.41V554.235H654.528V548.353ZM660.41 548.353H666.293V554.235H660.41V548.353ZM660.41 554.235H666.293V560.118H660.41V554.235ZM654.528 554.235H660.41V560.118H654.528V554.235ZM648.646 554.235H654.528V560.118H648.646V554.235ZM642.763 554.235H648.646V560.118H642.763V554.235ZM636.881 548.353H642.763V554.235H636.881V548.353ZM630.999 548.353H636.881V554.235H630.999V548.353ZM630.999 542.471H636.881V548.353H630.999V542.471ZM630.999 536.588H636.881V542.471H630.999V536.588ZM630.999 530.706H636.881V536.588H630.999V530.706ZM625.116 530.706H630.999V536.588H625.116V530.706ZM625.116 536.588H630.999V542.471H625.116V536.588ZM625.116 524.824H630.999V530.706H625.116V524.824ZM625.116 518.941H630.999V524.824H625.116V518.941ZM625.116 513.059H630.999V518.941H625.116V513.059ZM630.999 513.059H636.881V518.941H630.999V513.059ZM630.999 518.941H636.881V524.824H630.999V518.941ZM630.999 524.824H636.881V530.706H630.999V524.824ZM630.999 507.176H636.881V513.059H630.999V507.176ZM630.999 501.294H636.881V507.176H630.999V501.294ZM630.999 489.529H636.881V495.412H630.999V489.529ZM636.881 489.529H642.763V495.412H636.881V489.529ZM648.646 483.647H654.528V489.529H648.646V483.647ZM654.528 483.647H660.41V489.529H654.528V483.647ZM660.41 483.647H666.293V489.529H660.41V483.647ZM666.293 483.647H672.175V489.529H666.293V483.647ZM666.293 489.529H672.175V495.412H666.293V489.529ZM660.41 489.529H666.293V495.412H660.41V489.529ZM654.528 489.529H660.41V495.412H654.528V489.529ZM648.646 489.529H654.528V495.412H648.646V489.529ZM713.375 477.765H719.257V483.647H713.375V477.765ZM719.257 477.765H725.139V483.647H719.257V477.765ZM725.139 477.765H731.022V483.647H725.139V477.765ZM713.375 489.529H719.257V495.412H713.375V489.529ZM713.375 483.647H719.257V489.529H713.375V483.647ZM725.139 560.118H731.022V566H725.139V560.118ZM719.257 560.118H725.139V566H719.257V560.118ZM713.375 554.235H719.257V560.118H713.375V554.235ZM713.375 548.353H719.257V554.235H713.375V548.353ZM713.375 560.118H719.257V566H713.375V560.118ZM742.786 477.765H748.669V483.647H742.786V477.765ZM731.022 477.765H736.904V483.647H731.022V477.765ZM748.669 477.765H754.551V483.647H748.669V477.765ZM754.551 477.765H760.433V483.647H754.551V477.765ZM760.433 477.765H766.316V483.647H760.433V477.765ZM766.316 477.765H772.198V483.647H766.316V477.765ZM772.198 483.647H778.08V489.529H772.198V483.647ZM766.316 483.647H772.198V489.529H766.316V483.647ZM766.316 489.529H772.198V495.412H766.316V489.529ZM778.08 483.647H783.963V489.529H778.08V483.647ZM778.08 489.529H783.963V495.412H778.08V489.529ZM772.198 489.529H778.08V495.412H772.198V489.529ZM766.316 495.412H772.198V501.294H766.316V495.412ZM760.433 495.412H766.316V501.294H760.433V495.412ZM772.198 495.412H778.08V501.294H772.198V495.412ZM778.08 495.412H783.963V501.294H778.08V495.412ZM783.963 495.412H789.845V501.294H783.963V495.412ZM783.963 501.294H789.845V507.176H783.963V501.294ZM783.963 507.176H789.845V513.059H783.963V507.176ZM783.963 513.059H789.845V518.941H783.963V513.059ZM783.963 518.941H789.845V524.824H783.963V518.941ZM783.963 524.824H789.845V530.706H783.963V524.824ZM783.963 530.706H789.845V536.588H783.963V530.706ZM783.963 536.588H789.845V542.471H783.963V536.588ZM783.963 542.471H789.845V548.353H783.963V542.471ZM778.08 542.471H783.963V548.353H778.08V542.471ZM778.08 548.353H783.963V554.235H778.08V548.353ZM778.08 554.235H783.963V560.118H778.08V554.235ZM772.198 554.235H778.08V560.118H772.198V554.235ZM766.316 554.235H772.198V560.118H766.316V554.235ZM766.316 542.471H772.198V548.353H766.316V542.471ZM766.316 548.353H772.198V554.235H766.316V548.353ZM772.198 548.353H778.08V554.235H772.198V548.353ZM772.198 542.471H778.08V548.353H772.198V542.471ZM772.198 536.588H778.08V542.471H772.198V536.588ZM766.316 536.588H772.198V542.471H766.316V536.588ZM766.316 530.706H772.198V536.588H766.316V530.706ZM766.316 524.824H772.198V530.706H766.316V524.824ZM766.316 518.941H772.198V524.824H766.316V518.941ZM766.316 513.059H772.198V518.941H766.316V513.059ZM766.316 507.176H772.198V513.059H766.316V507.176ZM766.316 501.294H772.198V507.176H766.316V501.294ZM772.198 501.294H778.08V507.176H772.198V501.294ZM772.198 507.176H778.08V513.059H772.198V507.176ZM772.198 513.059H778.08V518.941H772.198V513.059ZM772.198 518.941H778.08V524.824H772.198V518.941ZM772.198 524.824H778.08V530.706H772.198V524.824ZM772.198 530.706H778.08V536.588H772.198V530.706ZM778.08 536.588H783.963V542.471H778.08V536.588ZM778.08 530.706H783.963V536.588H778.08V530.706ZM778.08 524.824H783.963V530.706H778.08V524.824ZM778.08 518.941H783.963V524.824H778.08V518.941ZM778.08 513.059H783.963V518.941H778.08V513.059ZM778.08 507.176H783.963V513.059H778.08V507.176ZM778.08 501.294H783.963V507.176H778.08V501.294ZM766.316 560.118H772.198V566H766.316V560.118ZM731.022 560.118H736.904V566H731.022V560.118ZM731.022 554.235H736.904V560.118H731.022V554.235ZM725.139 554.235H731.022V560.118H725.139V554.235ZM719.257 554.235H725.139V560.118H719.257V554.235ZM719.257 507.176H725.139V513.059H719.257V507.176ZM719.257 501.294H725.139V507.176H719.257V501.294ZM713.375 495.412H719.257V501.294H713.375V495.412ZM719.257 489.529H725.139V495.412H719.257V489.529ZM725.139 483.647H731.022V489.529H725.139V483.647ZM731.022 483.647H736.904V489.529H731.022V483.647ZM736.904 483.647H742.786V489.529H736.904V483.647ZM736.904 489.529H742.786V495.412H736.904V489.529ZM736.904 495.412H742.786V501.294H736.904V495.412ZM731.022 495.412H736.904V501.294H731.022V495.412ZM725.139 495.412H731.022V501.294H725.139V495.412ZM731.022 501.294H736.904V507.176H731.022V501.294ZM731.022 507.176H736.904V513.059H731.022V507.176ZM731.022 513.059H736.904V518.941H731.022V513.059ZM731.022 548.353H736.904V554.235H731.022V548.353ZM725.139 548.353H731.022V554.235H725.139V548.353ZM725.139 507.176H731.022V513.059H725.139V507.176ZM725.139 501.294H731.022V507.176H725.139V501.294ZM725.139 489.529H731.022V495.412H725.139V489.529ZM731.022 489.529H736.904V495.412H731.022V489.529ZM742.786 483.647H748.669V489.529H742.786V483.647ZM748.669 483.647H754.551V489.529H748.669V483.647ZM754.551 483.647H760.433V489.529H754.551V483.647ZM760.433 483.647H766.316V489.529H760.433V483.647ZM760.433 489.529H766.316V495.412H760.433V489.529ZM754.551 489.529H760.433V495.412H754.551V489.529ZM748.669 489.529H754.551V495.412H748.669V489.529ZM742.786 489.529H748.669V495.412H742.786V489.529ZM719.257 483.647H725.139V489.529H719.257V483.647ZM719.257 548.353H725.139V554.235H719.257V548.353ZM719.257 495.412H725.139V501.294H719.257V495.412ZM713.375 501.294H719.257V507.176H713.375V501.294ZM713.375 507.176H719.257V513.059H713.375V507.176ZM713.375 542.471H719.257V548.353H713.375V542.471ZM719.257 542.471H725.139V548.353H719.257V542.471ZM725.139 542.471H731.022V548.353H725.139V542.471ZM731.022 542.471H736.904V548.353H731.022V542.471ZM725.139 513.059H731.022V518.941H725.139V513.059ZM719.257 513.059H725.139V518.941H719.257V513.059ZM713.375 513.059H719.257V518.941H713.375V513.059ZM713.375 518.941H719.257V524.824H713.375V518.941ZM713.375 524.824H719.257V530.706H713.375V524.824ZM713.375 530.706H719.257V536.588H713.375V530.706ZM719.257 530.706H725.139V536.588H719.257V530.706ZM719.257 536.588H725.139V542.471H719.257V536.588ZM725.139 536.588H731.022V542.471H725.139V536.588ZM713.375 536.588H719.257V542.471H713.375V536.588ZM731.022 536.588H736.904V542.471H731.022V536.588ZM731.022 530.706H736.904V536.588H731.022V530.706ZM731.022 524.824H736.904V530.706H731.022V524.824ZM731.022 518.941H736.904V524.824H731.022V518.941ZM725.139 518.941H731.022V524.824H725.139V518.941ZM719.257 518.941H725.139V524.824H719.257V518.941ZM719.257 524.824H725.139V530.706H719.257V524.824ZM725.139 530.706H731.022V536.588H725.139V530.706ZM725.139 524.824H731.022V530.706H725.139V524.824ZM772.198 560.118H778.08V566H772.198V560.118ZM778.08 560.118H783.963V566H778.08V560.118ZM783.963 560.118H789.845V566H783.963V560.118ZM783.963 554.235H789.845V560.118H783.963V554.235ZM783.963 548.353H789.845V554.235H783.963V548.353ZM883.986 448.353V454.235H878.103V448.353H883.986ZM878.103 448.353V454.235H872.221V448.353H878.103ZM872.221 448.353V454.235H866.339V448.353H872.221ZM866.339 448.353V454.235H860.456V448.353H866.339ZM866.339 454.235V460.118H860.456V454.235H866.339ZM866.339 460.118V466H860.456V460.118H866.339ZM872.221 460.118V466H866.339V460.118H872.221ZM878.103 460.118V466H872.221V460.118H878.103ZM878.103 454.235V460.118H872.221V454.235H878.103ZM883.986 454.235V460.118H878.103V454.235H883.986ZM872.221 454.235V460.118H866.339V454.235H872.221ZM883.986 460.118V466H878.103V460.118H883.986ZM883.986 466V471.882H878.103V466H883.986ZM883.986 471.882V477.765H878.103V471.882H883.986ZM878.103 471.882V477.765H872.221V471.882H878.103ZM872.221 471.882V477.765H866.339V471.882H872.221ZM866.339 471.882V477.765H860.456V471.882H866.339ZM866.339 466V471.882H860.456V466H866.339ZM872.221 466V471.882H866.339V466H872.221ZM878.103 466V471.882H872.221V466H878.103ZM883.986 477.765V483.647H878.103V477.765H883.986ZM878.103 477.765V483.647H872.221V477.765H878.103ZM872.221 477.765V483.647H866.339V477.765H872.221ZM883.986 489.529V495.412H878.103V489.529H883.986ZM883.986 483.647V489.529H878.103V483.647H883.986ZM872.221 560.118V566H866.339V560.118H872.221ZM878.103 560.118V566H872.221V560.118H878.103ZM883.986 554.235V560.118H878.103V554.235H883.986ZM883.986 548.353V554.235H878.103V548.353H883.986ZM883.986 560.118V566H878.103V560.118H883.986ZM854.574 477.765V483.647H848.692V477.765H854.574ZM866.339 477.765V483.647H860.456V477.765H866.339ZM848.692 477.765V483.647H842.809V477.765H848.692ZM842.809 477.765V483.647H836.927V477.765H842.809ZM836.927 477.765V483.647H831.045V477.765H836.927ZM831.045 477.765V483.647H825.162V477.765H831.045ZM825.162 483.647V489.529H819.28V483.647H825.162ZM831.045 483.647V489.529H825.162V483.647H831.045ZM831.045 489.529V495.412H825.162V489.529H831.045ZM819.28 483.647V489.529H813.398V483.647H819.28ZM819.28 489.529V495.412H813.398V489.529H819.28ZM825.162 489.529V495.412H819.28V489.529H825.162ZM831.045 495.412V501.294H825.162V495.412H831.045ZM836.927 495.412V501.294H831.045V495.412H836.927ZM825.162 495.412V501.294H819.28V495.412H825.162ZM819.28 495.412V501.294H813.398V495.412H819.28ZM813.398 495.412V501.294H807.515V495.412H813.398ZM813.398 501.294V507.176H807.515V501.294H813.398ZM813.398 507.176V513.059H807.515V507.176H813.398ZM813.398 513.059V518.941H807.515V513.059H813.398ZM813.398 518.941V524.824H807.515V518.941H813.398ZM813.398 524.824V530.706H807.515V524.824H813.398ZM813.398 530.706V536.588H807.515V530.706H813.398ZM813.398 536.588V542.471H807.515V536.588H813.398ZM813.398 542.471V548.353H807.515V542.471H813.398ZM819.28 542.471V548.353H813.398V542.471H819.28ZM819.28 548.353V554.235H813.398V548.353H819.28ZM819.28 554.235V560.118H813.398V554.235H819.28ZM825.162 554.235V560.118H819.28V554.235H825.162ZM831.045 554.235V560.118H825.162V554.235H831.045ZM836.927 548.353V554.235H831.045V548.353H836.927ZM836.927 542.471V548.353H831.045V542.471H836.927ZM831.045 542.471V548.353H825.162V542.471H831.045ZM831.045 548.353V554.235H825.162V548.353H831.045ZM825.162 548.353V554.235H819.28V548.353H825.162ZM825.162 542.471V548.353H819.28V542.471H825.162ZM825.162 536.588V542.471H819.28V536.588H825.162ZM831.045 536.588V542.471H825.162V536.588H831.045ZM831.045 530.706V536.588H825.162V530.706H831.045ZM831.045 524.824V530.706H825.162V524.824H831.045ZM831.045 518.941V524.824H825.162V518.941H831.045ZM831.045 513.059V518.941H825.162V513.059H831.045ZM831.045 507.176V513.059H825.162V507.176H831.045ZM831.045 501.294V507.176H825.162V501.294H831.045ZM825.162 501.294V507.176H819.28V501.294H825.162ZM825.162 507.176V513.059H819.28V507.176H825.162ZM825.162 513.059V518.941H819.28V513.059H825.162ZM825.162 518.941V524.824H819.28V518.941H825.162ZM825.162 524.824V530.706H819.28V524.824H825.162ZM825.162 530.706V536.588H819.28V530.706H825.162ZM819.28 536.588V542.471H813.398V536.588H819.28ZM819.28 530.706V536.588H813.398V530.706H819.28ZM819.28 524.824V530.706H813.398V524.824H819.28ZM819.28 518.941V524.824H813.398V518.941H819.28ZM819.28 513.059V518.941H813.398V513.059H819.28ZM819.28 507.176V513.059H813.398V507.176H819.28ZM819.28 501.294V507.176H813.398V501.294H819.28ZM836.927 554.235V560.118H831.045V554.235H836.927ZM836.927 560.118V566H831.045V560.118H836.927ZM831.045 560.118V566H825.162V560.118H831.045ZM842.809 560.118V566H836.927V560.118H842.809ZM848.692 560.118V566H842.809V560.118H848.692ZM854.574 560.118V566H848.692V560.118H854.574ZM866.339 560.118V566H860.456V560.118H866.339ZM866.339 554.235V560.118H860.456V554.235H866.339ZM872.221 554.235V560.118H866.339V554.235H872.221ZM878.103 554.235V560.118H872.221V554.235H878.103ZM878.103 507.176V513.059H872.221V507.176H878.103ZM878.103 501.294V507.176H872.221V501.294H878.103ZM883.986 495.412V501.294H878.103V495.412H883.986ZM878.103 489.529V495.412H872.221V489.529H878.103ZM872.221 483.647V489.529H866.339V483.647H872.221ZM866.339 483.647V489.529H860.456V483.647H866.339ZM860.456 483.647V489.529H854.574V483.647H860.456ZM860.456 489.529V495.412H854.574V489.529H860.456ZM866.339 495.412V501.294H860.456V495.412H866.339ZM872.221 495.412V501.294H866.339V495.412H872.221ZM866.339 501.294V507.176H860.456V501.294H866.339ZM866.339 507.176V513.059H860.456V507.176H866.339ZM866.339 513.059V518.941H860.456V513.059H866.339ZM854.574 548.353V554.235H848.692V548.353H854.574ZM848.692 548.353V554.235H842.809V548.353H848.692ZM842.809 548.353V554.235H836.927V548.353H842.809ZM842.809 554.235V560.118H836.927V554.235H842.809ZM848.692 554.235V560.118H842.809V554.235H848.692ZM854.574 554.235V560.118H848.692V554.235H854.574ZM860.456 554.235V560.118H854.574V554.235H860.456ZM866.339 548.353V554.235H860.456V548.353H866.339ZM872.221 548.353V554.235H866.339V548.353H872.221ZM872.221 507.176V513.059H866.339V507.176H872.221ZM872.221 501.294V507.176H866.339V501.294H872.221ZM872.221 489.529V495.412H866.339V489.529H872.221ZM866.339 489.529V495.412H860.456V489.529H866.339ZM854.574 483.647V489.529H848.692V483.647H854.574ZM848.692 483.647V489.529H842.809V483.647H848.692ZM842.809 483.647V489.529H836.927V483.647H842.809ZM836.927 483.647V489.529H831.045V483.647H836.927ZM836.927 489.529V495.412H831.045V489.529H836.927ZM842.809 489.529V495.412H836.927V489.529H842.809ZM848.692 489.529V495.412H842.809V489.529H848.692ZM854.574 489.529V495.412H848.692V489.529H854.574ZM878.103 483.647V489.529H872.221V483.647H878.103ZM878.103 548.353V554.235H872.221V548.353H878.103ZM878.103 495.412V501.294H872.221V495.412H878.103ZM883.986 501.294V507.176H878.103V501.294H883.986ZM883.986 507.176V513.059H878.103V507.176H883.986ZM883.986 542.471V548.353H878.103V542.471H883.986ZM878.103 542.471V548.353H872.221V542.471H878.103ZM872.221 542.471V548.353H866.339V542.471H872.221ZM866.339 542.471V548.353H860.456V542.471H866.339ZM872.221 513.059V518.941H866.339V513.059H872.221ZM878.103 513.059V518.941H872.221V513.059H878.103ZM883.986 513.059V518.941H878.103V513.059H883.986ZM883.986 518.941V524.824H878.103V518.941H883.986ZM883.986 524.824V530.706H878.103V524.824H883.986ZM883.986 530.706V536.588H878.103V530.706H883.986ZM878.103 530.706V536.588H872.221V530.706H878.103ZM878.103 536.588V542.471H872.221V536.588H878.103ZM872.221 536.588V542.471H866.339V536.588H872.221ZM883.986 536.588V542.471H878.103V536.588H883.986ZM866.339 536.588V542.471H860.456V536.588H866.339ZM866.339 530.706V536.588H860.456V530.706H866.339ZM866.339 524.824V530.706H860.456V524.824H866.339ZM866.339 518.941V524.824H860.456V518.941H866.339ZM872.221 518.941V524.824H866.339V518.941H872.221ZM878.103 518.941V524.824H872.221V518.941H878.103ZM878.103 524.824V530.706H872.221V524.824H878.103ZM872.221 530.706V536.588H866.339V530.706H872.221ZM872.221 524.824V530.706H866.339V524.824H872.221ZM854.574 477.765H860.456V483.647H854.574V477.765ZM854.574 548.353H860.456V554.235H854.574V548.353ZM854.574 542.471H860.456V548.353H854.574V542.471ZM907.538 542.471H913.42V548.353H907.538V542.471ZM913.42 542.471H919.303V548.353H913.42V542.471ZM919.303 542.471H925.185V548.353H919.303V542.471ZM919.303 548.353H925.185V554.235H919.303V548.353ZM919.303 554.235H925.185V560.118H919.303V554.235ZM919.303 560.118H925.185V566H919.303V560.118ZM913.42 560.118H919.303V566H913.42V560.118ZM907.538 560.118H913.42V566H907.538V560.118ZM901.656 560.118H907.538V566H901.656V560.118ZM901.656 554.235H907.538V560.118H901.656V554.235ZM901.656 548.353H907.538V554.235H901.656V548.353ZM901.656 542.471H907.538V548.353H901.656V542.471ZM907.538 548.353H913.42V554.235H907.538V548.353ZM913.42 548.353H919.303V554.235H913.42V548.353ZM907.538 554.235H913.42V560.118H907.538V554.235ZM913.42 554.235H919.303V560.118H913.42V554.235Z" fill="white"/>
</svg>
