<svg width="1015" height="1015" viewBox="0 0 1015 1015" fill="none" xmlns="http://www.w3.org/2000/svg">
<rect width="1015" height="1015" fill="#0B1A3A"/>
<path d="M654.353 506.882H683.765V536.294H654.353V506.882ZM654.353 477.471H683.765V506.882H654.353V477.471ZM654.353 448.059H683.765V477.471H654.353V448.059ZM654.353 418.647H683.765V448.059H654.353V418.647ZM654.353 389.235H683.765V418.647H654.353V389.235ZM654.353 359.824H683.765V389.235H654.353V359.824ZM654.353 330.412H683.765V359.824H654.353V330.412ZM654.353 301H683.765V330.412H654.353V301ZM624.941 301H654.353V330.412H624.941V301ZM624.941 271.588H654.353V301H624.941V271.588ZM624.941 242.176H654.353V271.588H624.941V242.176ZM595.529 242.176H624.941V271.588H595.529V242.176ZM595.529 271.588H624.941V301H595.529V271.588ZM595.529 301H624.941V330.412H595.529V301ZM595.529 330.412H624.941V359.824H595.529V330.412ZM595.529 359.824H624.941V389.235H595.529V359.824ZM595.529 389.235H624.941V418.647H595.529V389.235ZM595.529 418.647H624.941V448.059H595.529V418.647ZM595.529 448.059H624.941V477.471H595.529V448.059ZM595.529 477.471H624.941V506.882H595.529V477.471ZM595.529 506.882H624.941V536.294H595.529V506.882ZM595.529 536.294H624.941V565.706H595.529V536.294ZM595.529 565.706H624.941V595.118H595.529V565.706ZM624.941 565.706H654.353V595.118H624.941V565.706ZM624.941 536.294H654.353V565.706H624.941V536.294ZM624.941 506.882H654.353V536.294H624.941V506.882ZM624.941 477.471H654.353V506.882H624.941V477.471ZM624.941 448.059H654.353V477.471H624.941V448.059ZM624.941 418.647H654.353V448.059H624.941V418.647ZM624.941 389.235H654.353V418.647H624.941V389.235ZM624.941 359.824H654.353V389.235H624.941V359.824ZM624.941 330.412H654.353V359.824H624.941V330.412ZM566.118 330.412H595.529V359.824H566.118V330.412ZM536.706 330.412H566.118V359.824H536.706V330.412ZM566.118 301H595.529V330.412H566.118V301ZM536.706 301H566.118V330.412H536.706V301ZM507.294 301H536.706V330.412H507.294V301ZM477.882 301H507.294V330.412H477.882V301ZM448.471 301H477.882V330.412H448.471V301ZM419.059 301H448.471V330.412H419.059V301ZM389.647 301H419.059V330.412H389.647V301ZM389.647 330.412H419.059V359.824H389.647V330.412ZM389.647 359.824H419.059V389.235H389.647V359.824ZM389.647 389.235H419.059V418.647H389.647V389.235ZM389.647 418.647H419.059V448.059H389.647V418.647ZM389.647 448.059H419.059V477.471H389.647V448.059ZM389.647 477.471H419.059V506.882H389.647V477.471ZM389.647 506.882H419.059V536.294H389.647V506.882ZM419.059 506.882H448.471V536.294H419.059V506.882ZM419.059 536.294H448.471V565.706H419.059V536.294ZM448.471 536.294H477.882V565.706H448.471V536.294ZM477.882 536.294H507.294V565.706H477.882V536.294ZM507.294 536.294H536.706V565.706H507.294V536.294ZM536.706 536.294H566.118V565.706H536.706V536.294ZM536.706 506.882H566.118V536.294H536.706V506.882ZM507.294 506.882H536.706V536.294H507.294V506.882ZM477.882 506.882H507.294V536.294H477.882V506.882ZM448.471 506.882H477.882V536.294H448.471V506.882ZM566.118 506.882H595.529V536.294H566.118V506.882ZM566.118 477.471H595.529V506.882H566.118V477.471ZM536.706 477.471H566.118V506.882H536.706V477.471ZM566.118 448.059H595.529V477.471H566.118V448.059ZM566.118 359.824H595.529V389.235H566.118V359.824ZM566.118 389.235H595.529V418.647H566.118V389.235ZM566.118 418.647H595.529V448.059H566.118V418.647ZM566.118 536.294H595.529V565.706H566.118V536.294ZM566.118 565.706H595.529V595.118H566.118V565.706ZM566.118 595.118H595.529V624.529H566.118V595.118ZM536.706 595.118H566.118V624.529H536.706V595.118ZM507.294 595.118H536.706V624.529H507.294V595.118ZM477.882 595.118H507.294V624.529H477.882V595.118ZM448.471 595.118H477.882V624.529H448.471V595.118ZM448.471 565.706H477.882V595.118H448.471V565.706ZM419.059 565.706H448.471V595.118H419.059V565.706ZM419.059 595.118H448.471V624.529H419.059V595.118ZM477.882 565.706H507.294V595.118H477.882V565.706ZM507.294 565.706H536.706V595.118H507.294V565.706ZM536.706 565.706H566.118V595.118H536.706V565.706ZM566.118 212.765H595.529V242.176H566.118V212.765ZM566.118 242.176H595.529V271.588H566.118V242.176ZM566.118 271.588H595.529V301H566.118V271.588ZM536.706 271.588H566.118V301H536.706V271.588ZM536.706 242.176H566.118V271.588H536.706V242.176ZM536.706 212.765H566.118V242.176H536.706V212.765ZM507.294 212.765H536.706V242.176H507.294V212.765ZM477.882 212.765H507.294V242.176H477.882V212.765ZM448.471 212.765H477.882V242.176H448.471V212.765ZM419.059 212.765H448.471V242.176H419.059V212.765ZM389.647 212.765H419.059V242.176H389.647V212.765ZM360.235 212.765H389.647V242.176H360.235V212.765ZM330.824 212.765H360.235V242.176H330.824V212.765ZM301.412 212.765H330.824V242.176H301.412V212.765ZM301.412 242.176H330.824V271.588H301.412V242.176ZM301.412 271.588H330.824V301H301.412V271.588ZM301.412 301H330.824V330.412H301.412V301ZM330.824 301H360.235V330.412H330.824V301ZM330.824 271.588H360.235V301H330.824V271.588ZM360.235 271.588H389.647V301H360.235V271.588ZM389.647 271.588H419.059V301H389.647V271.588ZM419.059 271.588H448.471V301H419.059V271.588ZM448.471 271.588H477.882V301H448.471V271.588ZM477.882 271.588H507.294V301H477.882V271.588ZM507.294 271.588H536.706V301H507.294V271.588ZM507.294 242.176H536.706V271.588H507.294V242.176ZM477.882 242.176H507.294V271.588H477.882V242.176ZM448.471 242.176H477.882V271.588H448.471V242.176ZM419.059 242.176H448.471V271.588H419.059V242.176ZM389.647 242.176H419.059V271.588H389.647V242.176ZM360.235 242.176H389.647V271.588H360.235V242.176ZM330.824 330.412H360.235V359.824H330.824V330.412ZM330.824 359.824H360.235V389.235H330.824V359.824ZM330.824 242.176H360.235V271.588H330.824V242.176ZM360.235 301H389.647V330.412H360.235V301ZM360.235 330.412H389.647V359.824H360.235V330.412ZM360.235 359.824H389.647V389.235H360.235V359.824ZM360.235 389.235H389.647V418.647H360.235V389.235ZM360.235 418.647H389.647V448.059H360.235V418.647ZM360.235 448.059H389.647V477.471H360.235V448.059ZM360.235 477.471H389.647V506.882H360.235V477.471ZM360.235 506.882H389.647V536.294H360.235V506.882ZM330.824 506.882H360.235V536.294H330.824V506.882ZM330.824 477.471H360.235V506.882H330.824V477.471ZM330.824 448.059H360.235V477.471H330.824V448.059ZM330.824 418.647H360.235V448.059H330.824V418.647ZM301.412 389.235H330.824V418.647H301.412V389.235ZM301.412 359.824H330.824V389.235H301.412V359.824ZM301.412 330.412H330.824V359.824H301.412V330.412ZM301.412 418.647H330.824V448.059H301.412V418.647ZM301.412 448.059H330.824V477.471H301.412V448.059ZM330.824 389.235H360.235V418.647H330.824V389.235ZM301.412 477.471H330.824V506.882H301.412V477.471ZM301.412 506.882H330.824V536.294H301.412V506.882ZM301.412 536.294H330.824V565.706H301.412V536.294ZM301.412 565.706H330.824V595.118H301.412V565.706ZM330.824 565.706H360.235V595.118H330.824V565.706ZM360.235 565.706H389.647V595.118H360.235V565.706ZM389.647 565.706H419.059V595.118H389.647V565.706ZM389.647 595.118H419.059V624.529H389.647V595.118ZM360.235 595.118H389.647V624.529H360.235V595.118ZM330.824 595.118H360.235V624.529H330.824V595.118ZM301.412 595.118H330.824V624.529H301.412V595.118ZM330.824 536.294H360.235V565.706H330.824V536.294ZM360.235 536.294H389.647V565.706H360.235V536.294ZM389.647 536.294H419.059V565.706H389.647V536.294ZM301.412 624.529H330.824V653.941H301.412V624.529ZM301.412 653.941H330.824V683.353H301.412V653.941ZM301.412 683.353H330.824V712.765H301.412V683.353ZM301.412 712.765H330.824V742.176H301.412V712.765ZM301.412 742.176H330.824V771.588H301.412V742.176ZM301.412 771.588H330.824V801H301.412V771.588ZM330.824 771.588H360.235V801H330.824V771.588ZM360.235 771.588H389.647V801H360.235V771.588ZM389.647 771.588H419.059V801H389.647V771.588ZM389.647 742.176H419.059V771.588H389.647V742.176ZM389.647 712.765H419.059V742.176H389.647V712.765ZM389.647 683.353H419.059V712.765H389.647V683.353ZM389.647 653.941H419.059V683.353H389.647V653.941ZM389.647 624.529H419.059V653.941H389.647V624.529ZM360.235 624.529H389.647V653.941H360.235V624.529ZM330.824 624.529H360.235V653.941H330.824V624.529ZM330.824 653.941H360.235V683.353H330.824V653.941ZM330.824 683.353H360.235V712.765H330.824V683.353ZM330.824 712.765H360.235V742.176H330.824V712.765ZM330.824 742.176H360.235V771.588H330.824V742.176ZM360.235 742.176H389.647V771.588H360.235V742.176ZM360.235 712.765H389.647V742.176H360.235V712.765ZM360.235 683.353H389.647V712.765H360.235V683.353ZM360.235 653.941H389.647V683.353H360.235V653.941Z" fill="white"/>
</svg>
