<svg width="1015" height="279" viewBox="0 0 1015 279" fill="none" xmlns="http://www.w3.org/2000/svg">
<rect width="1015" height="279" fill="#0B1A3A"/>
<path d="M198.471 139.176H204.353V145.059H198.471V139.176ZM198.471 133.294H204.353V139.176H198.471V133.294ZM198.471 127.412H204.353V133.294H198.471V127.412ZM198.471 121.529H204.353V127.412H198.471V121.529ZM198.471 115.647H204.353V121.529H198.471V115.647ZM198.471 109.765H204.353V115.647H198.471V109.765ZM198.471 103.882H204.353V109.765H198.471V103.882ZM198.471 98H204.353V103.882H198.471V98ZM192.588 98H198.471V103.882H192.588V98ZM192.588 92.1177H198.471V98H192.588V92.1177ZM192.588 86.2353H198.471V92.1177H192.588V86.2353ZM186.706 86.2353H192.588V92.1177H186.706V86.2353ZM186.706 92.1177H192.588V98H186.706V92.1177ZM186.706 98H192.588V103.882H186.706V98ZM186.706 103.882H192.588V109.765H186.706V103.882ZM186.706 109.765H192.588V115.647H186.706V109.765ZM186.706 115.647H192.588V121.529H186.706V115.647ZM186.706 121.529H192.588V127.412H186.706V121.529ZM186.706 127.412H192.588V133.294H186.706V127.412ZM186.706 133.294H192.588V139.176H186.706V133.294ZM186.706 139.176H192.588V145.059H186.706V139.176ZM186.706 145.059H192.588V150.941H186.706V145.059ZM186.706 150.941H192.588V156.824H186.706V150.941ZM192.588 150.941H198.471V156.824H192.588V150.941ZM192.588 145.059H198.471V150.941H192.588V145.059ZM192.588 139.176H198.471V145.059H192.588V139.176ZM192.588 133.294H198.471V139.176H192.588V133.294ZM192.588 127.412H198.471V133.294H192.588V127.412ZM192.588 121.529H198.471V127.412H192.588V121.529ZM192.588 115.647H198.471V121.529H192.588V115.647ZM192.588 109.765H198.471V115.647H192.588V109.765ZM192.588 103.882H198.471V109.765H192.588V103.882ZM180.824 103.882H186.706V109.765H180.824V103.882ZM174.941 103.882H180.824V109.765H174.941V103.882ZM180.824 98H186.706V103.882H180.824V98ZM174.941 98H180.824V103.882H174.941V98ZM169.059 98H174.941V103.882H169.059V98ZM163.176 98H169.059V103.882H163.176V98ZM157.294 98H163.176V103.882H157.294V98ZM151.412 98H157.294V103.882H151.412V98ZM145.529 98H151.412V103.882H145.529V98ZM145.529 103.882H151.412V109.765H145.529V103.882ZM145.529 109.765H151.412V115.647H145.529V109.765ZM145.529 115.647H151.412V121.529H145.529V115.647ZM145.529 121.529H151.412V127.412H145.529V121.529ZM145.529 127.412H151.412V133.294H145.529V127.412ZM145.529 133.294H151.412V139.176H145.529V133.294ZM145.529 139.176H151.412V145.059H145.529V139.176ZM151.412 139.176H157.294V145.059H151.412V139.176ZM151.412 145.059H157.294V150.941H151.412V145.059ZM157.294 145.059H163.176V150.941H157.294V145.059ZM163.176 145.059H169.059V150.941H163.176V145.059ZM169.059 145.059H174.941V150.941H169.059V145.059ZM174.941 145.059H180.824V150.941H174.941V145.059ZM174.941 139.176H180.824V145.059H174.941V139.176ZM169.059 139.176H174.941V145.059H169.059V139.176ZM163.176 139.176H169.059V145.059H163.176V139.176ZM157.294 139.176H163.176V145.059H157.294V139.176ZM180.824 139.176H186.706V145.059H180.824V139.176ZM180.824 133.294H186.706V139.176H180.824V133.294ZM174.941 133.294H180.824V139.176H174.941V133.294ZM180.824 127.412H186.706V133.294H180.824V127.412ZM180.824 109.765H186.706V115.647H180.824V109.765ZM180.824 115.647H186.706V121.529H180.824V115.647ZM180.824 121.529H186.706V127.412H180.824V121.529ZM180.824 145.059H186.706V150.941H180.824V145.059ZM180.824 150.941H186.706V156.824H180.824V150.941ZM180.824 156.824H186.706V162.706H180.824V156.824ZM174.941 156.824H180.824V162.706H174.941V156.824ZM169.059 156.824H174.941V162.706H169.059V156.824ZM163.176 156.824H169.059V162.706H163.176V156.824ZM157.294 156.824H163.176V162.706H157.294V156.824ZM157.294 150.941H163.176V156.824H157.294V150.941ZM151.412 150.941H157.294V156.824H151.412V150.941ZM151.412 156.824H157.294V162.706H151.412V156.824ZM163.176 150.941H169.059V156.824H163.176V150.941ZM169.059 150.941H174.941V156.824H169.059V150.941ZM174.941 150.941H180.824V156.824H174.941V150.941ZM180.824 80.3529H186.706V86.2353H180.824V80.3529ZM180.824 86.2353H186.706V92.1177H180.824V86.2353ZM180.824 92.1177H186.706V98H180.824V92.1177ZM174.941 92.1177H180.824V98H174.941V92.1177ZM174.941 86.2353H180.824V92.1177H174.941V86.2353ZM174.941 80.3529H180.824V86.2353H174.941V80.3529ZM169.059 80.3529H174.941V86.2353H169.059V80.3529ZM163.176 80.3529H169.059V86.2353H163.176V80.3529ZM157.294 80.3529H163.176V86.2353H157.294V80.3529ZM151.412 80.3529H157.294V86.2353H151.412V80.3529ZM145.529 80.3529H151.412V86.2353H145.529V80.3529ZM139.647 80.3529H145.529V86.2353H139.647V80.3529ZM133.765 80.3529H139.647V86.2353H133.765V80.3529ZM127.882 80.3529H133.765V86.2353H127.882V80.3529ZM127.882 86.2353H133.765V92.1177H127.882V86.2353ZM127.882 92.1177H133.765V98H127.882V92.1177ZM127.882 98H133.765V103.882H127.882V98ZM133.765 98H139.647V103.882H133.765V98ZM133.765 92.1177H139.647V98H133.765V92.1177ZM139.647 92.1177H145.529V98H139.647V92.1177ZM145.529 92.1177H151.412V98H145.529V92.1177ZM151.412 92.1177H157.294V98H151.412V92.1177ZM157.294 92.1177H163.176V98H157.294V92.1177ZM163.176 92.1177H169.059V98H163.176V92.1177ZM169.059 92.1177H174.941V98H169.059V92.1177ZM169.059 86.2353H174.941V92.1177H169.059V86.2353ZM163.176 86.2353H169.059V92.1177H163.176V86.2353ZM157.294 86.2353H163.176V92.1177H157.294V86.2353ZM151.412 86.2353H157.294V92.1177H151.412V86.2353ZM145.529 86.2353H151.412V92.1177H145.529V86.2353ZM139.647 86.2353H145.529V92.1177H139.647V86.2353ZM133.765 103.882H139.647V109.765H133.765V103.882ZM133.765 109.765H139.647V115.647H133.765V109.765ZM133.765 86.2353H139.647V92.1177H133.765V86.2353ZM139.647 98H145.529V103.882H139.647V98ZM139.647 103.882H145.529V109.765H139.647V103.882ZM139.647 109.765H145.529V115.647H139.647V109.765ZM139.647 115.647H145.529V121.529H139.647V115.647ZM139.647 121.529H145.529V127.412H139.647V121.529ZM139.647 127.412H145.529V133.294H139.647V127.412ZM139.647 133.294H145.529V139.176H139.647V133.294ZM139.647 139.176H145.529V145.059H139.647V139.176ZM133.765 139.176H139.647V145.059H133.765V139.176ZM133.765 133.294H139.647V139.176H133.765V133.294ZM133.765 127.412H139.647V133.294H133.765V127.412ZM133.765 121.529H139.647V127.412H133.765V121.529ZM127.882 115.647H133.765V121.529H127.882V115.647ZM127.882 109.765H133.765V115.647H127.882V109.765ZM127.882 103.882H133.765V109.765H127.882V103.882ZM127.882 121.529H133.765V127.412H127.882V121.529ZM127.882 127.412H133.765V133.294H127.882V127.412ZM133.765 115.647H139.647V121.529H133.765V115.647ZM127.882 133.294H133.765V139.176H127.882V133.294ZM127.882 139.176H133.765V145.059H127.882V139.176ZM127.882 145.059H133.765V150.941H127.882V145.059ZM127.882 150.941H133.765V156.824H127.882V150.941ZM133.765 150.941H139.647V156.824H133.765V150.941ZM139.647 150.941H145.529V156.824H139.647V150.941ZM145.529 150.941H151.412V156.824H145.529V150.941ZM145.529 156.824H151.412V162.706H145.529V156.824ZM139.647 156.824H145.529V162.706H139.647V156.824ZM133.765 156.824H139.647V162.706H133.765V156.824ZM127.882 156.824H133.765V162.706H127.882V156.824ZM133.765 145.059H139.647V150.941H133.765V145.059ZM139.647 145.059H145.529V150.941H139.647V145.059ZM145.529 145.059H151.412V150.941H145.529V145.059ZM127.882 162.706H133.765V168.588H127.882V162.706ZM127.882 168.588H133.765V174.471H127.882V168.588ZM127.882 174.471H133.765V180.353H127.882V174.471ZM127.882 180.353H133.765V186.235H127.882V180.353ZM127.882 186.235H133.765V192.118H127.882V186.235ZM127.882 192.118H133.765V198H127.882V192.118ZM133.765 192.118H139.647V198H133.765V192.118ZM139.647 192.118H145.529V198H139.647V192.118ZM145.529 192.118H151.412V198H145.529V192.118ZM145.529 186.235H151.412V192.118H145.529V186.235ZM145.529 180.353H151.412V186.235H145.529V180.353ZM145.529 174.471H151.412V180.353H145.529V174.471ZM145.529 168.588H151.412V174.471H145.529V168.588ZM145.529 162.706H151.412V168.588H145.529V162.706ZM139.647 162.706H145.529V168.588H139.647V162.706ZM133.765 162.706H139.647V168.588H133.765V162.706ZM133.765 168.588H139.647V174.471H133.765V168.588ZM133.765 174.471H139.647V180.353H133.765V174.471ZM133.765 180.353H139.647V186.235H133.765V180.353ZM133.765 186.235H139.647V192.118H133.765V186.235ZM139.647 186.235H145.529V192.118H139.647V186.235ZM139.647 180.353H145.529V186.235H139.647V180.353ZM139.647 174.471H145.529V180.353H139.647V174.471ZM139.647 168.588H145.529V174.471H139.647V168.588ZM292.611 174.471H298.494V180.353H292.611V174.471ZM286.729 174.471H292.611V180.353H286.729V174.471ZM280.847 174.471H286.729V180.353H280.847V174.471ZM280.847 180.353H286.729V186.235H280.847V180.353ZM286.729 180.353H292.611V186.235H286.729V180.353ZM280.847 186.235H286.729V192.118H280.847V186.235ZM274.964 186.235H280.847V192.118H274.964V186.235ZM286.729 186.235H292.611V192.118H286.729V186.235ZM274.964 192.118H280.847V198H274.964V192.118ZM269.082 192.118H274.964V198H269.082V192.118ZM263.199 192.118H269.082V198H263.199V192.118ZM257.317 192.118H263.199V198H257.317V192.118ZM251.435 192.118H257.317V198H251.435V192.118ZM245.552 192.118H251.435V198H245.552V192.118ZM239.67 192.118H245.552V198H239.67V192.118ZM239.67 186.235H245.552V192.118H239.67V186.235ZM233.788 186.235H239.67V192.118H233.788V186.235ZM227.905 186.235H233.788V192.118H227.905V186.235ZM227.905 180.353H233.788V186.235H227.905V180.353ZM233.788 180.353H239.67V186.235H233.788V180.353ZM239.67 180.353H245.552V186.235H239.67V180.353ZM245.552 180.353H251.435V186.235H245.552V180.353ZM251.435 180.353H257.317V186.235H251.435V180.353ZM257.317 180.353H263.199V186.235H257.317V180.353ZM263.199 180.353H269.082V186.235H263.199V180.353ZM269.082 180.353H274.964V186.235H269.082V180.353ZM274.964 180.353H280.847V186.235H274.964V180.353ZM269.082 186.235H274.964V192.118H269.082V186.235ZM263.199 186.235H269.082V192.118H263.199V186.235ZM257.317 186.235H263.199V192.118H257.317V186.235ZM251.435 186.235H257.317V192.118H251.435V186.235ZM245.552 186.235H251.435V192.118H245.552V186.235ZM233.788 174.471H239.67V180.353H233.788V174.471ZM227.905 174.471H233.788V180.353H227.905V174.471ZM222.023 174.471H227.905V180.353H222.023V174.471ZM233.788 168.588H239.67V174.471H233.788V168.588ZM239.67 168.588H245.552V174.471H239.67V168.588ZM245.552 174.471H251.435V180.353H245.552V174.471ZM239.67 174.471H245.552V180.353H239.67V174.471ZM227.905 168.588H233.788V174.471H227.905V168.588ZM227.905 162.706H233.788V168.588H227.905V162.706ZM222.023 162.706H227.905V168.588H222.023V162.706ZM222.023 156.824H227.905V162.706H222.023V156.824ZM222.023 168.588H227.905V174.471H222.023V168.588ZM222.023 150.941H227.905V156.824H222.023V150.941ZM227.905 150.941H233.788V156.824H227.905V150.941ZM233.788 150.941H239.67V156.824H233.788V150.941ZM239.67 150.941H245.552V156.824H239.67V150.941ZM239.67 156.824H245.552V162.706H239.67V156.824ZM239.67 162.706H245.552V168.588H239.67V162.706ZM233.788 156.824H239.67V162.706H233.788V156.824ZM227.905 156.824H233.788V162.706H227.905V156.824ZM233.788 162.706H239.67V168.588H233.788V162.706ZM251.435 174.471H257.317V180.353H251.435V174.471ZM257.317 174.471H263.199V180.353H257.317V174.471ZM263.199 174.471H269.082V180.353H263.199V174.471ZM269.082 174.471H274.964V180.353H269.082V174.471ZM274.964 174.471H280.847V180.353H274.964V174.471ZM274.964 168.588H280.847V174.471H274.964V168.588ZM269.082 168.588H274.964V174.471H269.082V168.588ZM280.847 168.588H286.729V174.471H280.847V168.588ZM286.729 168.588H292.611V174.471H286.729V168.588ZM286.729 162.706H292.611V168.588H286.729V162.706ZM292.611 162.706H298.494V168.588H292.611V162.706ZM292.611 156.824H298.494V162.706H292.611V156.824ZM292.611 168.588H298.494V174.471H292.611V168.588ZM292.611 150.941H298.494V156.824H292.611V150.941ZM292.611 145.059H298.494V150.941H292.611V145.059ZM292.611 139.176H298.494V145.059H292.611V139.176ZM292.611 133.294H298.494V139.176H292.611V133.294ZM292.611 127.412H298.494V133.294H292.611V127.412ZM286.729 127.412H292.611V133.294H286.729V127.412ZM286.729 121.529H292.611V127.412H286.729V121.529ZM280.847 127.412H286.729V133.294H280.847V127.412ZM274.964 127.412H280.847V133.294H274.964V127.412ZM274.964 133.294H280.847V139.176H274.964V133.294ZM274.964 139.176H280.847V145.059H274.964V139.176ZM274.964 145.059H280.847V150.941H274.964V145.059ZM274.964 150.941H280.847V156.824H274.964V150.941ZM274.964 156.824H280.847V162.706H274.964V156.824ZM274.964 162.706H280.847V168.588H274.964V162.706ZM280.847 162.706H286.729V168.588H280.847V162.706ZM280.847 156.824H286.729V162.706H280.847V156.824ZM286.729 156.824H292.611V162.706H286.729V156.824ZM286.729 150.941H292.611V156.824H286.729V150.941ZM286.729 145.059H292.611V150.941H286.729V145.059ZM286.729 139.176H292.611V145.059H286.729V139.176ZM280.847 133.294H286.729V139.176H280.847V133.294ZM280.847 139.176H286.729V145.059H280.847V139.176ZM280.847 145.059H286.729V150.941H280.847V145.059ZM280.847 150.941H286.729V156.824H280.847V150.941ZM286.729 133.294H292.611V139.176H286.729V133.294ZM292.611 121.529H298.494V127.412H292.611V121.529ZM292.611 115.647H298.494V121.529H292.611V115.647ZM292.611 109.765H298.494V115.647H292.611V109.765ZM292.611 103.882H298.494V109.765H292.611V103.882ZM292.611 98H298.494V103.882H292.611V98ZM286.729 98H292.611V103.882H286.729V98ZM286.729 92.1177H292.611V98H286.729V92.1177ZM286.729 86.2353H292.611V92.1177H286.729V86.2353ZM280.847 86.2353H286.729V92.1177H280.847V86.2353ZM274.964 86.2353H280.847V92.1177H274.964V86.2353ZM280.847 121.529H286.729V127.412H280.847V121.529ZM280.847 115.647H286.729V121.529H280.847V115.647ZM280.847 109.765H286.729V115.647H280.847V109.765ZM286.729 109.765H292.611V115.647H286.729V109.765ZM286.729 103.882H292.611V109.765H286.729V103.882ZM286.729 115.647H292.611V121.529H286.729V115.647ZM274.964 121.529H280.847V127.412H274.964V121.529ZM274.964 115.647H280.847V121.529H274.964V115.647ZM280.847 103.882H286.729V109.765H280.847V103.882ZM274.964 103.882H280.847V109.765H274.964V103.882ZM274.964 109.765H280.847V115.647H274.964V109.765ZM269.082 103.882H274.964V109.765H269.082V103.882ZM269.082 98H274.964V103.882H269.082V98ZM274.964 92.1177H280.847V98H274.964V92.1177ZM280.847 92.1177H286.729V98H280.847V92.1177ZM280.847 98H286.729V103.882H280.847V98ZM274.964 98H280.847V103.882H274.964V98ZM269.082 92.1177H274.964V98H269.082V92.1177ZM269.082 86.2353H274.964V92.1177H269.082V86.2353ZM269.082 80.3529H274.964V86.2353H269.082V80.3529ZM274.964 80.3529H280.847V86.2353H274.964V80.3529ZM263.199 80.3529H269.082V86.2353H263.199V80.3529ZM257.317 80.3529H263.199V86.2353H257.317V80.3529ZM251.435 80.3529H257.317V86.2353H251.435V80.3529ZM245.552 80.3529H251.435V86.2353H245.552V80.3529ZM245.552 86.2353H251.435V92.1177H245.552V86.2353ZM239.67 86.2353H245.552V92.1177H239.67V86.2353ZM239.67 80.3529H245.552V86.2353H239.67V80.3529ZM233.788 86.2353H239.67V92.1177H233.788V86.2353ZM227.905 86.2353H233.788V92.1177H227.905V86.2353ZM227.905 92.1177H233.788V98H227.905V92.1177ZM227.905 98H233.788V103.882H227.905V98ZM222.023 98H227.905V103.882H222.023V98ZM222.023 103.882H227.905V109.765H222.023V103.882ZM227.905 103.882H233.788V109.765H227.905V103.882ZM233.788 103.882H239.67V109.765H233.788V103.882ZM239.67 103.882H245.552V109.765H239.67V103.882ZM245.552 98H251.435V103.882H245.552V98ZM251.435 98H257.317V103.882H251.435V98ZM257.317 98H263.199V103.882H257.317V98ZM263.199 98H269.082V103.882H263.199V98ZM263.199 86.2353H269.082V92.1177H263.199V86.2353ZM263.199 92.1177H269.082V98H263.199V92.1177ZM257.317 92.1177H263.199V98H257.317V92.1177ZM251.435 92.1177H257.317V98H251.435V92.1177ZM257.317 86.2353H263.199V92.1177H257.317V86.2353ZM251.435 86.2353H257.317V92.1177H251.435V86.2353ZM245.552 92.1177H251.435V98H245.552V92.1177ZM239.67 92.1177H245.552V98H239.67V92.1177ZM239.67 98H245.552V103.882H239.67V98ZM233.788 98H239.67V103.882H233.788V98ZM233.788 92.1177H239.67V98H233.788V92.1177ZM233.788 109.765H239.67V115.647H233.788V109.765ZM233.788 115.647H239.67V121.529H233.788V115.647ZM233.788 121.529H239.67V127.412H233.788V121.529ZM233.788 127.412H239.67V133.294H233.788V127.412ZM239.67 127.412H245.552V133.294H239.67V127.412ZM239.67 133.294H245.552V139.176H239.67V133.294ZM239.67 121.529H245.552V127.412H239.67V121.529ZM239.67 115.647H245.552V121.529H239.67V115.647ZM239.67 109.765H245.552V115.647H239.67V109.765ZM239.67 139.176H245.552V145.059H239.67V139.176ZM239.67 145.059H245.552V150.941H239.67V145.059ZM233.788 145.059H239.67V150.941H233.788V145.059ZM227.905 145.059H233.788V150.941H227.905V145.059ZM222.023 139.176H227.905V145.059H222.023V139.176ZM222.023 145.059H227.905V150.941H222.023V145.059ZM222.023 133.294H227.905V139.176H222.023V133.294ZM222.023 127.412H227.905V133.294H222.023V127.412ZM222.023 121.529H227.905V127.412H222.023V121.529ZM222.023 115.647H227.905V121.529H222.023V115.647ZM222.023 109.765H227.905V115.647H222.023V109.765ZM227.905 115.647H233.788V121.529H227.905V115.647ZM227.905 121.529H233.788V127.412H227.905V121.529ZM227.905 127.412H233.788V133.294H227.905V127.412ZM227.905 133.294H233.788V139.176H227.905V133.294ZM227.905 139.176H233.788V145.059H227.905V139.176ZM233.788 139.176H239.67V145.059H233.788V139.176ZM233.788 133.294H239.67V139.176H233.788V133.294ZM227.905 109.765H233.788V115.647H227.905V109.765ZM233.788 80.3529H239.67V86.2353H233.788V80.3529ZM227.905 80.3529H233.788V86.2353H227.905V80.3529ZM222.023 80.3529H227.905V86.2353H222.023V80.3529ZM222.023 86.2353H227.905V92.1177H222.023V86.2353ZM222.023 92.1177H227.905V98H222.023V92.1177ZM222.023 180.353H227.905V186.235H222.023V180.353ZM222.023 186.235H227.905V192.118H222.023V186.235ZM222.023 192.118H227.905V198H222.023V192.118ZM227.905 192.118H233.788V198H227.905V192.118ZM233.788 192.118H239.67V198H233.788V192.118ZM322.046 115.647H327.928V121.529H322.046V115.647ZM322.046 121.529H327.928V127.412H322.046V121.529ZM322.046 127.412H327.928V133.294H322.046V127.412ZM322.046 133.294H327.928V139.176H322.046V133.294ZM322.046 139.176H327.928V145.059H322.046V139.176ZM316.164 139.176H322.046V145.059H316.164V139.176ZM316.164 133.294H322.046V139.176H316.164V133.294ZM316.164 127.412H322.046V133.294H316.164V127.412ZM316.164 121.529H322.046V127.412H316.164V121.529ZM316.164 115.647H322.046V121.529H316.164V115.647ZM316.164 174.471H322.046V180.353H316.164V174.471ZM316.164 168.588H322.046V174.471H316.164V168.588ZM316.164 162.706H322.046V168.588H316.164V162.706ZM316.164 156.824H322.046V162.706H316.164V156.824ZM322.046 150.941H327.928V156.824H322.046V150.941ZM322.046 145.059H327.928V150.941H322.046V145.059ZM316.164 145.059H322.046V150.941H316.164V145.059ZM316.164 150.941H322.046V156.824H316.164V150.941ZM316.164 180.353H322.046V186.235H316.164V180.353ZM316.164 186.235H322.046V192.118H316.164V186.235ZM316.164 192.118H322.046V198H316.164V192.118ZM333.811 115.647H339.693V121.529H333.811V115.647ZM333.811 121.529H339.693V127.412H333.811V121.529ZM333.811 127.412H339.693V133.294H333.811V127.412ZM333.811 133.294H339.693V139.176H333.811V133.294ZM333.811 139.176H339.693V145.059H333.811V139.176ZM333.811 145.059H339.693V150.941H333.811V145.059ZM333.811 150.941H339.693V156.824H333.811V150.941ZM333.811 156.824H339.693V162.706H333.811V156.824ZM333.811 162.706H339.693V168.588H333.811V162.706ZM333.811 168.588H339.693V174.471H333.811V168.588ZM333.811 174.471H339.693V180.353H333.811V174.471ZM333.811 180.353H339.693V186.235H333.811V180.353ZM333.811 186.235H339.693V192.118H333.811V186.235ZM333.811 192.118H339.693V198H333.811V192.118ZM327.928 192.118H333.811V198H327.928V192.118ZM322.046 192.118H327.928V198H322.046V192.118ZM322.046 186.235H327.928V192.118H322.046V186.235ZM327.928 186.235H333.811V192.118H327.928V186.235ZM327.928 180.353H333.811V186.235H327.928V180.353ZM322.046 174.471H327.928V180.353H322.046V174.471ZM322.046 168.588H327.928V174.471H322.046V168.588ZM322.046 162.706H327.928V168.588H322.046V162.706ZM327.928 162.706H333.811V168.588H327.928V162.706ZM327.928 168.588H333.811V174.471H327.928V168.588ZM327.928 174.471H333.811V180.353H327.928V174.471ZM322.046 180.353H327.928V186.235H322.046V180.353ZM327.928 156.824H333.811V162.706H327.928V156.824ZM327.928 150.941H333.811V156.824H327.928V150.941ZM327.928 145.059H333.811V150.941H327.928V145.059ZM322.046 156.824H327.928V162.706H322.046V156.824ZM327.928 139.176H333.811V145.059H327.928V139.176ZM327.928 133.294H333.811V139.176H327.928V133.294ZM327.928 127.412H333.811V133.294H327.928V127.412ZM327.928 121.529H333.811V127.412H327.928V121.529ZM327.928 115.647H333.811V121.529H327.928V115.647ZM333.811 80.3529H339.693V86.2353H333.811V80.3529ZM327.928 86.2353H333.811V92.1177H327.928V86.2353ZM327.928 74.4706H333.811V80.3529H327.928V74.4706ZM322.046 80.3529H327.928V86.2353H322.046V80.3529ZM327.928 80.3529H333.811V86.2353H327.928V80.3529ZM322.046 74.4706H327.928V80.3529H322.046V74.4706ZM322.046 86.2353H327.928V92.1177H322.046V86.2353ZM333.811 86.2353H339.693V92.1177H333.811V86.2353ZM316.164 80.3529H322.046V86.2353H316.164V80.3529ZM316.164 86.2353H322.046V92.1177H316.164V86.2353ZM322.046 92.1177H327.928V98H322.046V92.1177ZM327.928 92.1177H333.811V98H327.928V92.1177ZM316.164 74.4706H322.046V80.3529H316.164V74.4706ZM333.811 74.4706H339.693V80.3529H333.811V74.4706ZM333.811 92.1177H339.693V98H333.811V92.1177ZM316.164 92.1177H322.046V98H316.164V92.1177ZM404.433 198H398.551V192.118H404.433V198ZM416.198 198H410.316V192.118H416.198V198ZM398.551 198H392.669V192.118H398.551V198ZM392.669 198H386.786V192.118H392.669V198ZM386.786 198H380.904V192.118H386.786V198ZM380.904 198H375.022V192.118H380.904V198ZM375.022 192.118H369.139V186.235H375.022V192.118ZM380.904 192.118H375.022V186.235H380.904V192.118ZM380.904 186.235H375.022V180.353H380.904V186.235ZM369.139 192.118H363.257V186.235H369.139V192.118ZM369.139 186.235H363.257V180.353H369.139V186.235ZM375.022 186.235H369.139V180.353H375.022V186.235ZM380.904 180.353H375.022V174.471H380.904V180.353ZM386.786 180.353H380.904V174.471H386.786V180.353ZM375.022 180.353H369.139V174.471H375.022V180.353ZM369.139 180.353H363.257V174.471H369.139V180.353ZM363.257 180.353H357.375V174.471H363.257V180.353ZM363.257 174.471H357.375V168.588H363.257V174.471ZM363.257 139.176H357.375V133.294H363.257V139.176ZM363.257 133.294H357.375V127.412H363.257V133.294ZM369.139 133.294H363.257V127.412H369.139V133.294ZM369.139 127.412H363.257V121.529H369.139V127.412ZM369.139 121.529H363.257V115.647H369.139V121.529ZM375.022 121.529H369.139V115.647H375.022V121.529ZM380.904 121.529H375.022V115.647H380.904V121.529ZM386.786 127.412H380.904V121.529H386.786V127.412ZM386.786 133.294H380.904V127.412H386.786V133.294ZM380.904 133.294H375.022V127.412H380.904V133.294ZM380.904 127.412H375.022V121.529H380.904V127.412ZM375.022 127.412H369.139V121.529H375.022V127.412ZM375.022 133.294H369.139V127.412H375.022V133.294ZM375.022 139.176H369.139V133.294H375.022V139.176ZM380.904 139.176H375.022V133.294H380.904V139.176ZM380.904 174.471H375.022V168.588H380.904V174.471ZM375.022 174.471H369.139V168.588H375.022V174.471ZM369.139 139.176H363.257V133.294H369.139V139.176ZM369.139 174.471H363.257V168.588H369.139V174.471ZM386.786 121.529H380.904V115.647H386.786V121.529ZM386.786 115.647H380.904V109.765H386.786V115.647ZM380.904 115.647H375.022V109.765H380.904V115.647ZM392.669 115.647H386.786V109.765H392.669V115.647ZM398.551 115.647H392.669V109.765H398.551V115.647ZM404.433 115.647H398.551V109.765H404.433V115.647ZM410.316 115.647H404.433V109.765H410.316V115.647ZM416.198 115.647H410.316V109.765H416.198V115.647ZM416.198 121.529H410.316V115.647H416.198V121.529ZM422.08 121.529H416.198V115.647H422.08V121.529ZM427.963 121.529H422.08V115.647H427.963V121.529ZM427.963 127.412H422.08V121.529H427.963V127.412ZM433.845 133.294H427.963V127.412H433.845V133.294ZM427.963 133.294H422.08V127.412H427.963V133.294ZM433.845 139.176H427.963V133.294H433.845V139.176ZM433.845 145.059H427.963V139.176H433.845V145.059ZM433.845 150.941H427.963V145.059H433.845V150.941ZM433.845 156.824H427.963V150.941H433.845V156.824ZM433.845 162.706H427.963V156.824H433.845V162.706ZM433.845 168.588H427.963V162.706H433.845V168.588ZM427.963 168.588H422.08V162.706H427.963V168.588ZM427.963 174.471H422.08V168.588H427.963V174.471ZM433.845 174.471H427.963V168.588H433.845V174.471ZM433.845 180.353H427.963V174.471H433.845V180.353ZM427.963 180.353H422.08V174.471H427.963V180.353ZM427.963 186.235H422.08V180.353H427.963V186.235ZM427.963 192.118H422.08V186.235H427.963V192.118ZM422.08 192.118H416.198V186.235H422.08V192.118ZM416.198 192.118H410.316V186.235H416.198V192.118ZM410.316 192.118H404.433V186.235H410.316V192.118ZM410.316 186.235H404.433V180.353H410.316V186.235ZM416.198 180.353H410.316V174.471H416.198V180.353ZM422.08 180.353H416.198V174.471H422.08V180.353ZM416.198 174.471H410.316V168.588H416.198V174.471ZM416.198 168.588H410.316V162.706H416.198V168.588ZM416.198 162.706H410.316V156.824H416.198V162.706ZM416.198 156.824H410.316V150.941H416.198V156.824ZM416.198 150.941H410.316V145.059H416.198V150.941ZM416.198 145.059H410.316V139.176H416.198V145.059ZM416.198 139.176H410.316V133.294H416.198V139.176ZM416.198 133.294H410.316V127.412H416.198V133.294ZM410.316 133.294H404.433V127.412H410.316V133.294ZM410.316 127.412H404.433V121.529H410.316V127.412ZM404.433 127.412H398.551V121.529H404.433V127.412ZM398.551 127.412H392.669V121.529H398.551V127.412ZM392.669 127.412H386.786V121.529H392.669V127.412ZM392.669 121.529H386.786V115.647H392.669V121.529ZM398.551 121.529H392.669V115.647H398.551V121.529ZM404.433 121.529H398.551V115.647H404.433V121.529ZM410.316 121.529H404.433V115.647H410.316V121.529ZM416.198 127.412H410.316V121.529H416.198V127.412ZM422.08 127.412H416.198V121.529H422.08V127.412ZM422.08 133.294H416.198V127.412H422.08V133.294ZM422.08 139.176H416.198V133.294H422.08V139.176ZM422.08 145.059H416.198V139.176H422.08V145.059ZM427.963 145.059H422.08V139.176H427.963V145.059ZM427.963 139.176H422.08V133.294H427.963V139.176ZM427.963 150.941H422.08V145.059H427.963V150.941ZM427.963 156.824H422.08V150.941H427.963V156.824ZM427.963 162.706H422.08V156.824H427.963V162.706ZM422.08 162.706H416.198V156.824H422.08V162.706ZM422.08 156.824H416.198V150.941H422.08V156.824ZM422.08 150.941H416.198V145.059H422.08V150.941ZM422.08 168.588H416.198V162.706H422.08V168.588ZM422.08 174.471H416.198V168.588H422.08V174.471ZM422.08 186.235H416.198V180.353H422.08V186.235ZM416.198 186.235H410.316V180.353H416.198V186.235ZM404.433 192.118H398.551V186.235H404.433V192.118ZM398.551 192.118H392.669V186.235H398.551V192.118ZM392.669 192.118H386.786V186.235H392.669V192.118ZM386.786 192.118H380.904V186.235H386.786V192.118ZM386.786 186.235H380.904V180.353H386.786V186.235ZM392.669 186.235H386.786V180.353H392.669V186.235ZM398.551 186.235H392.669V180.353H398.551V186.235ZM404.433 186.235H398.551V180.353H404.433V186.235ZM369.139 168.588H363.257V162.706H369.139V168.588ZM375.022 168.588H369.139V162.706H375.022V168.588ZM380.904 168.588H375.022V162.706H380.904V168.588ZM369.139 162.706H363.257V156.824H369.139V162.706ZM375.022 162.706H369.139V156.824H375.022V162.706ZM380.904 162.706H375.022V156.824H380.904V162.706ZM386.786 162.706H380.904V156.824H386.786V162.706ZM392.669 162.706H386.786V156.824H392.669V162.706ZM398.551 162.706H392.669V156.824H398.551V162.706ZM404.433 162.706H398.551V156.824H404.433V162.706ZM410.316 162.706H404.433V156.824H410.316V162.706ZM410.316 156.824H404.433V150.941H410.316V156.824ZM404.433 156.824H398.551V150.941H404.433V156.824ZM398.551 156.824H392.669V150.941H398.551V156.824ZM392.669 156.824H386.786V150.941H392.669V156.824ZM386.786 156.824H380.904V150.941H386.786V156.824ZM380.904 156.824H375.022V150.941H380.904V156.824ZM427.963 180.353H433.845V186.235H427.963V180.353ZM427.963 186.235H433.845V192.118H427.963V186.235ZM427.963 192.118H433.845V198H427.963V192.118ZM422.08 192.118H427.963V198H422.08V192.118ZM416.198 192.118H422.08V198H416.198V192.118ZM380.904 162.706H386.786V168.588H380.904V162.706ZM451.515 109.765H457.398V115.647H451.515V109.765ZM457.398 109.765H463.28V115.647H457.398V109.765ZM463.28 109.765H469.162V115.647H463.28V109.765ZM451.515 121.529H457.398V127.412H451.515V121.529ZM451.515 115.647H457.398V121.529H451.515V115.647ZM463.28 192.118H469.162V198H463.28V192.118ZM457.398 192.118H463.28V198H457.398V192.118ZM451.515 186.235H457.398V192.118H451.515V186.235ZM451.515 180.353H457.398V186.235H451.515V180.353ZM451.515 192.118H457.398V198H451.515V192.118ZM480.927 109.765H486.809V115.647H480.927V109.765ZM469.162 109.765H475.045V115.647H469.162V109.765ZM492.692 109.765H498.574V115.647H492.692V109.765ZM498.574 115.647H504.456V121.529H498.574V115.647ZM492.692 115.647H498.574V121.529H492.692V115.647ZM492.692 121.529H498.574V127.412H492.692V121.529ZM504.456 121.529H510.339V127.412H504.456V121.529ZM498.574 121.529H504.456V127.412H498.574V121.529ZM492.692 127.412H498.574V133.294H492.692V127.412ZM486.809 127.412H492.692V133.294H486.809V127.412ZM498.574 127.412H504.456V133.294H498.574V127.412ZM504.456 127.412H510.339V133.294H504.456V127.412ZM510.339 133.294H516.221V139.176H510.339V133.294ZM510.339 139.176H516.221V145.059H510.339V139.176ZM510.339 145.059H516.221V150.941H510.339V145.059ZM510.339 150.941H516.221V156.824H510.339V150.941ZM510.339 156.824H516.221V162.706H510.339V156.824ZM510.339 162.706H516.221V168.588H510.339V162.706ZM510.339 168.588H516.221V174.471H510.339V168.588ZM510.339 174.471H516.221V180.353H510.339V174.471ZM504.456 174.471H510.339V180.353H504.456V174.471ZM504.456 180.353H510.339V186.235H504.456V180.353ZM504.456 186.235H510.339V192.118H504.456V186.235ZM498.574 186.235H504.456V192.118H498.574V186.235ZM492.692 186.235H498.574V192.118H492.692V186.235ZM492.692 174.471H498.574V180.353H492.692V174.471ZM492.692 180.353H498.574V186.235H492.692V180.353ZM498.574 180.353H504.456V186.235H498.574V180.353ZM498.574 174.471H504.456V180.353H498.574V174.471ZM498.574 168.588H504.456V174.471H498.574V168.588ZM492.692 168.588H498.574V174.471H492.692V168.588ZM492.692 162.706H498.574V168.588H492.692V162.706ZM492.692 156.824H498.574V162.706H492.692V156.824ZM492.692 150.941H498.574V156.824H492.692V150.941ZM492.692 145.059H498.574V150.941H492.692V145.059ZM492.692 139.176H498.574V145.059H492.692V139.176ZM492.692 133.294H498.574V139.176H492.692V133.294ZM498.574 133.294H504.456V139.176H498.574V133.294ZM498.574 139.176H504.456V145.059H498.574V139.176ZM498.574 145.059H504.456V150.941H498.574V145.059ZM498.574 150.941H504.456V156.824H498.574V150.941ZM498.574 156.824H504.456V162.706H498.574V156.824ZM498.574 162.706H504.456V168.588H498.574V162.706ZM504.456 168.588H510.339V174.471H504.456V168.588ZM504.456 162.706H510.339V168.588H504.456V162.706ZM504.456 156.824H510.339V162.706H504.456V156.824ZM504.456 150.941H510.339V156.824H504.456V150.941ZM504.456 145.059H510.339V150.941H504.456V145.059ZM504.456 139.176H510.339V145.059H504.456V139.176ZM504.456 133.294H510.339V139.176H504.456V133.294ZM492.692 192.118H498.574V198H492.692V192.118ZM469.162 192.118H475.045V198H469.162V192.118ZM469.162 186.235H475.045V192.118H469.162V186.235ZM463.28 186.235H469.162V192.118H463.28V186.235ZM457.398 186.235H463.28V192.118H457.398V186.235ZM457.398 139.176H463.28V145.059H457.398V139.176ZM457.398 133.294H463.28V139.176H457.398V133.294ZM451.515 127.412H457.398V133.294H451.515V127.412ZM457.398 121.529H463.28V127.412H457.398V121.529ZM463.28 115.647H469.162V121.529H463.28V115.647ZM469.162 115.647H475.045V121.529H469.162V115.647ZM475.045 115.647H480.927V121.529H475.045V115.647ZM475.045 121.529H480.927V127.412H475.045V121.529ZM475.045 127.412H480.927V133.294H475.045V127.412ZM469.162 127.412H475.045V133.294H469.162V127.412ZM463.28 127.412H469.162V133.294H463.28V127.412ZM469.162 133.294H475.045V139.176H469.162V133.294ZM469.162 139.176H475.045V145.059H469.162V139.176ZM469.162 145.059H475.045V150.941H469.162V145.059ZM469.162 180.353H475.045V186.235H469.162V180.353ZM463.28 180.353H469.162V186.235H463.28V180.353ZM463.28 139.176H469.162V145.059H463.28V139.176ZM463.28 133.294H469.162V139.176H463.28V133.294ZM463.28 121.529H469.162V127.412H463.28V121.529ZM469.162 121.529H475.045V127.412H469.162V121.529ZM480.927 115.647H486.809V121.529H480.927V115.647ZM486.809 115.647H492.692V121.529H486.809V115.647ZM486.809 121.529H492.692V127.412H486.809V121.529ZM480.927 121.529H486.809V127.412H480.927V121.529ZM457.398 115.647H463.28V121.529H457.398V115.647ZM457.398 180.353H463.28V186.235H457.398V180.353ZM457.398 127.412H463.28V133.294H457.398V127.412ZM451.515 133.294H457.398V139.176H451.515V133.294ZM451.515 139.176H457.398V145.059H451.515V139.176ZM451.515 174.471H457.398V180.353H451.515V174.471ZM457.398 174.471H463.28V180.353H457.398V174.471ZM463.28 174.471H469.162V180.353H463.28V174.471ZM469.162 174.471H475.045V180.353H469.162V174.471ZM463.28 145.059H469.162V150.941H463.28V145.059ZM457.398 145.059H463.28V150.941H457.398V145.059ZM451.515 145.059H457.398V150.941H451.515V145.059ZM451.515 150.941H457.398V156.824H451.515V150.941ZM451.515 156.824H457.398V162.706H451.515V156.824ZM451.515 162.706H457.398V168.588H451.515V162.706ZM457.398 162.706H463.28V168.588H457.398V162.706ZM457.398 168.588H463.28V174.471H457.398V168.588ZM463.28 168.588H469.162V174.471H463.28V168.588ZM451.515 168.588H457.398V174.471H451.515V168.588ZM469.162 168.588H475.045V174.471H469.162V168.588ZM469.162 162.706H475.045V168.588H469.162V162.706ZM469.162 156.824H475.045V162.706H469.162V156.824ZM469.162 150.941H475.045V156.824H469.162V150.941ZM463.28 150.941H469.162V156.824H463.28V150.941ZM457.398 150.941H463.28V156.824H457.398V150.941ZM457.398 156.824H463.28V162.706H457.398V156.824ZM463.28 162.706H469.162V168.588H463.28V162.706ZM463.28 156.824H469.162V162.706H463.28V156.824ZM498.574 192.118H504.456V198H498.574V192.118ZM504.456 192.118H510.339V198H504.456V192.118ZM510.339 192.118H516.221V198H510.339V192.118ZM510.339 186.235H516.221V192.118H510.339V186.235ZM510.339 180.353H516.221V186.235H510.339V180.353ZM516.221 109.765H522.103V115.647H516.221V109.765ZM522.103 109.765H527.986V115.647H522.103V109.765ZM527.986 109.765H533.868V115.647H527.986V109.765ZM533.868 109.765H539.75V115.647H533.868V109.765ZM539.75 115.647H545.633V121.529H539.75V115.647ZM533.868 115.647H539.75V121.529H533.868V115.647ZM533.868 121.529H539.75V127.412H533.868V121.529ZM545.633 115.647H551.515V121.529H545.633V115.647ZM545.633 121.529H551.515V127.412H545.633V121.529ZM539.75 121.529H545.633V127.412H539.75V121.529ZM533.868 127.412H539.75V133.294H533.868V127.412ZM527.986 127.412H533.868V133.294H527.986V127.412ZM539.75 127.412H545.633V133.294H539.75V127.412ZM545.633 127.412H551.515V133.294H545.633V127.412ZM551.515 127.412H557.398V133.294H551.515V127.412ZM551.515 133.294H557.398V139.176H551.515V133.294ZM551.515 139.176H557.398V145.059H551.515V139.176ZM551.515 145.059H557.398V150.941H551.515V145.059ZM551.515 150.941H557.398V156.824H551.515V150.941ZM551.515 156.824H557.398V162.706H551.515V156.824ZM551.515 162.706H557.398V168.588H551.515V162.706ZM551.515 168.588H557.398V174.471H551.515V168.588ZM551.515 174.471H557.398V180.353H551.515V174.471ZM545.633 174.471H551.515V180.353H545.633V174.471ZM545.633 180.353H551.515V186.235H545.633V180.353ZM545.633 186.235H551.515V192.118H545.633V186.235ZM539.75 186.235H545.633V192.118H539.75V186.235ZM533.868 186.235H539.75V192.118H533.868V186.235ZM533.868 174.471H539.75V180.353H533.868V174.471ZM533.868 180.353H539.75V186.235H533.868V180.353ZM539.75 180.353H545.633V186.235H539.75V180.353ZM539.75 174.471H545.633V180.353H539.75V174.471ZM539.75 168.588H545.633V174.471H539.75V168.588ZM533.868 168.588H539.75V174.471H533.868V168.588ZM533.868 162.706H539.75V168.588H533.868V162.706ZM533.868 156.824H539.75V162.706H533.868V156.824ZM533.868 150.941H539.75V156.824H533.868V150.941ZM533.868 145.059H539.75V150.941H533.868V145.059ZM533.868 139.176H539.75V145.059H533.868V139.176ZM533.868 133.294H539.75V139.176H533.868V133.294ZM539.75 133.294H545.633V139.176H539.75V133.294ZM539.75 139.176H545.633V145.059H539.75V139.176ZM539.75 145.059H545.633V150.941H539.75V145.059ZM539.75 150.941H545.633V156.824H539.75V150.941ZM539.75 156.824H545.633V162.706H539.75V156.824ZM539.75 162.706H545.633V168.588H539.75V162.706ZM545.633 168.588H551.515V174.471H545.633V168.588ZM545.633 162.706H551.515V168.588H545.633V162.706ZM545.633 156.824H551.515V162.706H545.633V156.824ZM545.633 150.941H551.515V156.824H545.633V150.941ZM545.633 145.059H551.515V150.941H545.633V145.059ZM545.633 139.176H551.515V145.059H545.633V139.176ZM545.633 133.294H551.515V139.176H545.633V133.294ZM533.868 192.118H539.75V198H533.868V192.118ZM510.339 115.647H516.221V121.529H510.339V115.647ZM510.339 121.529H516.221V127.412H510.339V121.529ZM510.339 127.412H516.221V133.294H510.339V127.412ZM516.221 115.647H522.103V121.529H516.221V115.647ZM522.103 115.647H527.986V121.529H522.103V115.647ZM527.986 115.647H533.868V121.529H527.986V115.647ZM527.986 121.529H533.868V127.412H527.986V121.529ZM522.103 121.529H527.986V127.412H522.103V121.529ZM516.221 121.529H522.103V127.412H516.221V121.529ZM539.75 192.118H545.633V198H539.75V192.118ZM545.633 192.118H551.515V198H545.633V192.118ZM551.515 192.118H557.398V198H551.515V192.118ZM551.515 186.235H557.398V192.118H551.515V186.235ZM551.515 180.353H557.398V186.235H551.515V180.353ZM486.809 109.765H492.692V115.647H486.809V109.765ZM516.221 127.412H522.103V133.294H516.221V127.412ZM598.482 109.765H604.364V115.647H598.482V109.765ZM604.364 109.765H610.247V115.647H604.364V109.765ZM592.6 109.765H598.482V115.647H592.6V109.765ZM610.247 109.765H616.129V115.647H610.247V109.765ZM616.129 109.765H622.011V115.647H616.129V109.765ZM622.011 109.765H627.894V115.647H622.011V109.765ZM627.894 109.765H633.776V115.647H627.894V109.765ZM633.776 115.647H639.659V121.529H633.776V115.647ZM627.894 115.647H633.776V121.529H627.894V115.647ZM627.894 121.529H633.776V127.412H627.894V121.529ZM639.659 115.647H645.541V121.529H639.659V115.647ZM639.659 121.529H645.541V127.412H639.659V121.529ZM633.776 121.529H639.659V127.412H633.776V121.529ZM627.894 127.412H633.776V133.294H627.894V127.412ZM622.011 127.412H627.894V133.294H622.011V127.412ZM633.776 127.412H639.659V133.294H633.776V127.412ZM639.659 127.412H645.541V133.294H639.659V127.412ZM645.541 127.412H651.423V133.294H645.541V127.412ZM645.541 133.294H651.423V139.176H645.541V133.294ZM645.541 139.176H651.423V145.059H645.541V139.176ZM645.541 145.059H651.423V150.941H645.541V145.059ZM645.541 150.941H651.423V156.824H645.541V150.941ZM645.541 156.824H651.423V162.706H645.541V156.824ZM645.541 162.706H651.423V168.588H645.541V162.706ZM645.541 168.588H651.423V174.471H645.541V168.588ZM645.541 174.471H651.423V180.353H645.541V174.471ZM639.659 174.471H645.541V180.353H639.659V174.471ZM639.659 180.353H645.541V186.235H639.659V180.353ZM639.659 186.235H645.541V192.118H639.659V186.235ZM633.776 186.235H639.659V192.118H633.776V186.235ZM627.894 186.235H633.776V192.118H627.894V186.235ZM622.011 180.353H627.894V186.235H622.011V180.353ZM622.011 174.471H627.894V180.353H622.011V174.471ZM627.894 174.471H633.776V180.353H627.894V174.471ZM627.894 180.353H633.776V186.235H627.894V180.353ZM633.776 180.353H639.659V186.235H633.776V180.353ZM633.776 174.471H639.659V180.353H633.776V174.471ZM633.776 168.588H639.659V174.471H633.776V168.588ZM627.894 168.588H633.776V174.471H627.894V168.588ZM627.894 162.706H633.776V168.588H627.894V162.706ZM627.894 156.824H633.776V162.706H627.894V156.824ZM627.894 150.941H633.776V156.824H627.894V150.941ZM627.894 145.059H633.776V150.941H627.894V145.059ZM627.894 139.176H633.776V145.059H627.894V139.176ZM627.894 133.294H633.776V139.176H627.894V133.294ZM633.776 133.294H639.659V139.176H633.776V133.294ZM633.776 139.176H639.659V145.059H633.776V139.176ZM633.776 145.059H639.659V150.941H633.776V145.059ZM633.776 150.941H639.659V156.824H633.776V150.941ZM633.776 156.824H639.659V162.706H633.776V156.824ZM633.776 162.706H639.659V168.588H633.776V162.706ZM639.659 168.588H645.541V174.471H639.659V168.588ZM639.659 162.706H645.541V168.588H639.659V162.706ZM639.659 156.824H645.541V162.706H639.659V156.824ZM639.659 150.941H645.541V156.824H639.659V150.941ZM639.659 145.059H645.541V150.941H639.659V145.059ZM639.659 139.176H645.541V145.059H639.659V139.176ZM639.659 133.294H645.541V139.176H639.659V133.294ZM622.011 186.235H627.894V192.118H622.011V186.235ZM622.011 192.118H627.894V198H622.011V192.118ZM627.894 192.118H633.776V198H627.894V192.118ZM616.129 192.118H622.011V198H616.129V192.118ZM610.247 192.118H616.129V198H610.247V192.118ZM604.364 192.118H610.247V198H604.364V192.118ZM598.482 192.118H604.364V198H598.482V192.118ZM592.6 192.118H598.482V198H592.6V192.118ZM592.6 186.235H598.482V192.118H592.6V186.235ZM586.717 186.235H592.6V192.118H586.717V186.235ZM580.835 186.235H586.717V192.118H580.835V186.235ZM580.835 180.353H586.717V186.235H580.835V180.353ZM574.953 174.471H580.835V180.353H574.953V174.471ZM580.835 174.471H586.717V180.353H580.835V174.471ZM574.953 168.588H580.835V174.471H574.953V168.588ZM574.953 162.706H580.835V168.588H574.953V162.706ZM574.953 156.824H580.835V162.706H574.953V156.824ZM574.953 150.941H580.835V156.824H574.953V150.941ZM574.953 145.059H580.835V150.941H574.953V145.059ZM574.953 139.176H580.835V145.059H574.953V139.176ZM580.835 139.176H586.717V145.059H580.835V139.176ZM580.835 133.294H586.717V139.176H580.835V133.294ZM574.953 133.294H580.835V139.176H574.953V133.294ZM574.953 127.412H580.835V133.294H574.953V127.412ZM580.835 127.412H586.717V133.294H580.835V127.412ZM580.835 121.529H586.717V127.412H580.835V121.529ZM580.835 115.647H586.717V121.529H580.835V115.647ZM586.717 115.647H592.6V121.529H586.717V115.647ZM592.6 115.647H598.482V121.529H592.6V115.647ZM598.482 115.647H604.364V121.529H598.482V115.647ZM598.482 121.529H604.364V127.412H598.482V121.529ZM598.482 127.412H604.364V133.294H598.482V127.412ZM592.6 127.412H598.482V133.294H592.6V127.412ZM586.717 127.412H592.6V133.294H586.717V127.412ZM592.6 133.294H598.482V139.176H592.6V133.294ZM592.6 139.176H598.482V145.059H592.6V139.176ZM592.6 145.059H598.482V150.941H592.6V145.059ZM592.6 150.941H598.482V156.824H592.6V150.941ZM592.6 156.824H598.482V162.706H592.6V156.824ZM592.6 162.706H598.482V168.588H592.6V162.706ZM592.6 168.588H598.482V174.471H592.6V168.588ZM592.6 174.471H598.482V180.353H592.6V174.471ZM598.482 174.471H604.364V180.353H598.482V174.471ZM598.482 180.353H604.364V186.235H598.482V180.353ZM604.364 180.353H610.247V186.235H604.364V180.353ZM610.247 180.353H616.129V186.235H610.247V180.353ZM616.129 180.353H622.011V186.235H616.129V180.353ZM616.129 186.235H622.011V192.118H616.129V186.235ZM610.247 186.235H616.129V192.118H610.247V186.235ZM604.364 186.235H610.247V192.118H604.364V186.235ZM598.482 186.235H604.364V192.118H598.482V186.235ZM592.6 180.353H598.482V186.235H592.6V180.353ZM586.717 180.353H592.6V186.235H586.717V180.353ZM586.717 174.471H592.6V180.353H586.717V174.471ZM586.717 168.588H592.6V174.471H586.717V168.588ZM586.717 162.706H592.6V168.588H586.717V162.706ZM580.835 162.706H586.717V168.588H580.835V162.706ZM580.835 168.588H586.717V174.471H580.835V168.588ZM580.835 156.824H586.717V162.706H580.835V156.824ZM580.835 150.941H586.717V156.824H580.835V150.941ZM580.835 145.059H586.717V150.941H580.835V145.059ZM586.717 145.059H592.6V150.941H586.717V145.059ZM586.717 150.941H592.6V156.824H586.717V150.941ZM586.717 156.824H592.6V162.706H586.717V156.824ZM586.717 139.176H592.6V145.059H586.717V139.176ZM586.717 133.294H592.6V139.176H586.717V133.294ZM586.717 121.529H592.6V127.412H586.717V121.529ZM592.6 121.529H598.482V127.412H592.6V121.529ZM604.364 115.647H610.247V121.529H604.364V115.647ZM610.247 115.647H616.129V121.529H610.247V115.647ZM616.129 115.647H622.011V121.529H616.129V115.647ZM622.011 115.647H627.894V121.529H622.011V115.647ZM622.011 121.529H627.894V127.412H622.011V121.529ZM616.129 121.529H622.011V127.412H616.129V121.529ZM610.247 121.529H616.129V127.412H610.247V121.529ZM604.364 121.529H610.247V127.412H604.364V121.529ZM669.093 109.765H674.976V115.647H669.093V109.765ZM674.976 109.765H680.858V115.647H674.976V109.765ZM680.858 109.765H686.74V115.647H680.858V109.765ZM669.093 121.529H674.976V127.412H669.093V121.529ZM669.093 115.647H674.976V121.529H669.093V115.647ZM680.858 192.118H686.74V198H680.858V192.118ZM674.976 192.118H680.858V198H674.976V192.118ZM669.093 186.235H674.976V192.118H669.093V186.235ZM669.093 180.353H674.976V186.235H669.093V180.353ZM669.093 192.118H674.976V198H669.093V192.118ZM698.505 109.765H704.387V115.647H698.505V109.765ZM686.74 109.765H692.623V115.647H686.74V109.765ZM704.387 109.765H710.27V115.647H704.387V109.765ZM710.27 109.765H716.152V115.647H710.27V109.765ZM716.152 109.765H722.034V115.647H716.152V109.765ZM722.034 109.765H727.917V115.647H722.034V109.765ZM727.917 115.647H733.799V121.529H727.917V115.647ZM722.034 115.647H727.917V121.529H722.034V115.647ZM722.034 121.529H727.917V127.412H722.034V121.529ZM733.799 115.647H739.682V121.529H733.799V115.647ZM733.799 121.529H739.682V127.412H733.799V121.529ZM727.917 121.529H733.799V127.412H727.917V121.529ZM722.034 127.412H727.917V133.294H722.034V127.412ZM716.152 127.412H722.034V133.294H716.152V127.412ZM727.917 127.412H733.799V133.294H727.917V127.412ZM733.799 127.412H739.682V133.294H733.799V127.412ZM739.682 127.412H745.564V133.294H739.682V127.412ZM739.682 133.294H745.564V139.176H739.682V133.294ZM739.682 139.176H745.564V145.059H739.682V139.176ZM739.682 145.059H745.564V150.941H739.682V145.059ZM739.682 150.941H745.564V156.824H739.682V150.941ZM739.682 156.824H745.564V162.706H739.682V156.824ZM739.682 162.706H745.564V168.588H739.682V162.706ZM739.682 168.588H745.564V174.471H739.682V168.588ZM739.682 174.471H745.564V180.353H739.682V174.471ZM733.799 174.471H739.682V180.353H733.799V174.471ZM733.799 180.353H739.682V186.235H733.799V180.353ZM733.799 186.235H739.682V192.118H733.799V186.235ZM727.917 186.235H733.799V192.118H727.917V186.235ZM722.034 186.235H727.917V192.118H722.034V186.235ZM722.034 174.471H727.917V180.353H722.034V174.471ZM722.034 180.353H727.917V186.235H722.034V180.353ZM727.917 180.353H733.799V186.235H727.917V180.353ZM727.917 174.471H733.799V180.353H727.917V174.471ZM727.917 168.588H733.799V174.471H727.917V168.588ZM722.034 168.588H727.917V174.471H722.034V168.588ZM722.034 162.706H727.917V168.588H722.034V162.706ZM722.034 156.824H727.917V162.706H722.034V156.824ZM722.034 150.941H727.917V156.824H722.034V150.941ZM722.034 145.059H727.917V150.941H722.034V145.059ZM722.034 139.176H727.917V145.059H722.034V139.176ZM722.034 133.294H727.917V139.176H722.034V133.294ZM727.917 133.294H733.799V139.176H727.917V133.294ZM727.917 139.176H733.799V145.059H727.917V139.176ZM727.917 145.059H733.799V150.941H727.917V145.059ZM727.917 150.941H733.799V156.824H727.917V150.941ZM727.917 156.824H733.799V162.706H727.917V156.824ZM727.917 162.706H733.799V168.588H727.917V162.706ZM733.799 168.588H739.682V174.471H733.799V168.588ZM733.799 162.706H739.682V168.588H733.799V162.706ZM733.799 156.824H739.682V162.706H733.799V156.824ZM733.799 150.941H739.682V156.824H733.799V150.941ZM733.799 145.059H739.682V150.941H733.799V145.059ZM733.799 139.176H739.682V145.059H733.799V139.176ZM733.799 133.294H739.682V139.176H733.799V133.294ZM722.034 192.118H727.917V198H722.034V192.118ZM686.74 192.118H692.623V198H686.74V192.118ZM686.74 186.235H692.623V192.118H686.74V186.235ZM680.858 186.235H686.74V192.118H680.858V186.235ZM674.976 186.235H680.858V192.118H674.976V186.235ZM674.976 139.176H680.858V145.059H674.976V139.176ZM674.976 133.294H680.858V139.176H674.976V133.294ZM669.093 127.412H674.976V133.294H669.093V127.412ZM674.976 121.529H680.858V127.412H674.976V121.529ZM680.858 115.647H686.74V121.529H680.858V115.647ZM686.74 115.647H692.623V121.529H686.74V115.647ZM692.623 115.647H698.505V121.529H692.623V115.647ZM692.623 121.529H698.505V127.412H692.623V121.529ZM692.623 127.412H698.505V133.294H692.623V127.412ZM686.74 127.412H692.623V133.294H686.74V127.412ZM680.858 127.412H686.74V133.294H680.858V127.412ZM686.74 133.294H692.623V139.176H686.74V133.294ZM686.74 139.176H692.623V145.059H686.74V139.176ZM686.74 145.059H692.623V150.941H686.74V145.059ZM686.74 180.353H692.623V186.235H686.74V180.353ZM680.858 180.353H686.74V186.235H680.858V180.353ZM680.858 139.176H686.74V145.059H680.858V139.176ZM680.858 133.294H686.74V139.176H680.858V133.294ZM680.858 121.529H686.74V127.412H680.858V121.529ZM686.74 121.529H692.623V127.412H686.74V121.529ZM698.505 115.647H704.387V121.529H698.505V115.647ZM704.387 115.647H710.27V121.529H704.387V115.647ZM710.27 115.647H716.152V121.529H710.27V115.647ZM716.152 115.647H722.034V121.529H716.152V115.647ZM716.152 121.529H722.034V127.412H716.152V121.529ZM710.27 121.529H716.152V127.412H710.27V121.529ZM704.387 121.529H710.27V127.412H704.387V121.529ZM698.505 121.529H704.387V127.412H698.505V121.529ZM674.976 115.647H680.858V121.529H674.976V115.647ZM674.976 180.353H680.858V186.235H674.976V180.353ZM674.976 127.412H680.858V133.294H674.976V127.412ZM669.093 133.294H674.976V139.176H669.093V133.294ZM669.093 139.176H674.976V145.059H669.093V139.176ZM669.093 174.471H674.976V180.353H669.093V174.471ZM674.976 174.471H680.858V180.353H674.976V174.471ZM680.858 174.471H686.74V180.353H680.858V174.471ZM686.74 174.471H692.623V180.353H686.74V174.471ZM680.858 145.059H686.74V150.941H680.858V145.059ZM674.976 145.059H680.858V150.941H674.976V145.059ZM669.093 145.059H674.976V150.941H669.093V145.059ZM669.093 150.941H674.976V156.824H669.093V150.941ZM669.093 156.824H674.976V162.706H669.093V156.824ZM669.093 162.706H674.976V168.588H669.093V162.706ZM674.976 162.706H680.858V168.588H674.976V162.706ZM674.976 168.588H680.858V174.471H674.976V168.588ZM680.858 168.588H686.74V174.471H680.858V168.588ZM669.093 168.588H674.976V174.471H669.093V168.588ZM686.74 168.588H692.623V174.471H686.74V168.588ZM686.74 162.706H692.623V168.588H686.74V162.706ZM686.74 156.824H692.623V162.706H686.74V156.824ZM686.74 150.941H692.623V156.824H686.74V150.941ZM680.858 150.941H686.74V156.824H680.858V150.941ZM674.976 150.941H680.858V156.824H674.976V150.941ZM674.976 156.824H680.858V162.706H674.976V156.824ZM680.858 162.706H686.74V168.588H680.858V162.706ZM680.858 156.824H686.74V162.706H680.858V156.824ZM727.917 192.118H733.799V198H727.917V192.118ZM733.799 192.118H739.682V198H733.799V192.118ZM739.682 192.118H745.564V198H739.682V192.118ZM739.682 186.235H745.564V192.118H739.682V186.235ZM739.682 180.353H745.564V186.235H739.682V180.353ZM839.704 80.3529V86.2353H833.822V80.3529H839.704ZM833.822 80.3529V86.2353H827.94V80.3529H833.822ZM827.94 80.3529V86.2353H822.057V80.3529H827.94ZM822.057 80.3529V86.2353H816.175V80.3529H822.057ZM822.057 86.2353V92.1177H816.175V86.2353H822.057ZM822.057 92.1177V98H816.175V92.1177H822.057ZM827.94 92.1177V98H822.057V92.1177H827.94ZM833.822 92.1177V98H827.94V92.1177H833.822ZM833.822 86.2353V92.1177H827.94V86.2353H833.822ZM839.704 86.2353V92.1177H833.822V86.2353H839.704ZM827.94 86.2353V92.1177H822.057V86.2353H827.94ZM839.704 92.1177V98H833.822V92.1177H839.704ZM839.704 98V103.882H833.822V98H839.704ZM839.704 103.882V109.765H833.822V103.882H839.704ZM833.822 103.882V109.765H827.94V103.882H833.822ZM827.94 103.882V109.765H822.057V103.882H827.94ZM822.057 103.882V109.765H816.175V103.882H822.057ZM822.057 98V103.882H816.175V98H822.057ZM827.94 98V103.882H822.057V98H827.94ZM833.822 98V103.882H827.94V98H833.822ZM839.704 109.765V115.647H833.822V109.765H839.704ZM833.822 109.765V115.647H827.94V109.765H833.822ZM827.94 109.765V115.647H822.057V109.765H827.94ZM839.704 121.529V127.412H833.822V121.529H839.704ZM839.704 115.647V121.529H833.822V115.647H839.704ZM827.94 192.118V198H822.057V192.118H827.94ZM833.822 192.118V198H827.94V192.118H833.822ZM839.704 186.235V192.118H833.822V186.235H839.704ZM839.704 180.353V186.235H833.822V180.353H839.704ZM839.704 192.118V198H833.822V192.118H839.704ZM810.293 109.765V115.647H804.41V109.765H810.293ZM822.057 109.765V115.647H816.175V109.765H822.057ZM804.41 109.765V115.647H798.528V109.765H804.41ZM798.528 109.765V115.647H792.646V109.765H798.528ZM792.646 109.765V115.647H786.763V109.765H792.646ZM786.763 109.765V115.647H780.881V109.765H786.763ZM780.881 115.647V121.529H774.999V115.647H780.881ZM786.763 115.647V121.529H780.881V115.647H786.763ZM786.763 121.529V127.412H780.881V121.529H786.763ZM774.999 115.647V121.529H769.116V115.647H774.999ZM774.999 121.529V127.412H769.116V121.529H774.999ZM780.881 121.529V127.412H774.999V121.529H780.881ZM786.763 127.412V133.294H780.881V127.412H786.763ZM792.646 127.412V133.294H786.763V127.412H792.646ZM780.881 127.412V133.294H774.999V127.412H780.881ZM774.999 127.412V133.294H769.116V127.412H774.999ZM769.116 127.412V133.294H763.234V127.412H769.116ZM769.116 133.294V139.176H763.234V133.294H769.116ZM769.116 139.176V145.059H763.234V139.176H769.116ZM769.116 145.059V150.941H763.234V145.059H769.116ZM769.116 150.941V156.824H763.234V150.941H769.116ZM769.116 156.824V162.706H763.234V156.824H769.116ZM769.116 162.706V168.588H763.234V162.706H769.116ZM769.116 168.588V174.471H763.234V168.588H769.116ZM769.116 174.471V180.353H763.234V174.471H769.116ZM774.999 174.471V180.353H769.116V174.471H774.999ZM774.999 180.353V186.235H769.116V180.353H774.999ZM774.999 186.235V192.118H769.116V186.235H774.999ZM780.881 186.235V192.118H774.999V186.235H780.881ZM786.763 186.235V192.118H780.881V186.235H786.763ZM792.646 180.353V186.235H786.763V180.353H792.646ZM792.646 174.471V180.353H786.763V174.471H792.646ZM786.763 174.471V180.353H780.881V174.471H786.763ZM786.763 180.353V186.235H780.881V180.353H786.763ZM780.881 180.353V186.235H774.999V180.353H780.881ZM780.881 174.471V180.353H774.999V174.471H780.881ZM780.881 168.588V174.471H774.999V168.588H780.881ZM786.763 168.588V174.471H780.881V168.588H786.763ZM786.763 162.706V168.588H780.881V162.706H786.763ZM786.763 156.824V162.706H780.881V156.824H786.763ZM786.763 150.941V156.824H780.881V150.941H786.763ZM786.763 145.059V150.941H780.881V145.059H786.763ZM786.763 139.176V145.059H780.881V139.176H786.763ZM786.763 133.294V139.176H780.881V133.294H786.763ZM780.881 133.294V139.176H774.999V133.294H780.881ZM780.881 139.176V145.059H774.999V139.176H780.881ZM780.881 145.059V150.941H774.999V145.059H780.881ZM780.881 150.941V156.824H774.999V150.941H780.881ZM780.881 156.824V162.706H774.999V156.824H780.881ZM780.881 162.706V168.588H774.999V162.706H780.881ZM774.999 168.588V174.471H769.116V168.588H774.999ZM774.999 162.706V168.588H769.116V162.706H774.999ZM774.999 156.824V162.706H769.116V156.824H774.999ZM774.999 150.941V156.824H769.116V150.941H774.999ZM774.999 145.059V150.941H769.116V145.059H774.999ZM774.999 139.176V145.059H769.116V139.176H774.999ZM774.999 133.294V139.176H769.116V133.294H774.999ZM792.646 186.235V192.118H786.763V186.235H792.646ZM792.646 192.118V198H786.763V192.118H792.646ZM786.763 192.118V198H780.881V192.118H786.763ZM798.528 192.118V198H792.646V192.118H798.528ZM804.41 192.118V198H798.528V192.118H804.41ZM810.293 192.118V198H804.41V192.118H810.293ZM822.057 192.118V198H816.175V192.118H822.057ZM822.057 186.235V192.118H816.175V186.235H822.057ZM827.94 186.235V192.118H822.057V186.235H827.94ZM833.822 186.235V192.118H827.94V186.235H833.822ZM833.822 139.176V145.059H827.94V139.176H833.822ZM833.822 133.294V139.176H827.94V133.294H833.822ZM839.704 127.412V133.294H833.822V127.412H839.704ZM833.822 121.529V127.412H827.94V121.529H833.822ZM827.94 115.647V121.529H822.057V115.647H827.94ZM822.057 115.647V121.529H816.175V115.647H822.057ZM816.175 115.647V121.529H810.293V115.647H816.175ZM816.175 121.529V127.412H810.293V121.529H816.175ZM822.057 127.412V133.294H816.175V127.412H822.057ZM827.94 127.412V133.294H822.057V127.412H827.94ZM822.057 133.294V139.176H816.175V133.294H822.057ZM822.057 139.176V145.059H816.175V139.176H822.057ZM822.057 145.059V150.941H816.175V145.059H822.057ZM810.293 180.353V186.235H804.41V180.353H810.293ZM804.41 180.353V186.235H798.528V180.353H804.41ZM798.528 180.353V186.235H792.646V180.353H798.528ZM798.528 186.235V192.118H792.646V186.235H798.528ZM804.41 186.235V192.118H798.528V186.235H804.41ZM810.293 186.235V192.118H804.41V186.235H810.293ZM816.175 186.235V192.118H810.293V186.235H816.175ZM822.057 180.353V186.235H816.175V180.353H822.057ZM827.94 180.353V186.235H822.057V180.353H827.94ZM827.94 139.176V145.059H822.057V139.176H827.94ZM827.94 133.294V139.176H822.057V133.294H827.94ZM827.94 121.529V127.412H822.057V121.529H827.94ZM822.057 121.529V127.412H816.175V121.529H822.057ZM810.293 115.647V121.529H804.41V115.647H810.293ZM804.41 115.647V121.529H798.528V115.647H804.41ZM798.528 115.647V121.529H792.646V115.647H798.528ZM792.646 115.647V121.529H786.763V115.647H792.646ZM792.646 121.529V127.412H786.763V121.529H792.646ZM798.528 121.529V127.412H792.646V121.529H798.528ZM804.41 121.529V127.412H798.528V121.529H804.41ZM810.293 121.529V127.412H804.41V121.529H810.293ZM833.822 115.647V121.529H827.94V115.647H833.822ZM833.822 180.353V186.235H827.94V180.353H833.822ZM833.822 127.412V133.294H827.94V127.412H833.822ZM839.704 133.294V139.176H833.822V133.294H839.704ZM839.704 139.176V145.059H833.822V139.176H839.704ZM839.704 174.471V180.353H833.822V174.471H839.704ZM833.822 174.471V180.353H827.94V174.471H833.822ZM827.94 174.471V180.353H822.057V174.471H827.94ZM822.057 174.471V180.353H816.175V174.471H822.057ZM827.94 145.059V150.941H822.057V145.059H827.94ZM833.822 145.059V150.941H827.94V145.059H833.822ZM839.704 145.059V150.941H833.822V145.059H839.704ZM839.704 150.941V156.824H833.822V150.941H839.704ZM839.704 156.824V162.706H833.822V156.824H839.704ZM839.704 162.706V168.588H833.822V162.706H839.704ZM833.822 162.706V168.588H827.94V162.706H833.822ZM833.822 168.588V174.471H827.94V168.588H833.822ZM827.94 168.588V174.471H822.057V168.588H827.94ZM839.704 168.588V174.471H833.822V168.588H839.704ZM822.057 168.588V174.471H816.175V168.588H822.057ZM822.057 162.706V168.588H816.175V162.706H822.057ZM822.057 156.824V162.706H816.175V156.824H822.057ZM822.057 150.941V156.824H816.175V150.941H822.057ZM827.94 150.941V156.824H822.057V150.941H827.94ZM833.822 150.941V156.824H827.94V150.941H833.822ZM833.822 156.824V162.706H827.94V156.824H833.822ZM827.94 162.706V168.588H822.057V162.706H827.94ZM827.94 156.824V162.706H822.057V156.824H827.94ZM810.293 109.765H816.175V115.647H810.293V109.765ZM810.293 180.353H816.175V186.235H810.293V180.353ZM810.293 174.471H816.175V180.353H810.293V174.471ZM863.257 174.471H869.139V180.353H863.257V174.471ZM869.139 174.471H875.022V180.353H869.139V174.471ZM875.022 174.471H880.904V180.353H875.022V174.471ZM875.022 180.353H880.904V186.235H875.022V180.353ZM875.022 186.235H880.904V192.118H875.022V186.235ZM875.022 192.118H880.904V198H875.022V192.118ZM869.139 192.118H875.022V198H869.139V192.118ZM863.257 192.118H869.139V198H863.257V192.118ZM857.375 192.118H863.257V198H857.375V192.118ZM857.375 186.235H863.257V192.118H857.375V186.235ZM857.375 180.353H863.257V186.235H857.375V180.353ZM857.375 174.471H863.257V180.353H857.375V174.471ZM863.257 180.353H869.139V186.235H863.257V180.353ZM869.139 180.353H875.022V186.235H869.139V180.353ZM863.257 186.235H869.139V192.118H863.257V186.235ZM869.139 186.235H875.022V192.118H869.139V186.235Z" fill="white"/>
</svg>
