<svg width="2374" height="680" viewBox="0 0 2374 680" fill="none" xmlns="http://www.w3.org/2000/svg">
<rect width="2374" height="680" fill="#112656"/>
<path d="M304.176 339.941H318.882V354.647H304.176V339.941ZM304.176 325.235H318.882V339.941H304.176V325.235ZM304.176 310.529H318.882V325.235H304.176V310.529ZM304.176 295.824H318.882V310.529H304.176V295.824ZM304.176 281.118H318.882V295.824H304.176V281.118ZM304.176 266.412H318.882V281.118H304.176V266.412ZM304.176 251.706H318.882V266.412H304.176V251.706ZM304.176 237H318.882V251.706H304.176V237ZM289.471 237H304.176V251.706H289.471V237ZM289.471 222.294H304.176V237H289.471V222.294ZM289.471 207.588H304.176V222.294H289.471V207.588ZM274.765 207.588H289.471V222.294H274.765V207.588ZM274.765 222.294H289.471V237H274.765V222.294ZM274.765 237H289.471V251.706H274.765V237ZM274.765 251.706H289.471V266.412H274.765V251.706ZM274.765 266.412H289.471V281.118H274.765V266.412ZM274.765 281.118H289.471V295.824H274.765V281.118ZM274.765 295.824H289.471V310.529H274.765V295.824ZM274.765 310.529H289.471V325.235H274.765V310.529ZM274.765 325.235H289.471V339.941H274.765V325.235ZM274.765 339.941H289.471V354.647H274.765V339.941ZM274.765 354.647H289.471V369.353H274.765V354.647ZM274.765 369.353H289.471V384.059H274.765V369.353ZM289.471 369.353H304.176V384.059H289.471V369.353ZM289.471 354.647H304.176V369.353H289.471V354.647ZM289.471 339.941H304.176V354.647H289.471V339.941ZM289.471 325.235H304.176V339.941H289.471V325.235ZM289.471 310.529H304.176V325.235H289.471V310.529ZM289.471 295.824H304.176V310.529H289.471V295.824ZM289.471 281.118H304.176V295.824H289.471V281.118ZM289.471 266.412H304.176V281.118H289.471V266.412ZM289.471 251.706H304.176V266.412H289.471V251.706ZM260.059 251.706H274.765V266.412H260.059V251.706ZM245.353 251.706H260.059V266.412H245.353V251.706ZM260.059 237H274.765V251.706H260.059V237ZM245.353 237H260.059V251.706H245.353V237ZM230.647 237H245.353V251.706H230.647V237ZM215.941 237H230.647V251.706H215.941V237ZM201.235 237H215.941V251.706H201.235V237ZM186.529 237H201.235V251.706H186.529V237ZM171.824 237H186.529V251.706H171.824V237ZM171.824 251.706H186.529V266.412H171.824V251.706ZM171.824 266.412H186.529V281.118H171.824V266.412ZM171.824 281.118H186.529V295.824H171.824V281.118ZM171.824 295.824H186.529V310.529H171.824V295.824ZM171.824 310.529H186.529V325.235H171.824V310.529ZM171.824 325.235H186.529V339.941H171.824V325.235ZM171.824 339.941H186.529V354.647H171.824V339.941ZM186.529 339.941H201.235V354.647H186.529V339.941ZM186.529 354.647H201.235V369.353H186.529V354.647ZM201.235 354.647H215.941V369.353H201.235V354.647ZM215.941 354.647H230.647V369.353H215.941V354.647ZM230.647 354.647H245.353V369.353H230.647V354.647ZM245.353 354.647H260.059V369.353H245.353V354.647ZM245.353 339.941H260.059V354.647H245.353V339.941ZM230.647 339.941H245.353V354.647H230.647V339.941ZM215.941 339.941H230.647V354.647H215.941V339.941ZM201.235 339.941H215.941V354.647H201.235V339.941ZM260.059 339.941H274.765V354.647H260.059V339.941ZM260.059 325.235H274.765V339.941H260.059V325.235ZM245.353 325.235H260.059V339.941H245.353V325.235ZM260.059 310.529H274.765V325.235H260.059V310.529ZM260.059 266.412H274.765V281.118H260.059V266.412ZM260.059 281.118H274.765V295.824H260.059V281.118ZM260.059 295.824H274.765V310.529H260.059V295.824ZM260.059 354.647H274.765V369.353H260.059V354.647ZM260.059 369.353H274.765V384.059H260.059V369.353ZM260.059 384.059H274.765V398.765H260.059V384.059ZM245.353 384.059H260.059V398.765H245.353V384.059ZM230.647 384.059H245.353V398.765H230.647V384.059ZM215.941 384.059H230.647V398.765H215.941V384.059ZM201.235 384.059H215.941V398.765H201.235V384.059ZM201.235 369.353H215.941V384.059H201.235V369.353ZM186.529 369.353H201.235V384.059H186.529V369.353ZM186.529 384.059H201.235V398.765H186.529V384.059ZM215.941 369.353H230.647V384.059H215.941V369.353ZM230.647 369.353H245.353V384.059H230.647V369.353ZM245.353 369.353H260.059V384.059H245.353V369.353ZM260.059 192.882H274.765V207.588H260.059V192.882ZM260.059 207.588H274.765V222.294H260.059V207.588ZM260.059 222.294H274.765V237H260.059V222.294ZM245.353 222.294H260.059V237H245.353V222.294ZM245.353 207.588H260.059V222.294H245.353V207.588ZM245.353 192.882H260.059V207.588H245.353V192.882ZM230.647 192.882H245.353V207.588H230.647V192.882ZM215.941 192.882H230.647V207.588H215.941V192.882ZM201.235 192.882H215.941V207.588H201.235V192.882ZM186.529 192.882H201.235V207.588H186.529V192.882ZM171.824 192.882H186.529V207.588H171.824V192.882ZM157.118 192.882H171.824V207.588H157.118V192.882ZM142.412 192.882H157.118V207.588H142.412V192.882ZM127.706 192.882H142.412V207.588H127.706V192.882ZM127.706 207.588H142.412V222.294H127.706V207.588ZM127.706 222.294H142.412V237H127.706V222.294ZM127.706 237H142.412V251.706H127.706V237ZM142.412 237H157.118V251.706H142.412V237ZM142.412 222.294H157.118V237H142.412V222.294ZM157.118 222.294H171.824V237H157.118V222.294ZM171.824 222.294H186.529V237H171.824V222.294ZM186.529 222.294H201.235V237H186.529V222.294ZM201.235 222.294H215.941V237H201.235V222.294ZM215.941 222.294H230.647V237H215.941V222.294ZM230.647 222.294H245.353V237H230.647V222.294ZM230.647 207.588H245.353V222.294H230.647V207.588ZM215.941 207.588H230.647V222.294H215.941V207.588ZM201.235 207.588H215.941V222.294H201.235V207.588ZM186.529 207.588H201.235V222.294H186.529V207.588ZM171.824 207.588H186.529V222.294H171.824V207.588ZM157.118 207.588H171.824V222.294H157.118V207.588ZM142.412 251.706H157.118V266.412H142.412V251.706ZM142.412 266.412H157.118V281.118H142.412V266.412ZM142.412 207.588H157.118V222.294H142.412V207.588ZM157.118 237H171.824V251.706H157.118V237ZM157.118 251.706H171.824V266.412H157.118V251.706ZM157.118 266.412H171.824V281.118H157.118V266.412ZM157.118 281.118H171.824V295.824H157.118V281.118ZM157.118 295.824H171.824V310.529H157.118V295.824ZM157.118 310.529H171.824V325.235H157.118V310.529ZM157.118 325.235H171.824V339.941H157.118V325.235ZM157.118 339.941H171.824V354.647H157.118V339.941ZM142.412 339.941H157.118V354.647H142.412V339.941ZM142.412 325.235H157.118V339.941H142.412V325.235ZM142.412 310.529H157.118V325.235H142.412V310.529ZM142.412 295.824H157.118V310.529H142.412V295.824ZM127.706 281.118H142.412V295.824H127.706V281.118ZM127.706 266.412H142.412V281.118H127.706V266.412ZM127.706 251.706H142.412V266.412H127.706V251.706ZM127.706 295.824H142.412V310.529H127.706V295.824ZM127.706 310.529H142.412V325.235H127.706V310.529ZM142.412 281.118H157.118V295.824H142.412V281.118ZM127.706 325.235H142.412V339.941H127.706V325.235ZM127.706 339.941H142.412V354.647H127.706V339.941ZM127.706 354.647H142.412V369.353H127.706V354.647ZM127.706 369.353H142.412V384.059H127.706V369.353ZM142.412 369.353H157.118V384.059H142.412V369.353ZM157.118 369.353H171.824V384.059H157.118V369.353ZM171.824 369.353H186.529V384.059H171.824V369.353ZM171.824 384.059H186.529V398.765H171.824V384.059ZM157.118 384.059H171.824V398.765H157.118V384.059ZM142.412 384.059H157.118V398.765H142.412V384.059ZM127.706 384.059H142.412V398.765H127.706V384.059ZM142.412 354.647H157.118V369.353H142.412V354.647ZM157.118 354.647H171.824V369.353H157.118V354.647ZM171.824 354.647H186.529V369.353H171.824V354.647ZM127.706 398.765H142.412V413.471H127.706V398.765ZM127.706 413.471H142.412V428.176H127.706V413.471ZM127.706 428.176H142.412V442.882H127.706V428.176ZM127.706 442.882H142.412V457.588H127.706V442.882ZM127.706 457.588H142.412V472.294H127.706V457.588ZM127.706 472.294H142.412V487H127.706V472.294ZM142.412 472.294H157.118V487H142.412V472.294ZM157.118 472.294H171.824V487H157.118V472.294ZM171.824 472.294H186.529V487H171.824V472.294ZM171.824 457.588H186.529V472.294H171.824V457.588ZM171.824 442.882H186.529V457.588H171.824V442.882ZM171.824 428.176H186.529V442.882H171.824V428.176ZM171.824 413.471H186.529V428.176H171.824V413.471ZM171.824 398.765H186.529V413.471H171.824V398.765ZM157.118 398.765H171.824V413.471H157.118V398.765ZM142.412 398.765H157.118V413.471H142.412V398.765ZM142.412 413.471H157.118V428.176H142.412V413.471ZM142.412 428.176H157.118V442.882H142.412V428.176ZM142.412 442.882H157.118V457.588H142.412V442.882ZM142.412 457.588H157.118V472.294H142.412V457.588ZM157.118 457.588H171.824V472.294H157.118V457.588ZM157.118 442.882H171.824V457.588H157.118V442.882ZM157.118 428.176H171.824V442.882H157.118V428.176ZM157.118 413.471H171.824V428.176H157.118V413.471ZM363.057 310.529H377.763V325.235H363.057V310.529ZM377.763 310.529H392.469V325.235H377.763V310.529ZM392.469 310.529H407.175V325.235H392.469V310.529ZM407.175 310.529H421.881V325.235H407.175V310.529ZM421.881 310.529H436.587V325.235H421.881V310.529ZM436.587 310.529H451.293V325.235H436.587V310.529ZM451.293 310.529H465.999V325.235H451.293V310.529ZM465.999 310.529H480.704V325.235H465.999V310.529ZM480.704 310.529H495.41V325.235H480.704V310.529ZM495.41 310.529H510.116V325.235H495.41V310.529ZM510.116 310.529H524.822V325.235H510.116V310.529ZM524.822 325.235H539.528V339.941H524.822V325.235ZM510.116 325.235H524.822V339.941H510.116V325.235ZM495.41 325.235H510.116V339.941H495.41V325.235ZM524.822 310.529H539.528V325.235H524.822V310.529ZM480.704 325.235H495.41V339.941H480.704V325.235ZM465.999 325.235H480.704V339.941H465.999V325.235ZM436.587 325.235H451.293V339.941H436.587V325.235ZM421.881 339.941H436.587V354.647H421.881V339.941ZM407.175 339.941H421.881V354.647H407.175V339.941ZM407.175 325.235H421.881V339.941H407.175V325.235ZM392.469 325.235H407.175V339.941H392.469V325.235ZM377.763 325.235H392.469V339.941H377.763V325.235ZM363.057 325.235H377.763V339.941H363.057V325.235ZM421.881 325.235H436.587V339.941H421.881V325.235ZM451.293 325.235H465.999V339.941H451.293V325.235ZM465.999 339.941H480.704V354.647H465.999V339.941ZM480.704 339.941H495.41V354.647H480.704V339.941ZM495.41 339.941H510.116V354.647H495.41V339.941ZM495.41 354.647H510.116V369.353H495.41V354.647ZM510.116 354.647H524.822V369.353H510.116V354.647ZM510.116 339.941H524.822V354.647H510.116V339.941ZM524.822 339.941H539.528V354.647H524.822V339.941ZM524.822 354.647H539.528V369.353H524.822V354.647ZM480.704 354.647H495.41V369.353H480.704V354.647ZM465.999 354.647H480.704V369.353H465.999V354.647ZM451.293 354.647H465.999V369.353H451.293V354.647ZM451.293 339.941H465.999V354.647H451.293V339.941ZM436.587 339.941H451.293V354.647H436.587V339.941ZM392.469 339.941H407.175V354.647H392.469V339.941ZM377.763 339.941H392.469V354.647H377.763V339.941ZM363.057 339.941H377.763V354.647H363.057V339.941ZM363.057 354.647H377.763V369.353H363.057V354.647ZM377.763 354.647H392.469V369.353H377.763V354.647ZM392.469 354.647H407.175V369.353H392.469V354.647ZM407.175 354.647H421.881V369.353H407.175V354.647ZM421.881 354.647H436.587V369.353H421.881V354.647ZM436.587 354.647H451.293V369.353H436.587V354.647ZM774.937 192.882V207.588H760.231V192.882H774.937ZM760.231 192.882V207.588H745.525V192.882H760.231ZM745.525 192.882V207.588H730.819V192.882H745.525ZM730.819 192.882V207.588H716.114V192.882H730.819ZM730.819 207.588V222.294H716.114V207.588H730.819ZM730.819 222.294V237H716.114V222.294H730.819ZM745.525 222.294V237H730.819V222.294H745.525ZM760.231 222.294V237H745.525V222.294H760.231ZM760.231 207.588V222.294H745.525V207.588H760.231ZM774.937 207.588V222.294H760.231V207.588H774.937ZM745.525 207.588V222.294H730.819V207.588H745.525ZM774.937 222.294V237H760.231V222.294H774.937ZM774.937 237V251.706H760.231V237H774.937ZM774.937 251.706V266.412H760.231V251.706H774.937ZM760.231 251.706V266.412H745.525V251.706H760.231ZM745.525 251.706V266.412H730.819V251.706H745.525ZM730.819 251.706V266.412H716.114V251.706H730.819ZM730.819 237V251.706H716.114V237H730.819ZM745.525 237V251.706H730.819V237H745.525ZM760.231 237V251.706H745.525V237H760.231ZM774.937 266.412V281.118H760.231V266.412H774.937ZM760.231 266.412V281.118H745.525V266.412H760.231ZM745.525 266.412V281.118H730.819V266.412H745.525ZM774.937 295.824V310.529H760.231V295.824H774.937ZM774.937 281.118V295.824H760.231V281.118H774.937ZM745.525 472.294V487H730.819V472.294H745.525ZM760.231 472.294V487H745.525V472.294H760.231ZM774.937 457.588V472.294H760.231V457.588H774.937ZM774.937 442.882V457.588H760.231V442.882H774.937ZM774.937 472.294V487H760.231V472.294H774.937ZM701.408 266.412V281.118H686.702V266.412H701.408ZM730.819 266.412V281.118H716.114V266.412H730.819ZM686.702 266.412V281.118H671.996V266.412H686.702ZM671.996 266.412V281.118H657.29V266.412H671.996ZM657.29 266.412V281.118H642.584V266.412H657.29ZM642.584 266.412V281.118H627.878V266.412H642.584ZM627.878 281.118V295.824H613.172V281.118H627.878ZM642.584 281.118V295.824H627.878V281.118H642.584ZM642.584 295.824V310.529H627.878V295.824H642.584ZM613.172 281.118V295.824H598.466V281.118H613.172ZM613.172 295.824V310.529H598.466V295.824H613.172ZM627.878 295.824V310.529H613.172V295.824H627.878ZM642.584 310.529V325.235H627.878V310.529H642.584ZM657.29 310.529V325.235H642.584V310.529H657.29ZM627.878 310.529V325.235H613.172V310.529H627.878ZM613.172 310.529V325.235H598.466V310.529H613.172ZM598.466 310.529V325.235H583.761V310.529H598.466ZM598.466 325.235V339.941H583.761V325.235H598.466ZM598.466 339.941V354.647H583.761V339.941H598.466ZM598.466 354.647V369.353H583.761V354.647H598.466ZM598.466 369.353V384.059H583.761V369.353H598.466ZM598.466 384.059V398.765H583.761V384.059H598.466ZM598.466 398.765V413.471H583.761V398.765H598.466ZM598.466 413.471V428.176H583.761V413.471H598.466ZM598.466 428.176V442.882H583.761V428.176H598.466ZM613.172 428.176V442.882H598.466V428.176H613.172ZM613.172 442.882V457.588H598.466V442.882H613.172ZM613.172 457.588V472.294H598.466V457.588H613.172ZM627.878 457.588V472.294H613.172V457.588H627.878ZM642.584 457.588V472.294H627.878V457.588H642.584ZM657.29 442.882V457.588H642.584V442.882H657.29ZM657.29 428.176V442.882H642.584V428.176H657.29ZM642.584 428.176V442.882H627.878V428.176H642.584ZM642.584 442.882V457.588H627.878V442.882H642.584ZM627.878 442.882V457.588H613.172V442.882H627.878ZM627.878 428.176V442.882H613.172V428.176H627.878ZM627.878 413.471V428.176H613.172V413.471H627.878ZM642.584 413.471V428.176H627.878V413.471H642.584ZM642.584 398.765V413.471H627.878V398.765H642.584ZM642.584 384.059V398.765H627.878V384.059H642.584ZM642.584 369.353V384.059H627.878V369.353H642.584ZM642.584 354.647V369.353H627.878V354.647H642.584ZM642.584 339.941V354.647H627.878V339.941H642.584ZM642.584 325.235V339.941H627.878V325.235H642.584ZM627.878 325.235V339.941H613.172V325.235H627.878ZM627.878 339.941V354.647H613.172V339.941H627.878ZM627.878 354.647V369.353H613.172V354.647H627.878ZM627.878 369.353V384.059H613.172V369.353H627.878ZM627.878 384.059V398.765H613.172V384.059H627.878ZM627.878 398.765V413.471H613.172V398.765H627.878ZM613.172 413.471V428.176H598.466V413.471H613.172ZM613.172 398.765V413.471H598.466V398.765H613.172ZM613.172 384.059V398.765H598.466V384.059H613.172ZM613.172 369.353V384.059H598.466V369.353H613.172ZM613.172 354.647V369.353H598.466V354.647H613.172ZM613.172 339.941V354.647H598.466V339.941H613.172ZM613.172 325.235V339.941H598.466V325.235H613.172ZM657.29 457.588V472.294H642.584V457.588H657.29ZM657.29 472.294V487H642.584V472.294H657.29ZM642.584 472.294V487H627.878V472.294H642.584ZM671.996 472.294V487H657.29V472.294H671.996ZM686.702 472.294V487H671.996V472.294H686.702ZM701.408 472.294V487H686.702V472.294H701.408ZM730.819 472.294V487H716.114V472.294H730.819ZM730.819 457.588V472.294H716.114V457.588H730.819ZM745.525 457.588V472.294H730.819V457.588H745.525ZM760.231 457.588V472.294H745.525V457.588H760.231ZM760.231 339.941V354.647H745.525V339.941H760.231ZM760.231 325.235V339.941H745.525V325.235H760.231ZM774.937 310.529V325.235H760.231V310.529H774.937ZM760.231 295.824V310.529H745.525V295.824H760.231ZM745.525 281.118V295.824H730.819V281.118H745.525ZM730.819 281.118V295.824H716.114V281.118H730.819ZM716.114 281.118V295.824H701.408V281.118H716.114ZM716.114 295.824V310.529H701.408V295.824H716.114ZM730.819 310.529V325.235H716.114V310.529H730.819ZM745.525 310.529V325.235H730.819V310.529H745.525ZM730.819 325.235V339.941H716.114V325.235H730.819ZM730.819 339.941V354.647H716.114V339.941H730.819ZM730.819 354.647V369.353H716.114V354.647H730.819ZM701.408 442.882V457.588H686.702V442.882H701.408ZM686.702 442.882V457.588H671.996V442.882H686.702ZM671.996 442.882V457.588H657.29V442.882H671.996ZM671.996 457.588V472.294H657.29V457.588H671.996ZM686.702 457.588V472.294H671.996V457.588H686.702ZM701.408 457.588V472.294H686.702V457.588H701.408ZM716.114 457.588V472.294H701.408V457.588H716.114ZM730.819 442.882V457.588H716.114V442.882H730.819ZM745.525 442.882V457.588H730.819V442.882H745.525ZM745.525 339.941V354.647H730.819V339.941H745.525ZM745.525 325.235V339.941H730.819V325.235H745.525ZM745.525 295.824V310.529H730.819V295.824H745.525ZM730.819 295.824V310.529H716.114V295.824H730.819ZM701.408 281.118V295.824H686.702V281.118H701.408ZM686.702 281.118V295.824H671.996V281.118H686.702ZM671.996 281.118V295.824H657.29V281.118H671.996ZM657.29 281.118V295.824H642.584V281.118H657.29ZM657.29 295.824V310.529H642.584V295.824H657.29ZM671.996 295.824V310.529H657.29V295.824H671.996ZM686.702 295.824V310.529H671.996V295.824H686.702ZM701.408 295.824V310.529H686.702V295.824H701.408ZM760.231 281.118V295.824H745.525V281.118H760.231ZM760.231 442.882V457.588H745.525V442.882H760.231ZM760.231 310.529V325.235H745.525V310.529H760.231ZM774.937 325.235V339.941H760.231V325.235H774.937ZM774.937 339.941V354.647H760.231V339.941H774.937ZM774.937 428.176V442.882H760.231V428.176H774.937ZM760.231 428.176V442.882H745.525V428.176H760.231ZM745.525 428.176V442.882H730.819V428.176H745.525ZM730.819 428.176V442.882H716.114V428.176H730.819ZM745.525 354.647V369.353H730.819V354.647H745.525ZM760.231 354.647V369.353H745.525V354.647H760.231ZM774.937 354.647V369.353H760.231V354.647H774.937ZM774.937 369.353V384.059H760.231V369.353H774.937ZM774.937 384.059V398.765H760.231V384.059H774.937ZM774.937 398.765V413.471H760.231V398.765H774.937ZM760.231 398.765V413.471H745.525V398.765H760.231ZM760.231 413.471V428.176H745.525V413.471H760.231ZM745.525 413.471V428.176H730.819V413.471H745.525ZM774.937 413.471V428.176H760.231V413.471H774.937ZM730.819 413.471V428.176H716.114V413.471H730.819ZM730.819 398.765V413.471H716.114V398.765H730.819ZM730.819 384.059V398.765H716.114V384.059H730.819ZM730.819 369.353V384.059H716.114V369.353H730.819ZM745.525 369.353V384.059H730.819V369.353H745.525ZM760.231 369.353V384.059H745.525V369.353H760.231ZM760.231 384.059V398.765H745.525V384.059H760.231ZM745.525 398.765V413.471H730.819V398.765H745.525ZM745.525 384.059V398.765H730.819V384.059H745.525ZM701.408 266.412H716.114V281.118H701.408V266.412ZM701.408 442.882H716.114V457.588H701.408V442.882ZM701.408 428.176H716.114V442.882H701.408V428.176ZM833.818 281.118H848.524V295.824H833.818V281.118ZM833.818 295.824H848.524V310.529H833.818V295.824ZM833.818 310.529H848.524V325.235H833.818V310.529ZM833.818 325.235H848.524V339.941H833.818V325.235ZM833.818 339.941H848.524V354.647H833.818V339.941ZM819.112 339.941H833.818V354.647H819.112V339.941ZM819.112 325.235H833.818V339.941H819.112V325.235ZM819.112 310.529H833.818V325.235H819.112V310.529ZM819.112 295.824H833.818V310.529H819.112V295.824ZM819.112 281.118H833.818V295.824H819.112V281.118ZM819.112 428.176H833.818V442.882H819.112V428.176ZM819.112 413.471H833.818V428.176H819.112V413.471ZM819.112 398.765H833.818V413.471H819.112V398.765ZM819.112 384.059H833.818V398.765H819.112V384.059ZM833.818 369.353H848.524V384.059H833.818V369.353ZM833.818 354.647H848.524V369.353H833.818V354.647ZM819.112 354.647H833.818V369.353H819.112V354.647ZM819.112 369.353H833.818V384.059H819.112V369.353ZM819.112 442.882H833.818V457.588H819.112V442.882ZM819.112 457.588H833.818V472.294H819.112V457.588ZM819.112 472.294H833.818V487H819.112V472.294ZM863.23 281.118H877.936V295.824H863.23V281.118ZM863.23 295.824H877.936V310.529H863.23V295.824ZM863.23 310.529H877.936V325.235H863.23V310.529ZM863.23 325.235H877.936V339.941H863.23V325.235ZM863.23 339.941H877.936V354.647H863.23V339.941ZM863.23 354.647H877.936V369.353H863.23V354.647ZM863.23 369.353H877.936V384.059H863.23V369.353ZM863.23 384.059H877.936V398.765H863.23V384.059ZM863.23 398.765H877.936V413.471H863.23V398.765ZM863.23 413.471H877.936V428.176H863.23V413.471ZM863.23 428.176H877.936V442.882H863.23V428.176ZM863.23 442.882H877.936V457.588H863.23V442.882ZM863.23 457.588H877.936V472.294H863.23V457.588ZM863.23 472.294H877.936V487H863.23V472.294ZM848.524 472.294H863.23V487H848.524V472.294ZM833.818 472.294H848.524V487H833.818V472.294ZM833.818 457.588H848.524V472.294H833.818V457.588ZM848.524 457.588H863.23V472.294H848.524V457.588ZM848.524 442.882H863.23V457.588H848.524V442.882ZM833.818 428.176H848.524V442.882H833.818V428.176ZM833.818 413.471H848.524V428.176H833.818V413.471ZM833.818 398.765H848.524V413.471H833.818V398.765ZM848.524 398.765H863.23V413.471H848.524V398.765ZM848.524 413.471H863.23V428.176H848.524V413.471ZM848.524 428.176H863.23V442.882H848.524V428.176ZM833.818 442.882H848.524V457.588H833.818V442.882ZM848.524 384.059H863.23V398.765H848.524V384.059ZM848.524 369.353H863.23V384.059H848.524V369.353ZM848.524 354.647H863.23V369.353H848.524V354.647ZM833.818 384.059H848.524V398.765H833.818V384.059ZM848.524 339.941H863.23V354.647H848.524V339.941ZM848.524 325.235H863.23V339.941H848.524V325.235ZM848.524 310.529H863.23V325.235H848.524V310.529ZM848.524 295.824H863.23V310.529H848.524V295.824ZM848.524 281.118H863.23V295.824H848.524V281.118ZM863.23 192.882H877.936V207.588H863.23V192.882ZM848.524 207.588H863.23V222.294H848.524V207.588ZM848.524 178.176H863.23V192.882H848.524V178.176ZM833.818 192.882H848.524V207.588H833.818V192.882ZM848.524 192.882H863.23V207.588H848.524V192.882ZM833.818 178.176H848.524V192.882H833.818V178.176ZM833.818 207.588H848.524V222.294H833.818V207.588ZM863.23 207.588H877.936V222.294H863.23V207.588ZM819.112 192.882H833.818V207.588H819.112V192.882ZM819.112 207.588H833.818V222.294H819.112V207.588ZM833.818 222.294H848.524V237H833.818V222.294ZM848.524 222.294H863.23V237H848.524V222.294ZM819.112 178.176H833.818V192.882H819.112V178.176ZM863.23 178.176H877.936V192.882H863.23V178.176ZM863.23 222.294H877.936V237H863.23V222.294ZM819.112 222.294H833.818V237H819.112V222.294ZM1039.79 487H1025.08V472.294H1039.79V487ZM1069.2 487H1054.49V472.294H1069.2V487ZM1025.08 487H1010.37V472.294H1025.08V487ZM1010.37 487H995.669V472.294H1010.37V487ZM995.669 487H980.963V472.294H995.669V487ZM980.963 487H966.257V472.294H980.963V487ZM966.257 472.294H951.551V457.588H966.257V472.294ZM980.963 472.294H966.257V457.588H980.963V472.294ZM980.963 457.588H966.257V442.882H980.963V457.588ZM951.551 472.294H936.845V457.588H951.551V472.294ZM951.551 457.588H936.845V442.882H951.551V457.588ZM966.257 457.588H951.551V442.882H966.257V457.588ZM980.963 442.882H966.257V428.176H980.963V442.882ZM995.669 442.882H980.963V428.176H995.669V442.882ZM966.257 442.882H951.551V428.176H966.257V442.882ZM951.551 442.882H936.845V428.176H951.551V442.882ZM936.845 442.882H922.139V428.176H936.845V442.882ZM936.845 428.176H922.139V413.471H936.845V428.176ZM936.845 339.941H922.139V325.235H936.845V339.941ZM936.845 325.235H922.139V310.529H936.845V325.235ZM951.551 325.235H936.845V310.529H951.551V325.235ZM951.551 310.529H936.845V295.824H951.551V310.529ZM951.551 295.824H936.845V281.118H951.551V295.824ZM966.257 295.824H951.551V281.118H966.257V295.824ZM980.963 295.824H966.257V281.118H980.963V295.824ZM995.669 310.529H980.963V295.824H995.669V310.529ZM995.669 325.235H980.963V310.529H995.669V325.235ZM980.963 325.235H966.257V310.529H980.963V325.235ZM980.963 310.529H966.257V295.824H980.963V310.529ZM966.257 310.529H951.551V295.824H966.257V310.529ZM966.257 325.235H951.551V310.529H966.257V325.235ZM966.257 339.941H951.551V325.235H966.257V339.941ZM980.963 339.941H966.257V325.235H980.963V339.941ZM980.963 428.176H966.257V413.471H980.963V428.176ZM966.257 428.176H951.551V413.471H966.257V428.176ZM951.551 339.941H936.845V325.235H951.551V339.941ZM951.551 428.176H936.845V413.471H951.551V428.176ZM995.669 295.824H980.963V281.118H995.669V295.824ZM995.669 281.118H980.963V266.412H995.669V281.118ZM980.963 281.118H966.257V266.412H980.963V281.118ZM1010.37 281.118H995.669V266.412H1010.37V281.118ZM1025.08 281.118H1010.37V266.412H1025.08V281.118ZM1039.79 281.118H1025.08V266.412H1039.79V281.118ZM1054.49 281.118H1039.79V266.412H1054.49V281.118ZM1069.2 281.118H1054.49V266.412H1069.2V281.118ZM1069.2 295.824H1054.49V281.118H1069.2V295.824ZM1083.9 295.824H1069.2V281.118H1083.9V295.824ZM1098.61 295.824H1083.9V281.118H1098.61V295.824ZM1098.61 310.529H1083.9V295.824H1098.61V310.529ZM1113.32 325.235H1098.61V310.529H1113.32V325.235ZM1098.61 325.235H1083.9V310.529H1098.61V325.235ZM1113.32 339.941H1098.61V325.235H1113.32V339.941ZM1113.32 354.647H1098.61V339.941H1113.32V354.647ZM1113.32 369.353H1098.61V354.647H1113.32V369.353ZM1113.32 384.059H1098.61V369.353H1113.32V384.059ZM1113.32 398.765H1098.61V384.059H1113.32V398.765ZM1113.32 413.471H1098.61V398.765H1113.32V413.471ZM1098.61 413.471H1083.9V398.765H1098.61V413.471ZM1098.61 428.176H1083.9V413.471H1098.61V428.176ZM1113.32 428.176H1098.61V413.471H1113.32V428.176ZM1113.32 442.882H1098.61V428.176H1113.32V442.882ZM1098.61 442.882H1083.9V428.176H1098.61V442.882ZM1098.61 457.588H1083.9V442.882H1098.61V457.588ZM1098.61 472.294H1083.9V457.588H1098.61V472.294ZM1083.9 472.294H1069.2V457.588H1083.9V472.294ZM1069.2 472.294H1054.49V457.588H1069.2V472.294ZM1054.49 472.294H1039.79V457.588H1054.49V472.294ZM1054.49 457.588H1039.79V442.882H1054.49V457.588ZM1069.2 442.882H1054.49V428.176H1069.2V442.882ZM1083.9 442.882H1069.2V428.176H1083.9V442.882ZM1069.2 428.176H1054.49V413.471H1069.2V428.176ZM1069.2 413.471H1054.49V398.765H1069.2V413.471ZM1069.2 398.765H1054.49V384.059H1069.2V398.765ZM1069.2 384.059H1054.49V369.353H1069.2V384.059ZM1069.2 369.353H1054.49V354.647H1069.2V369.353ZM1069.2 354.647H1054.49V339.941H1069.2V354.647ZM1069.2 339.941H1054.49V325.235H1069.2V339.941ZM1069.2 325.235H1054.49V310.529H1069.2V325.235ZM1054.49 325.235H1039.79V310.529H1054.49V325.235ZM1054.49 310.529H1039.79V295.824H1054.49V310.529ZM1039.79 310.529H1025.08V295.824H1039.79V310.529ZM1025.08 310.529H1010.37V295.824H1025.08V310.529ZM1010.37 310.529H995.669V295.824H1010.37V310.529ZM1010.37 295.824H995.669V281.118H1010.37V295.824ZM1025.08 295.824H1010.37V281.118H1025.08V295.824ZM1039.79 295.824H1025.08V281.118H1039.79V295.824ZM1054.49 295.824H1039.79V281.118H1054.49V295.824ZM1069.2 310.529H1054.49V295.824H1069.2V310.529ZM1083.9 310.529H1069.2V295.824H1083.9V310.529ZM1083.9 325.235H1069.2V310.529H1083.9V325.235ZM1083.9 339.941H1069.2V325.235H1083.9V339.941ZM1083.9 354.647H1069.2V339.941H1083.9V354.647ZM1098.61 354.647H1083.9V339.941H1098.61V354.647ZM1098.61 339.941H1083.9V325.235H1098.61V339.941ZM1098.61 369.353H1083.9V354.647H1098.61V369.353ZM1098.61 384.059H1083.9V369.353H1098.61V384.059ZM1098.61 398.765H1083.9V384.059H1098.61V398.765ZM1083.9 398.765H1069.2V384.059H1083.9V398.765ZM1083.9 384.059H1069.2V369.353H1083.9V384.059ZM1083.9 369.353H1069.2V354.647H1083.9V369.353ZM1083.9 413.471H1069.2V398.765H1083.9V413.471ZM1083.9 428.176H1069.2V413.471H1083.9V428.176ZM1083.9 457.588H1069.2V442.882H1083.9V457.588ZM1069.2 457.588H1054.49V442.882H1069.2V457.588ZM1039.79 472.294H1025.08V457.588H1039.79V472.294ZM1025.08 472.294H1010.37V457.588H1025.08V472.294ZM1010.37 472.294H995.669V457.588H1010.37V472.294ZM995.669 472.294H980.963V457.588H995.669V472.294ZM995.669 457.588H980.963V442.882H995.669V457.588ZM1010.37 457.588H995.669V442.882H1010.37V457.588ZM1025.08 457.588H1010.37V442.882H1025.08V457.588ZM1039.79 457.588H1025.08V442.882H1039.79V457.588ZM951.551 413.471H936.845V398.765H951.551V413.471ZM966.257 413.471H951.551V398.765H966.257V413.471ZM980.963 413.471H966.257V398.765H980.963V413.471ZM951.551 398.765H936.845V384.059H951.551V398.765ZM966.257 398.765H951.551V384.059H966.257V398.765ZM980.963 398.765H966.257V384.059H980.963V398.765ZM995.669 398.765H980.963V384.059H995.669V398.765ZM1010.37 398.765H995.669V384.059H1010.37V398.765ZM1025.08 398.765H1010.37V384.059H1025.08V398.765ZM1039.79 398.765H1025.08V384.059H1039.79V398.765ZM1054.49 398.765H1039.79V384.059H1054.49V398.765ZM1054.49 384.059H1039.79V369.353H1054.49V384.059ZM1039.79 384.059H1025.08V369.353H1039.79V384.059ZM1025.08 384.059H1010.37V369.353H1025.08V384.059ZM1010.37 384.059H995.669V369.353H1010.37V384.059ZM995.669 384.059H980.963V369.353H995.669V384.059ZM980.963 384.059H966.257V369.353H980.963V384.059ZM1098.61 442.882H1113.32V457.588H1098.61V442.882ZM1098.61 457.588H1113.32V472.294H1098.61V457.588ZM1098.61 472.294H1113.32V487H1098.61V472.294ZM1083.9 472.294H1098.61V487H1083.9V472.294ZM1069.2 472.294H1083.9V487H1069.2V472.294ZM980.963 398.765H995.669V413.471H980.963V398.765ZM1157.49 266.412H1172.2V281.118H1157.49V266.412ZM1172.2 266.412H1186.9V281.118H1172.2V266.412ZM1186.9 266.412H1201.61V281.118H1186.9V266.412ZM1157.49 295.824H1172.2V310.529H1157.49V295.824ZM1157.49 281.118H1172.2V295.824H1157.49V281.118ZM1186.9 472.294H1201.61V487H1186.9V472.294ZM1172.2 472.294H1186.9V487H1172.2V472.294ZM1157.49 457.588H1172.2V472.294H1157.49V457.588ZM1157.49 442.882H1172.2V457.588H1157.49V442.882ZM1157.49 472.294H1172.2V487H1157.49V472.294ZM1231.02 266.412H1245.73V281.118H1231.02V266.412ZM1201.61 266.412H1216.31V281.118H1201.61V266.412ZM1260.43 266.412H1275.14V281.118H1260.43V266.412ZM1275.14 281.118H1289.84V295.824H1275.14V281.118ZM1260.43 281.118H1275.14V295.824H1260.43V281.118ZM1260.43 295.824H1275.14V310.529H1260.43V295.824ZM1289.84 295.824H1304.55V310.529H1289.84V295.824ZM1275.14 295.824H1289.84V310.529H1275.14V295.824ZM1260.43 310.529H1275.14V325.235H1260.43V310.529ZM1245.73 310.529H1260.43V325.235H1245.73V310.529ZM1275.14 310.529H1289.84V325.235H1275.14V310.529ZM1289.84 310.529H1304.55V325.235H1289.84V310.529ZM1304.55 325.235H1319.26V339.941H1304.55V325.235ZM1304.55 339.941H1319.26V354.647H1304.55V339.941ZM1304.55 354.647H1319.26V369.353H1304.55V354.647ZM1304.55 369.353H1319.26V384.059H1304.55V369.353ZM1304.55 384.059H1319.26V398.765H1304.55V384.059ZM1304.55 398.765H1319.26V413.471H1304.55V398.765ZM1304.55 413.471H1319.26V428.176H1304.55V413.471ZM1304.55 428.176H1319.26V442.882H1304.55V428.176ZM1289.84 428.176H1304.55V442.882H1289.84V428.176ZM1289.84 442.882H1304.55V457.588H1289.84V442.882ZM1289.84 457.588H1304.55V472.294H1289.84V457.588ZM1275.14 457.588H1289.84V472.294H1275.14V457.588ZM1260.43 457.588H1275.14V472.294H1260.43V457.588ZM1260.43 428.176H1275.14V442.882H1260.43V428.176ZM1260.43 442.882H1275.14V457.588H1260.43V442.882ZM1275.14 442.882H1289.84V457.588H1275.14V442.882ZM1275.14 428.176H1289.84V442.882H1275.14V428.176ZM1275.14 413.471H1289.84V428.176H1275.14V413.471ZM1260.43 413.471H1275.14V428.176H1260.43V413.471ZM1260.43 398.765H1275.14V413.471H1260.43V398.765ZM1260.43 384.059H1275.14V398.765H1260.43V384.059ZM1260.43 369.353H1275.14V384.059H1260.43V369.353ZM1260.43 354.647H1275.14V369.353H1260.43V354.647ZM1260.43 339.941H1275.14V354.647H1260.43V339.941ZM1260.43 325.235H1275.14V339.941H1260.43V325.235ZM1275.14 325.235H1289.84V339.941H1275.14V325.235ZM1275.14 339.941H1289.84V354.647H1275.14V339.941ZM1275.14 354.647H1289.84V369.353H1275.14V354.647ZM1275.14 369.353H1289.84V384.059H1275.14V369.353ZM1275.14 384.059H1289.84V398.765H1275.14V384.059ZM1275.14 398.765H1289.84V413.471H1275.14V398.765ZM1289.84 413.471H1304.55V428.176H1289.84V413.471ZM1289.84 398.765H1304.55V413.471H1289.84V398.765ZM1289.84 384.059H1304.55V398.765H1289.84V384.059ZM1289.84 369.353H1304.55V384.059H1289.84V369.353ZM1289.84 354.647H1304.55V369.353H1289.84V354.647ZM1289.84 339.941H1304.55V354.647H1289.84V339.941ZM1289.84 325.235H1304.55V339.941H1289.84V325.235ZM1260.43 472.294H1275.14V487H1260.43V472.294ZM1201.61 472.294H1216.31V487H1201.61V472.294ZM1201.61 457.588H1216.31V472.294H1201.61V457.588ZM1186.9 457.588H1201.61V472.294H1186.9V457.588ZM1172.2 457.588H1186.9V472.294H1172.2V457.588ZM1172.2 339.941H1186.9V354.647H1172.2V339.941ZM1172.2 325.235H1186.9V339.941H1172.2V325.235ZM1157.49 310.529H1172.2V325.235H1157.49V310.529ZM1172.2 295.824H1186.9V310.529H1172.2V295.824ZM1186.9 281.118H1201.61V295.824H1186.9V281.118ZM1201.61 281.118H1216.31V295.824H1201.61V281.118ZM1216.31 281.118H1231.02V295.824H1216.31V281.118ZM1216.31 295.824H1231.02V310.529H1216.31V295.824ZM1216.31 310.529H1231.02V325.235H1216.31V310.529ZM1201.61 310.529H1216.31V325.235H1201.61V310.529ZM1186.9 310.529H1201.61V325.235H1186.9V310.529ZM1201.61 325.235H1216.31V339.941H1201.61V325.235ZM1201.61 339.941H1216.31V354.647H1201.61V339.941ZM1201.61 354.647H1216.31V369.353H1201.61V354.647ZM1201.61 442.882H1216.31V457.588H1201.61V442.882ZM1186.9 442.882H1201.61V457.588H1186.9V442.882ZM1186.9 339.941H1201.61V354.647H1186.9V339.941ZM1186.9 325.235H1201.61V339.941H1186.9V325.235ZM1186.9 295.824H1201.61V310.529H1186.9V295.824ZM1201.61 295.824H1216.31V310.529H1201.61V295.824ZM1231.02 281.118H1245.73V295.824H1231.02V281.118ZM1245.73 281.118H1260.43V295.824H1245.73V281.118ZM1245.73 295.824H1260.43V310.529H1245.73V295.824ZM1231.02 295.824H1245.73V310.529H1231.02V295.824ZM1172.2 281.118H1186.9V295.824H1172.2V281.118ZM1172.2 442.882H1186.9V457.588H1172.2V442.882ZM1172.2 310.529H1186.9V325.235H1172.2V310.529ZM1157.49 325.235H1172.2V339.941H1157.49V325.235ZM1157.49 339.941H1172.2V354.647H1157.49V339.941ZM1157.49 428.176H1172.2V442.882H1157.49V428.176ZM1172.2 428.176H1186.9V442.882H1172.2V428.176ZM1186.9 428.176H1201.61V442.882H1186.9V428.176ZM1201.61 428.176H1216.31V442.882H1201.61V428.176ZM1186.9 354.647H1201.61V369.353H1186.9V354.647ZM1172.2 354.647H1186.9V369.353H1172.2V354.647ZM1157.49 354.647H1172.2V369.353H1157.49V354.647ZM1157.49 369.353H1172.2V384.059H1157.49V369.353ZM1157.49 384.059H1172.2V398.765H1157.49V384.059ZM1157.49 398.765H1172.2V413.471H1157.49V398.765ZM1172.2 398.765H1186.9V413.471H1172.2V398.765ZM1172.2 413.471H1186.9V428.176H1172.2V413.471ZM1186.9 413.471H1201.61V428.176H1186.9V413.471ZM1157.49 413.471H1172.2V428.176H1157.49V413.471ZM1201.61 413.471H1216.31V428.176H1201.61V413.471ZM1201.61 398.765H1216.31V413.471H1201.61V398.765ZM1201.61 384.059H1216.31V398.765H1201.61V384.059ZM1201.61 369.353H1216.31V384.059H1201.61V369.353ZM1186.9 369.353H1201.61V384.059H1186.9V369.353ZM1172.2 369.353H1186.9V384.059H1172.2V369.353ZM1172.2 384.059H1186.9V398.765H1172.2V384.059ZM1186.9 398.765H1201.61V413.471H1186.9V398.765ZM1186.9 384.059H1201.61V398.765H1186.9V384.059ZM1275.14 472.294H1289.84V487H1275.14V472.294ZM1289.84 472.294H1304.55V487H1289.84V472.294ZM1304.55 472.294H1319.26V487H1304.55V472.294ZM1304.55 457.588H1319.26V472.294H1304.55V457.588ZM1304.55 442.882H1319.26V457.588H1304.55V442.882ZM1319.26 266.412H1333.96V281.118H1319.26V266.412ZM1333.96 266.412H1348.67V281.118H1333.96V266.412ZM1348.67 266.412H1363.37V281.118H1348.67V266.412ZM1363.37 266.412H1378.08V281.118H1363.37V266.412ZM1378.08 281.118H1392.79V295.824H1378.08V281.118ZM1363.37 281.118H1378.08V295.824H1363.37V281.118ZM1363.37 295.824H1378.08V310.529H1363.37V295.824ZM1392.79 281.118H1407.49V295.824H1392.79V281.118ZM1392.79 295.824H1407.49V310.529H1392.79V295.824ZM1378.08 295.824H1392.79V310.529H1378.08V295.824ZM1363.37 310.529H1378.08V325.235H1363.37V310.529ZM1348.67 310.529H1363.37V325.235H1348.67V310.529ZM1378.08 310.529H1392.79V325.235H1378.08V310.529ZM1392.79 310.529H1407.49V325.235H1392.79V310.529ZM1407.49 310.529H1422.2V325.235H1407.49V310.529ZM1407.49 325.235H1422.2V339.941H1407.49V325.235ZM1407.49 339.941H1422.2V354.647H1407.49V339.941ZM1407.49 354.647H1422.2V369.353H1407.49V354.647ZM1407.49 369.353H1422.2V384.059H1407.49V369.353ZM1407.49 384.059H1422.2V398.765H1407.49V384.059ZM1407.49 398.765H1422.2V413.471H1407.49V398.765ZM1407.49 413.471H1422.2V428.176H1407.49V413.471ZM1407.49 428.176H1422.2V442.882H1407.49V428.176ZM1392.79 428.176H1407.49V442.882H1392.79V428.176ZM1392.79 442.882H1407.49V457.588H1392.79V442.882ZM1392.79 457.588H1407.49V472.294H1392.79V457.588ZM1378.08 457.588H1392.79V472.294H1378.08V457.588ZM1363.37 457.588H1378.08V472.294H1363.37V457.588ZM1363.37 428.176H1378.08V442.882H1363.37V428.176ZM1363.37 442.882H1378.08V457.588H1363.37V442.882ZM1378.08 442.882H1392.79V457.588H1378.08V442.882ZM1378.08 428.176H1392.79V442.882H1378.08V428.176ZM1378.08 413.471H1392.79V428.176H1378.08V413.471ZM1363.37 413.471H1378.08V428.176H1363.37V413.471ZM1363.37 398.765H1378.08V413.471H1363.37V398.765ZM1363.37 384.059H1378.08V398.765H1363.37V384.059ZM1363.37 369.353H1378.08V384.059H1363.37V369.353ZM1363.37 354.647H1378.08V369.353H1363.37V354.647ZM1363.37 339.941H1378.08V354.647H1363.37V339.941ZM1363.37 325.235H1378.08V339.941H1363.37V325.235ZM1378.08 325.235H1392.79V339.941H1378.08V325.235ZM1378.08 339.941H1392.79V354.647H1378.08V339.941ZM1378.08 354.647H1392.79V369.353H1378.08V354.647ZM1378.08 369.353H1392.79V384.059H1378.08V369.353ZM1378.08 384.059H1392.79V398.765H1378.08V384.059ZM1378.08 398.765H1392.79V413.471H1378.08V398.765ZM1392.79 413.471H1407.49V428.176H1392.79V413.471ZM1392.79 398.765H1407.49V413.471H1392.79V398.765ZM1392.79 384.059H1407.49V398.765H1392.79V384.059ZM1392.79 369.353H1407.49V384.059H1392.79V369.353ZM1392.79 354.647H1407.49V369.353H1392.79V354.647ZM1392.79 339.941H1407.49V354.647H1392.79V339.941ZM1392.79 325.235H1407.49V339.941H1392.79V325.235ZM1363.37 472.294H1378.08V487H1363.37V472.294ZM1304.55 281.118H1319.26V295.824H1304.55V281.118ZM1304.55 295.824H1319.26V310.529H1304.55V295.824ZM1304.55 310.529H1319.26V325.235H1304.55V310.529ZM1319.26 281.118H1333.96V295.824H1319.26V281.118ZM1333.96 281.118H1348.67V295.824H1333.96V281.118ZM1348.67 281.118H1363.37V295.824H1348.67V281.118ZM1348.67 295.824H1363.37V310.529H1348.67V295.824ZM1333.96 295.824H1348.67V310.529H1333.96V295.824ZM1319.26 295.824H1333.96V310.529H1319.26V295.824ZM1378.08 472.294H1392.79V487H1378.08V472.294ZM1392.79 472.294H1407.49V487H1392.79V472.294ZM1407.49 472.294H1422.2V487H1407.49V472.294ZM1407.49 457.588H1422.2V472.294H1407.49V457.588ZM1407.49 442.882H1422.2V457.588H1407.49V442.882ZM1245.73 266.412H1260.43V281.118H1245.73V266.412ZM1319.26 310.529H1333.96V325.235H1319.26V310.529ZM1524.91 266.412H1539.61V281.118H1524.91V266.412ZM1539.61 266.412H1554.32V281.118H1539.61V266.412ZM1510.2 266.412H1524.91V281.118H1510.2V266.412ZM1554.32 266.412H1569.03V281.118H1554.32V266.412ZM1569.03 266.412H1583.73V281.118H1569.03V266.412ZM1583.73 266.412H1598.44V281.118H1583.73V266.412ZM1598.44 266.412H1613.14V281.118H1598.44V266.412ZM1613.14 281.118H1627.85V295.824H1613.14V281.118ZM1598.44 281.118H1613.14V295.824H1598.44V281.118ZM1598.44 295.824H1613.14V310.529H1598.44V295.824ZM1627.85 281.118H1642.56V295.824H1627.85V281.118ZM1627.85 295.824H1642.56V310.529H1627.85V295.824ZM1613.14 295.824H1627.85V310.529H1613.14V295.824ZM1598.44 310.529H1613.14V325.235H1598.44V310.529ZM1583.73 310.529H1598.44V325.235H1583.73V310.529ZM1613.14 310.529H1627.85V325.235H1613.14V310.529ZM1627.85 310.529H1642.56V325.235H1627.85V310.529ZM1642.56 310.529H1657.26V325.235H1642.56V310.529ZM1642.56 325.235H1657.26V339.941H1642.56V325.235ZM1642.56 339.941H1657.26V354.647H1642.56V339.941ZM1642.56 354.647H1657.26V369.353H1642.56V354.647ZM1642.56 369.353H1657.26V384.059H1642.56V369.353ZM1642.56 384.059H1657.26V398.765H1642.56V384.059ZM1642.56 398.765H1657.26V413.471H1642.56V398.765ZM1642.56 413.471H1657.26V428.176H1642.56V413.471ZM1642.56 428.176H1657.26V442.882H1642.56V428.176ZM1627.85 428.176H1642.56V442.882H1627.85V428.176ZM1627.85 442.882H1642.56V457.588H1627.85V442.882ZM1627.85 457.588H1642.56V472.294H1627.85V457.588ZM1613.14 457.588H1627.85V472.294H1613.14V457.588ZM1598.44 457.588H1613.14V472.294H1598.44V457.588ZM1583.73 442.882H1598.44V457.588H1583.73V442.882ZM1583.73 428.176H1598.44V442.882H1583.73V428.176ZM1598.44 428.176H1613.14V442.882H1598.44V428.176ZM1598.44 442.882H1613.14V457.588H1598.44V442.882ZM1613.14 442.882H1627.85V457.588H1613.14V442.882ZM1613.14 428.176H1627.85V442.882H1613.14V428.176ZM1613.14 413.471H1627.85V428.176H1613.14V413.471ZM1598.44 413.471H1613.14V428.176H1598.44V413.471ZM1598.44 398.765H1613.14V413.471H1598.44V398.765ZM1598.44 384.059H1613.14V398.765H1598.44V384.059ZM1598.44 369.353H1613.14V384.059H1598.44V369.353ZM1598.44 354.647H1613.14V369.353H1598.44V354.647ZM1598.44 339.941H1613.14V354.647H1598.44V339.941ZM1598.44 325.235H1613.14V339.941H1598.44V325.235ZM1613.14 325.235H1627.85V339.941H1613.14V325.235ZM1613.14 339.941H1627.85V354.647H1613.14V339.941ZM1613.14 354.647H1627.85V369.353H1613.14V354.647ZM1613.14 369.353H1627.85V384.059H1613.14V369.353ZM1613.14 384.059H1627.85V398.765H1613.14V384.059ZM1613.14 398.765H1627.85V413.471H1613.14V398.765ZM1627.85 413.471H1642.56V428.176H1627.85V413.471ZM1627.85 398.765H1642.56V413.471H1627.85V398.765ZM1627.85 384.059H1642.56V398.765H1627.85V384.059ZM1627.85 369.353H1642.56V384.059H1627.85V369.353ZM1627.85 354.647H1642.56V369.353H1627.85V354.647ZM1627.85 339.941H1642.56V354.647H1627.85V339.941ZM1627.85 325.235H1642.56V339.941H1627.85V325.235ZM1583.73 457.588H1598.44V472.294H1583.73V457.588ZM1583.73 472.294H1598.44V487H1583.73V472.294ZM1598.44 472.294H1613.14V487H1598.44V472.294ZM1569.03 472.294H1583.73V487H1569.03V472.294ZM1554.32 472.294H1569.03V487H1554.32V472.294ZM1539.61 472.294H1554.32V487H1539.61V472.294ZM1524.91 472.294H1539.61V487H1524.91V472.294ZM1510.2 472.294H1524.91V487H1510.2V472.294ZM1510.2 457.588H1524.91V472.294H1510.2V457.588ZM1495.5 457.588H1510.2V472.294H1495.5V457.588ZM1480.79 457.588H1495.5V472.294H1480.79V457.588ZM1480.79 442.882H1495.5V457.588H1480.79V442.882ZM1466.08 428.176H1480.79V442.882H1466.08V428.176ZM1480.79 428.176H1495.5V442.882H1480.79V428.176ZM1466.08 413.471H1480.79V428.176H1466.08V413.471ZM1466.08 398.765H1480.79V413.471H1466.08V398.765ZM1466.08 384.059H1480.79V398.765H1466.08V384.059ZM1466.08 369.353H1480.79V384.059H1466.08V369.353ZM1466.08 354.647H1480.79V369.353H1466.08V354.647ZM1466.08 339.941H1480.79V354.647H1466.08V339.941ZM1480.79 339.941H1495.5V354.647H1480.79V339.941ZM1480.79 325.235H1495.5V339.941H1480.79V325.235ZM1466.08 325.235H1480.79V339.941H1466.08V325.235ZM1466.08 310.529H1480.79V325.235H1466.08V310.529ZM1480.79 310.529H1495.5V325.235H1480.79V310.529ZM1480.79 295.824H1495.5V310.529H1480.79V295.824ZM1480.79 281.118H1495.5V295.824H1480.79V281.118ZM1495.5 281.118H1510.2V295.824H1495.5V281.118ZM1510.2 281.118H1524.91V295.824H1510.2V281.118ZM1524.91 281.118H1539.61V295.824H1524.91V281.118ZM1524.91 295.824H1539.61V310.529H1524.91V295.824ZM1524.91 310.529H1539.61V325.235H1524.91V310.529ZM1510.2 310.529H1524.91V325.235H1510.2V310.529ZM1495.5 310.529H1510.2V325.235H1495.5V310.529ZM1510.2 325.235H1524.91V339.941H1510.2V325.235ZM1510.2 339.941H1524.91V354.647H1510.2V339.941ZM1510.2 354.647H1524.91V369.353H1510.2V354.647ZM1510.2 369.353H1524.91V384.059H1510.2V369.353ZM1510.2 384.059H1524.91V398.765H1510.2V384.059ZM1510.2 398.765H1524.91V413.471H1510.2V398.765ZM1510.2 413.471H1524.91V428.176H1510.2V413.471ZM1510.2 428.176H1524.91V442.882H1510.2V428.176ZM1524.91 428.176H1539.61V442.882H1524.91V428.176ZM1524.91 442.882H1539.61V457.588H1524.91V442.882ZM1539.61 442.882H1554.32V457.588H1539.61V442.882ZM1554.32 442.882H1569.03V457.588H1554.32V442.882ZM1569.03 442.882H1583.73V457.588H1569.03V442.882ZM1569.03 457.588H1583.73V472.294H1569.03V457.588ZM1554.32 457.588H1569.03V472.294H1554.32V457.588ZM1539.61 457.588H1554.32V472.294H1539.61V457.588ZM1524.91 457.588H1539.61V472.294H1524.91V457.588ZM1510.2 442.882H1524.91V457.588H1510.2V442.882ZM1495.5 442.882H1510.2V457.588H1495.5V442.882ZM1495.5 428.176H1510.2V442.882H1495.5V428.176ZM1495.5 413.471H1510.2V428.176H1495.5V413.471ZM1495.5 398.765H1510.2V413.471H1495.5V398.765ZM1480.79 398.765H1495.5V413.471H1480.79V398.765ZM1480.79 413.471H1495.5V428.176H1480.79V413.471ZM1480.79 384.059H1495.5V398.765H1480.79V384.059ZM1480.79 369.353H1495.5V384.059H1480.79V369.353ZM1480.79 354.647H1495.5V369.353H1480.79V354.647ZM1495.5 354.647H1510.2V369.353H1495.5V354.647ZM1495.5 369.353H1510.2V384.059H1495.5V369.353ZM1495.5 384.059H1510.2V398.765H1495.5V384.059ZM1495.5 339.941H1510.2V354.647H1495.5V339.941ZM1495.5 325.235H1510.2V339.941H1495.5V325.235ZM1495.5 295.824H1510.2V310.529H1495.5V295.824ZM1510.2 295.824H1524.91V310.529H1510.2V295.824ZM1539.61 281.118H1554.32V295.824H1539.61V281.118ZM1554.32 281.118H1569.03V295.824H1554.32V281.118ZM1569.03 281.118H1583.73V295.824H1569.03V281.118ZM1583.73 281.118H1598.44V295.824H1583.73V281.118ZM1583.73 295.824H1598.44V310.529H1583.73V295.824ZM1569.03 295.824H1583.73V310.529H1569.03V295.824ZM1554.32 295.824H1569.03V310.529H1554.32V295.824ZM1539.61 295.824H1554.32V310.529H1539.61V295.824ZM1701.44 266.412H1716.14V281.118H1701.44V266.412ZM1716.14 266.412H1730.85V281.118H1716.14V266.412ZM1730.85 266.412H1745.55V281.118H1730.85V266.412ZM1701.44 295.824H1716.14V310.529H1701.44V295.824ZM1701.44 281.118H1716.14V295.824H1701.44V281.118ZM1730.85 472.294H1745.55V487H1730.85V472.294ZM1716.14 472.294H1730.85V487H1716.14V472.294ZM1701.44 457.588H1716.14V472.294H1701.44V457.588ZM1701.44 442.882H1716.14V457.588H1701.44V442.882ZM1701.44 472.294H1716.14V487H1701.44V472.294ZM1774.97 266.412H1789.67V281.118H1774.97V266.412ZM1745.55 266.412H1760.26V281.118H1745.55V266.412ZM1789.67 266.412H1804.38V281.118H1789.67V266.412ZM1804.38 266.412H1819.08V281.118H1804.38V266.412ZM1819.08 266.412H1833.79V281.118H1819.08V266.412ZM1833.79 266.412H1848.5V281.118H1833.79V266.412ZM1848.5 281.118H1863.2V295.824H1848.5V281.118ZM1833.79 281.118H1848.5V295.824H1833.79V281.118ZM1833.79 295.824H1848.5V310.529H1833.79V295.824ZM1863.2 281.118H1877.91V295.824H1863.2V281.118ZM1863.2 295.824H1877.91V310.529H1863.2V295.824ZM1848.5 295.824H1863.2V310.529H1848.5V295.824ZM1833.79 310.529H1848.5V325.235H1833.79V310.529ZM1819.08 310.529H1833.79V325.235H1819.08V310.529ZM1848.5 310.529H1863.2V325.235H1848.5V310.529ZM1863.2 310.529H1877.91V325.235H1863.2V310.529ZM1877.91 310.529H1892.61V325.235H1877.91V310.529ZM1877.91 325.235H1892.61V339.941H1877.91V325.235ZM1877.91 339.941H1892.61V354.647H1877.91V339.941ZM1877.91 354.647H1892.61V369.353H1877.91V354.647ZM1877.91 369.353H1892.61V384.059H1877.91V369.353ZM1877.91 384.059H1892.61V398.765H1877.91V384.059ZM1877.91 398.765H1892.61V413.471H1877.91V398.765ZM1877.91 413.471H1892.61V428.176H1877.91V413.471ZM1877.91 428.176H1892.61V442.882H1877.91V428.176ZM1863.2 428.176H1877.91V442.882H1863.2V428.176ZM1863.2 442.882H1877.91V457.588H1863.2V442.882ZM1863.2 457.588H1877.91V472.294H1863.2V457.588ZM1848.5 457.588H1863.2V472.294H1848.5V457.588ZM1833.79 457.588H1848.5V472.294H1833.79V457.588ZM1833.79 428.176H1848.5V442.882H1833.79V428.176ZM1833.79 442.882H1848.5V457.588H1833.79V442.882ZM1848.5 442.882H1863.2V457.588H1848.5V442.882ZM1848.5 428.176H1863.2V442.882H1848.5V428.176ZM1848.5 413.471H1863.2V428.176H1848.5V413.471ZM1833.79 413.471H1848.5V428.176H1833.79V413.471ZM1833.79 398.765H1848.5V413.471H1833.79V398.765ZM1833.79 384.059H1848.5V398.765H1833.79V384.059ZM1833.79 369.353H1848.5V384.059H1833.79V369.353ZM1833.79 354.647H1848.5V369.353H1833.79V354.647ZM1833.79 339.941H1848.5V354.647H1833.79V339.941ZM1833.79 325.235H1848.5V339.941H1833.79V325.235ZM1848.5 325.235H1863.2V339.941H1848.5V325.235ZM1848.5 339.941H1863.2V354.647H1848.5V339.941ZM1848.5 354.647H1863.2V369.353H1848.5V354.647ZM1848.5 369.353H1863.2V384.059H1848.5V369.353ZM1848.5 384.059H1863.2V398.765H1848.5V384.059ZM1848.5 398.765H1863.2V413.471H1848.5V398.765ZM1863.2 413.471H1877.91V428.176H1863.2V413.471ZM1863.2 398.765H1877.91V413.471H1863.2V398.765ZM1863.2 384.059H1877.91V398.765H1863.2V384.059ZM1863.2 369.353H1877.91V384.059H1863.2V369.353ZM1863.2 354.647H1877.91V369.353H1863.2V354.647ZM1863.2 339.941H1877.91V354.647H1863.2V339.941ZM1863.2 325.235H1877.91V339.941H1863.2V325.235ZM1833.79 472.294H1848.5V487H1833.79V472.294ZM1745.55 472.294H1760.26V487H1745.55V472.294ZM1745.55 457.588H1760.26V472.294H1745.55V457.588ZM1730.85 457.588H1745.55V472.294H1730.85V457.588ZM1716.14 457.588H1730.85V472.294H1716.14V457.588ZM1716.14 339.941H1730.85V354.647H1716.14V339.941ZM1716.14 325.235H1730.85V339.941H1716.14V325.235ZM1701.44 310.529H1716.14V325.235H1701.44V310.529ZM1716.14 295.824H1730.85V310.529H1716.14V295.824ZM1730.85 281.118H1745.55V295.824H1730.85V281.118ZM1745.55 281.118H1760.26V295.824H1745.55V281.118ZM1760.26 281.118H1774.97V295.824H1760.26V281.118ZM1760.26 295.824H1774.97V310.529H1760.26V295.824ZM1760.26 310.529H1774.97V325.235H1760.26V310.529ZM1745.55 310.529H1760.26V325.235H1745.55V310.529ZM1730.85 310.529H1745.55V325.235H1730.85V310.529ZM1745.55 325.235H1760.26V339.941H1745.55V325.235ZM1745.55 339.941H1760.26V354.647H1745.55V339.941ZM1745.55 354.647H1760.26V369.353H1745.55V354.647ZM1745.55 442.882H1760.26V457.588H1745.55V442.882ZM1730.85 442.882H1745.55V457.588H1730.85V442.882ZM1730.85 339.941H1745.55V354.647H1730.85V339.941ZM1730.85 325.235H1745.55V339.941H1730.85V325.235ZM1730.85 295.824H1745.55V310.529H1730.85V295.824ZM1745.55 295.824H1760.26V310.529H1745.55V295.824ZM1774.97 281.118H1789.67V295.824H1774.97V281.118ZM1789.67 281.118H1804.38V295.824H1789.67V281.118ZM1804.38 281.118H1819.08V295.824H1804.38V281.118ZM1819.08 281.118H1833.79V295.824H1819.08V281.118ZM1819.08 295.824H1833.79V310.529H1819.08V295.824ZM1804.38 295.824H1819.08V310.529H1804.38V295.824ZM1789.67 295.824H1804.38V310.529H1789.67V295.824ZM1774.97 295.824H1789.67V310.529H1774.97V295.824ZM1716.14 281.118H1730.85V295.824H1716.14V281.118ZM1716.14 442.882H1730.85V457.588H1716.14V442.882ZM1716.14 310.529H1730.85V325.235H1716.14V310.529ZM1701.44 325.235H1716.14V339.941H1701.44V325.235ZM1701.44 339.941H1716.14V354.647H1701.44V339.941ZM1701.44 428.176H1716.14V442.882H1701.44V428.176ZM1716.14 428.176H1730.85V442.882H1716.14V428.176ZM1730.85 428.176H1745.55V442.882H1730.85V428.176ZM1745.55 428.176H1760.26V442.882H1745.55V428.176ZM1730.85 354.647H1745.55V369.353H1730.85V354.647ZM1716.14 354.647H1730.85V369.353H1716.14V354.647ZM1701.44 354.647H1716.14V369.353H1701.44V354.647ZM1701.44 369.353H1716.14V384.059H1701.44V369.353ZM1701.44 384.059H1716.14V398.765H1701.44V384.059ZM1701.44 398.765H1716.14V413.471H1701.44V398.765ZM1716.14 398.765H1730.85V413.471H1716.14V398.765ZM1716.14 413.471H1730.85V428.176H1716.14V413.471ZM1730.85 413.471H1745.55V428.176H1730.85V413.471ZM1701.44 413.471H1716.14V428.176H1701.44V413.471ZM1745.55 413.471H1760.26V428.176H1745.55V413.471ZM1745.55 398.765H1760.26V413.471H1745.55V398.765ZM1745.55 384.059H1760.26V398.765H1745.55V384.059ZM1745.55 369.353H1760.26V384.059H1745.55V369.353ZM1730.85 369.353H1745.55V384.059H1730.85V369.353ZM1716.14 369.353H1730.85V384.059H1716.14V369.353ZM1716.14 384.059H1730.85V398.765H1716.14V384.059ZM1730.85 398.765H1745.55V413.471H1730.85V398.765ZM1730.85 384.059H1745.55V398.765H1730.85V384.059ZM1848.5 472.294H1863.2V487H1848.5V472.294ZM1863.2 472.294H1877.91V487H1863.2V472.294ZM1877.91 472.294H1892.61V487H1877.91V472.294ZM1877.91 457.588H1892.61V472.294H1877.91V457.588ZM1877.91 442.882H1892.61V457.588H1877.91V442.882ZM2127.96 192.882V207.588H2113.26V192.882H2127.96ZM2113.26 192.882V207.588H2098.55V192.882H2113.26ZM2098.55 192.882V207.588H2083.85V192.882H2098.55ZM2083.85 192.882V207.588H2069.14V192.882H2083.85ZM2083.85 207.588V222.294H2069.14V207.588H2083.85ZM2083.85 222.294V237H2069.14V222.294H2083.85ZM2098.55 222.294V237H2083.85V222.294H2098.55ZM2113.26 222.294V237H2098.55V222.294H2113.26ZM2113.26 207.588V222.294H2098.55V207.588H2113.26ZM2127.96 207.588V222.294H2113.26V207.588H2127.96ZM2098.55 207.588V222.294H2083.85V207.588H2098.55ZM2127.96 222.294V237H2113.26V222.294H2127.96ZM2127.96 237V251.706H2113.26V237H2127.96ZM2127.96 251.706V266.412H2113.26V251.706H2127.96ZM2113.26 251.706V266.412H2098.55V251.706H2113.26ZM2098.55 251.706V266.412H2083.85V251.706H2098.55ZM2083.85 251.706V266.412H2069.14V251.706H2083.85ZM2083.85 237V251.706H2069.14V237H2083.85ZM2098.55 237V251.706H2083.85V237H2098.55ZM2113.26 237V251.706H2098.55V237H2113.26ZM2127.96 266.412V281.118H2113.26V266.412H2127.96ZM2113.26 266.412V281.118H2098.55V266.412H2113.26ZM2098.55 266.412V281.118H2083.85V266.412H2098.55ZM2127.96 295.824V310.529H2113.26V295.824H2127.96ZM2127.96 281.118V295.824H2113.26V281.118H2127.96ZM2098.55 472.294V487H2083.85V472.294H2098.55ZM2113.26 472.294V487H2098.55V472.294H2113.26ZM2127.96 457.588V472.294H2113.26V457.588H2127.96ZM2127.96 442.882V457.588H2113.26V442.882H2127.96ZM2127.96 472.294V487H2113.26V472.294H2127.96ZM2054.43 266.412V281.118H2039.73V266.412H2054.43ZM2083.85 266.412V281.118H2069.14V266.412H2083.85ZM2039.73 266.412V281.118H2025.02V266.412H2039.73ZM2025.02 266.412V281.118H2010.32V266.412H2025.02ZM2010.32 266.412V281.118H1995.61V266.412H2010.32ZM1995.61 266.412V281.118H1980.91V266.412H1995.61ZM1980.91 281.118V295.824H1966.2V281.118H1980.91ZM1995.61 281.118V295.824H1980.91V281.118H1995.61ZM1995.61 295.824V310.529H1980.91V295.824H1995.61ZM1966.2 281.118V295.824H1951.49V281.118H1966.2ZM1966.2 295.824V310.529H1951.49V295.824H1966.2ZM1980.91 295.824V310.529H1966.2V295.824H1980.91ZM1995.61 310.529V325.235H1980.91V310.529H1995.61ZM2010.32 310.529V325.235H1995.61V310.529H2010.32ZM1980.91 310.529V325.235H1966.2V310.529H1980.91ZM1966.2 310.529V325.235H1951.49V310.529H1966.2ZM1951.49 310.529V325.235H1936.79V310.529H1951.49ZM1951.49 325.235V339.941H1936.79V325.235H1951.49ZM1951.49 339.941V354.647H1936.79V339.941H1951.49ZM1951.49 354.647V369.353H1936.79V354.647H1951.49ZM1951.49 369.353V384.059H1936.79V369.353H1951.49ZM1951.49 384.059V398.765H1936.79V384.059H1951.49ZM1951.49 398.765V413.471H1936.79V398.765H1951.49ZM1951.49 413.471V428.176H1936.79V413.471H1951.49ZM1951.49 428.176V442.882H1936.79V428.176H1951.49ZM1966.2 428.176V442.882H1951.49V428.176H1966.2ZM1966.2 442.882V457.588H1951.49V442.882H1966.2ZM1966.2 457.588V472.294H1951.49V457.588H1966.2ZM1980.91 457.588V472.294H1966.2V457.588H1980.91ZM1995.61 457.588V472.294H1980.91V457.588H1995.61ZM2010.32 442.882V457.588H1995.61V442.882H2010.32ZM2010.32 428.176V442.882H1995.61V428.176H2010.32ZM1995.61 428.176V442.882H1980.91V428.176H1995.61ZM1995.61 442.882V457.588H1980.91V442.882H1995.61ZM1980.91 442.882V457.588H1966.2V442.882H1980.91ZM1980.91 428.176V442.882H1966.2V428.176H1980.91ZM1980.91 413.471V428.176H1966.2V413.471H1980.91ZM1995.61 413.471V428.176H1980.91V413.471H1995.61ZM1995.61 398.765V413.471H1980.91V398.765H1995.61ZM1995.61 384.059V398.765H1980.91V384.059H1995.61ZM1995.61 369.353V384.059H1980.91V369.353H1995.61ZM1995.61 354.647V369.353H1980.91V354.647H1995.61ZM1995.61 339.941V354.647H1980.91V339.941H1995.61ZM1995.61 325.235V339.941H1980.91V325.235H1995.61ZM1980.91 325.235V339.941H1966.2V325.235H1980.91ZM1980.91 339.941V354.647H1966.2V339.941H1980.91ZM1980.91 354.647V369.353H1966.2V354.647H1980.91ZM1980.91 369.353V384.059H1966.2V369.353H1980.91ZM1980.91 384.059V398.765H1966.2V384.059H1980.91ZM1980.91 398.765V413.471H1966.2V398.765H1980.91ZM1966.2 413.471V428.176H1951.49V413.471H1966.2ZM1966.2 398.765V413.471H1951.49V398.765H1966.2ZM1966.2 384.059V398.765H1951.49V384.059H1966.2ZM1966.2 369.353V384.059H1951.49V369.353H1966.2ZM1966.2 354.647V369.353H1951.49V354.647H1966.2ZM1966.2 339.941V354.647H1951.49V339.941H1966.2ZM1966.2 325.235V339.941H1951.49V325.235H1966.2ZM2010.32 457.588V472.294H1995.61V457.588H2010.32ZM2010.32 472.294V487H1995.61V472.294H2010.32ZM1995.61 472.294V487H1980.91V472.294H1995.61ZM2025.02 472.294V487H2010.32V472.294H2025.02ZM2039.73 472.294V487H2025.02V472.294H2039.73ZM2054.43 472.294V487H2039.73V472.294H2054.43ZM2083.85 472.294V487H2069.14V472.294H2083.85ZM2083.85 457.588V472.294H2069.14V457.588H2083.85ZM2098.55 457.588V472.294H2083.85V457.588H2098.55ZM2113.26 457.588V472.294H2098.55V457.588H2113.26ZM2113.26 339.941V354.647H2098.55V339.941H2113.26ZM2113.26 325.235V339.941H2098.55V325.235H2113.26ZM2127.96 310.529V325.235H2113.26V310.529H2127.96ZM2113.26 295.824V310.529H2098.55V295.824H2113.26ZM2098.55 281.118V295.824H2083.85V281.118H2098.55ZM2083.85 281.118V295.824H2069.14V281.118H2083.85ZM2069.14 281.118V295.824H2054.43V281.118H2069.14ZM2069.14 295.824V310.529H2054.43V295.824H2069.14ZM2083.85 310.529V325.235H2069.14V310.529H2083.85ZM2098.55 310.529V325.235H2083.85V310.529H2098.55ZM2083.85 325.235V339.941H2069.14V325.235H2083.85ZM2083.85 339.941V354.647H2069.14V339.941H2083.85ZM2083.85 354.647V369.353H2069.14V354.647H2083.85ZM2054.43 442.882V457.588H2039.73V442.882H2054.43ZM2039.73 442.882V457.588H2025.02V442.882H2039.73ZM2025.02 442.882V457.588H2010.32V442.882H2025.02ZM2025.02 457.588V472.294H2010.32V457.588H2025.02ZM2039.73 457.588V472.294H2025.02V457.588H2039.73ZM2054.43 457.588V472.294H2039.73V457.588H2054.43ZM2069.14 457.588V472.294H2054.43V457.588H2069.14ZM2083.85 442.882V457.588H2069.14V442.882H2083.85ZM2098.55 442.882V457.588H2083.85V442.882H2098.55ZM2098.55 339.941V354.647H2083.85V339.941H2098.55ZM2098.55 325.235V339.941H2083.85V325.235H2098.55ZM2098.55 295.824V310.529H2083.85V295.824H2098.55ZM2083.85 295.824V310.529H2069.14V295.824H2083.85ZM2054.43 281.118V295.824H2039.73V281.118H2054.43ZM2039.73 281.118V295.824H2025.02V281.118H2039.73ZM2025.02 281.118V295.824H2010.32V281.118H2025.02ZM2010.32 281.118V295.824H1995.61V281.118H2010.32ZM2010.32 295.824V310.529H1995.61V295.824H2010.32ZM2025.02 295.824V310.529H2010.32V295.824H2025.02ZM2039.73 295.824V310.529H2025.02V295.824H2039.73ZM2054.43 295.824V310.529H2039.73V295.824H2054.43ZM2113.26 281.118V295.824H2098.55V281.118H2113.26ZM2113.26 442.882V457.588H2098.55V442.882H2113.26ZM2113.26 310.529V325.235H2098.55V310.529H2113.26ZM2127.96 325.235V339.941H2113.26V325.235H2127.96ZM2127.96 339.941V354.647H2113.26V339.941H2127.96ZM2127.96 428.176V442.882H2113.26V428.176H2127.96ZM2113.26 428.176V442.882H2098.55V428.176H2113.26ZM2098.55 428.176V442.882H2083.85V428.176H2098.55ZM2083.85 428.176V442.882H2069.14V428.176H2083.85ZM2098.55 354.647V369.353H2083.85V354.647H2098.55ZM2113.26 354.647V369.353H2098.55V354.647H2113.26ZM2127.96 354.647V369.353H2113.26V354.647H2127.96ZM2127.96 369.353V384.059H2113.26V369.353H2127.96ZM2127.96 384.059V398.765H2113.26V384.059H2127.96ZM2127.96 398.765V413.471H2113.26V398.765H2127.96ZM2113.26 398.765V413.471H2098.55V398.765H2113.26ZM2113.26 413.471V428.176H2098.55V413.471H2113.26ZM2098.55 413.471V428.176H2083.85V413.471H2098.55ZM2127.96 413.471V428.176H2113.26V413.471H2127.96ZM2083.85 413.471V428.176H2069.14V413.471H2083.85ZM2083.85 398.765V413.471H2069.14V398.765H2083.85ZM2083.85 384.059V398.765H2069.14V384.059H2083.85ZM2083.85 369.353V384.059H2069.14V369.353H2083.85ZM2098.55 369.353V384.059H2083.85V369.353H2098.55ZM2113.26 369.353V384.059H2098.55V369.353H2113.26ZM2113.26 384.059V398.765H2098.55V384.059H2113.26ZM2098.55 398.765V413.471H2083.85V398.765H2098.55ZM2098.55 384.059V398.765H2083.85V384.059H2098.55ZM2054.43 266.412H2069.14V281.118H2054.43V266.412ZM2054.43 442.882H2069.14V457.588H2054.43V442.882ZM2054.43 428.176H2069.14V442.882H2054.43V428.176ZM2186.85 428.176H2201.55V442.882H2186.85V428.176ZM2201.55 428.176H2216.26V442.882H2201.55V428.176ZM2216.26 428.176H2230.96V442.882H2216.26V428.176ZM2216.26 442.882H2230.96V457.588H2216.26V442.882ZM2216.26 457.588H2230.96V472.294H2216.26V457.588ZM2216.26 472.294H2230.96V487H2216.26V472.294ZM2201.55 472.294H2216.26V487H2201.55V472.294ZM2186.85 472.294H2201.55V487H2186.85V472.294ZM2172.14 472.294H2186.85V487H2172.14V472.294ZM2172.14 457.588H2186.85V472.294H2172.14V457.588ZM2172.14 442.882H2186.85V457.588H2172.14V442.882ZM2172.14 428.176H2186.85V442.882H2172.14V428.176ZM2186.85 442.882H2201.55V457.588H2186.85V442.882ZM2201.55 442.882H2216.26V457.588H2201.55V442.882ZM2186.85 457.588H2201.55V472.294H2186.85V457.588ZM2201.55 457.588H2216.26V472.294H2201.55V457.588Z" fill="#354770"/>
</svg>
